<svg id="Layer_1" data-name="Layer 1" xmlns="http://www.w3.org/2000/svg" xmlns:xlink="http://www.w3.org/1999/xlink" viewBox="0 0 1920 1080"><defs><style>.cls-1{fill:url(#linear-gradient);}.cls-2{fill:#fff;}</style><linearGradient id="linear-gradient" x1="576.13" y1="238.66" x2="576.13" y2="753.34" gradientUnits="userSpaceOnUse"><stop offset="0" stop-color="#fbb03b"/><stop offset="1" stop-color="#ea772a"/></linearGradient></defs><title>2019</title><path class="cls-1" d="M555.65,723.78,541.7,752.61s-44.07-14.69-44.07-55.82c0-52,34.15-58.76,53.25-58.76,35.44,0,70.7,53.43,70.7,53.43V635.27h30.29V753.34h-8.63s-64.45-78-92.36-78c-5.51,0-24,1.29-24,21.49C526.83,713.31,555.65,723.78,555.65,723.78Z"/><path class="cls-1" d="M497.63,540c0-32.5,26.07-61.52,78.59-61.52,56.19,0,78.41,29,78.41,61.52s-22.22,61.7-78.41,61.7C523.7,601.68,497.63,572.48,497.63,540Zm126.7,0c0-16.53-15.42-26.63-48.11-26.63-30.67,0-48.29,10.1-48.29,26.63,0,16.71,17.81,26.81,48.29,26.81C608.91,566.79,624.33,556.69,624.33,540Z"/><path class="cls-1" d="M528.29,449.64l-27.91-43.15V390.15H651.87v34.52H546.29l16.16,25Z"/><path class="cls-1" d="M599.91,296.14s2.2,3.85,2.2,10.83c0,20.75-17.81,48.29-53.07,48.29-35.8,0-51.41-28.82-51.41-56.18,0-34,22.4-60.42,51.41-60.42,26.63,0,38.93,8.08,60.42,23.87l42.41,35.63v42.6Zm-73.82,1.28c0,13.41,9.73,23.32,22.95,23.32,13.59,0,23.51-10.28,23.51-23.32,0-12.67-9.92-22.95-23.51-22.95C535.82,274.47,526.09,284,526.09,297.42Z"/><path class="cls-2" d="M822.19,348.14H794.63l-8.32-22.51H743.48l-8.33,22.51H707.6L753,235.6h23.74ZM765,270.39h-.27l-12.55,32.74h25.37Z"/><path class="cls-2" d="M865.84,348.14H840.19V235.6h25.65l44.74,69.85h.28V235.6H936.5V348.14H910.86L866.11,278.3h-.27Z"/><path class="cls-2" d="M992.16,348.14H966.51V235.6h25.65l44.74,69.85h.28V235.6h25.64V348.14h-25.64L992.43,278.3h-.27Z"/><path class="cls-2" d="M1179.32,308.17c0,27.83-15.28,42-43.93,42s-43.92-14.19-43.92-42V235.6h25.65v65.07c0,18.83,5.72,24.28,18.27,24.28s18.28-5.45,18.28-24.28V235.6h25.65Z"/><path class="cls-2" d="M1310.55,348.14H1283l-8.32-22.51h-42.83l-8.32,22.51H1196l45.43-112.54h23.73Zm-57.16-77.75h-.27l-12.55,32.74h25.37Z"/><path class="cls-2" d="M1354.2,325.63H1393v22.51h-64.39V235.6h25.64Z"/><path class="cls-2" d="M752.21,399.3C783,399.3,809,422.76,809,455.5s-25.78,56.34-56.74,56.34H719.6V399.3Zm-3,89.62c19,0,31.93-14.46,32.06-33.28s-13-33.42-32.06-33.42h-4v66.7Z"/><path class="cls-2" d="M936.5,511.84H909l-8.33-22.51H857.79l-8.32,22.51H821.91L867.34,399.3h23.74Zm-57.16-77.75h-.27l-12.55,32.73h25.37Z"/><path class="cls-2" d="M940.87,399.3H1020v22.51H993.25v90H967.61v-90H940.87Z"/><path class="cls-2" d="M1138.94,511.84h-27.55l-8.32-22.51h-42.84l-8.32,22.51h-27.55l45.42-112.54h23.74Zm-57.15-77.75h-.28L1069,466.82h25.38Z"/><path class="cls-2" d="M759.84,563c20.88,0,36.7,11.32,36.7,33.42,0,16.92-9.28,28.24-23,32.6l38.74,46.52h-32.6l-34.38-44.47v44.47H719.6V563Zm-11.59,49.93c9.68,0,21.28-.69,21.28-14.74s-11.6-14.73-21.28-14.73h-3v29.47Z"/><path class="cls-2" d="M895.3,585.51H856.56v22.37h37.11v22.51H856.56V653H895.3v22.51H830.92V563H895.3Z"/><path class="cls-2" d="M911.67,563h28.92L969,636.94,997.34,563h28.92l-47.2,112.54H958.87Z"/><path class="cls-2" d="M1069.91,675.54h-25.64V563h25.64Z"/><path class="cls-2" d="M1164.31,585.51h-38.74v22.37h37.11v22.51h-37.11V653h38.74v22.51h-64.38V563h64.38Z"/><path class="cls-2" d="M1261,612.38l-18,63.16h-28.51l-32-112.54H1211l19.23,77.21h.68L1251.35,563h19.37l20.46,77.21h.68L1311.09,563h28.38l-32.06,112.54H1279Z"/><path class="cls-2" d="M734,718.44v35h-2.55v-32.7h-8.55v-2.3Z"/><path class="cls-2" d="M762.46,735.77a9,9,0,0,1,3.45,7.57,10.25,10.25,0,0,1-1.38,5.33,9.5,9.5,0,0,1-4.12,3.67,15.27,15.27,0,0,1-6.75,1.35,19.34,19.34,0,0,1-7.13-1.3,13,13,0,0,1-5.17-3.4l1.3-2a11.86,11.86,0,0,0,4.57,3.1,16.66,16.66,0,0,0,6.38,1.2c3.13,0,5.54-.71,7.22-2.15a7.18,7.18,0,0,0,2.53-5.75,6.91,6.91,0,0,0-2.88-6c-1.92-1.36-5.14-2.05-9.67-2.05h-7.1l1.85-16.95h18.55v2.3h-16.4l-1.35,12.35h5Q759,733.09,762.46,735.77Z"/><path class="cls-2" d="M779.51,718.44v35H777v-32.7h-8.55v-2.3Z"/><path class="cls-2" d="M810.08,751.39a17,17,0,0,1-6.5-6.35,18.66,18.66,0,0,1,0-18.2,17,17,0,0,1,6.5-6.35,18.75,18.75,0,0,1,9.28-2.3,19.39,19.39,0,0,1,7,1.23,14.48,14.48,0,0,1,5.45,3.62l-1.6,1.65a14.69,14.69,0,0,0-10.75-4.15,16.21,16.21,0,0,0-8,2,14.65,14.65,0,0,0-5.65,5.53,16.15,16.15,0,0,0,0,15.75,14.55,14.55,0,0,0,5.65,5.52,16.1,16.1,0,0,0,8,2,14.68,14.68,0,0,0,10.75-4.2l1.6,1.65a14.62,14.62,0,0,1-5.48,3.65,19,19,0,0,1-7,1.25A18.65,18.65,0,0,1,810.08,751.39Z"/><path class="cls-2" d="M861.46,727.34v26.1h-2.4v-5.6a9.7,9.7,0,0,1-3.85,4.28,11.44,11.44,0,0,1-6,1.52q-5.1,0-8-2.85c-1.94-1.9-2.9-4.63-2.9-8.2V727.34h2.5v15q0,4.41,2.25,6.7a8.44,8.44,0,0,0,6.35,2.3,9.07,9.07,0,0,0,7-2.75,10.37,10.37,0,0,0,2.58-7.4v-13.9Z"/><path class="cls-2" d="M891.76,728.82a12,12,0,0,1,4.62,4.7,13.93,13.93,0,0,1,1.68,6.87,13.77,13.77,0,0,1-1.68,6.85,12.2,12.2,0,0,1-4.62,4.7,12.93,12.93,0,0,1-6.6,1.7,12.12,12.12,0,0,1-6.33-1.67,11.41,11.41,0,0,1-4.37-4.68v6.15h-2.4v-37.1h2.5v16.95a11.2,11.2,0,0,1,4.35-4.52,12.24,12.24,0,0,1,6.25-1.63A13.12,13.12,0,0,1,891.76,728.82ZM890.41,750a10,10,0,0,0,3.77-3.9,12.46,12.46,0,0,0,0-11.4,10.1,10.1,0,0,0-3.77-3.9,10.55,10.55,0,0,0-5.4-1.4,10.43,10.43,0,0,0-5.38,1.4,10.19,10.19,0,0,0-3.75,3.9,12.54,12.54,0,0,0,0,11.4,10.05,10.05,0,0,0,3.75,3.9,10.33,10.33,0,0,0,5.38,1.4A10.45,10.45,0,0,0,890.41,750Z"/><path class="cls-2" d="M922,729.62q2.6,2.48,2.6,7.27v16.55h-2.4v-4.65a8.66,8.66,0,0,1-3.66,3.58,12.06,12.06,0,0,1-5.75,1.27,10.58,10.58,0,0,1-6.87-2,7.09,7.09,0,0,1-.2-10.67q2.33-2,7.43-2h8.95v-2.1a7.35,7.35,0,0,0-2-5.55,8,8,0,0,0-5.77-1.9,13.91,13.91,0,0,0-5,.9,12.49,12.49,0,0,0-4,2.4l-1.25-1.8a14,14,0,0,1,4.69-2.72,17.11,17.11,0,0,1,5.75-1C917.74,727.14,920.22,728,922,729.62Zm-3.33,20.47a9.13,9.13,0,0,0,3.43-4.35v-4.9h-8.9q-3.85,0-5.58,1.4a4.7,4.7,0,0,0-1.72,3.85,4.84,4.84,0,0,0,1.89,4,8.61,8.61,0,0,0,5.36,1.47A9.82,9.82,0,0,0,918.63,750.09Z"/><path class="cls-2" d="M950.38,752.37a14.09,14.09,0,0,1-5.43-3.43l1.15-1.9a13.7,13.7,0,0,0,5,3.18,17.74,17.74,0,0,0,6.57,1.22c3.34,0,5.85-.63,7.55-1.9a5.88,5.88,0,0,0,2.55-4.95,5.2,5.2,0,0,0-1.35-3.75,8.92,8.92,0,0,0-3.35-2.15,47,47,0,0,0-5.4-1.55,52.29,52.29,0,0,1-6.17-1.85,9.82,9.82,0,0,1-4-2.77,7.44,7.44,0,0,1-1.63-5,8.54,8.54,0,0,1,1.35-4.67,9.21,9.21,0,0,1,4.13-3.38,16.92,16.92,0,0,1,6.92-1.25,19.68,19.68,0,0,1,5.7.85,16.9,16.9,0,0,1,4.85,2.3l-1,2a16.39,16.39,0,0,0-4.62-2.2,17.39,17.39,0,0,0-5-.75q-4.84,0-7.35,1.95a6.14,6.14,0,0,0-2.5,5.05,5.16,5.16,0,0,0,1.35,3.75,8.87,8.87,0,0,0,3.35,2.15,49.79,49.79,0,0,0,5.45,1.6,51.94,51.94,0,0,1,6.15,1.85,10,10,0,0,1,3.93,2.73,7.15,7.15,0,0,1,1.62,4.92,8.28,8.28,0,0,1-1.37,4.65,9.37,9.37,0,0,1-4.23,3.35,17.29,17.29,0,0,1-7,1.25A20.47,20.47,0,0,1,950.38,752.37Z"/><path class="cls-2" d="M991.1,751.79a6.29,6.29,0,0,1-2.37,1.38,9.53,9.53,0,0,1-3,.47,6.47,6.47,0,0,1-7.1-7.1v-17h-4.8v-2.15h4.8v-5.7h2.5v5.7h8.3v2.15h-8.3v16.8a5.51,5.51,0,0,0,1.23,3.88,4.7,4.7,0,0,0,3.62,1.32,5.76,5.76,0,0,0,4-1.45Z"/><path class="cls-2" d="M1004.2,728.67a11.85,11.85,0,0,1,6.2-1.53v2.45l-.6-.05a8.68,8.68,0,0,0-6.8,2.73q-2.44,2.73-2.45,7.57v13.6h-2.5v-26.1h2.4V733A9,9,0,0,1,1004.2,728.67Z"/><path class="cls-2" d="M1039.1,741h-22.45a11,11,0,0,0,1.55,5.43,9.92,9.92,0,0,0,3.93,3.67,11.76,11.76,0,0,0,5.57,1.3,11.91,11.91,0,0,0,4.73-.92,9.18,9.18,0,0,0,3.62-2.73l1.45,1.65a11,11,0,0,1-4.27,3.15,14.9,14.9,0,0,1-12.53-.6,12.31,12.31,0,0,1-4.77-4.7,13.49,13.49,0,0,1-1.73-6.85,14.23,14.23,0,0,1,1.63-6.82,12,12,0,0,1,4.47-4.73,12.93,12.93,0,0,1,12.78,0,11.91,11.91,0,0,1,4.45,4.67,14.09,14.09,0,0,1,1.62,6.8Zm-17.35-10.42a9.39,9.39,0,0,0-3.52,3.45,11.36,11.36,0,0,0-1.53,5h20a10.5,10.5,0,0,0-1.5-5,9.71,9.71,0,0,0-8.5-4.7A10,10,0,0,0,1021.75,730.57Z"/><path class="cls-2" d="M1069,741H1046.5a10.9,10.9,0,0,0,1.55,5.43,9.92,9.92,0,0,0,3.93,3.67,11.76,11.76,0,0,0,5.57,1.3,11.91,11.91,0,0,0,4.73-.92,9.18,9.18,0,0,0,3.62-2.73l1.45,1.65a11.08,11.08,0,0,1-4.27,3.15,14.9,14.9,0,0,1-12.53-.6,12.31,12.31,0,0,1-4.77-4.7,13.49,13.49,0,0,1-1.73-6.85,14.12,14.12,0,0,1,1.63-6.82,12,12,0,0,1,4.47-4.73,12.93,12.93,0,0,1,12.78,0,12,12,0,0,1,4.45,4.67,14.09,14.09,0,0,1,1.62,6.8Zm-17.35-10.42a9.39,9.39,0,0,0-3.52,3.45,11.24,11.24,0,0,0-1.53,5h20a10.5,10.5,0,0,0-1.5-5,9.71,9.71,0,0,0-8.5-4.7A10,10,0,0,0,1051.6,730.57Z"/><path class="cls-2" d="M1089.7,751.79a6.29,6.29,0,0,1-2.37,1.38,9.58,9.58,0,0,1-3,.47,7,7,0,0,1-5.25-1.87,7.13,7.13,0,0,1-1.85-5.23v-17h-4.8v-2.15h4.8v-5.7h2.5v5.7h8.3v2.15h-8.3v16.8a5.51,5.51,0,0,0,1.23,3.88,4.69,4.69,0,0,0,3.62,1.32,5.78,5.78,0,0,0,4.05-1.45Z"/><path class="cls-2" d="M1157.1,718.44l-11.85,35h-2.7L1131.7,722l-10.9,31.4h-2.7l-11.9-35h2.7l10.65,31.5,11-31.5H1133l10.9,31.55,10.75-31.55Z"/><path class="cls-2" d="M1183.7,741h-22.45a10.9,10.9,0,0,0,1.55,5.43,9.92,9.92,0,0,0,3.93,3.67,11.74,11.74,0,0,0,5.57,1.3,11.91,11.91,0,0,0,4.73-.92,9.25,9.25,0,0,0,3.62-2.73l1.45,1.65a11.08,11.08,0,0,1-4.27,3.15,14.9,14.9,0,0,1-12.53-.6,12.31,12.31,0,0,1-4.77-4.7,13.49,13.49,0,0,1-1.73-6.85,14.12,14.12,0,0,1,1.63-6.82,12,12,0,0,1,4.47-4.73,12.93,12.93,0,0,1,12.78,0,12,12,0,0,1,4.45,4.67,14.09,14.09,0,0,1,1.62,6.8Zm-17.35-10.42a9.32,9.32,0,0,0-3.52,3.45,11.11,11.11,0,0,0-1.53,5h20a10.5,10.5,0,0,0-1.5-5,9.71,9.71,0,0,0-8.5-4.7A10,10,0,0,0,1166.35,730.57Z"/><path class="cls-2" d="M1191.5,716.34h2.5v37.1h-2.5Z"/><path class="cls-2" d="M1204.55,716.34h2.5v37.1h-2.5Z"/><path class="cls-2" d="M1217.4,720.42a1.89,1.89,0,0,1-.6-1.43,2,2,0,0,1,2-2,2,2,0,0,1,1.45.58,1.89,1.89,0,0,1,.6,1.42,2,2,0,0,1-2.05,2A2,2,0,0,1,1217.4,720.42Zm.2,6.92h2.5v26.1h-2.5Z"/><path class="cls-2" d="M1251.15,730c1.9,1.9,2.85,4.64,2.85,8.2v15.25h-2.5V738.39q0-4.39-2.23-6.7a8.26,8.26,0,0,0-6.22-2.3,9.61,9.61,0,0,0-7.25,2.75,10.21,10.21,0,0,0-2.65,7.4v13.9h-2.5v-26.1h2.4V733a10,10,0,0,1,4-4.3,12.45,12.45,0,0,1,6.33-1.55A10.47,10.47,0,0,1,1251.15,730Z"/><path class="cls-2" d="M1287.85,727.34v23.3q0,6.51-3.15,9.6t-9.5,3.1a20.58,20.58,0,0,1-6.8-1.1,13.14,13.14,0,0,1-5.15-3l1.35-1.9a13.61,13.61,0,0,0,4.7,2.8,16.88,16.88,0,0,0,5.85,1q5.19,0,7.7-2.47c1.66-1.65,2.5-4.21,2.5-7.68v-4.4a11.08,11.08,0,0,1-4.45,4.4,13.12,13.12,0,0,1-6.4,1.55,13.62,13.62,0,0,1-6.63-1.62,11.9,11.9,0,0,1-4.67-4.53,13.47,13.47,0,0,1,0-13.1,11.82,11.82,0,0,1,4.67-4.5,13.83,13.83,0,0,1,6.63-1.6,13.32,13.32,0,0,1,6.5,1.6,11,11,0,0,1,4.45,4.5v-5.9Zm-7.65,21.58a9.64,9.64,0,0,0,3.82-3.7,10.59,10.59,0,0,0,1.38-5.43,10.48,10.48,0,0,0-1.38-5.4,9.71,9.71,0,0,0-3.82-3.67,11.44,11.44,0,0,0-5.5-1.33,11.28,11.28,0,0,0-5.48,1.33,9.72,9.72,0,0,0-3.8,3.67,10.48,10.48,0,0,0-1.37,5.4,10.59,10.59,0,0,0,1.37,5.43,9.66,9.66,0,0,0,3.8,3.7,11.27,11.27,0,0,0,5.48,1.32A11.44,11.44,0,0,0,1280.2,748.92Z"/><path class="cls-2" d="M1311.4,751.79a6.41,6.41,0,0,1-2.38,1.38,9.52,9.52,0,0,1-3,.47,6.47,6.47,0,0,1-7.1-7.1v-17h-4.8v-2.15h4.8v-5.7h2.5v5.7h8.3v2.15h-8.3v16.8a5.51,5.51,0,0,0,1.22,3.88,4.72,4.72,0,0,0,3.63,1.32,5.8,5.8,0,0,0,4-1.45Z"/><path class="cls-2" d="M1320.92,751.94a12.18,12.18,0,0,1-4.67-4.72,14.55,14.55,0,0,1,0-13.65,12.27,12.27,0,0,1,4.67-4.73,14,14,0,0,1,13.35,0,12.36,12.36,0,0,1,4.68,4.73,14.55,14.55,0,0,1,0,13.65,12.27,12.27,0,0,1-4.68,4.72,14,14,0,0,1-13.35,0Zm12-2a10.05,10.05,0,0,0,3.75-3.9,12.46,12.46,0,0,0,0-11.4,10.19,10.19,0,0,0-3.75-3.9,11,11,0,0,0-10.75,0,10.19,10.19,0,0,0-3.75,3.9,12.54,12.54,0,0,0,0,11.4,10.05,10.05,0,0,0,3.75,3.9,11,11,0,0,0,10.75,0Z"/><path class="cls-2" d="M1368.9,730c1.9,1.9,2.85,4.64,2.85,8.2v15.25h-2.5V738.39c0-2.93-.75-5.16-2.23-6.7a8.26,8.26,0,0,0-6.22-2.3,9.59,9.59,0,0,0-7.25,2.75,10.21,10.21,0,0,0-2.65,7.4v13.9h-2.5v-26.1h2.4V733a10,10,0,0,1,4-4.3,12.42,12.42,0,0,1,6.33-1.55A10.48,10.48,0,0,1,1368.9,730Z"/><path class="cls-2" d="M394.94,976.54a11.64,11.64,0,0,1-4.65-3.08l.8-1.06a11.06,11.06,0,0,0,4.29,2.89,15.53,15.53,0,0,0,5.87,1.12c3.08,0,5.41-.61,7-1.83a5.69,5.69,0,0,0,2.36-4.69,5.05,5.05,0,0,0-1.23-3.54,7.81,7.81,0,0,0-3-2,41.29,41.29,0,0,0-4.93-1.43,45.71,45.71,0,0,1-5.37-1.63,8.66,8.66,0,0,1-3.43-2.42,6.42,6.42,0,0,1-1.41-4.36,7.25,7.25,0,0,1,1.15-4,7.83,7.83,0,0,1,3.5-2.89,14.05,14.05,0,0,1,5.87-1.08,16.79,16.79,0,0,1,4.95.75,13,13,0,0,1,4.16,2.07l-.66,1.19a13.33,13.33,0,0,0-4-2,14.69,14.69,0,0,0-4.37-.69c-3,0-5.26.63-6.8,1.87a5.85,5.85,0,0,0-2.31,4.73,5,5,0,0,0,1.25,3.59,8.25,8.25,0,0,0,3.08,2,41.22,41.22,0,0,0,4.91,1.45,50.82,50.82,0,0,1,5.37,1.6,8.43,8.43,0,0,1,3.4,2.38,6.31,6.31,0,0,1,1.39,4.29,7.19,7.19,0,0,1-1.16,4,7.88,7.88,0,0,1-3.59,2.86,14.87,14.87,0,0,1-6,1.06A17.22,17.22,0,0,1,394.94,976.54Z"/><path class="cls-2" d="M424.46,976.21a10.56,10.56,0,0,1-4-4.12,12.9,12.9,0,0,1,0-12,10.62,10.62,0,0,1,4-4.12,11.56,11.56,0,0,1,5.83-1.47,11.71,11.71,0,0,1,4.82,1,8.82,8.82,0,0,1,3.63,2.93l-1.1.92a7.81,7.81,0,0,0-3.15-2.6,10.52,10.52,0,0,0-9.28.42,9.24,9.24,0,0,0-3.54,3.61,11.65,11.65,0,0,0,0,10.62,9.1,9.1,0,0,0,3.54,3.63,10,10,0,0,0,5.08,1.3,9.84,9.84,0,0,0,4.2-.88,7.79,7.79,0,0,0,3.15-2.59l1.1.88a8.88,8.88,0,0,1-3.63,2.92,11.71,11.71,0,0,1-4.82,1A11.56,11.56,0,0,1,424.46,976.21Z"/><path class="cls-2" d="M452.58,956a10.1,10.1,0,0,1,5.61-1.47V956h-.4a7.89,7.89,0,0,0-6.2,2.51,10,10,0,0,0-2.25,6.91v12.14h-1.45V954.71h1.41v5.5A8.28,8.28,0,0,1,452.58,956Z"/><path class="cls-2" d="M469.43,976.21a10.44,10.44,0,0,1-4-4.12,13.06,13.06,0,0,1,0-12,10.5,10.5,0,0,1,4-4.12,12,12,0,0,1,11.5,0,10.59,10.59,0,0,1,4,4.12,13.06,13.06,0,0,1,0,12,10.52,10.52,0,0,1-4,4.12,12,12,0,0,1-11.5,0Zm10.73-1.15a9.2,9.2,0,0,0,3.5-3.63,11.65,11.65,0,0,0,0-10.62,9.35,9.35,0,0,0-3.5-3.61,10.23,10.23,0,0,0-10,0,9.28,9.28,0,0,0-3.5,3.61,11.65,11.65,0,0,0,0,10.62,9.13,9.13,0,0,0,3.5,3.63,10.23,10.23,0,0,0,10,0Z"/><path class="cls-2" d="M495.76,944.9h1.45v32.65h-1.45Z"/><path class="cls-2" d="M509.18,944.9h1.45v32.65h-1.45Z"/><path class="cls-2" d="M536.68,946.75h11.88a17.86,17.86,0,0,1,8.52,2,14.42,14.42,0,0,1,5.76,5.48,16.47,16.47,0,0,1,0,15.88,14.42,14.42,0,0,1-5.76,5.48,17.86,17.86,0,0,1-8.52,2H536.68Zm11.79,29.44a16.35,16.35,0,0,0,7.86-1.81,12.92,12.92,0,0,0,5.21-5,15.09,15.09,0,0,0,0-14.48,13,13,0,0,0-5.21-5,16.46,16.46,0,0,0-7.86-1.8H538.18v28.07Z"/><path class="cls-2" d="M579.87,975.7a14.84,14.84,0,0,1-5.7-5.58,16.36,16.36,0,0,1,0-15.93,14.79,14.79,0,0,1,5.7-5.59,17.27,17.27,0,0,1,16.25,0,14.71,14.71,0,0,1,5.72,5.59,16.36,16.36,0,0,1,0,15.93,14.75,14.75,0,0,1-5.72,5.58,17.27,17.27,0,0,1-16.25,0Zm15.46-1.19a13.53,13.53,0,0,0,5.19-5.1,14.82,14.82,0,0,0,0-14.52,13.53,13.53,0,0,0-5.19-5.1,15.47,15.47,0,0,0-14.67,0,13.54,13.54,0,0,0-5.17,5.1,14.89,14.89,0,0,0,0,14.52,13.54,13.54,0,0,0,5.17,5.1,15.47,15.47,0,0,0,14.67,0Z"/><path class="cls-2" d="M653.72,946.75l-10.52,30.8h-1.49l-10-28.73-10,28.73h-1.54l-10.52-30.8h1.59l9.72,28.64,10-28.64h1.45l10,28.69,9.81-28.69Z"/><path class="cls-2" d="M687.38,946.75v30.8h-1.23l-21.87-28.07v28.07h-1.5v-30.8H664l21.86,28.07V946.75Z"/><path class="cls-2" d="M724.21,976.1a5.36,5.36,0,0,1-2,1.16,7.84,7.84,0,0,1-2.55.42,5.7,5.7,0,0,1-4.29-1.56,5.9,5.9,0,0,1-1.52-4.29V956h-4.31v-1.28h4.31v-5h1.46v5h7.52V956h-7.52v15.62a5,5,0,0,0,1.14,3.56,4.31,4.31,0,0,0,3.34,1.24,5.29,5.29,0,0,0,3.7-1.37Z"/><path class="cls-2" d="M734.88,976.21a10.44,10.44,0,0,1-4-4.12,13.06,13.06,0,0,1,0-12,10.5,10.5,0,0,1,4-4.12,12,12,0,0,1,11.5,0,10.59,10.59,0,0,1,4,4.12,13.06,13.06,0,0,1,0,12,10.52,10.52,0,0,1-4,4.12,12,12,0,0,1-11.5,0Zm10.73-1.15a9.2,9.2,0,0,0,3.5-3.63,11.65,11.65,0,0,0,0-10.62,9.35,9.35,0,0,0-3.5-3.61,10.23,10.23,0,0,0-10,0,9.28,9.28,0,0,0-3.5,3.61,11.65,11.65,0,0,0,0,10.62,9.13,9.13,0,0,0,3.5,3.63,10.23,10.23,0,0,0,10,0Z"/><path class="cls-2" d="M774.83,976.85a9.8,9.8,0,0,1-3.81-2.2l.71-1.15a11.85,11.85,0,0,0,3.63,2.07,13.27,13.27,0,0,0,4.73.84,9.43,9.43,0,0,0,5.45-1.26,4,4,0,0,0,1.76-3.5,3.32,3.32,0,0,0-.94-2.5,5.82,5.82,0,0,0-2.36-1.37,36.57,36.57,0,0,0-3.78-.88,34.49,34.49,0,0,1-4.42-1.08A6.6,6.6,0,0,1,773,964a4.85,4.85,0,0,1-1.14-3.43,5.37,5.37,0,0,1,2.13-4.33c1.43-1.16,3.5-1.74,6.23-1.74a14.31,14.31,0,0,1,4.22.64,10.14,10.14,0,0,1,3.44,1.69l-.75,1.14a10,10,0,0,0-3.19-1.6,12.88,12.88,0,0,0-3.77-.55,8.36,8.36,0,0,0-5.1,1.3,4.07,4.07,0,0,0-1.71,3.41,3.6,3.6,0,0,0,1,2.64,6,6,0,0,0,2.4,1.43,36.52,36.52,0,0,0,3.9.94,31.67,31.67,0,0,1,4.26,1,6.56,6.56,0,0,1,2.75,1.73,4.63,4.63,0,0,1,1.12,3.3,5.14,5.14,0,0,1-2.24,4.4q-2.24,1.63-6.47,1.63A16.21,16.21,0,0,1,774.83,976.85Z"/><path class="cls-2" d="M816.25,966.33h-20a10.51,10.51,0,0,0,1.37,5.19,9.3,9.3,0,0,0,3.63,3.57,11.19,11.19,0,0,0,9.48.41A8,8,0,0,0,814,973l.92,1a10.28,10.28,0,0,1-3.74,2.77,11.6,11.6,0,0,1-4.75,1,11.94,11.94,0,0,1-6-1.47,10.66,10.66,0,0,1-4.12-4.12,11.88,11.88,0,0,1-1.49-6,12.7,12.7,0,0,1,1.38-6,10.34,10.34,0,0,1,3.85-4.12,10.53,10.53,0,0,1,5.5-1.47,10.32,10.32,0,0,1,9.29,5.5,12.23,12.23,0,0,1,1.4,5.89Zm-15.31-9.28a8.84,8.84,0,0,0-3.3,3.32,10.46,10.46,0,0,0-1.36,4.77h18.61a10.64,10.64,0,0,0-1.43-4.77,9.14,9.14,0,0,0-3.3-3.32,8.91,8.91,0,0,0-4.6-1.19A9,9,0,0,0,800.94,957.05Z"/><path class="cls-2" d="M844.46,966.33h-20a10.5,10.5,0,0,0,1.36,5.19,9.3,9.3,0,0,0,3.63,3.57,11.19,11.19,0,0,0,9.48.41,8,8,0,0,0,3.26-2.53l.92,1a10.19,10.19,0,0,1-3.74,2.77,11.56,11.56,0,0,1-4.75,1,11.94,11.94,0,0,1-6-1.47,10.57,10.57,0,0,1-4.11-4.12,11.88,11.88,0,0,1-1.5-6,12.59,12.59,0,0,1,1.39-6,10.21,10.21,0,0,1,3.85-4.12,11,11,0,0,1,10.93,0,10.36,10.36,0,0,1,3.85,4,12.13,12.13,0,0,1,1.41,5.89Zm-15.31-9.28a8.84,8.84,0,0,0-3.3,3.32,10.34,10.34,0,0,0-1.37,4.77h18.61a10.52,10.52,0,0,0-1.43-4.77,9,9,0,0,0-3.3-3.32,8.88,8.88,0,0,0-4.59-1.19A9,9,0,0,0,829.15,957.05Z"/><path class="cls-2" d="M899.11,954.71l-8.72,22.84H889l-8.1-20.9-8.14,20.9h-1.27l-8.76-22.84h1.41l8,21.17,8.14-21.17h1.32l8.1,21.17,8-21.17Z"/><path class="cls-2" d="M924.19,957q2.46,2.49,2.46,7.11v13.42H925.2V964.22a8.6,8.6,0,0,0-2.05-6.18,7.67,7.67,0,0,0-5.83-2.14,9,9,0,0,0-6.73,2.53,9.34,9.34,0,0,0-2.46,6.8v12.32h-1.46V944.9h1.46v15.27a8.86,8.86,0,0,1,3.56-4.13,10.7,10.7,0,0,1,5.76-1.5A9.1,9.1,0,0,1,924.19,957Z"/><path class="cls-2" d="M952.1,956.65a8.15,8.15,0,0,1,2.18,6.12v14.78h-1.41V973a8,8,0,0,1-3.28,3.46,10.33,10.33,0,0,1-5.21,1.25,9.24,9.24,0,0,1-6-1.76,6.1,6.1,0,0,1-.2-9.17q2-1.74,6.33-1.74h8.32v-2.24a7,7,0,0,0-1.78-5.15,7.2,7.2,0,0,0-5.26-1.76,12.32,12.32,0,0,0-4.53.83,11.28,11.28,0,0,0-3.61,2.25l-.79-1.06a11.82,11.82,0,0,1,4-2.46,14,14,0,0,1,5-.88A8.63,8.63,0,0,1,952.1,956.65Zm.73,14.3V966.2h-8.32q-3.56,0-5.21,1.34a4.43,4.43,0,0,0-1.65,3.63,4.64,4.64,0,0,0,1.82,3.87,8,8,0,0,0,5,1.41Q950.64,976.45,952.83,971Z"/><path class="cls-2" d="M976.76,976.1a5.24,5.24,0,0,1-2,1.16,7.84,7.84,0,0,1-2.55.42,5.7,5.7,0,0,1-4.29-1.56,5.9,5.9,0,0,1-1.52-4.29V956h-4.31v-1.28h4.31v-5h1.45v5h7.53V956h-7.53v15.62a5,5,0,0,0,1.15,3.56,4.3,4.3,0,0,0,3.34,1.24A5.29,5.29,0,0,0,976,975Z"/><path class="cls-2" d="M1030.71,954.71,1022,977.55h-1.37l-8.09-20.9-8.14,20.9h-1.28l-8.76-22.84h1.41l8,21.17,8.14-21.17h1.32l8.09,21.17,8-21.17Z"/><path class="cls-2" d="M1056.45,966.33h-20a10.5,10.5,0,0,0,1.36,5.19,9.3,9.3,0,0,0,3.63,3.57,11.19,11.19,0,0,0,9.48.41,8,8,0,0,0,3.26-2.53l.92,1a10.19,10.19,0,0,1-3.74,2.77,11.56,11.56,0,0,1-4.75,1,11.94,11.94,0,0,1-6-1.47,10.57,10.57,0,0,1-4.11-4.12,11.88,11.88,0,0,1-1.5-6,12.59,12.59,0,0,1,1.39-6,10.21,10.21,0,0,1,3.85-4.12,11,11,0,0,1,10.93,0,10.36,10.36,0,0,1,3.85,4,12.13,12.13,0,0,1,1.41,5.89Zm-15.31-9.28a8.94,8.94,0,0,0-3.31,3.32,10.46,10.46,0,0,0-1.36,4.77h18.61a10.52,10.52,0,0,0-1.43-4.77,9,9,0,0,0-3.3-3.32,8.88,8.88,0,0,0-4.59-1.19A9,9,0,0,0,1041.14,957.05Z"/><path class="cls-2" d="M1082.12,947.26a5.07,5.07,0,0,0-1.12,3.58v3.87h7.52V956H1081v21.56h-1.45V956h-4.32v-1.28h4.32v-4a5.93,5.93,0,0,1,1.54-4.32,5.74,5.74,0,0,1,4.31-1.58,7.93,7.93,0,0,1,2.53.4,5.15,5.15,0,0,1,2,1.14l-.75,1.1a5.28,5.28,0,0,0-3.69-1.36A4.37,4.37,0,0,0,1082.12,947.26Z"/><path class="cls-2" d="M1097.78,976.21a10.48,10.48,0,0,1-4-4.12,13.06,13.06,0,0,1,0-12,10.55,10.55,0,0,1,4-4.12,12,12,0,0,1,11.51,0,10.5,10.5,0,0,1,4,4.12,13,13,0,0,1,0,12,10.43,10.43,0,0,1-4,4.12,12,12,0,0,1-11.51,0Zm10.74-1.15a9.2,9.2,0,0,0,3.5-3.63,11.74,11.74,0,0,0,0-10.62,9.35,9.35,0,0,0-3.5-3.61,10.25,10.25,0,0,0-10,0,9.35,9.35,0,0,0-3.5,3.61,11.74,11.74,0,0,0,0,10.62,9.2,9.2,0,0,0,3.5,3.63,10.25,10.25,0,0,0,10,0Z"/><path class="cls-2" d="M1143.65,954.71v22.84h-1.4V972a8.66,8.66,0,0,1-3.39,4.18,10.12,10.12,0,0,1-5.55,1.49,9.5,9.5,0,0,1-7-2.46c-1.67-1.64-2.51-4-2.51-7.09V954.71h1.46v13.34c0,2.7.69,4.76,2.09,6.18a8,8,0,0,0,6,2.13,8.44,8.44,0,0,0,6.47-2.53,9.52,9.52,0,0,0,2.37-6.79V954.71Z"/><path class="cls-2" d="M1173.13,957q2.47,2.49,2.47,7.11v13.42h-1.45V964.22a8.6,8.6,0,0,0-2.05-6.18,7.67,7.67,0,0,0-5.83-2.14,9,9,0,0,0-6.73,2.53,9.3,9.3,0,0,0-2.47,6.8v12.32h-1.45V954.71H1157v5.59a8.81,8.81,0,0,1,3.54-4.22,10.68,10.68,0,0,1,5.83-1.54A9.06,9.06,0,0,1,1173.13,957Z"/><path class="cls-2" d="M1207.19,944.9v32.65h-1.41V971.3a10.21,10.21,0,0,1-3.89,4.69,10.76,10.76,0,0,1-6,1.69,11.15,11.15,0,0,1-5.67-1.47,10.71,10.71,0,0,1-4-4.12,12.9,12.9,0,0,1,0-12,10.78,10.78,0,0,1,4-4.12,11.15,11.15,0,0,1,5.67-1.47,10.77,10.77,0,0,1,5.92,1.67,10.14,10.14,0,0,1,3.9,4.62V944.9ZM1201,975.06a9.2,9.2,0,0,0,3.5-3.63,11.65,11.65,0,0,0,0-10.62,9.35,9.35,0,0,0-3.5-3.61,10.25,10.25,0,0,0-10,0,9.32,9.32,0,0,0-3.49,3.61,11.65,11.65,0,0,0,0,10.62,9.17,9.17,0,0,0,3.49,3.63,10.25,10.25,0,0,0,10,0Z"/><path class="cls-2" d="M1235.37,976.21a10.44,10.44,0,0,1-4-4.12,13.06,13.06,0,0,1,0-12,10.5,10.5,0,0,1,4-4.12,12,12,0,0,1,11.51,0,10.57,10.57,0,0,1,4,4.12,13.06,13.06,0,0,1,0,12,10.5,10.5,0,0,1-4,4.12,12,12,0,0,1-11.51,0Zm10.74-1.15a9.17,9.17,0,0,0,3.49-3.63,11.65,11.65,0,0,0,0-10.62,9.32,9.32,0,0,0-3.49-3.61,10.25,10.25,0,0,0-10,0,9.35,9.35,0,0,0-3.5,3.61,11.65,11.65,0,0,0,0,10.62,9.2,9.2,0,0,0,3.5,3.63,10.25,10.25,0,0,0,10,0Z"/><path class="cls-2" d="M1281.24,954.71v22.84h-1.41V972a8.55,8.55,0,0,1-3.39,4.18,10.08,10.08,0,0,1-5.54,1.49,9.5,9.5,0,0,1-7-2.46c-1.67-1.64-2.51-4-2.51-7.09V954.71h1.45v13.34a8.48,8.48,0,0,0,2.09,6.18,8,8,0,0,0,6,2.13,8.43,8.43,0,0,0,6.47-2.53,9.48,9.48,0,0,0,2.38-6.79V954.71Z"/><path class="cls-2" d="M1304,976.1a5.36,5.36,0,0,1-2,1.16,7.84,7.84,0,0,1-2.55.42,5.7,5.7,0,0,1-4.29-1.56,5.9,5.9,0,0,1-1.52-4.29V956h-4.31v-1.28h4.31v-5h1.46v5h7.52V956h-7.52v15.62a5,5,0,0,0,1.14,3.56,4.31,4.31,0,0,0,3.34,1.24,5.29,5.29,0,0,0,3.7-1.37Z"/><path class="cls-2" d="M1339.74,956.65a8.15,8.15,0,0,1,2.17,6.12v14.78h-1.4V973a8.16,8.16,0,0,1-3.28,3.46,10.34,10.34,0,0,1-5.22,1.25,9.24,9.24,0,0,1-6-1.76,6.1,6.1,0,0,1-.2-9.17q2-1.74,6.34-1.74h8.31v-2.24a6.91,6.91,0,0,0-1.78-5.15,7.2,7.2,0,0,0-5.26-1.76,12.36,12.36,0,0,0-4.53.83,11.28,11.28,0,0,0-3.61,2.25l-.79-1.06a11.86,11.86,0,0,1,4-2.46,13.91,13.91,0,0,1,5-.88A8.66,8.66,0,0,1,1339.74,956.65Zm.72,14.3V966.2h-8.31q-3.57,0-5.22,1.34a4.43,4.43,0,0,0-1.65,3.63,4.62,4.62,0,0,0,1.83,3.87,8,8,0,0,0,5,1.41Q1338.27,976.45,1340.46,971Z"/><path class="cls-2" d="M1370.56,956a10.69,10.69,0,0,1,4,4.12,12.82,12.82,0,0,1,0,12,10.62,10.62,0,0,1-4,4.12,11.18,11.18,0,0,1-5.68,1.47,10.73,10.73,0,0,1-6-1.69,10.15,10.15,0,0,1-3.89-4.69v6.25h-1.41V944.9h1.45v15.93a10.18,10.18,0,0,1,3.89-4.62,10.81,10.81,0,0,1,5.92-1.67A11.18,11.18,0,0,1,1370.56,956Zm-.73,19a9.2,9.2,0,0,0,3.5-3.63,11.65,11.65,0,0,0,0-10.62,9.35,9.35,0,0,0-3.5-3.61,10.25,10.25,0,0,0-10,0,9.32,9.32,0,0,0-3.49,3.61,11.65,11.65,0,0,0,0,10.62,9.17,9.17,0,0,0,3.49,3.63,10.25,10.25,0,0,0,10,0Z"/><path class="cls-2" d="M1388.31,976.21a10.41,10.41,0,0,1-4-4.12,13,13,0,0,1,0-12,10.48,10.48,0,0,1,4-4.12,12,12,0,0,1,11.51,0,10.57,10.57,0,0,1,4,4.12,13.06,13.06,0,0,1,0,12,10.5,10.5,0,0,1-4,4.12,12,12,0,0,1-11.51,0Zm10.74-1.15a9.27,9.27,0,0,0,3.5-3.63,11.74,11.74,0,0,0,0-10.62,9.42,9.42,0,0,0-3.5-3.61,10.25,10.25,0,0,0-10,0,9.35,9.35,0,0,0-3.5,3.61,11.74,11.74,0,0,0,0,10.62,9.2,9.2,0,0,0,3.5,3.63,10.25,10.25,0,0,0,10,0Z"/><path class="cls-2" d="M1434.18,954.71v22.84h-1.41V972a8.58,8.58,0,0,1-3.38,4.18,10.14,10.14,0,0,1-5.55,1.49,9.5,9.5,0,0,1-6.95-2.46c-1.67-1.64-2.51-4-2.51-7.09V954.71h1.45v13.34a8.48,8.48,0,0,0,2.09,6.18,8,8,0,0,0,6,2.13,8.42,8.42,0,0,0,6.46-2.53,9.48,9.48,0,0,0,2.38-6.79V954.71Z"/><path class="cls-2" d="M1456.93,976.1a5.31,5.31,0,0,1-2,1.16,7.94,7.94,0,0,1-2.56.42,5.74,5.74,0,0,1-4.29-1.56,5.89,5.89,0,0,1-1.51-4.29V956h-4.32v-1.28h4.32v-5H1448v5h7.52V956H1448v15.62a5,5,0,0,0,1.14,3.56,4.32,4.32,0,0,0,3.35,1.24,5.28,5.28,0,0,0,3.69-1.37Z"/><path class="cls-2" d="M1496.57,954.71l-12,26.27a9.79,9.79,0,0,1-2.9,4,6.32,6.32,0,0,1-3.83,1.19,7.89,7.89,0,0,1-2.86-.51,5.62,5.62,0,0,1-2.24-1.52l.83-1.14a5.31,5.31,0,0,0,4.27,1.89,4.67,4.67,0,0,0,3-1,8.9,8.9,0,0,0,2.36-3.34l1.45-3.12-10.39-22.8h1.59l9.59,21.17,9.59-21.17Z"/><path class="cls-2" d="M1506.1,976.21a10.44,10.44,0,0,1-4-4.12,13.06,13.06,0,0,1,0-12,10.5,10.5,0,0,1,4-4.12,12,12,0,0,1,11.51,0,10.57,10.57,0,0,1,4,4.12,13.06,13.06,0,0,1,0,12,10.5,10.5,0,0,1-4,4.12,12,12,0,0,1-11.51,0Zm10.73-1.15a9.13,9.13,0,0,0,3.5-3.63,11.65,11.65,0,0,0,0-10.62,9.28,9.28,0,0,0-3.5-3.61,10.23,10.23,0,0,0-10,0,9.35,9.35,0,0,0-3.5,3.61,11.65,11.65,0,0,0,0,10.62,9.2,9.2,0,0,0,3.5,3.63,10.23,10.23,0,0,0,10,0Z"/><path class="cls-2" d="M1552,954.71v22.84h-1.41V972a8.55,8.55,0,0,1-3.39,4.18,10.08,10.08,0,0,1-5.54,1.49,9.5,9.5,0,0,1-7-2.46c-1.68-1.64-2.51-4-2.51-7.09V954.71h1.45v13.34a8.48,8.48,0,0,0,2.09,6.18,8,8,0,0,0,6,2.13,8.43,8.43,0,0,0,6.47-2.53,9.53,9.53,0,0,0,2.38-6.79V954.71Z"/></svg>