<svg id="Layer_1" data-name="Layer 1" xmlns="http://www.w3.org/2000/svg" xmlns:xlink="http://www.w3.org/1999/xlink" viewBox="0 0 1920 1080"><defs><style>.cls-1{fill:url(#linear-gradient);}.cls-2{fill:#fff;}</style><linearGradient id="linear-gradient" x1="731.26" y1="352.12" x2="731.26" y2="718.54" gradientUnits="userSpaceOnUse"><stop offset="0" stop-color="#fbb03b"/><stop offset="1" stop-color="#f7931e"/></linearGradient></defs><title>2019-05</title><path class="cls-1" d="M735.61,686a12.88,12.88,0,0,1,1.21,6c0,11.41-9.8,26.56-29.19,26.56-19.69,0-28.28-15.86-28.28-30.91,0-18.68,12.32-33.22,28.28-33.22,14.65,0,21.41,4.44,33.23,13.13l23.33,19.59v23.43Zm-40.6.71c0,7.37,5.35,12.82,12.62,12.82a12.73,12.73,0,1,0,0-25.45A12.2,12.2,0,0,0,695,686.73Z"/><path class="cls-1" d="M686.42,582l77.77,44v22.42l-66.66-38.38v35.85H680.87V582Z"/><path class="cls-1" d="M754.19,557.35c12.22,0,22.12,8.68,29,17l-4.24,5.15a29.35,29.35,0,0,0-14.14-7.67,10.93,10.93,0,0,1-10.61,8.69,11.57,11.57,0,1,1,0-23.13Z"/><path class="cls-1" d="M730,487.35h16.67v9.7h17.57v17.78H746.62v41H741l-60.09-40V497.05H730ZM706.22,515,730,529.88v-15H706.22Z"/><path class="cls-1" d="M686.42,416.05l77.77,44v22.42l-66.66-38.38V480H680.87V416.05Z"/><path class="cls-1" d="M711.27,400.8l-7.68,15.86s-24.24-8.08-24.24-30.71c0-28.58,18.79-32.32,29.29-32.32,19.49,0,38.89,29.39,38.89,29.39v-30.9h16.66v64.94h-4.75s-35.45-42.93-50.8-42.93c-3,0-13.23.71-13.23,11.82C695.41,395,711.27,400.8,711.27,400.8Z"/><path class="cls-2" d="M816.29,365h46.4v13.2H847V431H832V378.22H816.29Z"/><path class="cls-2" d="M933.89,363.82c18.32,0,33.2,14.88,33.2,34.16s-14.24,34.25-33.2,34.25c-19.52,0-33.28-15-33.28-34.25S915.73,363.82,933.89,363.82Zm0,53.85c12,0,17-9.85,17-19.69s-5.28-19.68-17-19.68-17,9.84-17,19.68S921.57,417.67,933.89,417.67Z"/><path class="cls-2" d="M1005,365h46.4v13.2h-15.68V431h-15V378.22H1005Z"/><path class="cls-2" d="M1151.18,431H1135l-4.88-13.2H1105l-4.88,13.2H1084l26.64-66h13.93Zm-33.53-45.61h-.16l-7.36,19.21H1125Z"/><path class="cls-2" d="M1206.77,417.83h22.72V431h-37.76V365h15Z"/><path class="cls-2" d="M860.53,490,850,527H833.25l-18.8-66h16.72l11.28,45.28h.4l12-45.28h11.36l12,45.28h.41L889.89,461h16.65l-18.81,66H871.09Z"/><path class="cls-2" d="M949.89,474.22H927.17v13.12h21.76v13.2H927.17v13.29h22.72V527H912.13V461h37.76Z"/><path class="cls-2" d="M981,461c11.36,0,20.32,4.24,20.32,16.8,0,6.08-2.64,11.28-8.24,14.16,8.24,1.44,14.08,6,14.08,16.65,0,10.88-7.92,18.4-21.6,18.4h-25V461Zm-4.24,25.84c6.48,0,10-2,10-7.52,0-4.72-3.44-6.72-10-6.72h-1.2v14.24Zm3.52,28.57c7.12,0,11-2.16,11-7.37,0-6.08-3.92-8.24-11-8.24h-4.72v15.61Z"/><path class="cls-2" d="M1059,466.06l-6.08,12s-6.56-4.56-13.36-4.56c-5.12,0-7.84,2.32-7.84,5.92s6.24,6.32,13.76,9.52c7.36,3.12,15.44,9.36,15.44,18,0,15.76-12,21.28-24.88,21.28a38.56,38.56,0,0,1-24.8-8.72l7.52-12.64s8.8,7.43,16.16,7.43c3.28,0,9.52-.32,9.52-6.48,0-4.79-7-6.95-14.88-10.87S1017,486.86,1017,480c0-12.32,10.88-20.16,21.52-20.16A37.52,37.52,0,0,1,1059,466.06Z"/><path class="cls-2" d="M1085,527h-15V461h15Z"/><path class="cls-2" d="M1088.61,461H1135v13.2h-15.68V527h-15V474.22h-15.68Z"/><path class="cls-2" d="M1180.21,474.22h-22.72v13.12h21.76v13.2h-21.76v13.29h22.72V527h-37.76V461h37.76Z"/><path class="cls-2" d="M1235.65,466.06l-6.08,12s-6.56-4.56-13.36-4.56c-5.12,0-7.84,2.32-7.84,5.92s6.24,6.32,13.76,9.52c7.36,3.12,15.44,9.36,15.44,18,0,15.76-12,21.28-24.88,21.28a38.56,38.56,0,0,1-24.8-8.72l7.52-12.64s8.8,7.43,16.16,7.43c3.28,0,9.52-.32,9.52-6.48,0-4.79-7-6.95-14.88-10.87s-12.56-10.09-12.56-17c0-12.32,10.88-20.16,21.52-20.16A37.52,37.52,0,0,1,1235.65,466.06Z"/><path class="cls-2" d="M813.41,557h17L847,600.38,863.65,557h17l-27.69,66H841.09Z"/><path class="cls-2" d="M916.21,623h-15V557h15Z"/><path class="cls-2" d="M987,562.06l-6.09,12s-6.55-4.56-13.36-4.56c-5.11,0-7.84,2.32-7.84,5.92s6.24,6.32,13.76,9.52,15.45,9.36,15.45,18c0,15.76-12,21.27-24.89,21.27a38.56,38.56,0,0,1-24.8-8.72l7.52-12.63s8.8,7.43,16.16,7.43c3.28,0,9.53-.32,9.53-6.48,0-4.8-7.05-7-14.89-10.88S945,582.86,945,576c0-12.32,10.88-20.16,21.53-20.16A37.52,37.52,0,0,1,987,562.06Z"/><path class="cls-2" d="M1029,623h-15V557h15Z"/><path class="cls-2" d="M1048.61,557H1095v13.2h-15.69V623h-15V570.22h-15.68Z"/><path class="cls-2" d="M1156.21,570.22h-22.72v13.12h21.76v13.2h-21.76v13.28h22.72V623h-37.76V557h37.76Z"/><path class="cls-2" d="M1202,557c18.08,0,33.28,13.76,33.28,33s-15.12,33-33.28,33h-19.12V557Zm-1.76,52.56c11.12,0,18.72-8.48,18.8-19.52s-7.6-19.6-18.8-19.6h-2.32v39.12Z"/><path class="cls-2" d="M843.73,668.39H830.47l-2.85,6.36H825L835.88,651h2.48l10.88,23.8h-2.65Zm-.92-2-5.71-12.78-5.71,12.78Z"/><path class="cls-2" d="M863.33,674.29a9.12,9.12,0,0,1-3.11-1.58l1.09-1.91a9.11,9.11,0,0,0,2.82,1.45,11.31,11.31,0,0,0,3.54.56,6.74,6.74,0,0,0,3.62-.77,2.41,2.41,0,0,0,1.17-2.15,1.91,1.91,0,0,0-.65-1.55,4.14,4.14,0,0,0-1.63-.85,23.2,23.2,0,0,0-2.62-.56,31.2,31.2,0,0,1-3.5-.83,5.27,5.27,0,0,1-2.26-1.45,4,4,0,0,1-.93-2.82,4.4,4.4,0,0,1,1.87-3.67,8.39,8.39,0,0,1,5.2-1.43,13.35,13.35,0,0,1,3.47.46,9.55,9.55,0,0,1,2.85,1.2l-1,1.94a9,9,0,0,0-5.27-1.53,6,6,0,0,0-3.48.82,2.48,2.48,0,0,0-1.18,2.14,2.09,2.09,0,0,0,.67,1.63,4,4,0,0,0,1.64.9,26.57,26.57,0,0,0,2.72.6,29.5,29.5,0,0,1,3.44.82A5,5,0,0,1,874,667.1a3.84,3.84,0,0,1,.92,2.72,4.34,4.34,0,0,1-2,3.72,9.27,9.27,0,0,1-5.42,1.38A13.77,13.77,0,0,1,863.33,674.29Z"/><path class="cls-2" d="M911.29,673.75A8.62,8.62,0,0,1,908,670.5a9.84,9.84,0,0,1,0-9.38,8.46,8.46,0,0,1,3.26-3.24,10,10,0,0,1,9.32,0,8.34,8.34,0,0,1,3.24,3.24,9.91,9.91,0,0,1,0,9.38,8.5,8.5,0,0,1-3.24,3.25,9.87,9.87,0,0,1-9.32,0Zm8.07-1.84a6.11,6.11,0,0,0,2.37-2.46,8.22,8.22,0,0,0,0-7.28,6.07,6.07,0,0,0-2.37-2.47,7.21,7.21,0,0,0-6.83,0,6.16,6.16,0,0,0-2.38,2.47,8,8,0,0,0,0,7.28,6.2,6.2,0,0,0,2.38,2.46,7.14,7.14,0,0,0,6.83,0Z"/><path class="cls-2" d="M943.71,652.24a3.58,3.58,0,0,0-.8,2.52v2.11h5.51v2H943v15.85h-2.42V658.9h-3.19v-2h3.19v-2.22a5.26,5.26,0,0,1,1.41-3.87,5.39,5.39,0,0,1,4-1.43,6.81,6.81,0,0,1,2,.29,4.41,4.41,0,0,1,1.6.83l-.82,1.81a4,4,0,0,0-2.65-.89A3.07,3.07,0,0,0,943.71,652.24Z"/><path class="cls-2" d="M986,651v23.8h-2.45V653.13h-5.61V651Z"/><path class="cls-2" d="M1004.09,674.29a9.12,9.12,0,0,1-3.11-1.58l1.09-1.91a9.11,9.11,0,0,0,2.82,1.45,11.31,11.31,0,0,0,3.54.56,6.74,6.74,0,0,0,3.62-.77,2.41,2.41,0,0,0,1.17-2.15,1.94,1.94,0,0,0-.65-1.55,4.14,4.14,0,0,0-1.63-.85,23.2,23.2,0,0,0-2.62-.56,30.67,30.67,0,0,1-3.5-.83,5.22,5.22,0,0,1-2.26-1.45,4,4,0,0,1-.93-2.82,4.4,4.4,0,0,1,1.87-3.67,8.39,8.39,0,0,1,5.2-1.43,13.4,13.4,0,0,1,3.47.46,9.66,9.66,0,0,1,2.85,1.2l-1,1.94a9,9,0,0,0-5.27-1.53,6.1,6.1,0,0,0-3.49.82,2.5,2.5,0,0,0-1.17,2.14,2.12,2.12,0,0,0,.66,1.63,4.06,4.06,0,0,0,1.65.9,26.57,26.57,0,0,0,2.72.6,29.5,29.5,0,0,1,3.44.82,5,5,0,0,1,2.21,1.39,3.84,3.84,0,0,1,.91,2.72,4.33,4.33,0,0,1-2,3.72,9.27,9.27,0,0,1-5.42,1.38A13.72,13.72,0,0,1,1004.09,674.29Z"/><path class="cls-2" d="M1039.71,673.66a4.69,4.69,0,0,1-1.69.94,6.87,6.87,0,0,1-2.09.32,4.74,4.74,0,0,1-5.23-5.2V658.9h-3.2v-2h3.2V653h2.41v3.91h5.44v2h-5.44v10.68a3.37,3.37,0,0,0,.8,2.43,3,3,0,0,0,2.3.83,4.43,4.43,0,0,0,1.44-.23,3.76,3.76,0,0,0,1.21-.68Z"/><path class="cls-2" d="M832.8,714.17a11.55,11.55,0,0,1-4.49-4.33,12.7,12.7,0,0,1,0-12.38,11.55,11.55,0,0,1,4.49-4.33,13.71,13.71,0,0,1,12.78,0,11.49,11.49,0,0,1,4.47,4.33,12.56,12.56,0,0,1,0,12.41,11.44,11.44,0,0,1-4.47,4.34,13.79,13.79,0,0,1-12.78,0Zm11.51-1.94a9.18,9.18,0,0,0,3.57-3.53,10.53,10.53,0,0,0,0-10.1,9.2,9.2,0,0,0-3.57-3.54,10.92,10.92,0,0,0-10.22,0,9.28,9.28,0,0,0-3.6,3.54,10.39,10.39,0,0,0,0,10.1,9.25,9.25,0,0,0,3.6,3.53,10.37,10.37,0,0,0,5.12,1.28A10.27,10.27,0,0,0,844.31,712.23Z"/><path class="cls-2" d="M869.69,714.56a8.27,8.27,0,0,1-3.28-3.25,9.88,9.88,0,0,1,0-9.4,8.42,8.42,0,0,1,3.28-3.23,9.61,9.61,0,0,1,4.74-1.15,9.18,9.18,0,0,1,4.13.9,6.9,6.9,0,0,1,2.88,2.63l-1.81,1.23a5.55,5.55,0,0,0-2.24-2,6.69,6.69,0,0,0-3-.66,7.07,7.07,0,0,0-3.48.86,6.12,6.12,0,0,0-2.42,2.47,8.15,8.15,0,0,0,0,7.29,6.2,6.2,0,0,0,2.42,2.45,7,7,0,0,0,3.48.87,6.82,6.82,0,0,0,3-.65,5.5,5.5,0,0,0,2.24-2l1.81,1.22a6.88,6.88,0,0,1-2.89,2.64,9.26,9.26,0,0,1-4.12.9A9.62,9.62,0,0,1,869.69,714.56Z"/><path class="cls-2" d="M906,714.46a4.41,4.41,0,0,1-1.68.93,6.63,6.63,0,0,1-2.09.33,4.74,4.74,0,0,1-5.24-5.2V699.71h-3.19v-2.05H897v-3.91h2.42v3.91h5.44v2.05h-5.44v10.67a3.33,3.33,0,0,0,.8,2.43,3,3,0,0,0,2.29.83,4.73,4.73,0,0,0,1.45-.23,3.71,3.71,0,0,0,1.2-.68Z"/><path class="cls-2" d="M922.58,714.54a8.55,8.55,0,0,1-3.27-3.24,9.86,9.86,0,0,1,0-9.39,8.53,8.53,0,0,1,3.27-3.23,10,10,0,0,1,9.31,0,8.34,8.34,0,0,1,3.25,3.23,10,10,0,0,1,0,9.39,8.37,8.37,0,0,1-3.25,3.24,9.77,9.77,0,0,1-9.31,0Zm8.07-1.83a6,6,0,0,0,2.36-2.47,8.2,8.2,0,0,0,0-7.27,6,6,0,0,0-2.36-2.47,7.21,7.21,0,0,0-6.83,0,6.16,6.16,0,0,0-2.38,2.47,8,8,0,0,0,0,7.27,6.16,6.16,0,0,0,2.38,2.47,7.14,7.14,0,0,0,6.83,0Z"/><path class="cls-2" d="M965.21,698.67a8.16,8.16,0,0,1,3.2,3.21,10.28,10.28,0,0,1,0,9.45,8.28,8.28,0,0,1-3.2,3.23,9.08,9.08,0,0,1-4.55,1.16,8.47,8.47,0,0,1-4-1,7.47,7.47,0,0,1-2.88-2.76v3.54h-2.31V690.32h2.42v10.74a7.39,7.39,0,0,1,2.87-2.63,8.49,8.49,0,0,1,3.93-.9A9.18,9.18,0,0,1,965.21,698.67Zm-1.33,14a6,6,0,0,0,2.4-2.47,8,8,0,0,0,0-7.27,6,6,0,0,0-2.4-2.47,7.17,7.17,0,0,0-6.81,0,6.16,6.16,0,0,0-2.38,2.47,8,8,0,0,0,0,7.27,6.16,6.16,0,0,0,2.38,2.47,7.1,7.1,0,0,0,6.81,0Z"/><path class="cls-2" d="M1000.27,707.35h-15a6.44,6.44,0,0,0,2.15,4.51,7.12,7.12,0,0,0,4.89,1.72,7.66,7.66,0,0,0,3.06-.6,6.63,6.63,0,0,0,2.42-1.75l1.36,1.56a7.67,7.67,0,0,1-3,2.18,10,10,0,0,1-3.92.75,9.82,9.82,0,0,1-4.88-1.18,8.48,8.48,0,0,1-3.32-3.24,9.29,9.29,0,0,1-1.19-4.69,9.62,9.62,0,0,1,1.14-4.7,8.31,8.31,0,0,1,3.13-3.23,9.22,9.22,0,0,1,8.92,0,8.28,8.28,0,0,1,3.1,3.22,9.65,9.65,0,0,1,1.12,4.71Zm-13-6.1a6.53,6.53,0,0,0-2,4.3H998a6.49,6.49,0,0,0-2-4.3,6.57,6.57,0,0,0-8.71,0Z"/><path class="cls-2" d="M1020.27,698.45a8.54,8.54,0,0,1,4.17-.92v2.35l-.58,0a5.74,5.74,0,0,0-4.42,1.73,7,7,0,0,0-1.6,4.87v9.11h-2.41V697.66h2.31v3.51A5.82,5.82,0,0,1,1020.27,698.45Z"/><path class="cls-2" d="M1073,713.37v2.18h-16.69v-1.74l9.89-9.68a13.19,13.19,0,0,0,2.54-3.18,6.11,6.11,0,0,0,.66-2.71A4,4,0,0,0,1068,695a6.41,6.41,0,0,0-4.13-1.17,8.15,8.15,0,0,0-6.49,2.65l-1.73-1.49a9,9,0,0,1,3.55-2.52,12.75,12.75,0,0,1,4.88-.89,9,9,0,0,1,5.76,1.72,5.74,5.74,0,0,1,2.13,4.71,8.16,8.16,0,0,1-.82,3.54,15.06,15.06,0,0,1-3.09,3.91l-8.1,8Z"/><path class="cls-2" d="M1090.72,714.29a9.48,9.48,0,0,1-3.36-4.2,17.74,17.74,0,0,1,0-12.88,9.48,9.48,0,0,1,3.36-4.2,9,9,0,0,1,9.83,0,9.59,9.59,0,0,1,3.38,4.2,17.61,17.61,0,0,1,0,12.88,9.59,9.59,0,0,1-3.38,4.2,9,9,0,0,1-9.83,0Zm8.57-1.94a7.49,7.49,0,0,0,2.46-3.36,16.46,16.46,0,0,0,0-10.68,7.44,7.44,0,0,0-2.46-3.36,6.34,6.34,0,0,0-7.31,0,7.45,7.45,0,0,0-2.47,3.36,16.64,16.64,0,0,0,0,10.68,7.51,7.51,0,0,0,2.47,3.36,6.34,6.34,0,0,0,7.31,0Z"/><path class="cls-2" d="M1125.38,691.75v23.8h-2.44V693.92h-5.61v-2.17Z"/><path class="cls-2" d="M1155.92,694.66q2.5,3.11,2.51,8.79a15.06,15.06,0,0,1-1.36,6.73,9.52,9.52,0,0,1-3.81,4.16,11.22,11.22,0,0,1-5.71,1.41,10.7,10.7,0,0,1-5.64-1.29l1-2a8.33,8.33,0,0,0,4.63,1.12,7.89,7.89,0,0,0,6.19-2.5q2.24-2.49,2.24-7.26c0-.59,0-1.23-.1-1.94a6.37,6.37,0,0,1-2.82,3,9,9,0,0,1-4.46,1.07,9.38,9.38,0,0,1-4.16-.88,6.72,6.72,0,0,1-2.84-2.5,6.87,6.87,0,0,1-1-3.76,7,7,0,0,1,1-3.84,6.91,6.91,0,0,1,2.91-2.56,9.38,9.38,0,0,1,4.16-.91A8.78,8.78,0,0,1,1155.92,694.66Zm-3.79,8.58a5.38,5.38,0,0,0,2.15-1.87,4.74,4.74,0,0,0,.79-2.65,4.61,4.61,0,0,0-.74-2.52,5.22,5.22,0,0,0-2.15-1.87,7.64,7.64,0,0,0-3.4-.71,6.13,6.13,0,0,0-4.2,1.41,5.15,5.15,0,0,0,0,7.5,6.44,6.44,0,0,0,4.37,1.39A7.15,7.15,0,0,0,1152.13,703.24Z"/><path class="cls-2" d="M394.94,976.54a11.64,11.64,0,0,1-4.65-3.08l.8-1.06a11.06,11.06,0,0,0,4.29,2.89,15.53,15.53,0,0,0,5.87,1.12c3.08,0,5.41-.61,7-1.83a5.69,5.69,0,0,0,2.36-4.69,5.05,5.05,0,0,0-1.23-3.54,7.81,7.81,0,0,0-3-2,41.29,41.29,0,0,0-4.93-1.43,45.71,45.71,0,0,1-5.37-1.63,8.66,8.66,0,0,1-3.43-2.42,6.42,6.42,0,0,1-1.41-4.36,7.25,7.25,0,0,1,1.15-4,7.83,7.83,0,0,1,3.5-2.89,14.05,14.05,0,0,1,5.87-1.08,16.79,16.79,0,0,1,4.95.75,13,13,0,0,1,4.16,2.07l-.66,1.19a13.33,13.33,0,0,0-4-2,14.69,14.69,0,0,0-4.37-.69c-3,0-5.26.63-6.8,1.87a5.85,5.85,0,0,0-2.31,4.73,5,5,0,0,0,1.25,3.59,8.25,8.25,0,0,0,3.08,2,41.22,41.22,0,0,0,4.91,1.45,50.82,50.82,0,0,1,5.37,1.6,8.43,8.43,0,0,1,3.4,2.38,6.31,6.31,0,0,1,1.39,4.29,7.19,7.19,0,0,1-1.16,4,7.88,7.88,0,0,1-3.59,2.86,14.87,14.87,0,0,1-6,1.06A17.22,17.22,0,0,1,394.94,976.54Z"/><path class="cls-2" d="M424.46,976.21a10.56,10.56,0,0,1-4-4.12,12.9,12.9,0,0,1,0-12,10.62,10.62,0,0,1,4-4.12,11.56,11.56,0,0,1,5.83-1.47,11.71,11.71,0,0,1,4.82,1,8.82,8.82,0,0,1,3.63,2.93l-1.1.92a7.81,7.81,0,0,0-3.15-2.6,10.52,10.52,0,0,0-9.28.42,9.24,9.24,0,0,0-3.54,3.61,11.65,11.65,0,0,0,0,10.62,9.1,9.1,0,0,0,3.54,3.63,10,10,0,0,0,5.08,1.3,9.84,9.84,0,0,0,4.2-.88,7.79,7.79,0,0,0,3.15-2.59l1.1.88a8.88,8.88,0,0,1-3.63,2.92,11.71,11.71,0,0,1-4.82,1A11.56,11.56,0,0,1,424.46,976.21Z"/><path class="cls-2" d="M452.58,956a10.1,10.1,0,0,1,5.61-1.47V956h-.4a7.89,7.89,0,0,0-6.2,2.51,10,10,0,0,0-2.25,6.91v12.14h-1.45V954.71h1.41v5.5A8.28,8.28,0,0,1,452.58,956Z"/><path class="cls-2" d="M469.43,976.21a10.44,10.44,0,0,1-4-4.12,13.06,13.06,0,0,1,0-12,10.5,10.5,0,0,1,4-4.12,12,12,0,0,1,11.5,0,10.59,10.59,0,0,1,4,4.12,13.06,13.06,0,0,1,0,12,10.52,10.52,0,0,1-4,4.12,12,12,0,0,1-11.5,0Zm10.73-1.15a9.2,9.2,0,0,0,3.5-3.63,11.65,11.65,0,0,0,0-10.62,9.35,9.35,0,0,0-3.5-3.61,10.23,10.23,0,0,0-10,0,9.28,9.28,0,0,0-3.5,3.61,11.65,11.65,0,0,0,0,10.62,9.13,9.13,0,0,0,3.5,3.63,10.23,10.23,0,0,0,10,0Z"/><path class="cls-2" d="M495.76,944.9h1.45v32.65h-1.45Z"/><path class="cls-2" d="M509.18,944.9h1.45v32.65h-1.45Z"/><path class="cls-2" d="M536.68,946.75h11.88a17.86,17.86,0,0,1,8.52,2,14.42,14.42,0,0,1,5.76,5.48,16.47,16.47,0,0,1,0,15.88,14.42,14.42,0,0,1-5.76,5.48,17.86,17.86,0,0,1-8.52,2H536.68Zm11.79,29.44a16.35,16.35,0,0,0,7.86-1.81,12.92,12.92,0,0,0,5.21-5,15.09,15.09,0,0,0,0-14.48,13,13,0,0,0-5.21-5,16.46,16.46,0,0,0-7.86-1.8H538.18v28.07Z"/><path class="cls-2" d="M579.87,975.7a14.84,14.84,0,0,1-5.7-5.58,16.36,16.36,0,0,1,0-15.93,14.79,14.79,0,0,1,5.7-5.59,17.27,17.27,0,0,1,16.25,0,14.71,14.71,0,0,1,5.72,5.59,16.36,16.36,0,0,1,0,15.93,14.75,14.75,0,0,1-5.72,5.58,17.27,17.27,0,0,1-16.25,0Zm15.46-1.19a13.53,13.53,0,0,0,5.19-5.1,14.82,14.82,0,0,0,0-14.52,13.53,13.53,0,0,0-5.19-5.1,15.47,15.47,0,0,0-14.67,0,13.54,13.54,0,0,0-5.17,5.1,14.89,14.89,0,0,0,0,14.52,13.54,13.54,0,0,0,5.17,5.1,15.47,15.47,0,0,0,14.67,0Z"/><path class="cls-2" d="M653.72,946.75l-10.52,30.8h-1.49l-10-28.73-10,28.73h-1.54l-10.52-30.8h1.59l9.72,28.64,10-28.64h1.45l10,28.69,9.81-28.69Z"/><path class="cls-2" d="M687.38,946.75v30.8h-1.23l-21.87-28.07v28.07h-1.5v-30.8H664l21.86,28.07V946.75Z"/><path class="cls-2" d="M724.21,976.1a5.36,5.36,0,0,1-2,1.16,7.84,7.84,0,0,1-2.55.42,5.7,5.7,0,0,1-4.29-1.56,5.9,5.9,0,0,1-1.52-4.29V956h-4.31v-1.28h4.31v-5h1.46v5h7.52V956h-7.52v15.62a5,5,0,0,0,1.14,3.56,4.31,4.31,0,0,0,3.34,1.24,5.29,5.29,0,0,0,3.7-1.37Z"/><path class="cls-2" d="M734.88,976.21a10.44,10.44,0,0,1-4-4.12,13.06,13.06,0,0,1,0-12,10.5,10.5,0,0,1,4-4.12,12,12,0,0,1,11.5,0,10.59,10.59,0,0,1,4,4.12,13.06,13.06,0,0,1,0,12,10.52,10.52,0,0,1-4,4.12,12,12,0,0,1-11.5,0Zm10.73-1.15a9.2,9.2,0,0,0,3.5-3.63,11.65,11.65,0,0,0,0-10.62,9.35,9.35,0,0,0-3.5-3.61,10.23,10.23,0,0,0-10,0,9.28,9.28,0,0,0-3.5,3.61,11.65,11.65,0,0,0,0,10.62,9.13,9.13,0,0,0,3.5,3.63,10.23,10.23,0,0,0,10,0Z"/><path class="cls-2" d="M774.83,976.85a9.8,9.8,0,0,1-3.81-2.2l.71-1.15a11.85,11.85,0,0,0,3.63,2.07,13.27,13.27,0,0,0,4.73.84,9.43,9.43,0,0,0,5.45-1.26,4,4,0,0,0,1.76-3.5,3.32,3.32,0,0,0-.94-2.5,5.82,5.82,0,0,0-2.36-1.37,36.57,36.57,0,0,0-3.78-.88,34.49,34.49,0,0,1-4.42-1.08A6.6,6.6,0,0,1,773,964a4.85,4.85,0,0,1-1.14-3.43,5.37,5.37,0,0,1,2.13-4.33c1.43-1.16,3.5-1.74,6.23-1.74a14.31,14.31,0,0,1,4.22.64,10.14,10.14,0,0,1,3.44,1.69l-.75,1.14a10,10,0,0,0-3.19-1.6,12.88,12.88,0,0,0-3.77-.55,8.36,8.36,0,0,0-5.1,1.3,4.07,4.07,0,0,0-1.71,3.41,3.6,3.6,0,0,0,1,2.64,6,6,0,0,0,2.4,1.43,36.52,36.52,0,0,0,3.9.94,31.67,31.67,0,0,1,4.26,1,6.56,6.56,0,0,1,2.75,1.73,4.63,4.63,0,0,1,1.12,3.3,5.14,5.14,0,0,1-2.24,4.4q-2.24,1.63-6.47,1.63A16.21,16.21,0,0,1,774.83,976.85Z"/><path class="cls-2" d="M816.25,966.33h-20a10.51,10.51,0,0,0,1.37,5.19,9.3,9.3,0,0,0,3.63,3.57,11.19,11.19,0,0,0,9.48.41A8,8,0,0,0,814,973l.92,1a10.28,10.28,0,0,1-3.74,2.77,11.6,11.6,0,0,1-4.75,1,11.94,11.94,0,0,1-6-1.47,10.66,10.66,0,0,1-4.12-4.12,11.88,11.88,0,0,1-1.49-6,12.7,12.7,0,0,1,1.38-6,10.34,10.34,0,0,1,3.85-4.12,10.53,10.53,0,0,1,5.5-1.47,10.32,10.32,0,0,1,9.29,5.5,12.23,12.23,0,0,1,1.4,5.89Zm-15.31-9.28a8.84,8.84,0,0,0-3.3,3.32,10.46,10.46,0,0,0-1.36,4.77h18.61a10.64,10.64,0,0,0-1.43-4.77,9.14,9.14,0,0,0-3.3-3.32,8.91,8.91,0,0,0-4.6-1.19A9,9,0,0,0,800.94,957.05Z"/><path class="cls-2" d="M844.46,966.33h-20a10.5,10.5,0,0,0,1.36,5.19,9.3,9.3,0,0,0,3.63,3.57,11.19,11.19,0,0,0,9.48.41,8,8,0,0,0,3.26-2.53l.92,1a10.19,10.19,0,0,1-3.74,2.77,11.56,11.56,0,0,1-4.75,1,11.94,11.94,0,0,1-6-1.47,10.57,10.57,0,0,1-4.11-4.12,11.88,11.88,0,0,1-1.5-6,12.59,12.59,0,0,1,1.39-6,10.21,10.21,0,0,1,3.85-4.12,11,11,0,0,1,10.93,0,10.36,10.36,0,0,1,3.85,4,12.13,12.13,0,0,1,1.41,5.89Zm-15.31-9.28a8.84,8.84,0,0,0-3.3,3.32,10.34,10.34,0,0,0-1.37,4.77h18.61a10.52,10.52,0,0,0-1.43-4.77,9,9,0,0,0-3.3-3.32,8.88,8.88,0,0,0-4.59-1.19A9,9,0,0,0,829.15,957.05Z"/><path class="cls-2" d="M899.11,954.71l-8.72,22.84H889l-8.1-20.9-8.14,20.9h-1.27l-8.76-22.84h1.41l8,21.17,8.14-21.17h1.32l8.1,21.17,8-21.17Z"/><path class="cls-2" d="M924.19,957q2.46,2.49,2.46,7.11v13.42H925.2V964.22a8.6,8.6,0,0,0-2.05-6.18,7.67,7.67,0,0,0-5.83-2.14,9,9,0,0,0-6.73,2.53,9.34,9.34,0,0,0-2.46,6.8v12.32h-1.46V944.9h1.46v15.27a8.86,8.86,0,0,1,3.56-4.13,10.7,10.7,0,0,1,5.76-1.5A9.1,9.1,0,0,1,924.19,957Z"/><path class="cls-2" d="M952.1,956.65a8.15,8.15,0,0,1,2.18,6.12v14.78h-1.41V973a8,8,0,0,1-3.28,3.46,10.33,10.33,0,0,1-5.21,1.25,9.24,9.24,0,0,1-6-1.76,6.1,6.1,0,0,1-.2-9.17q2-1.74,6.33-1.74h8.32v-2.24a7,7,0,0,0-1.78-5.15,7.2,7.2,0,0,0-5.26-1.76,12.32,12.32,0,0,0-4.53.83,11.28,11.28,0,0,0-3.61,2.25l-.79-1.06a11.82,11.82,0,0,1,4-2.46,14,14,0,0,1,5-.88A8.63,8.63,0,0,1,952.1,956.65Zm.73,14.3V966.2h-8.32q-3.56,0-5.21,1.34a4.43,4.43,0,0,0-1.65,3.63,4.64,4.64,0,0,0,1.82,3.87,8,8,0,0,0,5,1.41Q950.64,976.45,952.83,971Z"/><path class="cls-2" d="M976.76,976.1a5.24,5.24,0,0,1-2,1.16,7.84,7.84,0,0,1-2.55.42,5.7,5.7,0,0,1-4.29-1.56,5.9,5.9,0,0,1-1.52-4.29V956h-4.31v-1.28h4.31v-5h1.45v5h7.53V956h-7.53v15.62a5,5,0,0,0,1.15,3.56,4.3,4.3,0,0,0,3.34,1.24A5.29,5.29,0,0,0,976,975Z"/><path class="cls-2" d="M1030.71,954.71,1022,977.55h-1.37l-8.09-20.9-8.14,20.9h-1.28l-8.76-22.84h1.41l8,21.17,8.14-21.17h1.32l8.09,21.17,8-21.17Z"/><path class="cls-2" d="M1056.45,966.33h-20a10.5,10.5,0,0,0,1.36,5.19,9.3,9.3,0,0,0,3.63,3.57,11.19,11.19,0,0,0,9.48.41,8,8,0,0,0,3.26-2.53l.92,1a10.19,10.19,0,0,1-3.74,2.77,11.56,11.56,0,0,1-4.75,1,11.94,11.94,0,0,1-6-1.47,10.57,10.57,0,0,1-4.11-4.12,11.88,11.88,0,0,1-1.5-6,12.59,12.59,0,0,1,1.39-6,10.21,10.21,0,0,1,3.85-4.12,11,11,0,0,1,10.93,0,10.36,10.36,0,0,1,3.85,4,12.13,12.13,0,0,1,1.41,5.89Zm-15.31-9.28a8.94,8.94,0,0,0-3.31,3.32,10.46,10.46,0,0,0-1.36,4.77h18.61a10.52,10.52,0,0,0-1.43-4.77,9,9,0,0,0-3.3-3.32,8.88,8.88,0,0,0-4.59-1.19A9,9,0,0,0,1041.14,957.05Z"/><path class="cls-2" d="M1082.12,947.26a5.07,5.07,0,0,0-1.12,3.58v3.87h7.52V956H1081v21.56h-1.45V956h-4.32v-1.28h4.32v-4a5.93,5.93,0,0,1,1.54-4.32,5.74,5.74,0,0,1,4.31-1.58,7.93,7.93,0,0,1,2.53.4,5.15,5.15,0,0,1,2,1.14l-.75,1.1a5.28,5.28,0,0,0-3.69-1.36A4.37,4.37,0,0,0,1082.12,947.26Z"/><path class="cls-2" d="M1097.78,976.21a10.48,10.48,0,0,1-4-4.12,13.06,13.06,0,0,1,0-12,10.55,10.55,0,0,1,4-4.12,12,12,0,0,1,11.51,0,10.5,10.5,0,0,1,4,4.12,13,13,0,0,1,0,12,10.43,10.43,0,0,1-4,4.12,12,12,0,0,1-11.51,0Zm10.74-1.15a9.2,9.2,0,0,0,3.5-3.63,11.74,11.74,0,0,0,0-10.62,9.35,9.35,0,0,0-3.5-3.61,10.25,10.25,0,0,0-10,0,9.35,9.35,0,0,0-3.5,3.61,11.74,11.74,0,0,0,0,10.62,9.2,9.2,0,0,0,3.5,3.63,10.25,10.25,0,0,0,10,0Z"/><path class="cls-2" d="M1143.65,954.71v22.84h-1.4V972a8.66,8.66,0,0,1-3.39,4.18,10.12,10.12,0,0,1-5.55,1.49,9.5,9.5,0,0,1-7-2.46c-1.67-1.64-2.51-4-2.51-7.09V954.71h1.46v13.34c0,2.7.69,4.76,2.09,6.18a8,8,0,0,0,6,2.13,8.44,8.44,0,0,0,6.47-2.53,9.52,9.52,0,0,0,2.37-6.79V954.71Z"/><path class="cls-2" d="M1173.13,957q2.47,2.49,2.47,7.11v13.42h-1.45V964.22a8.6,8.6,0,0,0-2.05-6.18,7.67,7.67,0,0,0-5.83-2.14,9,9,0,0,0-6.73,2.53,9.3,9.3,0,0,0-2.47,6.8v12.32h-1.45V954.71H1157v5.59a8.81,8.81,0,0,1,3.54-4.22,10.68,10.68,0,0,1,5.83-1.54A9.06,9.06,0,0,1,1173.13,957Z"/><path class="cls-2" d="M1207.19,944.9v32.65h-1.41V971.3a10.21,10.21,0,0,1-3.89,4.69,10.76,10.76,0,0,1-6,1.69,11.15,11.15,0,0,1-5.67-1.47,10.71,10.71,0,0,1-4-4.12,12.9,12.9,0,0,1,0-12,10.78,10.78,0,0,1,4-4.12,11.15,11.15,0,0,1,5.67-1.47,10.77,10.77,0,0,1,5.92,1.67,10.14,10.14,0,0,1,3.9,4.62V944.9ZM1201,975.06a9.2,9.2,0,0,0,3.5-3.63,11.65,11.65,0,0,0,0-10.62,9.35,9.35,0,0,0-3.5-3.61,10.25,10.25,0,0,0-10,0,9.32,9.32,0,0,0-3.49,3.61,11.65,11.65,0,0,0,0,10.62,9.17,9.17,0,0,0,3.49,3.63,10.25,10.25,0,0,0,10,0Z"/><path class="cls-2" d="M1235.37,976.21a10.44,10.44,0,0,1-4-4.12,13.06,13.06,0,0,1,0-12,10.5,10.5,0,0,1,4-4.12,12,12,0,0,1,11.51,0,10.57,10.57,0,0,1,4,4.12,13.06,13.06,0,0,1,0,12,10.5,10.5,0,0,1-4,4.12,12,12,0,0,1-11.51,0Zm10.74-1.15a9.17,9.17,0,0,0,3.49-3.63,11.65,11.65,0,0,0,0-10.62,9.32,9.32,0,0,0-3.49-3.61,10.25,10.25,0,0,0-10,0,9.35,9.35,0,0,0-3.5,3.61,11.65,11.65,0,0,0,0,10.62,9.2,9.2,0,0,0,3.5,3.63,10.25,10.25,0,0,0,10,0Z"/><path class="cls-2" d="M1281.24,954.71v22.84h-1.41V972a8.55,8.55,0,0,1-3.39,4.18,10.08,10.08,0,0,1-5.54,1.49,9.5,9.5,0,0,1-7-2.46c-1.67-1.64-2.51-4-2.51-7.09V954.71h1.45v13.34a8.48,8.48,0,0,0,2.09,6.18,8,8,0,0,0,6,2.13,8.43,8.43,0,0,0,6.47-2.53,9.48,9.48,0,0,0,2.38-6.79V954.71Z"/><path class="cls-2" d="M1304,976.1a5.36,5.36,0,0,1-2,1.16,7.84,7.84,0,0,1-2.55.42,5.7,5.7,0,0,1-4.29-1.56,5.9,5.9,0,0,1-1.52-4.29V956h-4.31v-1.28h4.31v-5h1.46v5h7.52V956h-7.52v15.62a5,5,0,0,0,1.14,3.56,4.31,4.31,0,0,0,3.34,1.24,5.29,5.29,0,0,0,3.7-1.37Z"/><path class="cls-2" d="M1339.74,956.65a8.15,8.15,0,0,1,2.17,6.12v14.78h-1.4V973a8.16,8.16,0,0,1-3.28,3.46,10.34,10.34,0,0,1-5.22,1.25,9.24,9.24,0,0,1-6-1.76,6.1,6.1,0,0,1-.2-9.17q2-1.74,6.34-1.74h8.31v-2.24a6.91,6.91,0,0,0-1.78-5.15,7.2,7.2,0,0,0-5.26-1.76,12.36,12.36,0,0,0-4.53.83,11.28,11.28,0,0,0-3.61,2.25l-.79-1.06a11.86,11.86,0,0,1,4-2.46,13.91,13.91,0,0,1,5-.88A8.66,8.66,0,0,1,1339.74,956.65Zm.72,14.3V966.2h-8.31q-3.57,0-5.22,1.34a4.43,4.43,0,0,0-1.65,3.63,4.62,4.62,0,0,0,1.83,3.87,8,8,0,0,0,5,1.41Q1338.27,976.45,1340.46,971Z"/><path class="cls-2" d="M1370.56,956a10.69,10.69,0,0,1,4,4.12,12.82,12.82,0,0,1,0,12,10.62,10.62,0,0,1-4,4.12,11.18,11.18,0,0,1-5.68,1.47,10.73,10.73,0,0,1-6-1.69,10.15,10.15,0,0,1-3.89-4.69v6.25h-1.41V944.9h1.45v15.93a10.18,10.18,0,0,1,3.89-4.62,10.81,10.81,0,0,1,5.92-1.67A11.18,11.18,0,0,1,1370.56,956Zm-.73,19a9.2,9.2,0,0,0,3.5-3.63,11.65,11.65,0,0,0,0-10.62,9.35,9.35,0,0,0-3.5-3.61,10.25,10.25,0,0,0-10,0,9.32,9.32,0,0,0-3.49,3.61,11.65,11.65,0,0,0,0,10.62,9.17,9.17,0,0,0,3.49,3.63,10.25,10.25,0,0,0,10,0Z"/><path class="cls-2" d="M1388.31,976.21a10.41,10.41,0,0,1-4-4.12,13,13,0,0,1,0-12,10.48,10.48,0,0,1,4-4.12,12,12,0,0,1,11.51,0,10.57,10.57,0,0,1,4,4.12,13.06,13.06,0,0,1,0,12,10.5,10.5,0,0,1-4,4.12,12,12,0,0,1-11.51,0Zm10.74-1.15a9.27,9.27,0,0,0,3.5-3.63,11.74,11.74,0,0,0,0-10.62,9.42,9.42,0,0,0-3.5-3.61,10.25,10.25,0,0,0-10,0,9.35,9.35,0,0,0-3.5,3.61,11.74,11.74,0,0,0,0,10.62,9.2,9.2,0,0,0,3.5,3.63,10.25,10.25,0,0,0,10,0Z"/><path class="cls-2" d="M1434.18,954.71v22.84h-1.41V972a8.58,8.58,0,0,1-3.38,4.18,10.14,10.14,0,0,1-5.55,1.49,9.5,9.5,0,0,1-6.95-2.46c-1.67-1.64-2.51-4-2.51-7.09V954.71h1.45v13.34a8.48,8.48,0,0,0,2.09,6.18,8,8,0,0,0,6,2.13,8.42,8.42,0,0,0,6.46-2.53,9.48,9.48,0,0,0,2.38-6.79V954.71Z"/><path class="cls-2" d="M1456.93,976.1a5.31,5.31,0,0,1-2,1.16,7.94,7.94,0,0,1-2.56.42,5.74,5.74,0,0,1-4.29-1.56,5.89,5.89,0,0,1-1.51-4.29V956h-4.32v-1.28h4.32v-5H1448v5h7.52V956H1448v15.62a5,5,0,0,0,1.14,3.56,4.32,4.32,0,0,0,3.35,1.24,5.28,5.28,0,0,0,3.69-1.37Z"/><path class="cls-2" d="M1496.57,954.71l-12,26.27a9.79,9.79,0,0,1-2.9,4,6.32,6.32,0,0,1-3.83,1.19,7.89,7.89,0,0,1-2.86-.51,5.62,5.62,0,0,1-2.24-1.52l.83-1.14a5.31,5.31,0,0,0,4.27,1.89,4.67,4.67,0,0,0,3-1,8.9,8.9,0,0,0,2.36-3.34l1.45-3.12-10.39-22.8h1.59l9.59,21.17,9.59-21.17Z"/><path class="cls-2" d="M1506.1,976.21a10.44,10.44,0,0,1-4-4.12,13.06,13.06,0,0,1,0-12,10.5,10.5,0,0,1,4-4.12,12,12,0,0,1,11.51,0,10.57,10.57,0,0,1,4,4.12,13.06,13.06,0,0,1,0,12,10.5,10.5,0,0,1-4,4.12,12,12,0,0,1-11.51,0Zm10.73-1.15a9.13,9.13,0,0,0,3.5-3.63,11.65,11.65,0,0,0,0-10.62,9.28,9.28,0,0,0-3.5-3.61,10.23,10.23,0,0,0-10,0,9.35,9.35,0,0,0-3.5,3.61,11.65,11.65,0,0,0,0,10.62,9.2,9.2,0,0,0,3.5,3.63,10.23,10.23,0,0,0,10,0Z"/><path class="cls-2" d="M1552,954.71v22.84h-1.41V972a8.55,8.55,0,0,1-3.39,4.18,10.08,10.08,0,0,1-5.54,1.49,9.5,9.5,0,0,1-7-2.46c-1.68-1.64-2.51-4-2.51-7.09V954.71h1.45v13.34a8.48,8.48,0,0,0,2.09,6.18,8,8,0,0,0,6,2.13,8.43,8.43,0,0,0,6.47-2.53,9.53,9.53,0,0,0,2.38-6.79V954.71Z"/></svg>