<svg id="Layer_1" data-name="Layer 1" xmlns="http://www.w3.org/2000/svg" xmlns:xlink="http://www.w3.org/1999/xlink" viewBox="0 0 960 1080"><defs><style>.cls-1{fill:url(#linear-gradient);}.cls-2{fill:#fff;}</style><linearGradient id="linear-gradient" x1="-409.59" y1="-3097.21" x2="-409.59" y2="-2451.45" gradientTransform="translate(-2297.07 929.37) rotate(90)" gradientUnits="userSpaceOnUse"><stop offset="0" stop-color="#fbb03b"/><stop offset="1" stop-color="#f7931e"/></linearGradient></defs><title>perAnnum</title><path class="cls-1" d="M259.66,461.39,189.9,584.59H154.38L215.18,479h-56.8v-26.4H259.66Z"/><path class="cls-1" d="M305.1,568.75a18.32,18.32,0,1,1-18.4-18.4A18.27,18.27,0,0,1,305.1,568.75Z"/><path class="cls-1" d="M344.62,546.83c2.4,8.16,9.44,15,23.2,15,10.88,0,18.88-8,18.88-19.2,0-17.44-17.12-23.2-34.24-23.2-11,0-18.56,2.4-22.56,4.16l11-71H408.3V479H366.7l-2.88,18.4c1.12,0,2.4-.16,3.68-.16,25,.16,49.28,9.76,49.28,46.4,0,25.28-20.64,43.36-49,43.36-28.16,0-42.08-15.2-47-28.64Z"/><path class="cls-1" d="M583,506.35h-.8l-27,77.44H537.26l-27-77.44h-.8l-6.24,78.24H473.1l11.84-132h32l29.28,76.16,29.28-76.16h32l11.84,132H589.26Z"/><path class="cls-1" d="M664.78,584.59H634.7v-132h30.08Z"/><path class="cls-1" d="M717.26,584.59H687.18v-132h30.08l52.48,81.92h.32V452.59h30.08v132H770.06l-52.48-81.92h-.32Z"/><path class="cls-2" d="M222.06,421.23H210.65L207.21,412H189.48L186,421.23H174.62l18.81-46.13h9.82ZM198.4,389.36h-.11l-5.2,13.42h10.5Z"/><path class="cls-2" d="M270.57,375.1h12l11.75,30.31L306,375.1h12l-19.54,46.13h-8.36Z"/><path class="cls-2" d="M403,384.32h-16v9.18h15.36v9.22H386.91V412h16v9.22H376.29V375.1H403Z"/><path class="cls-2" d="M482.18,375.1c8.64,0,15.19,4.64,15.19,13.7,0,6.93-3.84,11.57-9.54,13.36l16,19.07h-13.5L476.14,403v18.23H465.52V375.1Zm-4.8,20.46c4,0,8.81-.27,8.81-6s-4.8-6-8.81-6h-1.24v12.07Z"/><path class="cls-2" d="M604.9,421.23H593.49L590.05,412H572.31l-3.44,9.22H557.46l18.81-46.13h9.82Zm-23.66-31.87h-.11l-5.2,13.42h10.5Z"/><path class="cls-2" d="M705.31,405.41c-2.54,11.68-12.37,16.66-21.52,16.66-12.53,0-22.7-10.68-22.7-23.88s9.6-23.93,22.7-23.93c8.19,0,13.9,3,18,7.88l-6.94,7.55c-2.71-4.3-6.27-5.93-10.39-5.93-6.55,0-11.86,6.44-11.86,14.43,0,7.83,5.31,14.21,11.86,14.21,5.08,0,10.11-3.25,10.11-8.89H683.79V395.4h21.52Z"/><path class="cls-2" d="M793.13,384.32h-16v9.18h15.36v9.22H777.09V412h16v9.22H766.47V375.1h26.66Z"/><path class="cls-2" d="M146.44,612.33H179.2v9.23H168.13v36.91H157.51V621.56H146.44Z"/><path class="cls-2" d="M229.4,658.47H218.79V612.33H229.4Z"/><path class="cls-2" d="M308.24,631.12H308l-9.55,27.07h-6.32l-9.55-27.07h-.28l-2.2,27.35H269.44l4.18-46.14h11.3L295.25,639l10.33-26.62h11.3l4.18,46.14H310.44Z"/><path class="cls-2" d="M387.76,621.56h-16v9.17h15.36V640H371.72v9.28h16v9.23H361.1V612.33h26.66Z"/><path class="cls-2" d="M511.26,615.85,507,624.24s-4.63-3.19-9.43-3.19c-3.61,0-5.53,1.62-5.53,4.14s4.4,4.42,9.71,6.66,10.9,6.54,10.9,12.58c0,11-8.47,14.87-17.56,14.87a27.39,27.39,0,0,1-17.51-6.09l5.31-8.84s6.21,5.2,11.41,5.2c2.31,0,6.72-.22,6.72-4.53,0-3.35-5-4.86-10.51-7.6s-8.86-7.05-8.86-11.86c0-8.61,7.68-14.09,15.19-14.09A26.63,26.63,0,0,1,511.26,615.85Z"/><path class="cls-2" d="M570.34,612.33c9.09,0,15.92,4.64,15.92,14.2s-6.83,14.82-15.92,14.82H564v17.12H553.34V612.33ZM567,633c4.18,0,8.13-1.39,8.13-6.09s-4-6.15-8.13-6.15h-3V633Z"/><path class="cls-2" d="M653.35,621.56h-16v9.17h15.37V640H637.31v9.28h16v9.23H626.7V612.33h26.65Z"/><path class="cls-2" d="M705.82,658.47H695.2V612.33h10.62L724.34,641h.11V612.33h10.62v46.14H724.45l-18.52-28.64h-.11Z"/><path class="cls-2" d="M772,612.33H804.7v9.23H793.64v36.91H783V621.56H772Z"/><path class="cls-2" d="M170.78,678.59a23.5,23.5,0,0,1,23.44,23.88c0,13.48-10.05,23.94-23.44,23.94-13.78,0-23.49-10.46-23.49-23.94A23.61,23.61,0,0,1,170.78,678.59Zm0,37.64c8.47,0,12-6.88,12-13.76s-3.72-13.76-12-13.76-12,6.88-12,13.76S162.08,716.23,170.78,716.23Z"/><path class="cls-2" d="M243.41,725.57H232.79V679.43h10.62l18.52,28.63H262V679.43h10.62v46.14H262l-18.52-28.63h-.11Z"/><path class="cls-2" d="M360.87,687.93l13.28-8.5h5v46.14H368.55V693.41l-7.68,4.92Z"/><path class="cls-2" d="M425.88,712.37c.84,2.85,3.33,5.26,8.18,5.26a6.47,6.47,0,0,0,6.67-6.71c0-6.1-6.05-8.11-12.09-8.11a20.13,20.13,0,0,0-8,1.45l3.9-24.83h23.77v9.23H433.67l-1,6.43c.4,0,.85-.06,1.3-.06,8.81.06,17.39,3.42,17.39,16.22,0,8.84-7.28,15.16-17.28,15.16s-14.85-5.32-16.6-10Z"/><path class="cls-2" d="M488.17,687.93l13.27-8.5h5v46.14H495.85V693.41l-7.68,4.92Z"/><path class="cls-2" d="M579.26,713.21l4.52,8.95s-5.2,4.25-15.31,4.25c-13.16,0-25.24-10.63-25.24-23.83s12-24,25.24-24c10.11,0,15.31,4.25,15.31,4.25l-4.52,8.95a16.3,16.3,0,0,0-9.15-2.85c-10.67,0-15.36,7.38-15.36,13.53s4.69,13.59,15.36,13.59A16.3,16.3,0,0,0,579.26,713.21Z"/><path class="cls-2" d="M657.53,709.18c0,11.41-6.32,17.23-18.18,17.23s-18.19-5.82-18.19-17.23V679.43h10.62v26.68c0,7.71,2.37,9.95,7.57,9.95s7.57-2.24,7.57-9.95V679.43h10.61Z"/><path class="cls-2" d="M712.09,679.43c8,0,14.34,3,14.34,11.75a10.5,10.5,0,0,1-5.82,9.89c5.82,1,9.94,4.2,9.94,11.64,0,7.6-5.59,12.86-15.25,12.86H697.63V679.43Zm-3,18.07c4.58,0,7.06-1.4,7.06-5.26,0-3.3-2.43-4.7-7.06-4.7h-.84v10Zm2.49,20c5,0,7.79-1.51,7.79-5.15,0-4.25-2.77-5.76-7.79-5.76h-3.33v10.91Z"/><path class="cls-2" d="M810.46,725.57h-11.4l-3.45-9.23H777.88l-3.45,9.23H763l18.8-46.14h9.83ZM786.8,693.69h-.11l-5.2,13.42H792Z"/></svg>