<svg id="Layer_1" data-name="Layer 1" xmlns="http://www.w3.org/2000/svg" xmlns:xlink="http://www.w3.org/1999/xlink" viewBox="0 0 1920 1080"><defs><style>.cls-1{fill:url(#linear-gradient);}.cls-2{fill:#fff;}</style><linearGradient id="linear-gradient" x1="652.81" y1="331.86" x2="652.81" y2="749.72" gradientUnits="userSpaceOnUse"><stop offset="0" stop-color="#fbb03b"/><stop offset="1" stop-color="#ea772a"/></linearGradient></defs><title>perAnnum</title><path class="cls-1" d="M636.18,725.71l-11.33,23.41s-35.77-11.93-35.77-45.32c0-42.19,27.72-47.71,43.23-47.71,28.77,0,57.39,43.39,57.39,43.39V653.86h24.6v95.86h-7s-52.32-63.36-75-63.36c-4.48,0-19.53,1-19.53,17.44C612.78,717.22,636.18,725.71,636.18,725.71Z"/><path class="cls-1" d="M589.08,576.49c0-26.39,21.16-49.94,63.8-49.94,45.62,0,63.66,23.55,63.66,49.94s-18,50.09-63.66,50.09C610.24,626.58,589.08,602.88,589.08,576.49Zm102.86,0c0-13.42-12.52-21.62-39.06-21.62-24.9,0-39.21,8.2-39.21,21.62s14.46,21.77,39.21,21.77C679.42,598.26,691.94,590.06,691.94,576.49Z"/><path class="cls-1" d="M614,503.15l-22.66-35V454.85h123v28H628.58l13.12,20.28Z"/><path class="cls-1" d="M672.11,378.52s1.79,3.13,1.79,8.8c0,16.84-14.46,39.2-43.08,39.2-29.07,0-41.74-23.4-41.74-45.61,0-27.58,18.18-49.05,41.74-49.05,21.61,0,31.6,6.56,49,19.38l34.44,28.92v34.59Zm-59.93,1c0,10.89,7.9,18.94,18.64,18.94a18.63,18.63,0,0,0,19.08-18.94c0-10.28-8-18.63-19.08-18.63C620.08,360.93,612.18,368.68,612.18,379.56Z"/><path class="cls-2" d="M852.57,420.74H830.2l-6.75-18.27H788.67l-6.75,18.27H759.54l36.88-91.37h19.27Zm-46.4-63.13H806l-10.19,26.58h20.6Z"/><path class="cls-2" d="M888,420.74H867.19V329.37H888l36.32,56.71h.22V329.37h20.82v91.37H924.56L888.24,364H888Z"/><path class="cls-2" d="M990.57,420.74H969.75V329.37h20.82l36.33,56.71h.22V329.37h20.82v91.37h-20.82L990.79,364h-.22Z"/><path class="cls-2" d="M1142.52,388.29c0,22.59-12.4,34.11-35.66,34.11s-35.66-11.52-35.66-34.11V329.37H1092V382.2c0,15.28,4.65,19.71,14.84,19.71s14.84-4.43,14.84-19.71V329.37h20.82Z"/><path class="cls-2" d="M1249.06,420.74h-22.37l-6.75-18.27h-34.78l-6.75,18.27H1156l36.87-91.37h19.27Zm-46.4-63.13h-.22l-10.19,26.58h20.6Z"/><path class="cls-2" d="M1284.51,402.47H1316v18.27h-52.27V329.37h20.82Z"/><path class="cls-2" d="M795.76,462.28c25,0,46.07,19.05,46.07,45.63s-20.93,45.73-46.07,45.73H769.29V462.28ZM793.32,535c15.4,0,25.92-11.74,26-27s-10.52-27.14-26-27.14h-3.21V535Z"/><path class="cls-2" d="M945.38,553.64H923l-6.76-18.27H881.48l-6.76,18.27H852.35l36.88-91.36H908.5ZM899,490.52h-.22L888.57,517.1h20.6Z"/><path class="cls-2" d="M948.93,462.28h64.24v18.27H991.46v73.09H970.64V480.55H948.93Z"/><path class="cls-2" d="M1109.74,553.64h-22.37l-6.76-18.27h-34.77l-6.76,18.27h-22.37l36.88-91.36h19.27Zm-46.4-63.12h-.22l-10.19,26.58h20.6Z"/><path class="cls-2" d="M802,595.18c16.94,0,29.79,9.19,29.79,27.13,0,13.74-7.53,22.93-18.71,26.47l31.45,37.77H818l-27.91-36.11v36.11H769.29V595.18Zm-9.41,40.53c7.86,0,17.27-.55,17.27-12s-9.41-12-17.27-12h-2.44v23.92Z"/><path class="cls-2" d="M911.94,613.45H880.48v18.17h30.13v18.27H880.48v18.38h31.46v18.28H859.66V595.18h52.28Z"/><path class="cls-2" d="M925.23,595.18h23.48l23,60,23-60h23.48l-38.32,91.37H963.55Z"/><path class="cls-2" d="M1053.7,686.55h-20.82V595.18h20.82Z"/><path class="cls-2" d="M1130.34,613.45h-31.45v18.17H1129v18.27h-30.12v18.38h31.45v18.28h-52.28V595.18h52.28Z"/><path class="cls-2" d="M1208.86,635.27l-14.62,51.28h-23.15l-26-91.37h23.15l15.61,62.68h.55L1201,595.18h15.72l16.62,62.68h.55l15.61-62.68h23l-26,91.37h-23Z"/><path class="cls-2" d="M780.94,721.38V749.8h-2.07V723.25h-6.94v-1.87Z"/><path class="cls-2" d="M804.08,735.45a7.33,7.33,0,0,1,2.8,6.15,8.37,8.37,0,0,1-1.11,4.32,7.71,7.71,0,0,1-3.35,3,12.39,12.39,0,0,1-5.48,1.1,15.63,15.63,0,0,1-5.79-1.06,10.54,10.54,0,0,1-4.2-2.76L788,744.6a9.65,9.65,0,0,0,3.71,2.52,13.5,13.5,0,0,0,5.18,1,8.8,8.8,0,0,0,5.86-1.74,5.82,5.82,0,0,0,2-4.67,5.61,5.61,0,0,0-2.33-4.87q-2.34-1.66-7.86-1.67h-5.76l1.5-13.76h15.06v1.87H792.11l-1.1,10h4.06Q801.28,733.28,804.08,735.45Z"/><path class="cls-2" d="M817.92,721.38V749.8h-2.07V723.25h-6.94v-1.87Z"/><path class="cls-2" d="M842.75,748.13a13.68,13.68,0,0,1-5.28-5.15,15.11,15.11,0,0,1,0-14.78,13.68,13.68,0,0,1,5.28-5.15,15.13,15.13,0,0,1,7.53-1.87,15.84,15.84,0,0,1,5.68,1,11.73,11.73,0,0,1,4.42,3l-1.29,1.34a11.9,11.9,0,0,0-8.73-3.37,13.2,13.2,0,0,0-6.5,1.62,11.77,11.77,0,0,0-4.58,4.49,13.06,13.06,0,0,0,0,12.78,11.77,11.77,0,0,0,4.58,4.49,13.2,13.2,0,0,0,6.5,1.62,11.88,11.88,0,0,0,8.73-3.41l1.29,1.34a11.81,11.81,0,0,1-4.44,3,15.67,15.67,0,0,1-5.66,1A15.13,15.13,0,0,1,842.75,748.13Z"/><path class="cls-2" d="M884.46,728.61V749.8h-2v-4.55a7.87,7.87,0,0,1-3.13,3.47,9.26,9.26,0,0,1-4.87,1.24,8.12,8.12,0,0,1-8.85-9V728.61h2v12.22a7.47,7.47,0,0,0,1.83,5.44,6.89,6.89,0,0,0,5.15,1.86,7.4,7.4,0,0,0,5.67-2.23,8.46,8.46,0,0,0,2.09-6V728.61Z"/><path class="cls-2" d="M909.06,729.8a9.77,9.77,0,0,1,3.75,3.82,11.3,11.3,0,0,1,1.36,5.58,11.15,11.15,0,0,1-1.36,5.56,9.9,9.9,0,0,1-3.75,3.82A10.57,10.57,0,0,1,903.7,750a9.85,9.85,0,0,1-5.14-1.36,9.24,9.24,0,0,1-3.55-3.8v5h-2V719.68h2v13.76a9.2,9.2,0,0,1,3.53-3.68,10,10,0,0,1,5.08-1.32A10.76,10.76,0,0,1,909.06,729.8ZM908,747a8.11,8.11,0,0,0,3.06-3.17,10.13,10.13,0,0,0,0-9.26,8.09,8.09,0,0,0-3.06-3.16,8.52,8.52,0,0,0-4.38-1.14,8.43,8.43,0,0,0-4.37,1.14,8.18,8.18,0,0,0-3,3.16,10.13,10.13,0,0,0,0,9.26,8.21,8.21,0,0,0,3,3.17,8.52,8.52,0,0,0,4.37,1.13A8.61,8.61,0,0,0,908,747Z"/><path class="cls-2" d="M933.57,730.45a7.77,7.77,0,0,1,2.11,5.91V749.8h-1.94V746a7,7,0,0,1-3,2.9,9.82,9.82,0,0,1-4.67,1,8.56,8.56,0,0,1-5.58-1.67,5.75,5.75,0,0,1-.16-8.66q1.89-1.65,6-1.65h7.27v-1.7a6,6,0,0,0-1.61-4.51,6.54,6.54,0,0,0-4.69-1.54,11.29,11.29,0,0,0-4,.73,10.21,10.21,0,0,0-3.26,1.95l-1-1.46a11.15,11.15,0,0,1,3.82-2.21,13.81,13.81,0,0,1,4.67-.8A8.41,8.41,0,0,1,933.57,730.45Zm-2.69,16.63a7.46,7.46,0,0,0,2.78-3.53v-4h-7.23a7.28,7.28,0,0,0-4.53,1.13,3.82,3.82,0,0,0-1.4,3.13,3.92,3.92,0,0,0,1.55,3.27,6.9,6.9,0,0,0,4.34,1.19A8,8,0,0,0,930.88,747.08Z"/><path class="cls-2" d="M956.65,748.92a11.29,11.29,0,0,1-4.4-2.78l.93-1.54a10.91,10.91,0,0,0,4,2.58,14.55,14.55,0,0,0,5.34,1c2.7,0,4.75-.51,6.13-1.54a4.79,4.79,0,0,0,2.07-4,4.2,4.2,0,0,0-1.1-3,7.3,7.3,0,0,0-2.72-1.75,39.77,39.77,0,0,0-4.38-1.26,41.38,41.38,0,0,1-5-1.5,8.11,8.11,0,0,1-3.2-2.25,6,6,0,0,1-1.32-4.08,7,7,0,0,1,1.09-3.8,7.47,7.47,0,0,1,3.35-2.74,13.83,13.83,0,0,1,5.63-1,15.77,15.77,0,0,1,4.62.69,13.45,13.45,0,0,1,3.94,1.87l-.77,1.66a13.51,13.51,0,0,0-3.75-1.79,14.41,14.41,0,0,0-4-.61,9.53,9.53,0,0,0-6,1.59,4.94,4.94,0,0,0-2,4.1,4.18,4.18,0,0,0,1.09,3,7.38,7.38,0,0,0,2.72,1.75,43.2,43.2,0,0,0,4.43,1.3,40.13,40.13,0,0,1,5,1.5,8.19,8.19,0,0,1,3.19,2.21,5.8,5.8,0,0,1,1.32,4,6.73,6.73,0,0,1-1.12,3.78,7.65,7.65,0,0,1-3.43,2.72,14.25,14.25,0,0,1-5.68,1A16.48,16.48,0,0,1,956.65,748.92Z"/><path class="cls-2" d="M989.71,748.46a5,5,0,0,1-1.92,1.11,7.57,7.57,0,0,1-2.42.39,5.73,5.73,0,0,1-4.26-1.52,5.79,5.79,0,0,1-1.5-4.24V730.35h-3.9v-1.74h3.9V724h2v4.63h6.74v1.74h-6.74V744a4.51,4.51,0,0,0,1,3.15,3.79,3.79,0,0,0,2.94,1.07,4.72,4.72,0,0,0,3.29-1.17Z"/><path class="cls-2" d="M1000.35,729.68a9.69,9.69,0,0,1,5-1.24v2l-.48,0a7,7,0,0,0-5.52,2.22,8.83,8.83,0,0,0-2,6.14v11h-2V728.61h1.94v4.62A7.43,7.43,0,0,1,1000.35,729.68Z"/><path class="cls-2" d="M1028.68,739.69h-18.22a8.73,8.73,0,0,0,1.26,4.4,8,8,0,0,0,3.18,3,10.23,10.23,0,0,0,8.36.3,7.54,7.54,0,0,0,3-2.21l1.18,1.34a9.15,9.15,0,0,1-3.48,2.56,12.08,12.08,0,0,1-10.16-.49,9.9,9.9,0,0,1-3.88-3.82,11,11,0,0,1-1.4-5.56,11.54,11.54,0,0,1,1.32-5.54,9.71,9.71,0,0,1,3.63-3.83,10.46,10.46,0,0,1,10.37,0,9.74,9.74,0,0,1,3.62,3.8,11.37,11.37,0,0,1,1.31,5.52Zm-14.08-8.46a7.46,7.46,0,0,0-2.86,2.8,9.08,9.08,0,0,0-1.24,4.08h16.24a8.59,8.59,0,0,0-1.22-4.06,7.88,7.88,0,0,0-2.88-2.8,8.51,8.51,0,0,0-8,0Z"/><path class="cls-2" d="M1052.92,739.69h-18.23a8.94,8.94,0,0,0,1.26,4.4,8.12,8.12,0,0,0,3.19,3,9.62,9.62,0,0,0,4.52,1,9.74,9.74,0,0,0,3.84-.75,7.43,7.43,0,0,0,2.94-2.21l1.18,1.34a9.12,9.12,0,0,1-3.47,2.56,11.51,11.51,0,0,1-4.53.89,11.38,11.38,0,0,1-5.64-1.38,10,10,0,0,1-3.88-3.82,11,11,0,0,1-1.4-5.56,11.54,11.54,0,0,1,1.32-5.54,9.66,9.66,0,0,1,3.64-3.83,9.93,9.93,0,0,1,5.19-1.39,10,10,0,0,1,5.18,1.36,9.72,9.72,0,0,1,3.61,3.8,11.38,11.38,0,0,1,1.32,5.52Zm-14.09-8.46A7.53,7.53,0,0,0,1036,734a9.08,9.08,0,0,0-1.24,4.08H1051a8.48,8.48,0,0,0-1.22-4.06,7.9,7.9,0,0,0-6.9-3.82A8,8,0,0,0,1038.83,731.23Z"/><path class="cls-2" d="M1069.76,748.46a5,5,0,0,1-1.92,1.11,7.57,7.57,0,0,1-2.42.39,5.73,5.73,0,0,1-4.26-1.52,5.79,5.79,0,0,1-1.5-4.24V730.35h-3.9v-1.74h3.9V724h2v4.63h6.73v1.74h-6.73V744a4.51,4.51,0,0,0,1,3.15,3.79,3.79,0,0,0,2.94,1.07,4.73,4.73,0,0,0,3.29-1.17Z"/><path class="cls-2" d="M1124.48,721.38l-9.62,28.42h-2.19l-8.81-25.5L1095,749.8h-2.19l-9.66-28.42h2.19L1094,747l8.89-25.58h2l8.85,25.62,8.73-25.62Z"/><path class="cls-2" d="M1146.08,739.69h-18.23a8.94,8.94,0,0,0,1.26,4.4,8.12,8.12,0,0,0,3.19,3,10.23,10.23,0,0,0,8.36.3,7.43,7.43,0,0,0,2.94-2.21l1.18,1.34a9.12,9.12,0,0,1-3.47,2.56,12.11,12.11,0,0,1-10.17-.49,10,10,0,0,1-3.88-3.82,11,11,0,0,1-1.4-5.56,11.54,11.54,0,0,1,1.32-5.54,9.66,9.66,0,0,1,3.64-3.83,9.93,9.93,0,0,1,5.19-1.39,10,10,0,0,1,5.18,1.36,9.72,9.72,0,0,1,3.61,3.8,11.38,11.38,0,0,1,1.32,5.52ZM1132,731.23a7.53,7.53,0,0,0-2.86,2.8,9.08,9.08,0,0,0-1.24,4.08h16.24a8.48,8.48,0,0,0-1.22-4.06,7.9,7.9,0,0,0-6.9-3.82A8,8,0,0,0,1132,731.23Z"/><path class="cls-2" d="M1152.41,719.68h2V749.8h-2Z"/><path class="cls-2" d="M1163,719.68h2V749.8h-2Z"/><path class="cls-2" d="M1173.44,723a1.51,1.51,0,0,1-.49-1.15,1.6,1.6,0,0,1,.49-1.18,1.68,1.68,0,0,1,2.35,0,1.53,1.53,0,0,1,.49,1.16,1.67,1.67,0,0,1-1.66,1.66A1.61,1.61,0,0,1,1173.44,723Zm.16,5.63h2V749.8h-2Z"/><path class="cls-2" d="M1200.84,730.76q2.31,2.31,2.31,6.66V749.8h-2V737.58a7.53,7.53,0,0,0-1.8-5.44,6.7,6.7,0,0,0-5.06-1.87,7.8,7.8,0,0,0-5.88,2.23,8.29,8.29,0,0,0-2.15,6V749.8h-2V728.61h1.94v4.58a8.16,8.16,0,0,1,3.27-3.49,10.07,10.07,0,0,1,5.14-1.26A8.51,8.51,0,0,1,1200.84,730.76Z"/><path class="cls-2" d="M1230.63,728.61v18.91q0,5.28-2.55,7.8c-1.71,1.68-4.28,2.51-7.72,2.51a16.77,16.77,0,0,1-5.52-.89,10.67,10.67,0,0,1-4.18-2.48l1.1-1.54a11.15,11.15,0,0,0,3.81,2.28,13.82,13.82,0,0,0,4.75.81q4.23,0,6.25-2c1.36-1.34,2-3.42,2-6.23V744.2a9,9,0,0,1-3.61,3.57,10.66,10.66,0,0,1-5.19,1.26,11,11,0,0,1-5.38-1.32,9.74,9.74,0,0,1-3.8-3.68,10.93,10.93,0,0,1,0-10.63,9.62,9.62,0,0,1,3.8-3.66,11.23,11.23,0,0,1,5.38-1.3,10.8,10.8,0,0,1,5.27,1.3,8.92,8.92,0,0,1,3.62,3.66v-4.79Zm-6.21,17.51a7.74,7.74,0,0,0,3.11-3,8.68,8.68,0,0,0,1.11-4.41,8.54,8.54,0,0,0-1.11-4.38,7.83,7.83,0,0,0-3.11-3,9.73,9.73,0,0,0-8.91,0,7.81,7.81,0,0,0-3.08,3,8.45,8.45,0,0,0-1.12,4.38,8.58,8.58,0,0,0,1.12,4.41,7.73,7.73,0,0,0,3.08,3,9.73,9.73,0,0,0,8.91,0Z"/><path class="cls-2" d="M1249.75,748.46a5,5,0,0,1-1.92,1.11,7.57,7.57,0,0,1-2.42.39,5.73,5.73,0,0,1-4.26-1.52,5.79,5.79,0,0,1-1.5-4.24V730.35h-3.9v-1.74h3.9V724h2v4.63h6.74v1.74h-6.74V744a4.51,4.51,0,0,0,1,3.15,3.79,3.79,0,0,0,2.94,1.07,4.73,4.73,0,0,0,3.29-1.17Z"/><path class="cls-2" d="M1257.49,748.58a10,10,0,0,1-3.8-3.84,11.81,11.81,0,0,1,0-11.08,9.92,9.92,0,0,1,3.8-3.83,11.24,11.24,0,0,1,10.83,0,9.92,9.92,0,0,1,3.8,3.83,11.81,11.81,0,0,1,0,11.08,10,10,0,0,1-3.8,3.84,11.31,11.31,0,0,1-10.83,0Zm9.78-1.58a8.21,8.21,0,0,0,3-3.17,10.13,10.13,0,0,0,0-9.26,8.18,8.18,0,0,0-3-3.16,8.93,8.93,0,0,0-8.73,0,8.18,8.18,0,0,0-3,3.16,10.13,10.13,0,0,0,0,9.26,8.21,8.21,0,0,0,3,3.17,9,9,0,0,0,8.73,0Z"/><path class="cls-2" d="M1296.44,730.76q2.31,2.31,2.31,6.66V749.8h-2V737.58a7.49,7.49,0,0,0-1.81-5.44,6.68,6.68,0,0,0-5.05-1.87,7.84,7.84,0,0,0-5.89,2.23,8.33,8.33,0,0,0-2.15,6V749.8h-2V728.61h2v4.58a8.1,8.1,0,0,1,3.27-3.49,10.06,10.06,0,0,1,5.13-1.26A8.53,8.53,0,0,1,1296.44,730.76Z"/><path class="cls-2" d="M561.62,947a8.24,8.24,0,0,1-3.32-2.2l.57-.75a8.11,8.11,0,0,0,3.06,2.06,11.18,11.18,0,0,0,4.21.8,8,8,0,0,0,5-1.31,4,4,0,0,0,1.69-3.35,3.62,3.62,0,0,0-.88-2.53,5.68,5.68,0,0,0-2.18-1.45,30.1,30.1,0,0,0-3.52-1,32.86,32.86,0,0,1-3.84-1.17,6.06,6.06,0,0,1-2.45-1.73,4.53,4.53,0,0,1-1-3.11,5.14,5.14,0,0,1,.82-2.83,5.58,5.58,0,0,1,2.5-2.06,10,10,0,0,1,4.2-.78,11.88,11.88,0,0,1,3.54.54,9.29,9.29,0,0,1,3,1.48l-.47.85a9.47,9.47,0,0,0-2.88-1.43,10.47,10.47,0,0,0-3.13-.49,7.59,7.59,0,0,0-4.86,1.33,4.19,4.19,0,0,0-1.65,3.39,3.63,3.63,0,0,0,.89,2.56,6,6,0,0,0,2.21,1.47,29.39,29.39,0,0,0,3.51,1,37.91,37.91,0,0,1,3.84,1.15,6.06,6.06,0,0,1,2.43,1.7,4.55,4.55,0,0,1,1,3.07A5.06,5.06,0,0,1,573,945a5.64,5.64,0,0,1-2.56,2.05,10.79,10.79,0,0,1-4.28.75A12.22,12.22,0,0,1,561.62,947Z"/><path class="cls-2" d="M582.73,946.75a7.66,7.66,0,0,1-2.89-3,9.23,9.23,0,0,1,0-8.55,7.66,7.66,0,0,1,2.89-3,8.28,8.28,0,0,1,4.17-1,8.42,8.42,0,0,1,3.45.71,6.41,6.41,0,0,1,2.6,2.09l-.79.66a5.64,5.64,0,0,0-2.25-1.86,7.62,7.62,0,0,0-6.64.3,6.54,6.54,0,0,0-2.53,2.58,8.31,8.31,0,0,0,0,7.6,6.46,6.46,0,0,0,2.53,2.6,7.53,7.53,0,0,0,6.64.3,5.64,5.64,0,0,0,2.25-1.86l.79.63a6.41,6.41,0,0,1-2.6,2.09,8.77,8.77,0,0,1-7.62-.34Z"/><path class="cls-2" d="M602.84,932.3a7.23,7.23,0,0,1,4-1v1h-.28a5.67,5.67,0,0,0-4.44,1.79,7.14,7.14,0,0,0-1.6,4.94v8.69h-1V931.38h1v3.93A6,6,0,0,1,602.84,932.3Z"/><path class="cls-2" d="M614.89,946.75a7.63,7.63,0,0,1-2.88-3,9.39,9.39,0,0,1,0-8.55,7.63,7.63,0,0,1,2.88-3,8.59,8.59,0,0,1,8.23,0,7.61,7.61,0,0,1,2.87,3,9.39,9.39,0,0,1,0,8.55,7.61,7.61,0,0,1-2.87,3,8.59,8.59,0,0,1-8.23,0Zm7.68-.82a6.59,6.59,0,0,0,2.5-2.6,8.31,8.31,0,0,0,0-7.6,6.67,6.67,0,0,0-2.5-2.58,7.39,7.39,0,0,0-7.14,0,6.6,6.6,0,0,0-2.5,2.58,8.31,8.31,0,0,0,0,7.6,6.52,6.52,0,0,0,2.5,2.6,7.32,7.32,0,0,0,7.14,0Z"/><path class="cls-2" d="M633.73,924.36h1v23.35h-1Z"/><path class="cls-2" d="M643.32,924.36h1v23.35h-1Z"/><path class="cls-2" d="M663,925.68h8.5a12.73,12.73,0,0,1,6.09,1.42A10.29,10.29,0,0,1,681.7,931a11.78,11.78,0,0,1,0,11.36,10.24,10.24,0,0,1-4.12,3.92,12.73,12.73,0,0,1-6.09,1.42H663Zm8.43,21.05a11.74,11.74,0,0,0,5.62-1.29,9.3,9.3,0,0,0,3.73-3.57,10.8,10.8,0,0,0,0-10.35A9.3,9.3,0,0,0,677,928a11.74,11.74,0,0,0-5.62-1.29h-7.36v20.07Z"/><path class="cls-2" d="M693.88,946.39a10.6,10.6,0,0,1-4.08-4,11.7,11.7,0,0,1,0-11.39,10.6,10.6,0,0,1,4.08-4,12.37,12.37,0,0,1,11.62,0,10.55,10.55,0,0,1,4.09,4,11.7,11.7,0,0,1,0,11.39,10.55,10.55,0,0,1-4.09,4,12.44,12.44,0,0,1-11.62,0Zm11.06-.85a9.78,9.78,0,0,0,3.71-3.65,10.67,10.67,0,0,0,0-10.39,9.71,9.71,0,0,0-3.71-3.65,10.62,10.62,0,0,0-5.26-1.32,10.49,10.49,0,0,0-5.24,1.32,9.82,9.82,0,0,0-3.7,3.65,10.67,10.67,0,0,0,0,10.39,9.89,9.89,0,0,0,3.7,3.65,10.49,10.49,0,0,0,5.24,1.32A10.62,10.62,0,0,0,704.94,945.54Z"/><path class="cls-2" d="M746.69,925.68l-7.52,22H738.1l-7.17-20.55-7.14,20.55h-1.11l-7.52-22h1.14l7,20.49,7.17-20.49h1l7.15,20.52,7-20.52Z"/><path class="cls-2" d="M770.77,925.68v22h-.89l-15.63-20.08v20.08h-1.08v-22h.89l15.64,20.08V925.68Z"/><path class="cls-2" d="M797.1,946.67a3.82,3.82,0,0,1-1.44.83,5.66,5.66,0,0,1-1.83.3,4.08,4.08,0,0,1-3.07-1.12,4.2,4.2,0,0,1-1.08-3.06V932.29h-3.09v-.91h3.09v-3.59h1v3.59h5.39v.91h-5.39v11.17a3.65,3.65,0,0,0,.82,2.55,3.11,3.11,0,0,0,2.39.88,3.81,3.81,0,0,0,2.65-1Z"/><path class="cls-2" d="M804.73,946.75a7.63,7.63,0,0,1-2.88-3,9.39,9.39,0,0,1,0-8.55,7.63,7.63,0,0,1,2.88-3,8.59,8.59,0,0,1,8.23,0,7.61,7.61,0,0,1,2.87,3,9.39,9.39,0,0,1,0,8.55,7.61,7.61,0,0,1-2.87,3,8.59,8.59,0,0,1-8.23,0Zm7.68-.82a6.59,6.59,0,0,0,2.5-2.6,8.31,8.31,0,0,0,0-7.6,6.67,6.67,0,0,0-2.5-2.58,7.39,7.39,0,0,0-7.14,0,6.67,6.67,0,0,0-2.5,2.58,8.31,8.31,0,0,0,0,7.6,6.59,6.59,0,0,0,2.5,2.6,7.32,7.32,0,0,0,7.14,0Z"/><path class="cls-2" d="M833.31,947.2a6.87,6.87,0,0,1-2.73-1.57l.51-.82a8.31,8.31,0,0,0,2.59,1.48,9.52,9.52,0,0,0,3.39.6,6.76,6.76,0,0,0,3.9-.9,2.9,2.9,0,0,0,1.26-2.5,2.4,2.4,0,0,0-.68-1.79,4.13,4.13,0,0,0-1.68-1,24.43,24.43,0,0,0-2.71-.63,25.74,25.74,0,0,1-3.16-.77,4.7,4.7,0,0,1-2-1.27,3.47,3.47,0,0,1-.82-2.46,3.84,3.84,0,0,1,1.53-3.1,6.9,6.9,0,0,1,4.45-1.24,10.21,10.21,0,0,1,3,.46,7.07,7.07,0,0,1,2.46,1.21l-.54.82a6.8,6.8,0,0,0-2.28-1.15,9.37,9.37,0,0,0-2.69-.4,6,6,0,0,0-3.65.93,2.91,2.91,0,0,0-1.23,2.44,2.55,2.55,0,0,0,.69,1.89,4.31,4.31,0,0,0,1.72,1,25.2,25.2,0,0,0,2.78.68,23,23,0,0,1,3.06.74,4.67,4.67,0,0,1,2,1.24,3.28,3.28,0,0,1,.81,2.36,3.71,3.71,0,0,1-1.61,3.15A7.84,7.84,0,0,1,837,947.8,11.35,11.35,0,0,1,833.31,947.2Z"/><path class="cls-2" d="M862.93,939.68H848.61a7.52,7.52,0,0,0,1,3.72,6.64,6.64,0,0,0,2.6,2.55,7.58,7.58,0,0,0,3.69.91,7.72,7.72,0,0,0,3.09-.62,5.68,5.68,0,0,0,2.32-1.81l.67.7a7.41,7.41,0,0,1-2.68,2,8.37,8.37,0,0,1-3.4.69,8.57,8.57,0,0,1-4.26-1,7.65,7.65,0,0,1-2.94-3,8.41,8.41,0,0,1-1.07-4.27,9,9,0,0,1,1-4.28,7.39,7.39,0,0,1,2.75-3,7.57,7.57,0,0,1,3.94-1,7.47,7.47,0,0,1,3.88,1,7.36,7.36,0,0,1,2.75,2.89,8.63,8.63,0,0,1,1,4.22ZM852,933a6.42,6.42,0,0,0-2.36,2.38,7.39,7.39,0,0,0-1,3.41H862a7.69,7.69,0,0,0-1-3.41,6.36,6.36,0,0,0-5.64-3.23A6.6,6.6,0,0,0,852,933Z"/><path class="cls-2" d="M883.1,939.68H868.78a7.52,7.52,0,0,0,1,3.72,6.64,6.64,0,0,0,2.6,2.55,7.58,7.58,0,0,0,3.69.91,7.72,7.72,0,0,0,3.09-.62,5.68,5.68,0,0,0,2.32-1.81l.67.7a7.41,7.41,0,0,1-2.68,2,8.37,8.37,0,0,1-3.4.69,8.57,8.57,0,0,1-4.26-1,7.65,7.65,0,0,1-2.94-3,8.41,8.41,0,0,1-1.07-4.27,9,9,0,0,1,1-4.28,7.39,7.39,0,0,1,2.75-3,7.57,7.57,0,0,1,3.94-1,7.47,7.47,0,0,1,3.88,1,7.36,7.36,0,0,1,2.75,2.89,8.63,8.63,0,0,1,1,4.22Zm-11-6.64a6.42,6.42,0,0,0-2.36,2.38,7.39,7.39,0,0,0-1,3.41h13.31a7.69,7.69,0,0,0-1-3.41,6.36,6.36,0,0,0-5.64-3.23A6.6,6.6,0,0,0,872.15,933Z"/><path class="cls-2" d="M922.18,931.38,916,947.71h-1l-5.79-15-5.82,15h-.92l-6.26-16.33h1l5.69,15.13,5.83-15.13h.94l5.79,15.13,5.73-15.13Z"/><path class="cls-2" d="M940.12,933a6.92,6.92,0,0,1,1.76,5.08v9.6h-1v-9.54a6.12,6.12,0,0,0-1.46-4.42,5.51,5.51,0,0,0-4.17-1.52,6.42,6.42,0,0,0-4.81,1.8,6.67,6.67,0,0,0-1.77,4.87v8.81h-1V924.36h1v10.92a6.41,6.41,0,0,1,2.55-3,7.73,7.73,0,0,1,4.12-1.07A6.47,6.47,0,0,1,940.12,933Z"/><path class="cls-2" d="M960.08,932.76a5.82,5.82,0,0,1,1.56,4.37v10.58h-1v-3.28a5.77,5.77,0,0,1-2.35,2.47,7.33,7.33,0,0,1-3.73.9,6.64,6.64,0,0,1-4.29-1.26,4.36,4.36,0,0,1-.14-6.56,6.76,6.76,0,0,1,4.53-1.24h5.94v-1.61a5,5,0,0,0-1.27-3.68,5.13,5.13,0,0,0-3.76-1.26,8.72,8.72,0,0,0-3.24.6,8,8,0,0,0-2.58,1.61l-.57-.76a8.55,8.55,0,0,1,2.88-1.76,10,10,0,0,1,3.54-.63A6.15,6.15,0,0,1,960.08,932.76ZM960.6,943v-3.4h-5.94a5.87,5.87,0,0,0-3.73,1,3.15,3.15,0,0,0-1.18,2.59,3.29,3.29,0,0,0,1.3,2.77,5.75,5.75,0,0,0,3.58,1A5.89,5.89,0,0,0,960.6,943Z"/><path class="cls-2" d="M977.72,946.67a3.86,3.86,0,0,1-1.45.83,5.56,5.56,0,0,1-1.82.3,4.06,4.06,0,0,1-3.07-1.12,4.2,4.2,0,0,1-1.08-3.06V932.29h-3.09v-.91h3.09v-3.59h1v3.59h5.38v.91h-5.38v11.17a3.65,3.65,0,0,0,.82,2.55,3.1,3.1,0,0,0,2.39.88,3.81,3.81,0,0,0,2.65-1Z"/><path class="cls-2" d="M1016.3,931.38l-6.23,16.33h-1l-5.79-15-5.82,15h-.91l-6.26-16.33h1L997,946.51l5.82-15.13h.95l5.79,15.13,5.72-15.13Z"/><path class="cls-2" d="M1034.71,939.68h-14.32a7.52,7.52,0,0,0,1,3.72A6.68,6.68,0,0,0,1024,946a8,8,0,0,0,6.78.29,5.71,5.71,0,0,0,2.33-1.81l.66.7a7.29,7.29,0,0,1-2.67,2,8.37,8.37,0,0,1-3.4.69,8.54,8.54,0,0,1-4.26-1,7.74,7.74,0,0,1-2.95-3,8.51,8.51,0,0,1-1.07-4.27,8.92,8.92,0,0,1,1-4.28,7.32,7.32,0,0,1,2.75-3,7.84,7.84,0,0,1,7.82,0,7.43,7.43,0,0,1,2.75,2.89,8.75,8.75,0,0,1,1,4.22Zm-11-6.64a6.34,6.34,0,0,0-2.36,2.38,7.52,7.52,0,0,0-1,3.41h13.31a7.55,7.55,0,0,0-1-3.41,6.36,6.36,0,0,0-5.65-3.23A6.57,6.57,0,0,0,1023.76,933Z"/><path class="cls-2" d="M1053.07,926a3.63,3.63,0,0,0-.8,2.57v2.77h5.38v.91h-5.38v15.42h-1V932.29h-3.09v-.91h3.09v-2.9a4.19,4.19,0,0,1,1.1-3.08,4.07,4.07,0,0,1,3.08-1.14,5.72,5.72,0,0,1,1.81.29,3.64,3.64,0,0,1,1.43.82l-.53.78a3.76,3.76,0,0,0-2.64-1A3.11,3.11,0,0,0,1053.07,926Z"/><path class="cls-2" d="M1064.27,946.75a7.5,7.5,0,0,1-2.88-3,9.31,9.31,0,0,1,0-8.55,7.5,7.5,0,0,1,2.88-3,8.59,8.59,0,0,1,8.23,0,7.51,7.51,0,0,1,2.86,3,9.31,9.31,0,0,1,0,8.55,7.51,7.51,0,0,1-2.86,3,8.59,8.59,0,0,1-8.23,0Zm7.68-.82a6.59,6.59,0,0,0,2.5-2.6,8.39,8.39,0,0,0,0-7.6,6.67,6.67,0,0,0-2.5-2.58,7.39,7.39,0,0,0-7.14,0,6.69,6.69,0,0,0-2.51,2.58,8.39,8.39,0,0,0,0,7.6,6.61,6.61,0,0,0,2.51,2.6,7.32,7.32,0,0,0,7.14,0Z"/><path class="cls-2" d="M1097.08,931.38v16.33h-1v-4a6.08,6.08,0,0,1-2.42,3,7.17,7.17,0,0,1-4,1.07,6.18,6.18,0,0,1-6.76-6.83v-9.59h1v9.53a6,6,0,0,0,1.49,4.42,5.7,5.7,0,0,0,4.26,1.53,6.07,6.07,0,0,0,4.63-1.81,6.84,6.84,0,0,0,1.7-4.86v-8.81Z"/><path class="cls-2" d="M1118.16,933a6.92,6.92,0,0,1,1.76,5.08v9.6h-1v-9.54a6.12,6.12,0,0,0-1.46-4.42,5.51,5.51,0,0,0-4.17-1.52,6.42,6.42,0,0,0-4.81,1.8,6.67,6.67,0,0,0-1.77,4.87v8.81h-1V931.38h1v4a6.36,6.36,0,0,1,2.54-3,7.66,7.66,0,0,1,4.16-1.1A6.47,6.47,0,0,1,1118.16,933Z"/><path class="cls-2" d="M1142.51,924.36v23.35h-1v-4.47a7.3,7.3,0,0,1-2.79,3.35,7.66,7.66,0,0,1-4.26,1.21,8,8,0,0,1-4.06-1,7.63,7.63,0,0,1-2.88-3,9.23,9.23,0,0,1,0-8.55,7.63,7.63,0,0,1,2.88-3,8,8,0,0,1,4.06-1,7.68,7.68,0,0,1,4.23,1.2,7.17,7.17,0,0,1,2.79,3.3V924.36Zm-4.45,21.57a6.52,6.52,0,0,0,2.5-2.6,8.31,8.31,0,0,0,0-7.6,6.6,6.6,0,0,0-2.5-2.58,7.39,7.39,0,0,0-7.14,0,6.67,6.67,0,0,0-2.5,2.58,8.31,8.31,0,0,0,0,7.6,6.59,6.59,0,0,0,2.5,2.6,7.32,7.32,0,0,0,7.14,0Z"/><path class="cls-2" d="M1162.67,946.75a7.5,7.5,0,0,1-2.88-3,9.31,9.31,0,0,1,0-8.55,7.5,7.5,0,0,1,2.88-3,8.59,8.59,0,0,1,8.23,0,7.58,7.58,0,0,1,2.86,3,9.31,9.31,0,0,1,0,8.55,7.58,7.58,0,0,1-2.86,3,8.59,8.59,0,0,1-8.23,0Zm7.68-.82a6.59,6.59,0,0,0,2.5-2.6,8.39,8.39,0,0,0,0-7.6,6.67,6.67,0,0,0-2.5-2.58,7.41,7.41,0,0,0-7.15,0,6.67,6.67,0,0,0-2.5,2.58,8.39,8.39,0,0,0,0,7.6,6.59,6.59,0,0,0,2.5,2.6,7.34,7.34,0,0,0,7.15,0Z"/><path class="cls-2" d="M1195.47,931.38v16.33h-1v-4a6.1,6.1,0,0,1-2.43,3,7.11,7.11,0,0,1-4,1.07,6.19,6.19,0,0,1-6.77-6.83v-9.59h1v9.53a6.05,6.05,0,0,0,1.5,4.42,5.67,5.67,0,0,0,4.26,1.53,6.08,6.08,0,0,0,4.63-1.81,6.83,6.83,0,0,0,1.69-4.86v-8.81Z"/><path class="cls-2" d="M1211.74,946.67a3.86,3.86,0,0,1-1.45.83,5.56,5.56,0,0,1-1.82.3,4.06,4.06,0,0,1-3.07-1.12,4.2,4.2,0,0,1-1.08-3.06V932.29h-3.09v-.91h3.09v-3.59h1v3.59h5.38v.91h-5.38v11.17a3.65,3.65,0,0,0,.82,2.55,3.1,3.1,0,0,0,2.39.88,3.81,3.81,0,0,0,2.65-1Z"/><path class="cls-2" d="M1237.31,932.76a5.82,5.82,0,0,1,1.56,4.37v10.58h-1v-3.28a5.77,5.77,0,0,1-2.35,2.47,7.29,7.29,0,0,1-3.72.9,6.65,6.65,0,0,1-4.3-1.26,4.36,4.36,0,0,1-.14-6.56,6.76,6.76,0,0,1,4.53-1.24h5.95v-1.61a5,5,0,0,0-1.28-3.68,5.13,5.13,0,0,0-3.76-1.26,8.72,8.72,0,0,0-3.24.6,8,8,0,0,0-2.58,1.61l-.57-.76a8.55,8.55,0,0,1,2.88-1.76,10.08,10.08,0,0,1,3.54-.63A6.19,6.19,0,0,1,1237.31,932.76Zm.52,10.23v-3.4h-5.95a5.89,5.89,0,0,0-3.73,1,3.15,3.15,0,0,0-1.18,2.59,3.3,3.3,0,0,0,1.31,2.77,5.72,5.72,0,0,0,3.57,1A5.89,5.89,0,0,0,1237.83,943Z"/><path class="cls-2" d="M1259.35,932.3a7.63,7.63,0,0,1,2.88,3,9.23,9.23,0,0,1,0,8.55,7.63,7.63,0,0,1-2.88,3,8,8,0,0,1-4.06,1,7.66,7.66,0,0,1-4.26-1.21,7.3,7.3,0,0,1-2.79-3.35v4.47h-1V924.36h1v11.39a7.17,7.17,0,0,1,2.79-3.3,7.68,7.68,0,0,1,4.23-1.2A8,8,0,0,1,1259.35,932.3Zm-.52,13.63a6.59,6.59,0,0,0,2.5-2.6,8.31,8.31,0,0,0,0-7.6,6.67,6.67,0,0,0-2.5-2.58,7.39,7.39,0,0,0-7.14,0,6.6,6.6,0,0,0-2.5,2.58,8.31,8.31,0,0,0,0,7.6,6.52,6.52,0,0,0,2.5,2.6,7.32,7.32,0,0,0,7.14,0Z"/><path class="cls-2" d="M1272.05,946.75a7.5,7.5,0,0,1-2.88-3,9.31,9.31,0,0,1,0-8.55,7.5,7.5,0,0,1,2.88-3,8.59,8.59,0,0,1,8.23,0,7.58,7.58,0,0,1,2.86,3,9.31,9.31,0,0,1,0,8.55,7.58,7.58,0,0,1-2.86,3,8.59,8.59,0,0,1-8.23,0Zm7.68-.82a6.66,6.66,0,0,0,2.5-2.6,8.39,8.39,0,0,0,0-7.6,6.74,6.74,0,0,0-2.5-2.58,7.41,7.41,0,0,0-7.15,0,6.67,6.67,0,0,0-2.5,2.58,8.39,8.39,0,0,0,0,7.6,6.59,6.59,0,0,0,2.5,2.6,7.34,7.34,0,0,0,7.15,0Z"/><path class="cls-2" d="M1304.85,931.38v16.33h-1v-4a6.08,6.08,0,0,1-2.42,3,7.11,7.11,0,0,1-4,1.07,6.19,6.19,0,0,1-6.77-6.83v-9.59h1v9.53a6.09,6.09,0,0,0,1.49,4.42,5.7,5.7,0,0,0,4.27,1.53,6,6,0,0,0,4.62-1.81,6.79,6.79,0,0,0,1.7-4.86v-8.81Z"/><path class="cls-2" d="M1321.12,946.67a3.86,3.86,0,0,1-1.45.83,5.6,5.6,0,0,1-1.82.3,4.06,4.06,0,0,1-3.07-1.12,4.21,4.21,0,0,1-1.09-3.06V932.29h-3.08v-.91h3.08v-3.59h1v3.59h5.38v.91h-5.38v11.17a3.6,3.6,0,0,0,.82,2.55,3.1,3.1,0,0,0,2.39.88,3.77,3.77,0,0,0,2.64-1Z"/><path class="cls-2" d="M1349.47,931.38l-8.56,18.78a7.2,7.2,0,0,1-2.07,2.9,4.57,4.57,0,0,1-2.74.85,5.49,5.49,0,0,1-2-.37,4.13,4.13,0,0,1-1.6-1.08l.6-.82a3.74,3.74,0,0,0,3,1.35,3.37,3.37,0,0,0,2.12-.69,6.41,6.41,0,0,0,1.69-2.39l1-2.23-7.42-16.3h1.13l6.86,15.13,6.86-15.13Z"/><path class="cls-2" d="M1356.28,946.75a7.54,7.54,0,0,1-2.87-3,9.31,9.31,0,0,1,0-8.55,7.54,7.54,0,0,1,2.87-3,8.59,8.59,0,0,1,8.23,0,7.61,7.61,0,0,1,2.87,3,9.31,9.31,0,0,1,0,8.55,7.61,7.61,0,0,1-2.87,3,8.59,8.59,0,0,1-8.23,0Zm7.68-.82a6.52,6.52,0,0,0,2.5-2.6,8.31,8.31,0,0,0,0-7.6,6.6,6.6,0,0,0-2.5-2.58,7.39,7.39,0,0,0-7.14,0,6.67,6.67,0,0,0-2.5,2.58,8.39,8.39,0,0,0,0,7.6,6.59,6.59,0,0,0,2.5,2.6,7.32,7.32,0,0,0,7.14,0Z"/><path class="cls-2" d="M1389.09,931.38v16.33h-1v-4a6.08,6.08,0,0,1-2.42,3,7.12,7.12,0,0,1-4,1.07,6.18,6.18,0,0,1-6.76-6.83v-9.59h1v9.53a6.09,6.09,0,0,0,1.49,4.42,5.7,5.7,0,0,0,4.27,1.53,6,6,0,0,0,4.62-1.81,6.84,6.84,0,0,0,1.7-4.86v-8.81Z"/></svg>