<svg id="Layer_1" data-name="Layer 1" xmlns="http://www.w3.org/2000/svg" xmlns:xlink="http://www.w3.org/1999/xlink" viewBox="0 0 960 1080"><defs><style>.cls-1{fill:#fff;}.cls-2,.cls-4{fill:none;stroke:#fff;stroke-miterlimit:10;}.cls-2{stroke-width:2px;}.cls-3{fill:#d4d4d0;}.cls-4{stroke-width:3px;}.cls-5{fill:url(#linear-gradient);}.cls-6{fill:url(#linear-gradient-2);}.cls-7{fill:url(#linear-gradient-3);}.cls-8{fill:url(#linear-gradient-4);}.cls-9{fill:url(#linear-gradient-5);}.cls-10{fill:url(#linear-gradient-6);}.cls-11{fill:url(#linear-gradient-7);}.cls-12{fill:url(#linear-gradient-8);}.cls-13{fill:url(#linear-gradient-9);}.cls-14{fill:url(#linear-gradient-10);}</style><linearGradient id="linear-gradient" x1="241.08" y1="727.59" x2="241.08" y2="392.41" gradientUnits="userSpaceOnUse"><stop offset="0" stop-color="#fbb03b"/><stop offset="1" stop-color="#fcee21"/></linearGradient><linearGradient id="linear-gradient-2" x1="303.22" y1="727.59" x2="303.22" y2="430.37" xlink:href="#linear-gradient"/><linearGradient id="linear-gradient-3" x1="365.36" y1="727.59" x2="365.36" y2="494.98" xlink:href="#linear-gradient"/><linearGradient id="linear-gradient-4" x1="430.39" y1="727.59" x2="430.39" y2="566.05" xlink:href="#linear-gradient"/><linearGradient id="linear-gradient-5" x1="492.53" y1="727.59" x2="492.53" y2="551.52" xlink:href="#linear-gradient"/><linearGradient id="linear-gradient-6" x1="554.67" y1="727.59" x2="554.67" y2="578.98" xlink:href="#linear-gradient"/><linearGradient id="linear-gradient-7" x1="613.92" y1="727.59" x2="613.92" y2="566.05" xlink:href="#linear-gradient"/><linearGradient id="linear-gradient-8" x1="676.06" y1="727.59" x2="676.06" y2="584.63" xlink:href="#linear-gradient"/><linearGradient id="linear-gradient-9" x1="738.2" y1="727.59" x2="738.2" y2="551.52" xlink:href="#linear-gradient"/><linearGradient id="linear-gradient-10" x1="801.06" y1="727.59" x2="801.06" y2="492.56" xlink:href="#linear-gradient"/></defs><title>perAnnum</title><path class="cls-1" d="M114.86,645.27v-2.72a4,4,0,0,1,.43-1.88,3.17,3.17,0,0,1,1.2-1.26,3.63,3.63,0,0,1,3.5,0,3.17,3.17,0,0,1,1.2,1.26,4.07,4.07,0,0,1,.43,1.88v2.72Zm6.14-2.68a3.27,3.27,0,0,0-.35-1.54,2.63,2.63,0,0,0-1-1,3,3,0,0,0-2.86,0,2.63,2.63,0,0,0-1,1,3.27,3.27,0,0,0-.35,1.54v2H121Z"/><path class="cls-1" d="M119.81,632.32v3.73l1.81.8v.74l-6.76-3.06v-.7l6.76-3.06v.75Zm-.58.26-3.63,1.61,3.63,1.6Z"/><path class="cls-1" d="M115.48,627.74v2.35h-.62v-5.4h.62V627h6.14v.7Z"/><path class="cls-1" d="M119.81,618.74v3.73l1.81.8V624L114.86,621v-.7l6.76-3.06v.75Zm-.58.26-3.63,1.61,3.63,1.6Z"/><path class="cls-1" d="M115.48,607.16a2.33,2.33,0,0,1,3.39,0,3,3,0,0,1,.61,2V611h2.14v.71h-6.76v-2.5A3,3,0,0,1,115.48,607.16Zm2.94.51a1.74,1.74,0,0,0-2.5,0,2.32,2.32,0,0,0-.44,1.52V611h3.38v-1.77A2.32,2.32,0,0,0,118.42,607.67Z"/><path class="cls-1" d="M119.81,600.09v3.72l1.81.81v.73l-6.76-3.06v-.69l6.76-3.06v.74Zm-.58.26L115.6,602l3.63,1.61Z"/><path class="cls-1" d="M121.23,595.46a3.15,3.15,0,0,1-1.23,1.25,3.67,3.67,0,0,1-3.52,0,3.11,3.11,0,0,1-1.23-1.26,3.58,3.58,0,0,1-.45-1.79,3.85,3.85,0,0,1,.25-1.38,2.9,2.9,0,0,1,.74-1.07l.45.45a2.66,2.66,0,0,0-.8,2,2.81,2.81,0,0,0,.37,1.44,2.72,2.72,0,0,0,1,1,2.95,2.95,0,0,0,2.86,0,2.72,2.72,0,0,0,1-1,2.81,2.81,0,0,0,.37-1.44,2.6,2.6,0,0,0-.81-2l.45-.45a2.9,2.9,0,0,1,.74,1.07,3.73,3.73,0,0,1,.25,1.39A3.57,3.57,0,0,1,121.23,595.46Z"/><path class="cls-1" d="M118.44,586.67l1.4,1.37h1.78v.7h-6.76V588h4.08l-4.08-3.93v-.81l3.06,2.89,3.7-3.09v.84Z"/><path class="cls-1" d="M121,576.26h.62V581h-6.76v-4.58h.62v3.88h2.4v-3.46h.61v3.46H121Z"/><path class="cls-1" d="M115.48,572.35v2.35h-.62v-5.41h.62v2.35h6.14v.71Z"/><path class="cls-1" d="M121.43,566.89a2.64,2.64,0,0,1-.63,1.06l-.55-.28a2.66,2.66,0,0,0,.59-1,3.55,3.55,0,0,0,.23-1.25,2.19,2.19,0,0,0-.34-1.34,1,1,0,0,0-.86-.45.88.88,0,0,0-.65.24,1.65,1.65,0,0,0-.37.6c-.08.24-.18.56-.28,1a12.44,12.44,0,0,1-.37,1.21,2.1,2.1,0,0,1-.55.77,1.47,1.47,0,0,1-1,.32,1.72,1.72,0,0,1-.94-.27,1.92,1.92,0,0,1-.67-.82,3.47,3.47,0,0,1-.25-1.38,4.21,4.21,0,0,1,.16-1.12,3.09,3.09,0,0,1,.44-1l.57.24a3.15,3.15,0,0,0-.42.89,3.51,3.51,0,0,0-.14.94,2.17,2.17,0,0,0,.34,1.32,1.08,1.08,0,0,0,.89.45.9.9,0,0,0,.65-.24,1.75,1.75,0,0,0,.38-.62c.08-.24.18-.57.28-1a9.48,9.48,0,0,1,.36-1.2,2,2,0,0,1,.54-.76,1.44,1.44,0,0,1,1-.32,1.68,1.68,0,0,1,.93.27,1.86,1.86,0,0,1,.67.84,3.55,3.55,0,0,1,.24,1.38A4.25,4.25,0,0,1,121.43,566.89Z"/><path class="cls-1" d="M121.43,556.6a2.64,2.64,0,0,1-.63,1.06l-.55-.28a2.62,2.62,0,0,0,.59-1,3.49,3.49,0,0,0,.23-1.24,2.2,2.2,0,0,0-.34-1.35,1,1,0,0,0-.86-.45.89.89,0,0,0-.65.25,1.65,1.65,0,0,0-.37.6c-.08.23-.18.56-.28,1a12.11,12.11,0,0,1-.37,1.2,2,2,0,0,1-.55.77,1.42,1.42,0,0,1-1,.32,1.8,1.8,0,0,1-.94-.26,2,2,0,0,1-.67-.83,3.39,3.39,0,0,1-.25-1.37,4.21,4.21,0,0,1,.16-1.12,3.27,3.27,0,0,1,.44-1l.57.24a3.08,3.08,0,0,0-.42.9,3.45,3.45,0,0,0-.14.94,2.19,2.19,0,0,0,.34,1.32,1.08,1.08,0,0,0,.89.45.91.91,0,0,0,.65-.25,1.63,1.63,0,0,0,.38-.61c.08-.24.18-.57.28-1a9.26,9.26,0,0,1,.36-1.19,2,2,0,0,1,.54-.77,1.44,1.44,0,0,1,1-.31,1.68,1.68,0,0,1,.93.27,1.86,1.86,0,0,1,.67.84,3.48,3.48,0,0,1,.24,1.38A4.29,4.29,0,0,1,121.43,556.6Z"/><path class="cls-1" d="M121,545.45h.62v4.73h-6.76V545.6h.62v3.88h2.4V546h.61v3.46H121Z"/><path class="cls-1" d="M114.86,537.24h6.76v.59l-5.49,4.3h5.49v.7h-6.76v-.58l5.48-4.31h-5.48Z"/><path class="cls-1" d="M115.48,532.81v2.35h-.62v-5.41h.62v2.35h6.14v.71Z"/><path class="cls-1" d="M120.8,523.92a10.26,10.26,0,0,1-2.47.29,10.43,10.43,0,0,1-2.49-.29,7,7,0,0,1-2-.82v-.65a7.73,7.73,0,0,0,2.09.83,11.44,11.44,0,0,0,4.85,0,7.61,7.61,0,0,0,2.09-.83v.65A7.2,7.2,0,0,1,120.8,523.92Z"/><path class="cls-1" d="M115.48,515.41a2.33,2.33,0,0,1,3.39,0,3,3,0,0,1,.61,2v1.8h2.14v.71h-6.76v-2.51A3,3,0,0,1,115.48,515.41Zm2.94.5a1.76,1.76,0,0,0-2.5,0,2.35,2.35,0,0,0-.44,1.52v1.78h3.38v-1.78A2.35,2.35,0,0,0,118.42,515.91Z"/><path class="cls-1" d="M121,507.47h.62v4.73h-6.76v-4.59h.62v3.88h2.4V508h.61v3.46H121Z"/><path class="cls-1" d="M121.62,500.28l-2.17,1.53c0,.17,0,.35,0,.53v1.8h2.15v.71h-6.76v-2.51a3,3,0,0,1,.62-2,2.1,2.1,0,0,1,1.7-.73,2.11,2.11,0,0,1,2.12,1.53l2.32-1.63Zm-3.2.56a1.76,1.76,0,0,0-2.5,0,2.33,2.33,0,0,0-.44,1.52v1.78h3.39v-1.78A2.28,2.28,0,0,0,118.42,500.84Z"/><path class="cls-1" d="M114.86,492.26h6.76V493h-6.14v1.58h-.62Z"/><path class="cls-1" d="M121.26,488.43a2.69,2.69,0,0,1-1.19.94,5.09,5.09,0,0,1-3.66,0,2.69,2.69,0,0,1-1.19-.94,2.49,2.49,0,0,1,0-2.77,2.78,2.78,0,0,1,1.19-1,5.09,5.09,0,0,1,3.66,0,2.78,2.78,0,0,1,1.19,1,2.54,2.54,0,0,1,0,2.77Zm-.55-2.41a2.15,2.15,0,0,0-1-.7,4.2,4.2,0,0,0-1.51-.24,4.29,4.29,0,0,0-1.52.24,2.17,2.17,0,0,0-1,.7,1.66,1.66,0,0,0-.33,1,1.69,1.69,0,0,0,.33,1,2.08,2.08,0,0,0,1,.69,4.07,4.07,0,0,0,1.52.25,4,4,0,0,0,1.51-.25,2.06,2.06,0,0,0,1-.69,1.69,1.69,0,0,0,.33-1A1.66,1.66,0,0,0,120.71,486Z"/><path class="cls-1" d="M121.26,481.14a2.71,2.71,0,0,1-1.19.95,5.09,5.09,0,0,1-3.66,0,2.71,2.71,0,0,1-1.19-.95,2.35,2.35,0,0,1-.42-1.38,2.39,2.39,0,0,1,.42-1.38,2.78,2.78,0,0,1,1.19-.95,5.09,5.09,0,0,1,3.66,0,2.78,2.78,0,0,1,1.19.95,2.38,2.38,0,0,1,.41,1.38A2.34,2.34,0,0,1,121.26,481.14Zm-.55-2.41a2.21,2.21,0,0,0-1-.69,4.18,4.18,0,0,0-1.51-.25,4.28,4.28,0,0,0-1.52.25,2.23,2.23,0,0,0-1,.69,1.77,1.77,0,0,0,0,2.06,2.08,2.08,0,0,0,1,.69,4.07,4.07,0,0,0,1.52.25,4,4,0,0,0,1.51-.25,2.06,2.06,0,0,0,1-.69,1.77,1.77,0,0,0,0-2.06Z"/><path class="cls-1" d="M121.26,473.86a2.71,2.71,0,0,1-1.19.95,5.09,5.09,0,0,1-3.66,0,2.71,2.71,0,0,1-1.19-.95,2.48,2.48,0,0,1,0-2.76,2.78,2.78,0,0,1,1.19-1,5.09,5.09,0,0,1,3.66,0,2.78,2.78,0,0,1,1.19,1,2.53,2.53,0,0,1,0,2.76Zm-.55-2.41a2.21,2.21,0,0,0-1-.69,4.18,4.18,0,0,0-1.51-.25,4.28,4.28,0,0,0-1.52.25,2.23,2.23,0,0,0-1,.69,1.77,1.77,0,0,0,0,2.06,2.15,2.15,0,0,0,1,.69,4.07,4.07,0,0,0,1.52.25,4,4,0,0,0,1.51-.25,2.13,2.13,0,0,0,1-.69,1.77,1.77,0,0,0,0-2.06Z"/><path class="cls-1" d="M121.26,466.58a2.78,2.78,0,0,1-1.19.95,5.24,5.24,0,0,1-3.66,0,2.78,2.78,0,0,1-1.19-.95,2.39,2.39,0,0,1-.42-1.38,2.35,2.35,0,0,1,.42-1.38,2.71,2.71,0,0,1,1.19-.95,5,5,0,0,1,3.66,0,2.71,2.71,0,0,1,1.19.95,2.34,2.34,0,0,1,.41,1.38A2.38,2.38,0,0,1,121.26,466.58Zm-.55-2.41a2.06,2.06,0,0,0-1-.69,4,4,0,0,0-1.51-.25,4.07,4.07,0,0,0-1.52.25,2.08,2.08,0,0,0-1,.69,1.77,1.77,0,0,0,0,2.06,2.23,2.23,0,0,0,1,.69,4.28,4.28,0,0,0,1.52.25,4.18,4.18,0,0,0,1.51-.25,2.21,2.21,0,0,0,1-.69,1.77,1.77,0,0,0,0-2.06Z"/><path class="cls-1" d="M122.84,460.6a7.94,7.94,0,0,0-2.09-.83,11,11,0,0,0-4.85,0,8.07,8.07,0,0,0-2.09.83V460a7.31,7.31,0,0,1,2-.82,9.94,9.94,0,0,1,2.49-.3,10.41,10.41,0,0,1,2.48.29,7,7,0,0,1,2,.83Z"/><path class="cls-1" d="M490.9,807.69h-2.24v-1.05h5.73v1.05h-2.24v5.64H490.9Z"/><path class="cls-1" d="M496.3,806.64h1.26v6.69H496.3Z"/><path class="cls-1" d="M506.55,813.33v-4.44l-2.21,3.67h-.56L501.55,809v4.38h-1.2v-6.69h1l2.68,4.43,2.64-4.43h1v6.69Z"/><path class="cls-1" d="M515.6,812.28v1.05h-5.07v-6.69h4.93v1h-3.67v1.74h3.26v1h-3.26v1.84Z"/><path class="cls-1" d="M521.9,812.52a9.88,9.88,0,0,1,0-4.91,6.74,6.74,0,0,1,.87-2h1.15a8.85,8.85,0,0,0-.87,2.13,10.32,10.32,0,0,0,0,4.69,8.85,8.85,0,0,0,.87,2.13h-1.15A6.74,6.74,0,0,1,521.9,812.52Z"/><path class="cls-1" d="M532.3,813.33v-4.44l-2.21,3.67h-.56L527.3,809v4.38h-1.2v-6.69h1l2.68,4.43,2.64-4.43h1v6.69Z"/><path class="cls-1" d="M537.57,813a3.46,3.46,0,0,1-1.3-4.76,3.27,3.27,0,0,1,1.3-1.23,3.89,3.89,0,0,1,1.87-.45,3.82,3.82,0,0,1,1.86.45,3.25,3.25,0,0,1,1.3,1.22,3.36,3.36,0,0,1,.48,1.77,3.31,3.31,0,0,1-.48,1.77,3.35,3.35,0,0,1-1.3,1.23,3.93,3.93,0,0,1-1.86.44A4,4,0,0,1,537.57,813Zm3.08-1a2.15,2.15,0,0,0,.85-.84,2.34,2.34,0,0,0,.31-1.21,2.37,2.37,0,0,0-.31-1.21,2.15,2.15,0,0,0-.85-.84,2.44,2.44,0,0,0-1.21-.3,2.48,2.48,0,0,0-1.22.3,2.21,2.21,0,0,0-.85.84,2.47,2.47,0,0,0-.31,1.21,2.45,2.45,0,0,0,.31,1.21,2.21,2.21,0,0,0,.85.84,2.48,2.48,0,0,0,1.22.3A2.44,2.44,0,0,0,540.65,812Z"/><path class="cls-1" d="M551.38,806.64v6.69h-1l-3.72-4.53v4.53h-1.25v-6.69h1l3.72,4.53v-4.53Z"/><path class="cls-1" d="M555.53,807.69h-2.24v-1.05H559v1.05h-2.24v5.64h-1.25Z"/><path class="cls-1" d="M566.93,806.64v6.69h-1.25v-2.87h-3.49v2.87h-1.26v-6.69h1.26v2.76h3.49v-2.76Z"/><path class="cls-1" d="M570.3,813.2a3.15,3.15,0,0,1-1.16-.58l.44-1a3.17,3.17,0,0,0,1,.53,3.63,3.63,0,0,0,1.21.21,2.09,2.09,0,0,0,1.12-.24.72.72,0,0,0,.37-.63.59.59,0,0,0-.2-.47,1.42,1.42,0,0,0-.53-.29q-.32-.1-.87-.24a10.4,10.4,0,0,1-1.25-.37,2,2,0,0,1-.82-.57,1.48,1.48,0,0,1-.34-1,1.79,1.79,0,0,1,.3-1,2.12,2.12,0,0,1,.92-.72,3.72,3.72,0,0,1,1.5-.27,5,5,0,0,1,1.22.15,3.59,3.59,0,0,1,1,.44l-.4,1a3.91,3.91,0,0,0-.92-.39,3.51,3.51,0,0,0-.94-.14,2,2,0,0,0-1.1.25.79.79,0,0,0-.37.66.59.59,0,0,0,.21.47,1.58,1.58,0,0,0,.53.29,8.5,8.5,0,0,0,.87.23,10.73,10.73,0,0,1,1.23.36,2.28,2.28,0,0,1,.83.57,1.49,1.49,0,0,1,.34,1,1.79,1.79,0,0,1-.3,1,2,2,0,0,1-.93.71,3.72,3.72,0,0,1-1.5.27A5.06,5.06,0,0,1,570.3,813.2Z"/><path class="cls-1" d="M576.15,814.54a8.85,8.85,0,0,0,.87-2.13,9.92,9.92,0,0,0,0-4.68,8.75,8.75,0,0,0-.87-2.14h1.15a6.57,6.57,0,0,1,.87,2,9.34,9.34,0,0,1,.31,2.47,9.21,9.21,0,0,1-.31,2.46,6.79,6.79,0,0,1-.87,2Z"/><polyline class="cls-2" points="180.45 351.38 188.93 342.99 196.72 350.7"/><polyline class="cls-2" points="844.04 722.64 849.94 728.48 844.38 733.98"/><path class="cls-3" d="M148.83,359.16v9.06h-.94V360h-2.16v-.83Z"/><path class="cls-3" d="M154.08,367.74a3.59,3.59,0,0,1-1.3-1.6,6.75,6.75,0,0,1,0-4.9,3.65,3.65,0,0,1,1.3-1.6,3.51,3.51,0,0,1,3.77,0,3.65,3.65,0,0,1,1.3,1.6,6.49,6.49,0,0,1,0,4.9,3.59,3.59,0,0,1-1.3,1.6,3.45,3.45,0,0,1-3.77,0Zm3.29-.74a2.82,2.82,0,0,0,.95-1.28,6.23,6.23,0,0,0,0-4.06,2.82,2.82,0,0,0-.95-1.28,2.33,2.33,0,0,0-1.4-.44,2.36,2.36,0,0,0-1.41.44,2.9,2.9,0,0,0-.95,1.28,6.23,6.23,0,0,0,0,4.06,2.9,2.9,0,0,0,.95,1.28,2.3,2.3,0,0,0,1.41.44A2.27,2.27,0,0,0,157.37,367Z"/><path class="cls-3" d="M164,367.74a3.59,3.59,0,0,1-1.3-1.6,6.75,6.75,0,0,1,0-4.9,3.65,3.65,0,0,1,1.3-1.6,3.51,3.51,0,0,1,3.77,0,3.72,3.72,0,0,1,1.3,1.6,6.62,6.62,0,0,1,0,4.9,3.66,3.66,0,0,1-1.3,1.6,3.45,3.45,0,0,1-3.77,0Zm3.29-.74a2.9,2.9,0,0,0,.95-1.28,6.23,6.23,0,0,0,0-4.06,2.9,2.9,0,0,0-.95-1.28,2.38,2.38,0,0,0-1.41-.44,2.33,2.33,0,0,0-1.4.44,2.82,2.82,0,0,0-1,1.28,6.23,6.23,0,0,0,0,4.06,2.82,2.82,0,0,0,1,1.28,2.27,2.27,0,0,0,1.4.44A2.32,2.32,0,0,0,167.33,367Z"/><path class="cls-3" d="M174,367.74a3.64,3.64,0,0,1-1.29-1.6,6.62,6.62,0,0,1,0-4.9,3.7,3.7,0,0,1,1.29-1.6,3.52,3.52,0,0,1,3.78,0,3.79,3.79,0,0,1,1.3,1.6,6.62,6.62,0,0,1,0,4.9,3.73,3.73,0,0,1-1.3,1.6,3.47,3.47,0,0,1-3.78,0Zm3.3-.74a2.81,2.81,0,0,0,.94-1.28,6.23,6.23,0,0,0,0-4.06,2.81,2.81,0,0,0-.94-1.28,2.38,2.38,0,0,0-1.41-.44,2.33,2.33,0,0,0-1.4.44,2.75,2.75,0,0,0-.95,1.28,6.23,6.23,0,0,0,0,4.06,2.75,2.75,0,0,0,.95,1.28,2.27,2.27,0,0,0,1.4.44A2.32,2.32,0,0,0,177.29,367Z"/><path class="cls-3" d="M158.64,396.5a5.11,5.11,0,0,1,1,3.34,5.72,5.72,0,0,1-.52,2.57,3.67,3.67,0,0,1-1.46,1.58,4.35,4.35,0,0,1-2.2.54,4.13,4.13,0,0,1-2.17-.49l.38-.75a3.28,3.28,0,0,0,1.78.42,3,3,0,0,0,2.37-.95,3.94,3.94,0,0,0,.87-2.76c0-.22,0-.47,0-.74a2.47,2.47,0,0,1-1.09,1.15,3.49,3.49,0,0,1-1.71.41,3.72,3.72,0,0,1-1.6-.34,2.53,2.53,0,0,1-1.48-2.38,2.6,2.6,0,0,1,1.52-2.44,3.64,3.64,0,0,1,1.6-.34A3.37,3.37,0,0,1,158.64,396.5Zm-1.45,3.27a2.14,2.14,0,0,0,.83-.71,1.82,1.82,0,0,0,0-2,2.08,2.08,0,0,0-.83-.71,2.94,2.94,0,0,0-1.31-.27,2.35,2.35,0,0,0-1.61.53,2,2,0,0,0,0,2.86A2.51,2.51,0,0,0,156,400,2.8,2.8,0,0,0,157.19,399.77Z"/><path class="cls-3" d="M164,404a3.59,3.59,0,0,1-1.3-1.6,6.75,6.75,0,0,1,0-4.9,3.65,3.65,0,0,1,1.3-1.6,3.51,3.51,0,0,1,3.77,0,3.72,3.72,0,0,1,1.3,1.6,6.62,6.62,0,0,1,0,4.9,3.66,3.66,0,0,1-1.3,1.6,3.45,3.45,0,0,1-3.77,0Zm3.29-.74a2.9,2.9,0,0,0,.95-1.28,6.23,6.23,0,0,0,0-4.06,2.9,2.9,0,0,0-.95-1.28,2.38,2.38,0,0,0-1.41-.44,2.33,2.33,0,0,0-1.4.44,2.82,2.82,0,0,0-1,1.28,6.23,6.23,0,0,0,0,4.06,2.82,2.82,0,0,0,1,1.28,2.27,2.27,0,0,0,1.4.44A2.32,2.32,0,0,0,167.33,403.23Z"/><path class="cls-3" d="M174,404a3.64,3.64,0,0,1-1.29-1.6,6.62,6.62,0,0,1,0-4.9,3.7,3.7,0,0,1,1.29-1.6,3.52,3.52,0,0,1,3.78,0,3.79,3.79,0,0,1,1.3,1.6,6.62,6.62,0,0,1,0,4.9,3.73,3.73,0,0,1-1.3,1.6,3.47,3.47,0,0,1-3.78,0Zm3.3-.74a2.81,2.81,0,0,0,.94-1.28,6.23,6.23,0,0,0,0-4.06,2.81,2.81,0,0,0-.94-1.28,2.38,2.38,0,0,0-1.41-.44,2.33,2.33,0,0,0-1.4.44,2.75,2.75,0,0,0-.95,1.28,6.23,6.23,0,0,0,0,4.06,2.75,2.75,0,0,0,.95,1.28,2.27,2.27,0,0,0,1.4.44A2.32,2.32,0,0,0,177.29,403.23Z"/><path class="cls-3" d="M159.2,436.79a2.08,2.08,0,0,1,.46,1.37,2.29,2.29,0,0,1-.43,1.38,2.69,2.69,0,0,1-1.23.9,5.19,5.19,0,0,1-1.89.32,4.24,4.24,0,0,1-2.59-.7,2.24,2.24,0,0,1-.94-1.9,2.12,2.12,0,0,1,.45-1.38,2.69,2.69,0,0,1,1.32-.85,2.33,2.33,0,0,1-1.08-.78,2,2,0,0,1-.36-1.21,2.07,2.07,0,0,1,.87-1.75,3.81,3.81,0,0,1,2.33-.64,4.4,4.4,0,0,1,1.69.29,2.5,2.5,0,0,1,1.13.83,2.08,2.08,0,0,1,.41,1.27,2,2,0,0,1-.38,1.21,2.36,2.36,0,0,1-1.09.78A2.78,2.78,0,0,1,159.2,436.79ZM158,439.48a1.55,1.55,0,0,0,.69-1.33,1.53,1.53,0,0,0-.69-1.33,3.91,3.91,0,0,0-3.79,0,1.52,1.52,0,0,0-.68,1.33,1.55,1.55,0,0,0,.67,1.33,3.93,3.93,0,0,0,3.8,0Zm-3.56-4.32a2.77,2.77,0,0,0,1.66.44,2.83,2.83,0,0,0,1.67-.44,1.48,1.48,0,0,0,0-2.39,2.81,2.81,0,0,0-1.65-.43,2.76,2.76,0,0,0-1.65.43,1.48,1.48,0,0,0,0,2.39Z"/><path class="cls-3" d="M164,440.2a3.59,3.59,0,0,1-1.3-1.6,6.75,6.75,0,0,1,0-4.9,3.65,3.65,0,0,1,1.3-1.6,3.51,3.51,0,0,1,3.77,0,3.72,3.72,0,0,1,1.3,1.6,6.62,6.62,0,0,1,0,4.9,3.66,3.66,0,0,1-1.3,1.6,3.45,3.45,0,0,1-3.77,0Zm3.29-.73a3,3,0,0,0,.95-1.29,6.23,6.23,0,0,0,0-4.06,2.9,2.9,0,0,0-.95-1.28,2.38,2.38,0,0,0-1.41-.44,2.33,2.33,0,0,0-1.4.44,2.82,2.82,0,0,0-1,1.28,6.23,6.23,0,0,0,0,4.06,2.91,2.91,0,0,0,1,1.29,2.33,2.33,0,0,0,1.4.43A2.38,2.38,0,0,0,167.33,439.47Z"/><path class="cls-3" d="M174,440.2a3.64,3.64,0,0,1-1.29-1.6,6.62,6.62,0,0,1,0-4.9,3.7,3.7,0,0,1,1.29-1.6,3.52,3.52,0,0,1,3.78,0,3.79,3.79,0,0,1,1.3,1.6,6.62,6.62,0,0,1,0,4.9,3.73,3.73,0,0,1-1.3,1.6,3.47,3.47,0,0,1-3.78,0Zm3.3-.73a2.89,2.89,0,0,0,.94-1.29,6.23,6.23,0,0,0,0-4.06,2.81,2.81,0,0,0-.94-1.28,2.38,2.38,0,0,0-1.41-.44,2.33,2.33,0,0,0-1.4.44,2.75,2.75,0,0,0-.95,1.28,6.23,6.23,0,0,0,0,4.06,2.84,2.84,0,0,0,.95,1.29,2.33,2.33,0,0,0,1.4.43A2.38,2.38,0,0,0,177.29,439.47Z"/><path class="cls-3" d="M160,467.85v.66l-3.83,8.4h-1l3.77-8.23H154.2v1.7h-.93v-2.53Z"/><path class="cls-3" d="M164,476.43a3.59,3.59,0,0,1-1.3-1.6,6.75,6.75,0,0,1,0-4.9,3.65,3.65,0,0,1,1.3-1.6,3.51,3.51,0,0,1,3.77,0,3.65,3.65,0,0,1,1.3,1.6,6.62,6.62,0,0,1,0,4.9,3.59,3.59,0,0,1-1.3,1.6,3.45,3.45,0,0,1-3.77,0Zm3.29-.73a2.93,2.93,0,0,0,.95-1.29,6.23,6.23,0,0,0,0-4.06,2.9,2.9,0,0,0-.95-1.28,2.36,2.36,0,0,0-1.41-.44,2.33,2.33,0,0,0-1.4.44,2.82,2.82,0,0,0-1,1.28,6.23,6.23,0,0,0,0,4.06,2.85,2.85,0,0,0,1,1.29,2.33,2.33,0,0,0,1.4.44A2.36,2.36,0,0,0,167.33,475.7Z"/><path class="cls-3" d="M174,476.43a3.64,3.64,0,0,1-1.29-1.6,6.75,6.75,0,0,1,0-4.9,3.7,3.7,0,0,1,1.29-1.6,3.35,3.35,0,0,1,1.89-.55,3.3,3.3,0,0,1,1.89.55,3.72,3.72,0,0,1,1.3,1.6,6.62,6.62,0,0,1,0,4.9,3.66,3.66,0,0,1-1.3,1.6,3.31,3.31,0,0,1-1.89.56A3.36,3.36,0,0,1,174,476.43Zm3.3-.73a2.84,2.84,0,0,0,.94-1.29,6.23,6.23,0,0,0,0-4.06,2.81,2.81,0,0,0-.94-1.28,2.38,2.38,0,0,0-1.41-.44,2.33,2.33,0,0,0-1.4.44,2.75,2.75,0,0,0-.95,1.28,6.23,6.23,0,0,0,0,4.06,2.78,2.78,0,0,0,.95,1.29,2.33,2.33,0,0,0,1.4.44A2.38,2.38,0,0,0,177.29,475.7Z"/><path class="cls-3" d="M158.4,508.06a2.56,2.56,0,0,1,1.49,2.38,2.63,2.63,0,0,1-1.53,2.44,3.72,3.72,0,0,1-1.6.34A3.38,3.38,0,0,1,154,512a5.1,5.1,0,0,1-1-3.34,5.67,5.67,0,0,1,.53-2.56,3.58,3.58,0,0,1,1.46-1.59,4.44,4.44,0,0,1,2.19-.53,4.13,4.13,0,0,1,2.17.49l-.38.75a3.13,3.13,0,0,0-1.77-.43,3.06,3.06,0,0,0-2.38.95,4,4,0,0,0-.86,2.76,6.7,6.7,0,0,0,0,.74,2.38,2.38,0,0,1,1.08-1.14,3.43,3.43,0,0,1,1.71-.41A3.55,3.55,0,0,1,158.4,508.06Zm-.06,3.83a1.8,1.8,0,0,0,.62-1.43,1.78,1.78,0,0,0-.62-1.42,2.54,2.54,0,0,0-1.68-.53,2.77,2.77,0,0,0-1.22.26,2,2,0,0,0-.83.71,1.79,1.79,0,0,0-.3,1,1.76,1.76,0,0,0,.28,1,2,2,0,0,0,.83.71,2.9,2.9,0,0,0,1.3.27A2.38,2.38,0,0,0,158.34,511.89Z"/><path class="cls-3" d="M164,512.66a3.59,3.59,0,0,1-1.3-1.6,6.75,6.75,0,0,1,0-4.9,3.65,3.65,0,0,1,1.3-1.6,3.51,3.51,0,0,1,3.77,0,3.72,3.72,0,0,1,1.3,1.6,6.62,6.62,0,0,1,0,4.9,3.66,3.66,0,0,1-1.3,1.6,3.45,3.45,0,0,1-3.77,0Zm3.29-.73a3,3,0,0,0,.95-1.29,6.23,6.23,0,0,0,0-4.06,2.9,2.9,0,0,0-.95-1.28,2.38,2.38,0,0,0-1.41-.44,2.33,2.33,0,0,0-1.4.44,2.82,2.82,0,0,0-1,1.28,6.23,6.23,0,0,0,0,4.06,2.91,2.91,0,0,0,1,1.29,2.33,2.33,0,0,0,1.4.43A2.38,2.38,0,0,0,167.33,511.93Z"/><path class="cls-3" d="M174,512.66a3.64,3.64,0,0,1-1.29-1.6,6.62,6.62,0,0,1,0-4.9,3.7,3.7,0,0,1,1.29-1.6,3.52,3.52,0,0,1,3.78,0,3.79,3.79,0,0,1,1.3,1.6,6.62,6.62,0,0,1,0,4.9,3.73,3.73,0,0,1-1.3,1.6,3.47,3.47,0,0,1-3.78,0Zm3.3-.73a2.89,2.89,0,0,0,.94-1.29,6.23,6.23,0,0,0,0-4.06,2.81,2.81,0,0,0-.94-1.28,2.38,2.38,0,0,0-1.41-.44,2.33,2.33,0,0,0-1.4.44,2.75,2.75,0,0,0-.95,1.28,6.23,6.23,0,0,0,0,4.06,2.84,2.84,0,0,0,.95,1.29,2.33,2.33,0,0,0,1.4.43A2.38,2.38,0,0,0,177.29,511.93Z"/><path class="cls-3" d="M158.87,544.73a2.35,2.35,0,0,1,.91,2,2.7,2.7,0,0,1-.37,1.41,2.49,2.49,0,0,1-1.12,1,4.17,4.17,0,0,1-1.83.36,5.51,5.51,0,0,1-1.86-.32,3.73,3.73,0,0,1-1.42-.85l.46-.73a3.24,3.24,0,0,0,1.2.75,4.27,4.27,0,0,0,1.61.29,2.71,2.71,0,0,0,1.76-.5,1.66,1.66,0,0,0,.62-1.35,1.62,1.62,0,0,0-.7-1.41,4.35,4.35,0,0,0-2.36-.47h-2l.47-4.55h5v.83h-4.18L154.8,544H156A4.72,4.72,0,0,1,158.87,544.73Z"/><path class="cls-3" d="M164,548.89a3.59,3.59,0,0,1-1.3-1.6,6.75,6.75,0,0,1,0-4.9,3.65,3.65,0,0,1,1.3-1.6,3.51,3.51,0,0,1,3.77,0,3.72,3.72,0,0,1,1.3,1.6,6.62,6.62,0,0,1,0,4.9,3.66,3.66,0,0,1-1.3,1.6,3.45,3.45,0,0,1-3.77,0Zm3.29-.73a3,3,0,0,0,.95-1.29,6.23,6.23,0,0,0,0-4.06,2.9,2.9,0,0,0-.95-1.28,2.38,2.38,0,0,0-1.41-.44,2.33,2.33,0,0,0-1.4.44,2.82,2.82,0,0,0-1,1.28,6.23,6.23,0,0,0,0,4.06,2.91,2.91,0,0,0,1,1.29,2.33,2.33,0,0,0,1.4.43A2.38,2.38,0,0,0,167.33,548.16Z"/><path class="cls-3" d="M174,548.89a3.64,3.64,0,0,1-1.29-1.6,6.62,6.62,0,0,1,0-4.9,3.7,3.7,0,0,1,1.29-1.6,3.52,3.52,0,0,1,3.78,0,3.79,3.79,0,0,1,1.3,1.6,6.62,6.62,0,0,1,0,4.9,3.73,3.73,0,0,1-1.3,1.6,3.47,3.47,0,0,1-3.78,0Zm3.3-.73a2.89,2.89,0,0,0,.94-1.29,6.23,6.23,0,0,0,0-4.06,2.81,2.81,0,0,0-.94-1.28,2.38,2.38,0,0,0-1.41-.44,2.33,2.33,0,0,0-1.4.44,2.75,2.75,0,0,0-.95,1.28,6.23,6.23,0,0,0,0,4.06,2.84,2.84,0,0,0,.95,1.29,2.33,2.33,0,0,0,1.4.43A2.38,2.38,0,0,0,177.29,548.16Z"/><path class="cls-3" d="M160.11,583.22h-1.83v2.38h-.94v-2.38h-5.16v-.67l4.84-6h1l-4.68,5.85h4V580.3h.92v2.09h1.83Z"/><path class="cls-3" d="M164,585.12a3.59,3.59,0,0,1-1.3-1.6,6.75,6.75,0,0,1,0-4.9A3.65,3.65,0,0,1,164,577a3.51,3.51,0,0,1,3.77,0,3.72,3.72,0,0,1,1.3,1.6,6.62,6.62,0,0,1,0,4.9,3.66,3.66,0,0,1-1.3,1.6,3.45,3.45,0,0,1-3.77,0Zm3.29-.74a2.9,2.9,0,0,0,.95-1.28,6.23,6.23,0,0,0,0-4.06,2.9,2.9,0,0,0-.95-1.28,2.38,2.38,0,0,0-1.41-.44,2.33,2.33,0,0,0-1.4.44,2.82,2.82,0,0,0-1,1.28,6.23,6.23,0,0,0,0,4.06,2.82,2.82,0,0,0,1,1.28,2.27,2.27,0,0,0,1.4.44A2.32,2.32,0,0,0,167.33,584.38Z"/><path class="cls-3" d="M174,585.12a3.64,3.64,0,0,1-1.29-1.6,6.62,6.62,0,0,1,0-4.9A3.7,3.7,0,0,1,174,577a3.52,3.52,0,0,1,3.78,0,3.79,3.79,0,0,1,1.3,1.6,6.62,6.62,0,0,1,0,4.9,3.73,3.73,0,0,1-1.3,1.6,3.47,3.47,0,0,1-3.78,0Zm3.3-.74a2.81,2.81,0,0,0,.94-1.28,6.23,6.23,0,0,0,0-4.06,2.81,2.81,0,0,0-.94-1.28,2.38,2.38,0,0,0-1.41-.44,2.33,2.33,0,0,0-1.4.44,2.75,2.75,0,0,0-.95,1.28,6.23,6.23,0,0,0,0,4.06,2.75,2.75,0,0,0,.95,1.28,2.27,2.27,0,0,0,1.4.44A2.32,2.32,0,0,0,177.29,584.38Z"/><path class="cls-3" d="M158.9,617.42a2.37,2.37,0,0,1,.75,1.81,2.46,2.46,0,0,1-1.5,2.33,4.31,4.31,0,0,1-1.82.35,5.48,5.48,0,0,1-1.87-.32,3.73,3.73,0,0,1-1.42-.85l.46-.73a3.29,3.29,0,0,0,1.21.75,4.39,4.39,0,0,0,1.62.29,2.77,2.77,0,0,0,1.74-.48,1.6,1.6,0,0,0,.61-1.34,1.58,1.58,0,0,0-.61-1.32,3,3,0,0,0-1.86-.48h-.65v-.68l2.54-3.15h-4.68v-.83h5.88v.66l-2.59,3.22A3.46,3.46,0,0,1,158.9,617.42Z"/><path class="cls-3" d="M164,621.35a3.59,3.59,0,0,1-1.3-1.6,6.75,6.75,0,0,1,0-4.9,3.65,3.65,0,0,1,1.3-1.6,3.51,3.51,0,0,1,3.77,0,3.72,3.72,0,0,1,1.3,1.6,6.62,6.62,0,0,1,0,4.9,3.66,3.66,0,0,1-1.3,1.6,3.45,3.45,0,0,1-3.77,0Zm3.29-.74a2.9,2.9,0,0,0,.95-1.28,6.23,6.23,0,0,0,0-4.06,2.9,2.9,0,0,0-.95-1.28,2.38,2.38,0,0,0-1.41-.44,2.33,2.33,0,0,0-1.4.44,2.82,2.82,0,0,0-1,1.28,6.23,6.23,0,0,0,0,4.06,2.82,2.82,0,0,0,1,1.28,2.27,2.27,0,0,0,1.4.44A2.32,2.32,0,0,0,167.33,620.61Z"/><path class="cls-3" d="M174,621.35a3.64,3.64,0,0,1-1.29-1.6,6.62,6.62,0,0,1,0-4.9,3.7,3.7,0,0,1,1.29-1.6,3.52,3.52,0,0,1,3.78,0,3.79,3.79,0,0,1,1.3,1.6,6.62,6.62,0,0,1,0,4.9,3.73,3.73,0,0,1-1.3,1.6,3.47,3.47,0,0,1-3.78,0Zm3.3-.74a2.81,2.81,0,0,0,.94-1.28,6.23,6.23,0,0,0,0-4.06,2.81,2.81,0,0,0-.94-1.28,2.38,2.38,0,0,0-1.41-.44,2.33,2.33,0,0,0-1.4.44,2.75,2.75,0,0,0-.95,1.28,6.23,6.23,0,0,0,0,4.06,2.75,2.75,0,0,0,.95,1.28,2.27,2.27,0,0,0,1.4.44A2.32,2.32,0,0,0,177.29,620.61Z"/><path class="cls-3" d="M159.85,657.23v.83h-6.42v-.66l3.8-3.69a4.82,4.82,0,0,0,1-1.21,2.27,2.27,0,0,0,.25-1,1.49,1.49,0,0,0-.55-1.24,2.47,2.47,0,0,0-1.59-.45,3.18,3.18,0,0,0-2.5,1l-.66-.57a3.57,3.57,0,0,1,1.36-1,5.08,5.08,0,0,1,1.88-.33,3.4,3.4,0,0,1,2.21.65,2.15,2.15,0,0,1,.82,1.79,3.18,3.18,0,0,1-.31,1.35,5.94,5.94,0,0,1-1.19,1.49l-3.11,3Z"/><path class="cls-3" d="M164,657.58a3.59,3.59,0,0,1-1.3-1.6,6.75,6.75,0,0,1,0-4.9,3.65,3.65,0,0,1,1.3-1.6,3.51,3.51,0,0,1,3.77,0,3.65,3.65,0,0,1,1.3,1.6,6.62,6.62,0,0,1,0,4.9,3.59,3.59,0,0,1-1.3,1.6,3.45,3.45,0,0,1-3.77,0Zm3.29-.74a2.9,2.9,0,0,0,.95-1.28,6.23,6.23,0,0,0,0-4.06,2.9,2.9,0,0,0-.95-1.28,2.36,2.36,0,0,0-1.41-.44,2.33,2.33,0,0,0-1.4.44,2.82,2.82,0,0,0-1,1.28,6.23,6.23,0,0,0,0,4.06,2.82,2.82,0,0,0,1,1.28,2.27,2.27,0,0,0,1.4.44A2.3,2.3,0,0,0,167.33,656.84Z"/><path class="cls-3" d="M174,657.58a3.64,3.64,0,0,1-1.29-1.6,6.75,6.75,0,0,1,0-4.9,3.7,3.7,0,0,1,1.29-1.6,3.35,3.35,0,0,1,1.89-.55,3.3,3.3,0,0,1,1.89.55,3.72,3.72,0,0,1,1.3,1.6,6.62,6.62,0,0,1,0,4.9,3.66,3.66,0,0,1-1.3,1.6,3.31,3.31,0,0,1-1.89.56A3.36,3.36,0,0,1,174,657.58Zm3.3-.74a2.81,2.81,0,0,0,.94-1.28,6.23,6.23,0,0,0,0-4.06,2.81,2.81,0,0,0-.94-1.28,2.38,2.38,0,0,0-1.41-.44,2.33,2.33,0,0,0-1.4.44,2.75,2.75,0,0,0-.95,1.28,6.23,6.23,0,0,0,0,4.06,2.75,2.75,0,0,0,.95,1.28,2.27,2.27,0,0,0,1.4.44A2.32,2.32,0,0,0,177.29,656.84Z"/><path class="cls-3" d="M158.79,685.23v9.06h-.94v-8.23h-2.16v-.83Z"/><path class="cls-3" d="M164,693.81a3.59,3.59,0,0,1-1.3-1.6,6.75,6.75,0,0,1,0-4.9,3.65,3.65,0,0,1,1.3-1.6,3.51,3.51,0,0,1,3.77,0,3.72,3.72,0,0,1,1.3,1.6,6.62,6.62,0,0,1,0,4.9,3.66,3.66,0,0,1-1.3,1.6,3.45,3.45,0,0,1-3.77,0Zm3.29-.74a2.9,2.9,0,0,0,.95-1.28,6.23,6.23,0,0,0,0-4.06,2.9,2.9,0,0,0-.95-1.28,2.38,2.38,0,0,0-1.41-.44,2.33,2.33,0,0,0-1.4.44,2.82,2.82,0,0,0-1,1.28,6.23,6.23,0,0,0,0,4.06,2.82,2.82,0,0,0,1,1.28,2.27,2.27,0,0,0,1.4.44A2.32,2.32,0,0,0,167.33,693.07Z"/><path class="cls-3" d="M174,693.81a3.64,3.64,0,0,1-1.29-1.6,6.62,6.62,0,0,1,0-4.9,3.7,3.7,0,0,1,1.29-1.6,3.52,3.52,0,0,1,3.78,0,3.79,3.79,0,0,1,1.3,1.6,6.62,6.62,0,0,1,0,4.9,3.73,3.73,0,0,1-1.3,1.6,3.47,3.47,0,0,1-3.78,0Zm3.3-.74a2.81,2.81,0,0,0,.94-1.28,6.23,6.23,0,0,0,0-4.06,2.81,2.81,0,0,0-.94-1.28,2.38,2.38,0,0,0-1.41-.44,2.33,2.33,0,0,0-1.4.44,2.75,2.75,0,0,0-.95,1.28,6.23,6.23,0,0,0,0,4.06,2.75,2.75,0,0,0,.95,1.28,2.27,2.27,0,0,0,1.4.44A2.32,2.32,0,0,0,177.29,693.07Z"/><path class="cls-3" d="M174,730a3.64,3.64,0,0,1-1.29-1.6,6.75,6.75,0,0,1,0-4.9,3.7,3.7,0,0,1,1.29-1.6,3.35,3.35,0,0,1,1.89-.55,3.3,3.3,0,0,1,1.89.55,3.72,3.72,0,0,1,1.3,1.6,6.62,6.62,0,0,1,0,4.9,3.66,3.66,0,0,1-1.3,1.6,3.31,3.31,0,0,1-1.89.56A3.36,3.36,0,0,1,174,730Zm3.3-.74a2.81,2.81,0,0,0,.94-1.28,6.23,6.23,0,0,0,0-4.06,2.81,2.81,0,0,0-.94-1.28,2.38,2.38,0,0,0-1.41-.44,2.33,2.33,0,0,0-1.4.44,2.75,2.75,0,0,0-.95,1.28,6.23,6.23,0,0,0,0,4.06,2.75,2.75,0,0,0,.95,1.28,2.27,2.27,0,0,0,1.4.44A2.32,2.32,0,0,0,177.29,729.3Z"/><line class="cls-4" x1="188.93" y1="344.52" x2="188.93" y2="729.4"/><path class="cls-1" d="M208,267.92h-4.93v-1.77H215v1.77H210V280.4h-2Z"/><path class="cls-1" d="M227.8,279.61a7.05,7.05,0,0,1-2.75-2.61,7.5,7.5,0,0,1,0-7.45,7,7,0,0,1,2.75-2.62,8.62,8.62,0,0,1,7.83,0,6.93,6.93,0,0,1,2.73,2.61,7.54,7.54,0,0,1,0,7.47,7,7,0,0,1-2.73,2.6,8.54,8.54,0,0,1-7.83,0Zm6.77-1.57a5.23,5.23,0,0,0,2-2,5.73,5.73,0,0,0,0-5.6,5.2,5.2,0,0,0-2-2,5.64,5.64,0,0,0-2.85-.71,5.73,5.73,0,0,0-2.86.71,5.21,5.21,0,0,0-2,2,5.73,5.73,0,0,0,0,5.6,5.24,5.24,0,0,0,2,2,5.83,5.83,0,0,0,2.86.71A5.74,5.74,0,0,0,234.57,278Z"/><path class="cls-1" d="M253.37,267.92h-4.93v-1.77h11.9v1.77H255.4V280.4h-2Z"/><path class="cls-1" d="M279.25,276.83H271.6L270,280.4H267.9l6.52-14.25h2L283,280.4h-2.16Zm-.72-1.62-3.1-7-3.11,7Z"/><path class="cls-1" d="M293.35,266.15h2.06v12.47h7.79v1.78h-9.85Z"/><path class="cls-1" d="M330.83,266.15V280.4h-2V267.92h-3.25v-1.77Z"/><path class="cls-1" d="M350.84,273a3.8,3.8,0,0,1,1.45,3.14,4.36,4.36,0,0,1-.61,2.27,4.11,4.11,0,0,1-1.83,1.59,6.94,6.94,0,0,1-3,.58,9.41,9.41,0,0,1-2.94-.46,6.39,6.39,0,0,1-2.34-1.27l.94-1.61a5.62,5.62,0,0,0,1.89,1.11,7.05,7.05,0,0,0,2.43.42,4.13,4.13,0,0,0,2.52-.68,2.25,2.25,0,0,0,.89-1.87,2.19,2.19,0,0,0-1-1.94,6.33,6.33,0,0,0-3.37-.66H342.6l.77-7.45h8.12v1.77h-6.4l-.39,3.91h1.6A7.27,7.27,0,0,1,350.84,273Z"/><path class="cls-1" d="M366.68,266.15V280.4h-2V267.92h-3.25v-1.77Z"/><path class="cls-1" d="M381.75,279.61A7.08,7.08,0,0,1,379,277a7.54,7.54,0,0,1,0-7.47,7,7,0,0,1,2.73-2.61,8.1,8.1,0,0,1,3.91-.94,8.27,8.27,0,0,1,3.08.55,6.4,6.4,0,0,1,2.39,1.66l-1.34,1.29a5.37,5.37,0,0,0-4.05-1.69,5.88,5.88,0,0,0-2.9.71,5.21,5.21,0,0,0-2,2,5.73,5.73,0,0,0,0,5.6,5.24,5.24,0,0,0,2,2,6,6,0,0,0,2.9.71A5.38,5.38,0,0,0,389.8,277l1.34,1.28a6.46,6.46,0,0,1-2.4,1.67,8.17,8.17,0,0,1-3.09.57A8,8,0,0,1,381.75,279.61Z"/><path class="cls-1" d="M403.72,278.93a6.39,6.39,0,0,1-1.6-4.68v-8.1h2.05v8q0,4.57,4.05,4.58a3.92,3.92,0,0,0,3-1.13,4.94,4.94,0,0,0,1.05-3.45v-8h2v8.1a6.38,6.38,0,0,1-1.6,4.69,7,7,0,0,1-9,0Z"/><path class="cls-1" d="M438.38,274.26a3.56,3.56,0,0,1,.72,2.29,3.29,3.29,0,0,1-1.41,2.85,7.11,7.11,0,0,1-4.1,1h-6.87V266.15h6.46a6.43,6.43,0,0,1,3.81,1,3.17,3.17,0,0,1,1.34,2.71,3.52,3.52,0,0,1-.52,1.94A3.46,3.46,0,0,1,436.4,273,3.71,3.71,0,0,1,438.38,274.26Zm-9.6-6.46v4.56H433a4.38,4.38,0,0,0,2.44-.58,1.93,1.93,0,0,0,.85-1.7,1.91,1.91,0,0,0-.85-1.7,4.29,4.29,0,0,0-2.44-.58Zm7.36,10.38a2,2,0,0,0,.88-1.79c0-1.59-1.17-2.39-3.52-2.39h-4.72v4.75h4.72A4.93,4.93,0,0,0,436.14,278.18Z"/><path class="cls-1" d="M459.67,276.83H452l-1.59,3.57h-2.11l6.51-14.25h2l6.54,14.25h-2.16Zm-.72-1.62-3.1-7-3.1,7Z"/><path class="cls-1" d="M487.53,266.15h6.06a8.94,8.94,0,0,1,4.05.89,6.62,6.62,0,0,1,2.74,2.52,7.53,7.53,0,0,1,0,7.43,6.6,6.6,0,0,1-2.74,2.51,8.81,8.81,0,0,1-4.05.9h-6.06Zm5.94,12.47a6.67,6.67,0,0,0,3.07-.67,4.85,4.85,0,0,0,2-1.88,5.8,5.8,0,0,0,0-5.6,5,5,0,0,0-2-1.88,6.67,6.67,0,0,0-3.07-.67h-3.89v10.7Z"/><path class="cls-1" d="M521.69,276.83H514l-1.58,3.57h-2.12l6.52-14.25h2l6.53,14.25h-2.16Zm-.72-1.62-3.1-7-3.11,7Z"/><path class="cls-1" d="M537.93,267.92H533v-1.77h11.9v1.77H540V280.4h-2Z"/><path class="cls-1" d="M563.81,276.83h-7.64l-1.59,3.57h-2.12L559,266.15h2l6.53,14.25h-2.16Zm-.72-1.62-3.1-7-3.11,7Z"/><path class="cls-1" d="M594.2,279.61a7.08,7.08,0,0,1-2.72-2.6,7.54,7.54,0,0,1,0-7.47,7,7,0,0,1,2.73-2.61,8.1,8.1,0,0,1,3.91-.94,8.27,8.27,0,0,1,3.08.55,6.4,6.4,0,0,1,2.39,1.66l-1.34,1.29a5.37,5.37,0,0,0-4-1.69,5.88,5.88,0,0,0-2.9.71,5.21,5.21,0,0,0-2,2,5.73,5.73,0,0,0,0,5.6,5.24,5.24,0,0,0,2,2,6,6,0,0,0,2.9.71,5.38,5.38,0,0,0,4-1.71l1.34,1.28a6.46,6.46,0,0,1-2.4,1.67,8.17,8.17,0,0,1-3.09.57A8,8,0,0,1,594.2,279.61Z"/><path class="cls-1" d="M617,279.61a7,7,0,0,1-2.74-2.61,7.44,7.44,0,0,1,0-7.45,7,7,0,0,1,2.74-2.62,8.15,8.15,0,0,1,3.93-.94,8,8,0,0,1,3.9.94,7,7,0,0,1,2.74,2.61,7.61,7.61,0,0,1,0,7.47,7,7,0,0,1-2.74,2.6,8,8,0,0,1-3.9.95A8.16,8.16,0,0,1,617,279.61Zm6.78-1.57a5.3,5.3,0,0,0,2-2,5.73,5.73,0,0,0,0-5.6,5.27,5.27,0,0,0-2-2,5.69,5.69,0,0,0-2.85-.71,5.76,5.76,0,0,0-2.87.71,5.12,5.12,0,0,0-2,2,5.73,5.73,0,0,0,0,5.6,5.15,5.15,0,0,0,2,2,5.87,5.87,0,0,0,2.87.71A5.79,5.79,0,0,0,623.79,278Z"/><path class="cls-1" d="M652.31,266.15V280.4h-1.69L642,269.77V280.4h-2.06V266.15h1.69l8.63,10.62V266.15Z"/><path class="cls-1" d="M665.91,280.06a6.45,6.45,0,0,1-2.38-1.29l.76-1.59a6.2,6.2,0,0,0,2.11,1.19,7.68,7.68,0,0,0,2.64.46,4.8,4.8,0,0,0,2.67-.6,1.85,1.85,0,0,0,.89-1.6,1.55,1.55,0,0,0-.49-1.19,3.13,3.13,0,0,0-1.19-.7,18.9,18.9,0,0,0-2-.55,20.07,20.07,0,0,1-2.62-.78,4.17,4.17,0,0,1-1.71-1.19,3.14,3.14,0,0,1-.71-2.16,3.61,3.61,0,0,1,.61-2.06,4.13,4.13,0,0,1,1.84-1.47,7.62,7.62,0,0,1,3.06-.54,9.65,9.65,0,0,1,2.51.32,6.59,6.59,0,0,1,2.11.94l-.67,1.63a7.69,7.69,0,0,0-1.94-.87,7.08,7.08,0,0,0-2-.29,4.46,4.46,0,0,0-2.62.63,1.92,1.92,0,0,0-.87,1.62,1.57,1.57,0,0,0,.49,1.2,3.57,3.57,0,0,0,1.22.71,19.3,19.3,0,0,0,2,.54,20.54,20.54,0,0,1,2.61.77,4.43,4.43,0,0,1,1.69,1.18,3.06,3.06,0,0,1,.71,2.14,3.53,3.53,0,0,1-.62,2,4.09,4.09,0,0,1-1.87,1.47,7.76,7.76,0,0,1-3.08.54A10,10,0,0,1,665.91,280.06Z"/><path class="cls-1" d="M687.31,278.93a6.43,6.43,0,0,1-1.6-4.68v-8.1h2.06v8q0,4.57,4.05,4.58a3.94,3.94,0,0,0,3-1.13,4.94,4.94,0,0,0,1-3.45v-8h2v8.1a6.38,6.38,0,0,1-1.6,4.69,7,7,0,0,1-9,0Z"/><path class="cls-1" d="M723.66,280.4l0-10.38-5.2,8.65h-1l-5.2-8.59V280.4h-2V266.15H712l6,10,5.92-10h1.69l0,14.25Z"/><path class="cls-1" d="M748.18,267.47a4.93,4.93,0,0,1,0,7.29,6.71,6.71,0,0,1-4.4,1.32h-3.55v4.32h-2.06V266.15h5.61A6.71,6.71,0,0,1,748.18,267.47Zm-1.48,6a3.25,3.25,0,0,0,0-4.75,4.66,4.66,0,0,0-3-.82h-3.49v6.39h3.49A4.66,4.66,0,0,0,746.7,273.49Z"/><path class="cls-1" d="M763.43,267.92H758.5v-1.77h11.9v1.77h-4.93V280.4h-2Z"/><path class="cls-1" d="M780.87,266.15h2V280.4h-2Z"/><path class="cls-1" d="M798,279.61a7,7,0,0,1-2.74-2.61,7.44,7.44,0,0,1,0-7.45,7,7,0,0,1,2.74-2.62A8.12,8.12,0,0,1,802,266a8,8,0,0,1,3.9.94,7,7,0,0,1,2.74,2.61,7.61,7.61,0,0,1,0,7.47,7,7,0,0,1-2.74,2.6,8,8,0,0,1-3.9.95A8.13,8.13,0,0,1,798,279.61ZM804.8,278a5.26,5.26,0,0,0,2-2,5.73,5.73,0,0,0,0-5.6,5.23,5.23,0,0,0-2-2,5.62,5.62,0,0,0-2.84-.71,5.76,5.76,0,0,0-2.87.71,5.12,5.12,0,0,0-2,2,5.67,5.67,0,0,0,0,5.6,5.15,5.15,0,0,0,2,2,5.87,5.87,0,0,0,2.87.71A5.73,5.73,0,0,0,804.8,278Z"/><path class="cls-1" d="M833.33,266.15V280.4h-1.69L823,269.77V280.4H821V266.15h1.69l8.63,10.62V266.15Z"/><path class="cls-1" d="M432.9,299.47a5,5,0,0,1,0,7.29,6.73,6.73,0,0,1-4.4,1.32h-3.56v4.32h-2.05V298.15h5.61A6.73,6.73,0,0,1,432.9,299.47Zm-1.48,6a3.25,3.25,0,0,0,0-4.75,4.68,4.68,0,0,0-3-.82h-3.5v6.39h3.5A4.68,4.68,0,0,0,431.42,305.49Z"/><path class="cls-1" d="M456.19,310.62v1.78H445.75V298.15H455.9v1.77h-8.1v4.37H455V306H447.8v4.6Z"/><path class="cls-1" d="M477.36,312.4l-3.1-4.38c-.39,0-.69,0-.91,0H469.8v4.34h-2.06V298.15h5.61a6.71,6.71,0,0,1,4.4,1.32,4.47,4.47,0,0,1,1.61,3.64,4.72,4.72,0,0,1-.83,2.81,4.56,4.56,0,0,1-2.34,1.69l3.41,4.79Zm-1.09-6.9a2.89,2.89,0,0,0,1-2.39,2.85,2.85,0,0,0-1-2.37,4.66,4.66,0,0,0-3-.82H469.8v6.41h3.49A4.66,4.66,0,0,0,476.27,305.5Z"/><path class="cls-1" d="M518,312.4,518,302l-5.2,8.65h-.94l-5.21-8.59V312.4h-2V298.15h1.69l6,10,5.92-10H520l0,14.25Z"/><path class="cls-1" d="M535.08,311.61a7,7,0,0,1-2.74-2.61,7.44,7.44,0,0,1,0-7.45,7,7,0,0,1,2.74-2.62,8.64,8.64,0,0,1,7.84,0,7,7,0,0,1,2.73,2.61,7.54,7.54,0,0,1,0,7.47,7,7,0,0,1-2.73,2.6,8.56,8.56,0,0,1-7.84,0Zm6.78-1.57a5.23,5.23,0,0,0,2-2,5.73,5.73,0,0,0,0-5.6,5.2,5.2,0,0,0-2-2,5.66,5.66,0,0,0-2.85-.71,5.79,5.79,0,0,0-2.87.71,5.26,5.26,0,0,0-2,2,5.73,5.73,0,0,0,0,5.6,5.28,5.28,0,0,0,2,2,5.9,5.9,0,0,0,2.87.71A5.77,5.77,0,0,0,541.86,310Z"/><path class="cls-1" d="M570.38,298.15V312.4h-1.69l-8.63-10.63V312.4H558V298.15h1.69l8.63,10.62V298.15Z"/><path class="cls-1" d="M585.78,299.92h-4.94v-1.77h11.91v1.77h-4.94V312.4h-2Z"/><path class="cls-1" d="M615.58,298.15V312.4h-2.05v-6.35h-8.27v6.35h-2V298.15h2v6.12h8.27v-6.12Z"/><polyline class="cls-5" points="255.53 727.59 255.53 392.41 226.63 392.41 226.63 727.59"/><polyline class="cls-6" points="317.67 727.59 317.67 430.37 288.77 430.37 288.77 727.59"/><polyline class="cls-7" points="379.81 727.59 379.81 494.98 350.91 494.98 350.91 727.59"/><polyline class="cls-8" points="444.84 727.59 444.84 566.05 415.94 566.05 415.94 727.59"/><polyline class="cls-9" points="506.98 727.59 506.98 551.52 478.08 551.52 478.08 727.59"/><polyline class="cls-10" points="569.12 727.59 569.12 578.98 540.22 578.98 540.22 727.59"/><polyline class="cls-11" points="628.37 727.59 628.37 566.05 599.47 566.05 599.47 727.59"/><polyline class="cls-12" points="690.51 727.59 690.51 584.63 661.61 584.63 661.61 727.59"/><polyline class="cls-13" points="752.65 727.59 752.65 551.52 723.75 551.52 723.75 727.59"/><polyline class="cls-14" points="815.51 727.59 815.51 492.56 786.61 492.56 786.61 727.59"/><path class="cls-1" d="M245.42,776.14a3.17,3.17,0,0,1-.94,1.17l-1.13-.94a2.15,2.15,0,0,0,1-1.76c0-.92-.54-1.38-1.63-1.38h-4.59v3.15h-1.38v-4.8h5.88a3.22,3.22,0,0,1,2.34.76,3,3,0,0,1,.78,2.23A3.72,3.72,0,0,1,245.42,776.14Z"/><path class="cls-1" d="M243.58,763.71v4.43l2,.88v1.7l-8.87-4V765.1l8.87-4v1.72Zm-1.3.54-3.88,1.67,3.88,1.67Z"/><path class="cls-1" d="M236.76,752.08h8.87v1.36l-6,4.89h6V760h-8.87v-1.36l6-4.89h-6Z"/><path class="cls-1" d="M300.64,774.27h2.7V770h1.39v4.29h3.4v1.64h-8.87v-6.47h1.38Z"/><path class="cls-1" d="M306.75,761.18h1.38v6.66h-8.87v-6.48h1.38v4.83h2.3v-4.28h1.36v4.28h2.45Z"/><path class="cls-1" d="M304.32,751.89a2.29,2.29,0,0,1,1.4-.43,2.06,2.06,0,0,1,1.78.89,4.44,4.44,0,0,1,.63,2.59v4.41h-8.87v-4.16a4.06,4.06,0,0,1,.61-2.42,2,2,0,0,1,1.69-.85,2.26,2.26,0,0,1,1.17.3,2,2,0,0,1,.78.84A2.41,2.41,0,0,1,304.32,751.89Zm-3.77,5.81H303v-2.33a2.35,2.35,0,0,0-.32-1.33,1,1,0,0,0-.9-.46,1,1,0,0,0-.92.46,2.36,2.36,0,0,0-.31,1.33Zm5-4.58c-.86,0-1.28.64-1.28,1.92v2.66h2.56V755C306.84,753.76,306.41,753.12,305.56,753.12Z"/><path class="cls-1" d="M370.63,772.42h-5.88l4.87,2.91v.74l-4.8,2.91h5.81v1.58h-8.87v-1.36l5.88-3.52-5.88-3.46v-1.36h8.87Z"/><path class="cls-1" d="M368.58,762.71v4.43l2.05.88v1.7l-8.87-4V764.1l8.87-4v1.73Zm-1.3.54-3.88,1.67,3.88,1.66Z"/><path class="cls-1" d="M370.63,753.16,368,755a3.23,3.23,0,0,1,0,.35v2h2.59V759h-8.87v-3.65a4.81,4.81,0,0,1,.38-2,2.83,2.83,0,0,1,1.09-1.31,3.3,3.3,0,0,1,3.41,0,2.83,2.83,0,0,1,1.07,1.4l2.92-2Zm-7,.6a2.48,2.48,0,0,0-.46,1.63v1.93h3.54v-1.93a2.48,2.48,0,0,0-.47-1.63,1.8,1.8,0,0,0-2.61,0Z"/><path class="cls-1" d="M431.08,771.78v4.44l2.05.87v1.7l-8.87-4v-1.62l8.87-4v1.72Zm-1.3.55L425.9,774l3.88,1.66Z"/><path class="cls-1" d="M424.64,762.38a2.83,2.83,0,0,1,1.09-1.31,3.06,3.06,0,0,1,1.68-.45,3.1,3.1,0,0,1,1.68.45,2.91,2.91,0,0,1,1.1,1.31,5,5,0,0,1,.38,2v2h2.56V768h-8.87v-3.65A4.81,4.81,0,0,1,424.64,762.38Zm4.08.45a1.6,1.6,0,0,0-1.31-.55,1.58,1.58,0,0,0-1.3.55,2.52,2.52,0,0,0-.46,1.64v1.92h3.52v-1.92A2.58,2.58,0,0,0,428.72,762.83Z"/><path class="cls-1" d="M433.13,753.16l-2.6,1.81a3.23,3.23,0,0,1,0,.35v2h2.59V759h-8.87v-3.65a4.81,4.81,0,0,1,.38-2,2.83,2.83,0,0,1,1.09-1.31,3.3,3.3,0,0,1,3.41,0,2.83,2.83,0,0,1,1.07,1.4l2.92-2Zm-7,.6a2.48,2.48,0,0,0-.46,1.63v1.93h3.54v-1.93a2.48,2.48,0,0,0-.47-1.63,1.8,1.8,0,0,0-2.61,0Z"/><path class="cls-1" d="M495.63,771h-5.88l4.87,2.91v.74l-4.8,2.91h5.81v1.58h-8.87v-1.36l5.88-3.52-5.88-3.46v-1.36h8.87Z"/><path class="cls-1" d="M493.58,761.29v4.43l2.05.88v1.7l-8.87-4v-1.62l8.87-4v1.73Zm-1.3.54-3.88,1.67,3.88,1.67Z"/><path class="cls-1" d="M492.5,754.25h3.13v1.65h-3.11l-5.76,3.48v-1.76l4.32-2.6-4.32-2.62v-1.62Z"/><path class="cls-1" d="M557.92,776.83A3.12,3.12,0,0,1,557,778l-1.13-.94a2.15,2.15,0,0,0,1-1.76c0-.93-.54-1.39-1.63-1.39h-4.59v3.16h-1.38v-4.8h5.88a3.22,3.22,0,0,1,2.34.76,3,3,0,0,1,.78,2.23A3.67,3.67,0,0,1,557.92,776.83Z"/><path class="cls-1" d="M557.22,769a4,4,0,0,1-3,1h-5V768.4h4.94c1.74,0,2.61-.75,2.61-2.26s-.87-2.24-2.61-2.24h-4.94v-1.62h5a4,4,0,0,1,3,1,3.82,3.82,0,0,1,1,2.85A3.87,3.87,0,0,1,557.22,769Z"/><path class="cls-1" d="M549.26,752.08h8.87v1.36l-6,4.89h6V760h-8.87v-1.36l6-4.89h-6Z"/><path class="cls-1" d="M620.42,774.16a3,3,0,0,1-.94,1.17l-1.13-.94a2.14,2.14,0,0,0,1-1.76c0-.92-.54-1.38-1.63-1.38h-4.59v3.16h-1.38V769.6h5.88a3.22,3.22,0,0,1,2.34.76,3,3,0,0,1,.78,2.23A3.72,3.72,0,0,1,620.42,774.16Z"/><path class="cls-1" d="M619.72,766.34a4,4,0,0,1-3,1h-5v-1.65h4.94q2.61,0,2.61-2.25t-2.61-2.25h-4.94V759.6h5a4,4,0,0,1,3,1,4.45,4.45,0,0,1,0,5.72Z"/><path class="cls-1" d="M611.76,757.29v-1.64h7.47V751h1.4v6.28Z"/><path class="cls-1" d="M681.08,773v4.43l2,.88v1.7l-8.87-4v-1.62l8.87-4v1.72Zm-1.3.54-3.88,1.67,3.88,1.67Z"/><path class="cls-1" d="M682.22,768.54a4,4,0,0,1-3,1h-5v-1.64h4.94c1.74,0,2.61-.76,2.61-2.26s-.87-2.24-2.61-2.24h-4.94v-1.63h5a4,4,0,0,1,3,1,4.47,4.47,0,0,1,0,5.73Z"/><path class="cls-1" d="M678.59,753.43v-1.56h3.54a5,5,0,0,1,.83,1.6,5.9,5.9,0,0,1,.3,1.87,5.1,5.1,0,0,1-.59,2.45A4.4,4.4,0,0,1,681,759.5a4.56,4.56,0,0,1-2.35.62,4.5,4.5,0,0,1-2.34-.62,4.29,4.29,0,0,1-1.63-1.72,5.14,5.14,0,0,1-.59-2.46,5.28,5.28,0,0,1,.37-2,4,4,0,0,1,1.07-1.54l1,1a3.35,3.35,0,0,0-1,2.45,3.49,3.49,0,0,0,.4,1.67,2.94,2.94,0,0,0,1.1,1.14,3.37,3.37,0,0,0,3.22,0,3.14,3.14,0,0,0,1.12-1.14,3.37,3.37,0,0,0,.4-1.66,3.49,3.49,0,0,0-.46-1.82Z"/><path class="cls-1" d="M745.46,774.6a4.09,4.09,0,0,1-.77,1.52l-1.28-.57a4.46,4.46,0,0,0,.7-1.34,4.68,4.68,0,0,0,.28-1.59,2.78,2.78,0,0,0-.32-1.48,1,1,0,0,0-.84-.49.77.77,0,0,0-.62.28,1.78,1.78,0,0,0-.39.69c-.09.28-.2.66-.32,1.14a13.72,13.72,0,0,1-.48,1.64,2.7,2.7,0,0,1-.75,1.08,2.06,2.06,0,0,1-1.39.45,2.42,2.42,0,0,1-1.34-.4,2.76,2.76,0,0,1-1-1.21,5,5,0,0,1-.35-2,6.68,6.68,0,0,1,.2-1.6,4.38,4.38,0,0,1,.59-1.35l1.28.52a4.67,4.67,0,0,0-.52,1.22,4.47,4.47,0,0,0-.18,1.23,2.57,2.57,0,0,0,.33,1.45,1,1,0,0,0,.87.47.78.78,0,0,0,.62-.27,1.9,1.9,0,0,0,.38-.69c.1-.28.2-.66.32-1.14a11.35,11.35,0,0,1,.48-1.63,2.7,2.7,0,0,1,.75-1.08,2,2,0,0,1,1.37-.45,2.31,2.31,0,0,1,1.33.4,2.74,2.74,0,0,1,.95,1.21,4.87,4.87,0,0,1,.36,2A6.6,6.6,0,0,1,745.46,774.6Z"/><path class="cls-1" d="M744.25,760.74h1.38v6.66h-8.87v-6.48h1.38v4.83h2.3v-4.29h1.36v4.29h2.45Z"/><path class="cls-1" d="M737.14,753.24a2.88,2.88,0,0,1,1.09-1.31,3.06,3.06,0,0,1,1.68-.45,3.1,3.1,0,0,1,1.68.45,3,3,0,0,1,1.1,1.31,5,5,0,0,1,.38,2v2h2.56v1.65h-8.87v-3.65A4.81,4.81,0,0,1,737.14,753.24Zm4.08.45a1.6,1.6,0,0,0-1.31-.55,1.58,1.58,0,0,0-1.3.55,2.52,2.52,0,0,0-.46,1.64v1.92h3.52v-1.92A2.58,2.58,0,0,0,741.22,753.69Z"/><path class="cls-1" d="M807.67,775.42a4.35,4.35,0,0,1-1.64,1.71,4.73,4.73,0,0,1-4.68,0,4.33,4.33,0,0,1-1.63-1.71,5.36,5.36,0,0,1,0-4.89,4.26,4.26,0,0,1,1.63-1.71,4.4,4.4,0,0,1,2.34-.62,4.46,4.46,0,0,1,2.35.62,4.4,4.4,0,0,1,1.63,1.71,5.36,5.36,0,0,1,0,4.89Zm-1.26-4a2.85,2.85,0,0,0-1.11-1.12,3.23,3.23,0,0,0-1.61-.4,3.19,3.19,0,0,0-1.6.4,2.87,2.87,0,0,0-1.12,1.12,3.38,3.38,0,0,0,0,3.19,2.94,2.94,0,0,0,1.12,1.12,3.19,3.19,0,0,0,1.6.4,3.23,3.23,0,0,0,1.61-.4,2.91,2.91,0,0,0,1.11-1.12,3.38,3.38,0,0,0,0-3.19Z"/><path class="cls-1" d="M807.67,764.77a4.35,4.35,0,0,1-1.63,1.69,4.56,4.56,0,0,1-2.35.62,4.5,4.5,0,0,1-2.34-.62,4.33,4.33,0,0,1-1.63-1.71,5,5,0,0,1-.59-2.42,5.11,5.11,0,0,1,.38-2,4,4,0,0,1,1.1-1.52l1,1.06a3.11,3.11,0,0,0-1,2.37,3.43,3.43,0,0,0,.4,1.64,2.91,2.91,0,0,0,1.11,1.12,3.37,3.37,0,0,0,3.22,0,2.78,2.78,0,0,0,1.11-1.12,3.32,3.32,0,0,0,.4-1.64,3.08,3.08,0,0,0-1-2.37l1-1.06a4.13,4.13,0,0,1,1.11,1.52,5.2,5.2,0,0,1,.38,2A5,5,0,0,1,807.67,764.77Z"/><path class="cls-1" d="M800.65,755.53v2.94h-1.39v-7.53h1.39v2.94h7.48v1.65Z"/><line class="cls-4" x1="189.02" y1="728.31" x2="849.77" y2="728.31"/></svg>