<svg id="Layer_1" data-name="Layer 1" xmlns="http://www.w3.org/2000/svg" viewBox="0 0 960 1080"><defs><style>.cls-1,.cls-11,.cls-2,.cls-3,.cls-4,.cls-5{fill:none;stroke-miterlimit:10;}.cls-1,.cls-11{stroke:#ea772a;}.cls-1,.cls-2,.cls-3,.cls-4,.cls-5{stroke-width:25px;}.cls-2{stroke:#fbb03b;}.cls-3{stroke:#fff;}.cls-4{stroke:#f7931e;}.cls-5{stroke:#ffbd66;}.cls-6{fill:#f7931e;}.cls-7{fill:#ea772a;}.cls-8{fill:#fbb03b;}.cls-9{fill:#ffbd66;}.cls-10{fill:#fff;}</style></defs><title>perAnnum</title><path class="cls-1" d="M515.3,835.52A336.7,336.7,0,0,0,598,614c0-186.67-151.33-338-338-338"/><path class="cls-2" d="M111.07,863.64a288.65,288.65,0,0,0,148.24,40.71c160.13,0,290-129.82,290-290S419.44,324.45,259.31,324.45"/><path class="cls-3" d="M471.06,729.27a239.77,239.77,0,0,0,29.1-114.87c0-133-107.85-240.9-240.9-240.9"/><path class="cls-3" d="M307.63,850.44A241.24,241.24,0,0,0,471.06,729.27"/><path class="cls-4" d="M219.63,802A193.08,193.08,0,0,0,259,806c105.91,0,191.77-85.86,191.77-191.77S364.88,422.5,259,422.5"/><path class="cls-5" d="M358.28,716a141.89,141.89,0,0,0-98.66-243.85"/><circle class="cls-6" cx="726" cy="614" r="16"/><circle class="cls-7" cx="726" cy="729" r="16"/><circle class="cls-8" cx="726" cy="560" r="16"/><circle class="cls-9" cx="726" cy="785" r="16"/><circle class="cls-10" cx="726" cy="671" r="16"/><path class="cls-10" d="M761.21,605.52h2.5V623h-2.5Z"/><path class="cls-10" d="M779.7,611.11a5.75,5.75,0,0,1,1.49,4.29V623h-2.4v-7.35a4.06,4.06,0,0,0-.93-2.9,3.47,3.47,0,0,0-2.65-1,4.15,4.15,0,0,0-3.07,1.13A4.46,4.46,0,0,0,771,616.2V623h-2.4V609.77h2.3v2a4.66,4.66,0,0,1,2-1.57,6.78,6.78,0,0,1,2.81-.55A5.45,5.45,0,0,1,779.7,611.11Z"/><path class="cls-10" d="M786.31,622.73a6.86,6.86,0,0,1-2.35-1.11l1-1.9a7.13,7.13,0,0,0,2.13,1,8.7,8.7,0,0,0,2.52.38q3.15,0,3.15-1.8a1.17,1.17,0,0,0-.42-.95,2.7,2.7,0,0,0-1.06-.52c-.43-.1-1-.22-1.82-.36a19.62,19.62,0,0,1-2.61-.57,4.2,4.2,0,0,1-1.74-1.1,3.1,3.1,0,0,1-.72-2.18,3.41,3.41,0,0,1,1.5-2.89,6.74,6.74,0,0,1,4-1.08,10.86,10.86,0,0,1,2.65.32,7.12,7.12,0,0,1,2.18.88l-1,1.9a6.88,6.88,0,0,0-3.82-1,4.39,4.39,0,0,0-2.33.5,1.5,1.5,0,0,0-.8,1.32,1.26,1.26,0,0,0,.45,1,2.87,2.87,0,0,0,1.12.55c.44.11,1.06.25,1.86.4a21.72,21.72,0,0,1,2.59.58,3.88,3.88,0,0,1,1.68,1.07,2.94,2.94,0,0,1,.7,2.1,3.31,3.31,0,0,1-1.53,2.86,7.28,7.28,0,0,1-4.19,1.06A10.81,10.81,0,0,1,786.31,622.73Z"/><path class="cls-10" d="M805.61,622.25a3.42,3.42,0,0,1-1.3.68,5.35,5.35,0,0,1-1.6.24,4.29,4.29,0,0,1-3.1-1.07,4.13,4.13,0,0,1-1.1-3.08v-7.27h-2.25v-2h2.25v-2.9h2.4v2.9h3.8v2h-3.8v7.17a2.31,2.31,0,0,0,.54,1.65,2,2,0,0,0,1.54.58,2.86,2.86,0,0,0,1.87-.63Z"/><path class="cls-10" d="M817.55,611a5.19,5.19,0,0,1,1.46,4v8h-2.27v-1.75a3.74,3.74,0,0,1-1.71,1.41,6.51,6.51,0,0,1-2.64.49,5.58,5.58,0,0,1-3.57-1.07,3.71,3.71,0,0,1-.06-5.64,6.27,6.27,0,0,1,4-1.06h3.8v-.48a3.05,3.05,0,0,0-.9-2.37,3.79,3.79,0,0,0-2.65-.83,7,7,0,0,0-2.3.39,5.87,5.87,0,0,0-1.9,1l-1-1.8a7.39,7.39,0,0,1,2.45-1.27,10.32,10.32,0,0,1,3-.43A6,6,0,0,1,817.55,611Zm-2.39,9.71a3.5,3.5,0,0,0,1.45-1.74v-1.85h-3.7c-2,0-3,.68-3,2a1.86,1.86,0,0,0,.78,1.58,3.55,3.55,0,0,0,2.15.57A4.42,4.42,0,0,0,815.16,620.71Z"/><path class="cls-10" d="M836.21,609.77v11.45q0,3.48-1.72,5.14a7.15,7.15,0,0,1-5.15,1.66,12.39,12.39,0,0,1-3.58-.51,7.12,7.12,0,0,1-2.75-1.46l1.15-1.85a6.9,6.9,0,0,0,2.29,1.26,8.62,8.62,0,0,0,2.81.46,4.74,4.74,0,0,0,3.44-1.1,4.53,4.53,0,0,0,1.11-3.35v-1.05a5.17,5.17,0,0,1-2.09,1.54,7,7,0,0,1-2.68.51,7.25,7.25,0,0,1-3.44-.81,6,6,0,0,1-2.41-2.28,6.76,6.76,0,0,1,0-6.67,5.84,5.84,0,0,1,2.41-2.26,7.24,7.24,0,0,1,3.44-.8,6.9,6.9,0,0,1,2.78.55,5.18,5.18,0,0,1,2.12,1.62v-2.05Zm-4.56,10.05a4,4,0,0,0,1.62-1.54,4.18,4.18,0,0,0,.59-2.23,4.07,4.07,0,0,0-1.27-3.12,5.18,5.18,0,0,0-6.58,0,4.07,4.07,0,0,0-1.27,3.12,4.26,4.26,0,0,0,.58,2.23,4.1,4.1,0,0,0,1.63,1.54,4.92,4.92,0,0,0,2.36.55A4.87,4.87,0,0,0,831.65,619.82Z"/><path class="cls-10" d="M844.94,610.25a6.69,6.69,0,0,1,3-.6V612l-.55,0a4,4,0,0,0-3.06,1.16,4.6,4.6,0,0,0-1.11,3.31V623h-2.4V609.77h2.3V612A4,4,0,0,1,844.94,610.25Z"/><path class="cls-10" d="M859.87,611a5.19,5.19,0,0,1,1.47,4v8h-2.28v-1.75a3.74,3.74,0,0,1-1.71,1.41,6.45,6.45,0,0,1-2.64.49,5.55,5.55,0,0,1-3.56-1.07,3.69,3.69,0,0,1-.06-5.64,6.27,6.27,0,0,1,4-1.06h3.8v-.48a3.05,3.05,0,0,0-.9-2.37,3.81,3.81,0,0,0-2.65-.83,7,7,0,0,0-2.3.39,5.77,5.77,0,0,0-1.9,1l-1-1.8a7.39,7.39,0,0,1,2.45-1.27,10.26,10.26,0,0,1,3-.43A6,6,0,0,1,859.87,611Zm-2.38,9.71a3.55,3.55,0,0,0,1.45-1.74v-1.85h-3.7c-2,0-3,.68-3,2a1.88,1.88,0,0,0,.77,1.58,3.59,3.59,0,0,0,2.15.57A4.46,4.46,0,0,0,857.49,620.71Z"/><path class="cls-10" d="M886.32,611.1a5.78,5.78,0,0,1,1.47,4.3V623h-2.4v-7.35a4.19,4.19,0,0,0-.89-2.9,3.26,3.26,0,0,0-2.54-1,3.83,3.83,0,0,0-2.9,1.13A4.57,4.57,0,0,0,878,616.2V623h-2.4v-7.35a4.19,4.19,0,0,0-.89-2.9,3.26,3.26,0,0,0-2.54-1,3.83,3.83,0,0,0-2.9,1.13,4.57,4.57,0,0,0-1.07,3.27V623h-2.4V609.77h2.3v2a4.57,4.57,0,0,1,1.9-1.57,6.46,6.46,0,0,1,2.67-.53,6,6,0,0,1,2.75.62,4.36,4.36,0,0,1,1.85,1.83,5,5,0,0,1,2.09-1.8,6.69,6.69,0,0,1,3-.65A5.35,5.35,0,0,1,886.32,611.1Z"/><path class="cls-10" d="M762.06,553.7v6.1h8.78V562h-8.78V569h-2.5v-17.5h12.35v2.18Z"/><path class="cls-10" d="M783.65,557a5.19,5.19,0,0,1,1.46,4v8h-2.27v-1.75a3.74,3.74,0,0,1-1.71,1.41,6.51,6.51,0,0,1-2.64.49,5.58,5.58,0,0,1-3.57-1.07,3.71,3.71,0,0,1-.06-5.64,6.27,6.27,0,0,1,4-1.06h3.8v-.48a3.05,3.05,0,0,0-.9-2.37,3.79,3.79,0,0,0-2.65-.83,7,7,0,0,0-2.3.39,5.87,5.87,0,0,0-1.9,1l-1-1.8a7.39,7.39,0,0,1,2.45-1.27,10.32,10.32,0,0,1,3-.43A6,6,0,0,1,783.65,557Zm-2.39,9.71a3.5,3.5,0,0,0,1.45-1.74v-1.85H779c-2,0-3,.68-3,2a1.86,1.86,0,0,0,.78,1.58,3.55,3.55,0,0,0,2.15.57A4.42,4.42,0,0,0,781.26,566.71Z"/><path class="cls-10" d="M791.8,568.3a6.44,6.44,0,0,1-2.49-2.42,7.2,7.2,0,0,1,0-7,6.25,6.25,0,0,1,2.49-2.4,7.38,7.38,0,0,1,3.61-.86,7,7,0,0,1,3.21.72,5.16,5.16,0,0,1,2.19,2.1L799,559.65a4.14,4.14,0,0,0-1.55-1.43,4.51,4.51,0,0,0-2.05-.47,4.77,4.77,0,0,0-2.34.57,4.21,4.21,0,0,0-1.63,1.64,5,5,0,0,0-.58,2.44,5,5,0,0,0,.58,2.46,4.21,4.21,0,0,0,1.63,1.64,4.77,4.77,0,0,0,2.34.57,4.51,4.51,0,0,0,2.05-.47,4.22,4.22,0,0,0,1.55-1.43l1.82,1.15a5.18,5.18,0,0,1-2.19,2.11,6.73,6.73,0,0,1-3.21.74A7.39,7.39,0,0,1,791.8,568.3Z"/><path class="cls-10" d="M815.64,563.2H804.89a4.18,4.18,0,0,0,1.53,2.81,5,5,0,0,0,3.27,1.06,4.9,4.9,0,0,0,3.82-1.6l1.33,1.55a5.86,5.86,0,0,1-2.24,1.6,7.73,7.73,0,0,1-3,.55,7.85,7.85,0,0,1-3.72-.86,6.17,6.17,0,0,1-2.52-2.41,7.44,7.44,0,0,1,0-7,6.1,6.1,0,0,1,2.37-2.41,6.74,6.74,0,0,1,3.42-.86,6.56,6.56,0,0,1,3.38.86,6,6,0,0,1,2.33,2.41,7.36,7.36,0,0,1,.84,3.55C815.69,562.66,815.67,562.9,815.64,563.2Zm-9.39-4.48a4.2,4.2,0,0,0-1.36,2.75h8.5a4.3,4.3,0,0,0-1.37-2.74,4.47,4.47,0,0,0-5.77,0Z"/><path class="cls-10" d="M829.49,556.5a6.18,6.18,0,0,1,2.39,2.37,7.67,7.67,0,0,1,0,7.06,6.17,6.17,0,0,1-2.39,2.39,7,7,0,0,1-3.45.85,6.28,6.28,0,0,1-2.7-.57,5.25,5.25,0,0,1-2-1.68V569H819V550.47h2.4v7.3a5.17,5.17,0,0,1,2-1.59,6.5,6.5,0,0,1,2.63-.53A7,7,0,0,1,829.49,556.5Zm-1.36,10a4.21,4.21,0,0,0,1.59-1.65,5.32,5.32,0,0,0,0-4.87,4.18,4.18,0,0,0-1.59-1.64,4.87,4.87,0,0,0-4.57,0A4.14,4.14,0,0,0,822,560a5.49,5.49,0,0,0,0,4.87,4.17,4.17,0,0,0,1.6,1.65,4.72,4.72,0,0,0,4.57,0Z"/><path class="cls-10" d="M838.19,568.3a6.38,6.38,0,0,1-2.47-2.42,7.34,7.34,0,0,1,0-7,6.2,6.2,0,0,1,2.47-2.4,7.2,7.2,0,0,1,3.55-.86,7.13,7.13,0,0,1,3.53.86,6.21,6.21,0,0,1,2.45,2.4,7.27,7.27,0,0,1,0,7,6.4,6.4,0,0,1-2.45,2.42,7.13,7.13,0,0,1-3.53.87A7.21,7.21,0,0,1,838.19,568.3Zm5.83-1.82a4.08,4.08,0,0,0,1.59-1.65,5.4,5.4,0,0,0,0-4.87,4.05,4.05,0,0,0-1.59-1.64,4.87,4.87,0,0,0-4.57,0,4.14,4.14,0,0,0-1.6,1.64,5.32,5.32,0,0,0,0,4.87,4.17,4.17,0,0,0,1.6,1.65,4.72,4.72,0,0,0,4.57,0Z"/><path class="cls-10" d="M854.06,568.3a6.36,6.36,0,0,1-2.46-2.42,7.27,7.27,0,0,1,0-7,6.17,6.17,0,0,1,2.46-2.4,7.74,7.74,0,0,1,7.09,0,6.21,6.21,0,0,1,2.45,2.4,7.27,7.27,0,0,1,0,7,6.4,6.4,0,0,1-2.45,2.42,7.66,7.66,0,0,1-7.09,0Zm5.84-1.82a4.21,4.21,0,0,0,1.59-1.65,5.49,5.49,0,0,0,0-4.87,4.18,4.18,0,0,0-1.59-1.64,4.89,4.89,0,0,0-4.58,0,4.28,4.28,0,0,0-1.6,1.64,5.4,5.4,0,0,0,0,4.87,4.3,4.3,0,0,0,1.6,1.65,4.74,4.74,0,0,0,4.58,0Z"/><path class="cls-10" d="M873,562.85l-2.75,2.55V569h-2.4V550.47h2.4v11.9l7.23-6.6h2.9l-5.58,5.48,6.13,7.77h-2.95Z"/><path class="cls-10" d="M783.89,718.52,778,736h-2.63l-4.77-14-4.78,14h-2.67l-5.85-17.5h2.57l4.73,14.23,4.92-14.23h2.3l4.83,14.3,4.82-14.3Z"/><path class="cls-10" d="M798.05,724.11a5.75,5.75,0,0,1,1.49,4.29V736h-2.4v-7.35a4.06,4.06,0,0,0-.93-2.9,3.47,3.47,0,0,0-2.65-1,4.15,4.15,0,0,0-3.07,1.13,4.46,4.46,0,0,0-1.13,3.27V736H787V717.47h2.4v7.18a4.92,4.92,0,0,1,2-1.48,6.72,6.72,0,0,1,2.71-.52A5.45,5.45,0,0,1,798.05,724.11Z"/><path class="cls-10" d="M813,724a5.22,5.22,0,0,1,1.46,4v8h-2.28v-1.75a3.74,3.74,0,0,1-1.71,1.41,6.45,6.45,0,0,1-2.64.49,5.55,5.55,0,0,1-3.56-1.07,3.69,3.69,0,0,1-.06-5.64,6.27,6.27,0,0,1,4-1.06h3.8v-.48a3.05,3.05,0,0,0-.9-2.37,3.81,3.81,0,0,0-2.65-.83,7,7,0,0,0-2.3.39,5.77,5.77,0,0,0-1.9,1l-1-1.8a7.39,7.39,0,0,1,2.45-1.27,10.3,10.3,0,0,1,3-.43A6,6,0,0,1,813,724Zm-2.39,9.71a3.55,3.55,0,0,0,1.45-1.74v-1.85h-3.7c-2,0-3,.68-3,2a1.88,1.88,0,0,0,.77,1.58,3.59,3.59,0,0,0,2.15.57A4.46,4.46,0,0,0,810.64,733.71Z"/><path class="cls-10" d="M826.39,735.25a3.5,3.5,0,0,1-1.3.68,5.39,5.39,0,0,1-1.6.24,4.26,4.26,0,0,1-3.1-1.07,4.09,4.09,0,0,1-1.1-3.08v-7.27H817v-2h2.25v-2.9h2.4v2.9h3.8v2h-3.8v7.17a2.35,2.35,0,0,0,.53,1.65,2,2,0,0,0,1.54.58,2.88,2.88,0,0,0,1.88-.63Z"/><path class="cls-10" d="M830,735.73a6.86,6.86,0,0,1-2.35-1.11l1-1.9a7.13,7.13,0,0,0,2.13,1,8.7,8.7,0,0,0,2.52.38q3.15,0,3.15-1.8a1.17,1.17,0,0,0-.42-.95,2.68,2.68,0,0,0-1.07-.52c-.42-.1-1-.22-1.81-.36a18.92,18.92,0,0,1-2.61-.57,4.14,4.14,0,0,1-1.74-1.1,3.1,3.1,0,0,1-.72-2.18,3.41,3.41,0,0,1,1.5-2.89,6.74,6.74,0,0,1,4-1.08,10.86,10.86,0,0,1,2.65.32,7.23,7.23,0,0,1,2.18.88l-1,1.9a6.88,6.88,0,0,0-3.82-1,4.39,4.39,0,0,0-2.33.5,1.5,1.5,0,0,0-.8,1.32,1.26,1.26,0,0,0,.45,1,2.89,2.89,0,0,0,1.11.55c.45.11,1.07.25,1.87.4a21.05,21.05,0,0,1,2.58.58,3.91,3.91,0,0,1,1.69,1.07,2.94,2.94,0,0,1,.7,2.1,3.3,3.3,0,0,1-1.54,2.86,7.23,7.23,0,0,1-4.18,1.06A10.81,10.81,0,0,1,830,735.73Z"/><path class="cls-10" d="M853.31,731.65H844L842.09,736h-2.58l7.93-17.5h2.47l8,17.5h-2.62Zm-.87-2-3.78-8.58-3.77,8.58Z"/><path class="cls-10" d="M870.59,723.5a6.09,6.09,0,0,1,2.38,2.37,7.6,7.6,0,0,1,0,7.06,6.08,6.08,0,0,1-2.38,2.39,7,7,0,0,1-3.45.85,6.15,6.15,0,0,1-2.62-.55,5.47,5.47,0,0,1-2-1.6v6.85h-2.4v-18.1h2.3v2.1a5.11,5.11,0,0,1,2-1.66,6.27,6.27,0,0,1,2.7-.56A7,7,0,0,1,870.59,723.5Zm-1.37,10a4.17,4.17,0,0,0,1.6-1.65,5.32,5.32,0,0,0,0-4.87,4.14,4.14,0,0,0-1.6-1.64,4.54,4.54,0,0,0-2.28-.57,4.46,4.46,0,0,0-2.27.58,4.35,4.35,0,0,0-1.6,1.64,4.91,4.91,0,0,0-.58,2.43,5,5,0,0,0,.57,2.43,4.17,4.17,0,0,0,1.6,1.65,4.41,4.41,0,0,0,2.28.59A4.36,4.36,0,0,0,869.22,733.48Z"/><path class="cls-10" d="M887.64,723.5a6.09,6.09,0,0,1,2.38,2.37,7.6,7.6,0,0,1,0,7.06,6.08,6.08,0,0,1-2.38,2.39,7,7,0,0,1-3.45.85,6.15,6.15,0,0,1-2.62-.55,5.47,5.47,0,0,1-2-1.6v6.85h-2.4v-18.1h2.3v2.1a5,5,0,0,1,2-1.66,6.27,6.27,0,0,1,2.7-.56A7,7,0,0,1,887.64,723.5Zm-1.37,10a4.17,4.17,0,0,0,1.6-1.65,5.32,5.32,0,0,0,0-4.87,4.14,4.14,0,0,0-1.6-1.64,4.54,4.54,0,0,0-2.28-.57,4.28,4.28,0,0,0-3.87,2.22,4.91,4.91,0,0,0-.58,2.43,5,5,0,0,0,.57,2.43,4.1,4.1,0,0,0,1.6,1.65,4.41,4.41,0,0,0,2.28.59A4.36,4.36,0,0,0,886.27,733.48Z"/><path class="cls-10" d="M768.16,787v6h-2.47v-6.1l-7-11.4h2.67l5.6,9.23,5.63-9.23h2.47Z"/><path class="cls-10" d="M777.91,792.3a6.36,6.36,0,0,1-2.46-2.42,7.27,7.27,0,0,1,0-7,6.17,6.17,0,0,1,2.46-2.4,7.23,7.23,0,0,1,3.55-.86,7.14,7.14,0,0,1,3.54.86,6.21,6.21,0,0,1,2.45,2.4,7.27,7.27,0,0,1,0,7A6.4,6.4,0,0,1,785,792.3a7.14,7.14,0,0,1-3.54.87A7.24,7.24,0,0,1,777.91,792.3Zm5.84-1.82a4.14,4.14,0,0,0,1.59-1.65,5.49,5.49,0,0,0,0-4.87,4.12,4.12,0,0,0-1.59-1.64,4.87,4.87,0,0,0-4.57,0,4.14,4.14,0,0,0-1.6,1.64,5.32,5.32,0,0,0,0,4.87,4.17,4.17,0,0,0,1.6,1.65,4.72,4.72,0,0,0,4.57,0Z"/><path class="cls-10" d="M804,779.77V793h-2.27v-2a4.87,4.87,0,0,1-1.91,1.59,6.09,6.09,0,0,1-2.59.56,5.81,5.81,0,0,1-4.18-1.46,5.73,5.73,0,0,1-1.52-4.31v-7.63h2.4v7.35a4.11,4.11,0,0,0,.92,2.91,3.45,3.45,0,0,0,2.65,1,3.93,3.93,0,0,0,3-1.15,4.47,4.47,0,0,0,1.1-3.25v-6.85Z"/><path class="cls-10" d="M816,792.25a3.5,3.5,0,0,1-1.3.68,5.39,5.39,0,0,1-1.6.24,4.26,4.26,0,0,1-3.1-1.07,4.09,4.09,0,0,1-1.1-3.08v-7.27h-2.25v-2h2.25v-2.9h2.4v2.9h3.8v2h-3.8v7.17a2.31,2.31,0,0,0,.54,1.65,2,2,0,0,0,1.53.58,2.9,2.9,0,0,0,1.88-.63Z"/><path class="cls-10" d="M831.29,779.77V793H829v-2a4.8,4.8,0,0,1-1.91,1.59,6,6,0,0,1-2.59.56,5.77,5.77,0,0,1-4.17-1.46,5.69,5.69,0,0,1-1.53-4.31v-7.63h2.4v7.35a4.07,4.07,0,0,0,.93,2.91,3.44,3.44,0,0,0,2.65,1,4,4,0,0,0,3-1.15,4.52,4.52,0,0,0,1.1-3.25v-6.85Z"/><path class="cls-10" d="M846.34,780.5a6.09,6.09,0,0,1,2.38,2.37,7.6,7.6,0,0,1,0,7.06,6.08,6.08,0,0,1-2.38,2.39,7,7,0,0,1-3.45.85,6.28,6.28,0,0,1-2.7-.57,5.25,5.25,0,0,1-2-1.68V793h-2.3V774.47h2.4v7.3a5.09,5.09,0,0,1,2-1.59,6.5,6.5,0,0,1,2.63-.53A7,7,0,0,1,846.34,780.5Zm-1.37,10a4.17,4.17,0,0,0,1.6-1.65,5.32,5.32,0,0,0,0-4.87,4.14,4.14,0,0,0-1.6-1.64,4.54,4.54,0,0,0-2.28-.57,4.59,4.59,0,0,0-2.28.57,4.14,4.14,0,0,0-1.6,1.64,5.49,5.49,0,0,0,0,4.87,4.17,4.17,0,0,0,1.6,1.65,4.41,4.41,0,0,0,2.28.59A4.36,4.36,0,0,0,845,790.48Z"/><path class="cls-10" d="M864.84,787.2H854.09a4.18,4.18,0,0,0,1.53,2.81,5,5,0,0,0,3.27,1.06,4.9,4.9,0,0,0,3.82-1.6L864,791a5.86,5.86,0,0,1-2.24,1.6,7.73,7.73,0,0,1-3,.55,7.85,7.85,0,0,1-3.72-.86,6.23,6.23,0,0,1-2.52-2.41,7.44,7.44,0,0,1,0-7,6.17,6.17,0,0,1,2.37-2.41,6.74,6.74,0,0,1,3.42-.86,6.56,6.56,0,0,1,3.38.86,6.07,6.07,0,0,1,2.33,2.41,7.36,7.36,0,0,1,.84,3.55C864.89,786.66,864.87,786.9,864.84,787.2Zm-9.39-4.48a4.2,4.2,0,0,0-1.36,2.75h8.5a4.3,4.3,0,0,0-1.37-2.74,4.47,4.47,0,0,0-5.77,0Z"/><path class="cls-10" d="M773.69,673.17h2.4V680a9.64,9.64,0,0,1-3,1.65,11.4,11.4,0,0,1-3.6.57,9.79,9.79,0,0,1-4.77-1.16,8.64,8.64,0,0,1-3.34-3.2,9.33,9.33,0,0,1,0-9.19,8.46,8.46,0,0,1,3.35-3.2,10.73,10.73,0,0,1,8.62-.46,7.88,7.88,0,0,1,2.92,2l-1.55,1.55a7.06,7.06,0,0,0-5.08-2,7.36,7.36,0,0,0-3.59.86,6.23,6.23,0,0,0-2.48,2.4,7.06,7.06,0,0,0,0,6.9,6.39,6.39,0,0,0,2.48,2.41,7.21,7.21,0,0,0,3.57.88,7.44,7.44,0,0,0,4.1-1.13Z"/><path class="cls-10" d="M782.64,681.3a6.38,6.38,0,0,1-2.47-2.42,7.34,7.34,0,0,1,0-7,6.2,6.2,0,0,1,2.47-2.4,7.2,7.2,0,0,1,3.55-.86,7.13,7.13,0,0,1,3.53.86,6.21,6.21,0,0,1,2.45,2.4,7.27,7.27,0,0,1,0,7,6.4,6.4,0,0,1-2.45,2.42,7.13,7.13,0,0,1-3.53.87A7.21,7.21,0,0,1,782.64,681.3Zm5.83-1.82a4.08,4.08,0,0,0,1.59-1.65,5.4,5.4,0,0,0,0-4.87,4.05,4.05,0,0,0-1.59-1.64,4.87,4.87,0,0,0-4.57,0,4.14,4.14,0,0,0-1.6,1.64,5.32,5.32,0,0,0,0,4.87,4.17,4.17,0,0,0,1.6,1.65,4.72,4.72,0,0,0,4.57,0Z"/><path class="cls-10" d="M798.51,681.3a6.36,6.36,0,0,1-2.46-2.42,7.27,7.27,0,0,1,0-7,6.17,6.17,0,0,1,2.46-2.4,7.74,7.74,0,0,1,7.09,0,6.21,6.21,0,0,1,2.45,2.4,7.27,7.27,0,0,1,0,7,6.4,6.4,0,0,1-2.45,2.42,7.66,7.66,0,0,1-7.09,0Zm5.84-1.82a4.21,4.21,0,0,0,1.59-1.65,5.49,5.49,0,0,0,0-4.87,4.18,4.18,0,0,0-1.59-1.64,4.89,4.89,0,0,0-4.58,0,4.21,4.21,0,0,0-1.6,1.64,5.4,5.4,0,0,0,0,4.87,4.23,4.23,0,0,0,1.6,1.65,4.74,4.74,0,0,0,4.58,0Z"/><path class="cls-10" d="M824.94,668.77v11.45q0,3.48-1.73,5.14a7.15,7.15,0,0,1-5.15,1.66,12.32,12.32,0,0,1-3.57-.51,7,7,0,0,1-2.75-1.46l1.14-1.85a6.9,6.9,0,0,0,2.29,1.26,8.68,8.68,0,0,0,2.82.46,4.71,4.71,0,0,0,3.43-1.1,4.53,4.53,0,0,0,1.12-3.35v-1.05a5.3,5.3,0,0,1-2.09,1.54,7,7,0,0,1-2.69.51,7.28,7.28,0,0,1-3.44-.81,6,6,0,0,1-2.41-2.28,6.83,6.83,0,0,1,0-6.67,5.9,5.9,0,0,1,2.41-2.26,7.27,7.27,0,0,1,3.44-.8,7,7,0,0,1,2.79.55,5.14,5.14,0,0,1,2.11,1.62v-2.05Zm-4.57,10.05a4,4,0,0,0,1.63-1.54,4.27,4.27,0,0,0,.59-2.23,4.08,4.08,0,0,0-1.28-3.12,5.16,5.16,0,0,0-6.57,0,4,4,0,0,0-1.28,3.12,4.27,4.27,0,0,0,.59,2.23,4,4,0,0,0,1.62,1.54,4.93,4.93,0,0,0,2.37.55A4.86,4.86,0,0,0,820.37,678.82Z"/><path class="cls-10" d="M829.51,663.47h2.4V682h-2.4Z"/><path class="cls-10" d="M848.41,676.2H837.66A4.16,4.16,0,0,0,839.2,679a5,5,0,0,0,3.26,1.06,4.92,4.92,0,0,0,3.83-1.6l1.32,1.55a5.86,5.86,0,0,1-2.24,1.6,7.73,7.73,0,0,1-3,.55,7.85,7.85,0,0,1-3.72-.86,6.2,6.2,0,0,1-2.51-2.41,7,7,0,0,1-.89-3.5,7.1,7.1,0,0,1,.86-3.48,6.2,6.2,0,0,1,2.38-2.41,6.7,6.7,0,0,1,3.41-.86,6.57,6.57,0,0,1,3.39.86,6,6,0,0,1,2.32,2.41,7.36,7.36,0,0,1,.84,3.55C848.46,675.66,848.44,675.9,848.41,676.2ZM839,671.72a4.25,4.25,0,0,0-1.36,2.75h8.5a4.29,4.29,0,0,0-1.36-2.74,4.49,4.49,0,0,0-5.78,0Z"/><path class="cls-10" d="M717.3,417.27h-7.18v-2.61h17.33v2.61h-7.18v18.35h-3Z"/><path class="cls-10" d="M734.16,434.46a10.26,10.26,0,0,1-4-3.84,11.08,11.08,0,0,1,0-11,10.29,10.29,0,0,1,4-3.85,12.38,12.38,0,0,1,11.4,0,10.14,10.14,0,0,1,4,3.84,11.19,11.19,0,0,1,0,11,10.05,10.05,0,0,1-4,3.83,12.3,12.3,0,0,1-11.4,0Zm9.86-2.32a7.53,7.53,0,0,0,2.9-2.89,8.45,8.45,0,0,0,0-8.23,7.66,7.66,0,0,0-2.9-2.89,8.32,8.32,0,0,0-4.14-1,8.5,8.5,0,0,0-4.18,1,7.61,7.61,0,0,0-2.93,2.89,8.45,8.45,0,0,0,0,8.23,7.47,7.47,0,0,0,2.93,2.89,8.4,8.4,0,0,0,4.18,1.05A8.22,8.22,0,0,0,744,432.14Z"/><path class="cls-10" d="M770.14,416.61a7.32,7.32,0,0,1,0,10.71,9.7,9.7,0,0,1-6.41,1.95h-5.18v6.35h-3v-21h8.17A9.7,9.7,0,0,1,770.14,416.61ZM768,425.45a4.8,4.8,0,0,0,0-7,6.72,6.72,0,0,0-4.34-1.21h-5.09v9.4h5.09A6.72,6.72,0,0,0,768,425.45Z"/><path class="cls-10" d="M731.34,450.58l-9.19,21h-3l-9.22-21h3.23l7.55,17.22,7.6-17.22Z"/><path class="cls-10" d="M734,450.58h3v21h-3Z"/><path class="cls-10" d="M744.83,471a9.23,9.23,0,0,1-3.46-1.9l1.11-2.33a9.16,9.16,0,0,0,3.07,1.75,11.21,11.21,0,0,0,3.84.67,7,7,0,0,0,3.9-.88,2.73,2.73,0,0,0,1.28-2.35,2.31,2.31,0,0,0-.7-1.75,4.71,4.71,0,0,0-1.74-1c-.68-.24-1.66-.51-2.92-.81a30.32,30.32,0,0,1-3.81-1.14,6.31,6.31,0,0,1-2.49-1.75,4.67,4.67,0,0,1-1-3.19,5.37,5.37,0,0,1,.88-3,6.12,6.12,0,0,1,2.68-2.16,10.87,10.87,0,0,1,4.46-.81,14.14,14.14,0,0,1,3.66.48,9.78,9.78,0,0,1,3.08,1.38l-1,2.39a11.28,11.28,0,0,0-2.81-1.27,10.52,10.52,0,0,0-2.94-.43,6.43,6.43,0,0,0-3.81.93,2.84,2.84,0,0,0-1.28,2.39,2.28,2.28,0,0,0,.72,1.75,5.06,5.06,0,0,0,1.78,1.05,28.66,28.66,0,0,0,2.89.79,28.64,28.64,0,0,1,3.8,1.14,6.32,6.32,0,0,1,2.47,1.74,4.56,4.56,0,0,1,1,3.14,5.35,5.35,0,0,1-.9,3,6,6,0,0,1-2.73,2.15,11.2,11.2,0,0,1-4.49.8A14.33,14.33,0,0,1,744.83,471Z"/><path class="cls-10" d="M761.88,450.58h3v21h-3Z"/><path class="cls-10" d="M775.32,453.19h-7.19v-2.61h17.33v2.61h-7.18v18.35h-3Z"/><path class="cls-10" d="M803.93,468.93v2.61h-15.2v-21h14.78v2.61H791.72v6.43h10.51v2.55H791.72v6.76Z"/><path class="cls-10" d="M808.78,450.58h8.83a12.75,12.75,0,0,1,5.9,1.32,9.67,9.67,0,0,1,4,3.7,11.21,11.21,0,0,1,0,10.92,9.67,9.67,0,0,1-4,3.7,12.75,12.75,0,0,1-5.9,1.32h-8.83Zm8.65,18.35a9.82,9.82,0,0,0,4.48-1,7.2,7.2,0,0,0,3-2.77,8.61,8.61,0,0,0,0-8.24,7.11,7.11,0,0,0-3-2.76,9.69,9.69,0,0,0-4.48-1h-5.65v15.74Z"/><path class="cls-10" d="M843.1,471a9.18,9.18,0,0,1-3.45-1.9l1.1-2.33a9.26,9.26,0,0,0,3.07,1.75,11.26,11.26,0,0,0,3.85.67,6.91,6.91,0,0,0,3.89-.88,2.72,2.72,0,0,0,1.29-2.35,2.31,2.31,0,0,0-.71-1.75,4.66,4.66,0,0,0-1.73-1c-.69-.24-1.66-.51-2.92-.81a30,30,0,0,1-3.82-1.14,6.28,6.28,0,0,1-2.48-1.75,4.67,4.67,0,0,1-1-3.19,5.37,5.37,0,0,1,.88-3,6.06,6.06,0,0,1,2.68-2.16,10.84,10.84,0,0,1,4.46-.81,14.07,14.07,0,0,1,3.65.48,9.68,9.68,0,0,1,3.08,1.38l-1,2.39a11,11,0,0,0-2.81-1.27,10.45,10.45,0,0,0-2.93-.43,6.46,6.46,0,0,0-3.82.93,2.83,2.83,0,0,0-1.27,2.39,2.28,2.28,0,0,0,.72,1.75,5,5,0,0,0,1.78,1.05,27.93,27.93,0,0,0,2.89.79,29.6,29.6,0,0,1,3.8,1.14,6.4,6.4,0,0,1,2.47,1.74,4.55,4.55,0,0,1,1,3.14,5.35,5.35,0,0,1-.9,3,5.92,5.92,0,0,1-2.72,2.15,11.27,11.27,0,0,1-4.49.8A14.35,14.35,0,0,1,843.1,471Z"/><path class="cls-10" d="M860.15,450.58h3v21h-3Z"/><path class="cls-10" d="M873.59,453.19h-7.18v-2.61h17.33v2.61h-7.18v18.35h-3Z"/><path class="cls-10" d="M902.21,468.93v2.61H887v-21h14.79v2.61H890v6.43h10.5v2.55H890v6.76Z"/><path class="cls-10" d="M908.6,471a9.23,9.23,0,0,1-3.46-1.9l1.11-2.33a9.16,9.16,0,0,0,3.07,1.75,11.26,11.26,0,0,0,3.85.67,6.93,6.93,0,0,0,3.89-.88,2.71,2.71,0,0,0,1.28-2.35,2.31,2.31,0,0,0-.7-1.75,4.74,4.74,0,0,0-1.73-1c-.69-.24-1.67-.51-2.92-.81a30,30,0,0,1-3.82-1.14,6.31,6.31,0,0,1-2.49-1.75,4.72,4.72,0,0,1-1-3.19,5.38,5.38,0,0,1,.89-3,6,6,0,0,1,2.67-2.16,10.87,10.87,0,0,1,4.46-.81,14.14,14.14,0,0,1,3.66.48,9.78,9.78,0,0,1,3.08,1.38l-1,2.39a11.12,11.12,0,0,0-2.81-1.27,10.52,10.52,0,0,0-2.94-.43,6.45,6.45,0,0,0-3.81.93,2.83,2.83,0,0,0-1.27,2.39,2.31,2.31,0,0,0,.71,1.75,5.06,5.06,0,0,0,1.78,1.05,28.66,28.66,0,0,0,2.89.79,29.32,29.32,0,0,1,3.81,1.14,6.47,6.47,0,0,1,2.47,1.74,4.6,4.6,0,0,1,1,3.14,5.35,5.35,0,0,1-.9,3,6,6,0,0,1-2.72,2.15,11.27,11.27,0,0,1-4.49.8A14.35,14.35,0,0,1,908.6,471Z"/><line class="cls-11" x1="710" y1="508.5" x2="920" y2="508.5"/></svg>