<svg id="Layer_1" data-name="Layer 1" xmlns="http://www.w3.org/2000/svg" viewBox="0 0 1170 1080"><defs><style>.cls-1,.cls-3,.cls-6{fill:none;stroke-miterlimit:10;}.cls-1{stroke:#fbb315;}.cls-1,.cls-6{stroke-width:3px;}.cls-2{fill:#fbb315;}.cls-3,.cls-6{stroke:#fff;}.cls-3{stroke-width:2px;}.cls-4{fill:#d4d4d0;}.cls-5{fill:#fff;}</style></defs><title>perAnnum</title><polyline class="cls-1" points="951.25 717.17 211.65 717.17 250.12 633.22 326.24 522.75 524.64 438.35 729.75 378.62 951.25 378.62"/><ellipse class="cls-2" cx="950.88" cy="377.31" rx="7.43" ry="7.36"/><polyline class="cls-1" points="951.25 405.6 609.66 472.11 524.64 521.44 326.24 547 250.12 573.74 211.65 715.86 326.24 677.07 535.22 631.91 670.78 573.74 785.03 573.74 948.97 673.01"/><polyline class="cls-3" points="202.25 369.75 210.07 362 217.27 369.12"/><polyline class="cls-3" points="946.9 711.75 952.35 717.15 947.22 722.23"/><ellipse class="cls-2" cx="949.1" cy="672.82" rx="7.43" ry="7.36"/><ellipse class="cls-2" cx="950.88" cy="405.6" rx="7.43" ry="7.36"/><path class="cls-4" d="M173.06,376.94v8.36h-.87v-7.6h-2v-.76Z"/><path class="cls-4" d="M177.9,384.86a3.34,3.34,0,0,1-1.19-1.48,5.43,5.43,0,0,1-.43-2.26,5.51,5.51,0,0,1,.43-2.27,3.31,3.31,0,0,1,1.19-1.47,3.24,3.24,0,0,1,3.49,0,3.4,3.4,0,0,1,1.2,1.47,5.51,5.51,0,0,1,.43,2.27,5.43,5.43,0,0,1-.43,2.26,3.43,3.43,0,0,1-1.2,1.48,3.24,3.24,0,0,1-3.49,0Zm3-.68a2.61,2.61,0,0,0,.88-1.19,5,5,0,0,0,.31-1.87,5,5,0,0,0-.31-1.88,2.63,2.63,0,0,0-.88-1.18,2.13,2.13,0,0,0-1.29-.41,2.16,2.16,0,0,0-1.3.41,2.7,2.7,0,0,0-.88,1.18,5.25,5.25,0,0,0-.31,1.88,5.15,5.15,0,0,0,.31,1.87,2.68,2.68,0,0,0,.88,1.19,2.16,2.16,0,0,0,1.3.4A2.13,2.13,0,0,0,180.94,384.18Z"/><path class="cls-4" d="M187.1,384.86a3.43,3.43,0,0,1-1.2-1.48,5.59,5.59,0,0,1-.43-2.26,5.67,5.67,0,0,1,.43-2.27,3.4,3.4,0,0,1,1.2-1.47,3.22,3.22,0,0,1,3.48,0,3.4,3.4,0,0,1,1.2,1.47,5.5,5.5,0,0,1,.44,2.27,5.42,5.42,0,0,1-.44,2.26,3.43,3.43,0,0,1-1.2,1.48,3.22,3.22,0,0,1-3.48,0Zm3-.68A2.66,2.66,0,0,0,191,383a5,5,0,0,0,.31-1.87,5,5,0,0,0-.31-1.88,2.69,2.69,0,0,0-.87-1.18,2.27,2.27,0,0,0-2.6,0,2.69,2.69,0,0,0-.87,1.18,5,5,0,0,0-.32,1.88,4.94,4.94,0,0,0,.32,1.87,2.66,2.66,0,0,0,.87,1.19,2.31,2.31,0,0,0,2.6,0Z"/><path class="cls-4" d="M196.29,384.86a3.43,3.43,0,0,1-1.2-1.48,5.59,5.59,0,0,1-.42-2.26,5.68,5.68,0,0,1,.42-2.27,3.4,3.4,0,0,1,1.2-1.47,3.06,3.06,0,0,1,1.74-.51,3.12,3.12,0,0,1,1.75.51,3.4,3.4,0,0,1,1.2,1.47,5.51,5.51,0,0,1,.43,2.27,5.43,5.43,0,0,1-.43,2.26,3.43,3.43,0,0,1-1.2,1.48,3.12,3.12,0,0,1-1.75.51A3.06,3.06,0,0,1,196.29,384.86Zm3-.68a2.66,2.66,0,0,0,.87-1.19,4.94,4.94,0,0,0,.32-1.87,5,5,0,0,0-.32-1.88,2.69,2.69,0,0,0-.87-1.18,2.19,2.19,0,0,0-1.3-.41,2.13,2.13,0,0,0-1.29.41,2.63,2.63,0,0,0-.88,1.18,5,5,0,0,0-.31,1.88,5,5,0,0,0,.31,1.87,2.61,2.61,0,0,0,.88,1.19,2.13,2.13,0,0,0,1.29.4A2.18,2.18,0,0,0,199.33,384.18Z"/><path class="cls-4" d="M182.12,411.41a4.77,4.77,0,0,1,.89,3.08,5.3,5.3,0,0,1-.48,2.37,3.36,3.36,0,0,1-1.35,1.46,4,4,0,0,1-2,.5,3.75,3.75,0,0,1-2-.46l.35-.69a3,3,0,0,0,1.64.4,2.82,2.82,0,0,0,2.19-.88,3.65,3.65,0,0,0,.8-2.55,5.49,5.49,0,0,0,0-.68,2.21,2.21,0,0,1-1,1.05,3.13,3.13,0,0,1-1.58.38,3.38,3.38,0,0,1-1.48-.31,2.38,2.38,0,0,1-1-.88,2.42,2.42,0,0,1-.36-1.32,2.4,2.4,0,0,1,1.4-2.25,3.38,3.38,0,0,1,1.48-.32A3.13,3.13,0,0,1,182.12,411.41Zm-1.35,3a2,2,0,0,0,.77-.65,1.7,1.7,0,0,0,.28-.94,1.64,1.64,0,0,0-.26-.88,1.93,1.93,0,0,0-.77-.66,2.79,2.79,0,0,0-1.2-.25,2.18,2.18,0,0,0-1.49.5,1.64,1.64,0,0,0-.58,1.32,1.6,1.6,0,0,0,.58,1.31,2.27,2.27,0,0,0,1.55.49A2.49,2.49,0,0,0,180.77,414.42Z"/><path class="cls-4" d="M187.09,418.31a3.47,3.47,0,0,1-1.19-1.48,6.18,6.18,0,0,1,0-4.53,3.38,3.38,0,0,1,1.19-1.47,3.05,3.05,0,0,1,1.75-.52,3,3,0,0,1,1.74.52,3.4,3.4,0,0,1,1.2,1.47,6,6,0,0,1,0,4.53,3.49,3.49,0,0,1-1.2,1.48,3.06,3.06,0,0,1-1.74.51A3.12,3.12,0,0,1,187.09,418.31Zm3-.69a2.58,2.58,0,0,0,.88-1.18,5.83,5.83,0,0,0,0-3.75,2.58,2.58,0,0,0-.88-1.18,2.13,2.13,0,0,0-1.29-.41,2.16,2.16,0,0,0-1.3.41,2.63,2.63,0,0,0-.87,1.18,5.65,5.65,0,0,0,0,3.75,2.63,2.63,0,0,0,.87,1.18,2.1,2.1,0,0,0,1.3.41A2.07,2.07,0,0,0,190.13,417.62Z"/><path class="cls-4" d="M196.29,418.31a3.49,3.49,0,0,1-1.2-1.48,6.18,6.18,0,0,1,0-4.53,3.4,3.4,0,0,1,1.2-1.47,3.17,3.17,0,0,1,3.48,0A3.42,3.42,0,0,1,201,412.3a6.18,6.18,0,0,1,0,4.53,3.5,3.5,0,0,1-1.21,1.48,3.22,3.22,0,0,1-3.48,0Zm3-.69a2.63,2.63,0,0,0,.87-1.18,5.65,5.65,0,0,0,0-3.75,2.63,2.63,0,0,0-.87-1.18,2.27,2.27,0,0,0-2.6,0,2.63,2.63,0,0,0-.87,1.18,5.83,5.83,0,0,0,0,3.75,2.63,2.63,0,0,0,.87,1.18,2.27,2.27,0,0,0,2.6,0Z"/><path class="cls-4" d="M182.63,448.6a1.92,1.92,0,0,1,.43,1.27,2.07,2.07,0,0,1-.4,1.27,2.42,2.42,0,0,1-1.14.83,4.59,4.59,0,0,1-1.74.3,3.94,3.94,0,0,1-2.39-.65,2.06,2.06,0,0,1-.87-1.75,2,2,0,0,1,.42-1.28,2.55,2.55,0,0,1,1.21-.78,2.2,2.2,0,0,1-1-.72,2,2,0,0,1,.46-2.73,3.55,3.55,0,0,1,2.16-.6,4.18,4.18,0,0,1,1.56.27,2.31,2.31,0,0,1,1,.77,1.93,1.93,0,0,1,.38,1.17,1.87,1.87,0,0,1-.35,1.12,2.23,2.23,0,0,1-1,.72A2.57,2.57,0,0,1,182.63,448.6Zm-1.1,2.48a1.49,1.49,0,0,0,0-2.45,3,3,0,0,0-1.75-.45,3,3,0,0,0-1.75.45,1.52,1.52,0,0,0,0,2.46,3,3,0,0,0,1.75.45A2.89,2.89,0,0,0,181.53,451.08Zm-3.28-4a2.48,2.48,0,0,0,1.53.41,2.53,2.53,0,0,0,1.54-.41,1.34,1.34,0,0,0,0-2.19,3,3,0,0,0-3.05,0,1.35,1.35,0,0,0,0,2.19Z"/><path class="cls-4" d="M187.1,451.75a3.33,3.33,0,0,1-1.2-1.47,6.18,6.18,0,0,1,0-4.53,3.33,3.33,0,0,1,1.2-1.47,3.17,3.17,0,0,1,3.48,0,3.4,3.4,0,0,1,1.2,1.47,6,6,0,0,1,0,4.53,3.4,3.4,0,0,1-1.2,1.47,3.17,3.17,0,0,1-3.48,0Zm3-.68a2.63,2.63,0,0,0,.87-1.18,5.83,5.83,0,0,0,0-3.75,2.63,2.63,0,0,0-.87-1.18,2.27,2.27,0,0,0-2.6,0,2.63,2.63,0,0,0-.87,1.18,5.65,5.65,0,0,0,0,3.75,2.63,2.63,0,0,0,.87,1.18,2.27,2.27,0,0,0,2.6,0Z"/><path class="cls-4" d="M196.29,451.75a3.4,3.4,0,0,1-1.2-1.47,6.32,6.32,0,0,1,0-4.53,3.4,3.4,0,0,1,1.2-1.47,3,3,0,0,1,1.74-.52,3.05,3.05,0,0,1,1.75.52,3.4,3.4,0,0,1,1.2,1.47,6.18,6.18,0,0,1,0,4.53,3.4,3.4,0,0,1-1.2,1.47,3.05,3.05,0,0,1-1.75.52A3,3,0,0,1,196.29,451.75Zm3-.68a2.63,2.63,0,0,0,.87-1.18,5.65,5.65,0,0,0,0-3.75,2.63,2.63,0,0,0-.87-1.18,2.19,2.19,0,0,0-1.3-.41,2.13,2.13,0,0,0-1.29.41,2.58,2.58,0,0,0-.88,1.18,5.83,5.83,0,0,0,0,3.75,2.58,2.58,0,0,0,.88,1.18,2.13,2.13,0,0,0,1.29.41A2.19,2.19,0,0,0,199.33,451.07Z"/><path class="cls-4" d="M183.36,477.28v.61l-3.53,7.75h-.94l3.47-7.59H178v1.56h-.86v-2.33Z"/><path class="cls-4" d="M187.09,485.2a3.38,3.38,0,0,1-1.19-1.47,5.67,5.67,0,0,1-.43-2.27,5.59,5.59,0,0,1,.43-2.26,3.47,3.47,0,0,1,1.19-1.48,3.12,3.12,0,0,1,1.75-.51,3.06,3.06,0,0,1,1.74.51,3.49,3.49,0,0,1,1.2,1.48,5.42,5.42,0,0,1,.44,2.26,5.5,5.5,0,0,1-.44,2.27,3.4,3.4,0,0,1-1.2,1.47,3.06,3.06,0,0,1-1.74.51A3.12,3.12,0,0,1,187.09,485.2Zm3-.68a2.58,2.58,0,0,0,.88-1.18,5,5,0,0,0,.31-1.88,5,5,0,0,0-.31-1.87,2.61,2.61,0,0,0-.88-1.19,2.13,2.13,0,0,0-1.29-.4,2.16,2.16,0,0,0-1.3.4,2.66,2.66,0,0,0-.87,1.19,4.94,4.94,0,0,0-.32,1.87,5,5,0,0,0,.32,1.88,2.63,2.63,0,0,0,.87,1.18,2.16,2.16,0,0,0,1.3.41A2.13,2.13,0,0,0,190.13,484.52Z"/><path class="cls-4" d="M196.29,485.2a3.4,3.4,0,0,1-1.2-1.47,5.67,5.67,0,0,1-.43-2.27,5.59,5.59,0,0,1,.43-2.26,3.49,3.49,0,0,1,1.2-1.48,3.22,3.22,0,0,1,3.48,0A3.5,3.5,0,0,1,201,479.2a5.59,5.59,0,0,1,.43,2.26,5.67,5.67,0,0,1-.43,2.27,3.42,3.42,0,0,1-1.21,1.47,3.22,3.22,0,0,1-3.48,0Zm3-.68a2.63,2.63,0,0,0,.87-1.18,5,5,0,0,0,.32-1.88,4.94,4.94,0,0,0-.32-1.87,2.66,2.66,0,0,0-.87-1.19,2.31,2.31,0,0,0-2.6,0,2.66,2.66,0,0,0-.87,1.19,5,5,0,0,0-.31,1.87,5,5,0,0,0,.31,1.88,2.63,2.63,0,0,0,.87,1.18,2.27,2.27,0,0,0,2.6,0Z"/><path class="cls-4" d="M181.9,514.4a2.36,2.36,0,0,1,1,.87,2.43,2.43,0,0,1,.37,1.32,2.45,2.45,0,0,1-.38,1.35,2.53,2.53,0,0,1-1,.91,3.38,3.38,0,0,1-1.48.31,3.13,3.13,0,0,1-2.57-1.09,4.8,4.8,0,0,1-.89-3.09,5.25,5.25,0,0,1,.48-2.36,3.33,3.33,0,0,1,1.35-1.47,4,4,0,0,1,2-.49,3.85,3.85,0,0,1,2,.45l-.35.69a3,3,0,0,0-1.64-.39,2.79,2.79,0,0,0-2.19.88,3.66,3.66,0,0,0-.8,2.55,5.83,5.83,0,0,0,0,.68,2.23,2.23,0,0,1,1-1.06,3.24,3.24,0,0,1,1.58-.37A3.35,3.35,0,0,1,181.9,514.4Zm-.06,3.54a1.81,1.81,0,0,0,0-2.64,2.37,2.37,0,0,0-1.56-.49,2.49,2.49,0,0,0-1.12.24,1.91,1.91,0,0,0-.77.66,1.69,1.69,0,0,0-.28.93,1.68,1.68,0,0,0,.26.89,1.84,1.84,0,0,0,.77.65,2.67,2.67,0,0,0,1.21.25A2.21,2.21,0,0,0,181.84,517.94Z"/><path class="cls-4" d="M187.09,518.65a3.41,3.41,0,0,1-1.19-1.48,6.15,6.15,0,0,1,0-4.52,3.35,3.35,0,0,1,1.19-1.48,3.12,3.12,0,0,1,1.75-.51,3.06,3.06,0,0,1,1.74.51,3.37,3.37,0,0,1,1.2,1.48,6,6,0,0,1,0,4.52,3.43,3.43,0,0,1-1.2,1.48,3.06,3.06,0,0,1-1.74.51A3.12,3.12,0,0,1,187.09,518.65Zm3-.68a2.63,2.63,0,0,0,.88-1.18,5.86,5.86,0,0,0,0-3.76,2.63,2.63,0,0,0-.88-1.18,2.13,2.13,0,0,0-1.29-.4,2.16,2.16,0,0,0-1.3.4,2.69,2.69,0,0,0-.87,1.18,5.68,5.68,0,0,0,0,3.76,2.69,2.69,0,0,0,.87,1.18,2.16,2.16,0,0,0,1.3.4A2.13,2.13,0,0,0,190.13,518Z"/><path class="cls-4" d="M196.29,518.65a3.43,3.43,0,0,1-1.2-1.48,6.15,6.15,0,0,1,0-4.52,3.37,3.37,0,0,1,1.2-1.48,3.22,3.22,0,0,1,3.48,0,3.39,3.39,0,0,1,1.21,1.48,6.15,6.15,0,0,1,0,4.52,3.45,3.45,0,0,1-1.21,1.48,3.22,3.22,0,0,1-3.48,0Zm3-.68a2.69,2.69,0,0,0,.87-1.18,5.68,5.68,0,0,0,0-3.76,2.69,2.69,0,0,0-.87-1.18,2.31,2.31,0,0,0-2.6,0,2.69,2.69,0,0,0-.87,1.18,5.86,5.86,0,0,0,0,3.76,2.69,2.69,0,0,0,.87,1.18,2.31,2.31,0,0,0,2.6,0Z"/><path class="cls-4" d="M182.33,548.26a2.17,2.17,0,0,1,.84,1.82,2.48,2.48,0,0,1-.35,1.3,2.29,2.29,0,0,1-1,.9,3.84,3.84,0,0,1-1.68.33,5.13,5.13,0,0,1-1.72-.29,3.62,3.62,0,0,1-1.31-.78l.42-.69a3.06,3.06,0,0,0,1.11.7,4,4,0,0,0,1.48.27,2.55,2.55,0,0,0,1.63-.46,1.53,1.53,0,0,0,.57-1.25,1.49,1.49,0,0,0-.65-1.3,4,4,0,0,0-2.17-.44h-1.8l.43-4.19h4.62v.76h-3.86l-.29,2.67h1.09A4.33,4.33,0,0,1,182.33,548.26Z"/><path class="cls-4" d="M187.1,552.1a3.36,3.36,0,0,1-1.2-1.48,6.15,6.15,0,0,1,0-4.52,3.3,3.3,0,0,1,1.2-1.48,3.22,3.22,0,0,1,3.48,0,3.37,3.37,0,0,1,1.2,1.48,6,6,0,0,1,0,4.52,3.43,3.43,0,0,1-1.2,1.48,3.22,3.22,0,0,1-3.48,0Zm3-.68a2.66,2.66,0,0,0,.87-1.19,5,5,0,0,0,.31-1.87,5,5,0,0,0-.31-1.88,2.69,2.69,0,0,0-.87-1.18,2.27,2.27,0,0,0-2.6,0,2.69,2.69,0,0,0-.87,1.18,5,5,0,0,0-.32,1.88,4.94,4.94,0,0,0,.32,1.87,2.66,2.66,0,0,0,.87,1.19,2.31,2.31,0,0,0,2.6,0Z"/><path class="cls-4" d="M196.29,552.1a3.43,3.43,0,0,1-1.2-1.48,6.29,6.29,0,0,1,0-4.52,3.37,3.37,0,0,1,1.2-1.48,3.06,3.06,0,0,1,1.74-.51,3.12,3.12,0,0,1,1.75.51,3.37,3.37,0,0,1,1.2,1.48,6.15,6.15,0,0,1,0,4.52,3.43,3.43,0,0,1-1.2,1.48,3.12,3.12,0,0,1-1.75.51A3.06,3.06,0,0,1,196.29,552.1Zm3-.68a2.66,2.66,0,0,0,.87-1.19,4.94,4.94,0,0,0,.32-1.87,5,5,0,0,0-.32-1.88,2.69,2.69,0,0,0-.87-1.18,2.19,2.19,0,0,0-1.3-.41,2.13,2.13,0,0,0-1.29.41,2.63,2.63,0,0,0-.88,1.18,5,5,0,0,0-.31,1.88,5,5,0,0,0,.31,1.87,2.61,2.61,0,0,0,.88,1.19,2.13,2.13,0,0,0,1.29.4A2.18,2.18,0,0,0,199.33,551.42Z"/><path class="cls-4" d="M183.47,583.79h-1.69V586h-.87v-2.2h-4.76v-.62l4.47-5.54h1L177.27,583h3.67v-1.93h.84V583h1.69Z"/><path class="cls-4" d="M187.1,585.55a3.41,3.41,0,0,1-1.2-1.48,6.18,6.18,0,0,1,0-4.53,3.33,3.33,0,0,1,1.2-1.47,3.17,3.17,0,0,1,3.48,0,3.4,3.4,0,0,1,1.2,1.47,6,6,0,0,1,0,4.53,3.49,3.49,0,0,1-1.2,1.48,3.22,3.22,0,0,1-3.48,0Zm3-.69a2.63,2.63,0,0,0,.87-1.18,5.83,5.83,0,0,0,0-3.75,2.63,2.63,0,0,0-.87-1.18,2.27,2.27,0,0,0-2.6,0,2.63,2.63,0,0,0-.87,1.18,5.65,5.65,0,0,0,0,3.75,2.63,2.63,0,0,0,.87,1.18,2.27,2.27,0,0,0,2.6,0Z"/><path class="cls-4" d="M196.29,585.55a3.49,3.49,0,0,1-1.2-1.48,6.32,6.32,0,0,1,0-4.53,3.4,3.4,0,0,1,1.2-1.47,3.07,3.07,0,0,1,1.74-.52,3.13,3.13,0,0,1,1.75.52,3.4,3.4,0,0,1,1.2,1.47,6.18,6.18,0,0,1,0,4.53,3.49,3.49,0,0,1-1.2,1.48,3.12,3.12,0,0,1-1.75.51A3.06,3.06,0,0,1,196.29,585.55Zm3-.69a2.63,2.63,0,0,0,.87-1.18,5.65,5.65,0,0,0,0-3.75,2.63,2.63,0,0,0-.87-1.18,2.19,2.19,0,0,0-1.3-.41,2.13,2.13,0,0,0-1.29.41,2.58,2.58,0,0,0-.88,1.18,5.83,5.83,0,0,0,0,3.75,2.58,2.58,0,0,0,.88,1.18,2.07,2.07,0,0,0,1.29.41A2.12,2.12,0,0,0,199.33,584.86Z"/><path class="cls-4" d="M182.35,615.37a2.12,2.12,0,0,1,.7,1.66,2.24,2.24,0,0,1-1.39,2.15,3.87,3.87,0,0,1-1.68.33,5,5,0,0,1-1.73-.3,3.44,3.44,0,0,1-1.31-.78l.43-.68a3,3,0,0,0,1.12.7,4.07,4.07,0,0,0,1.49.27,2.53,2.53,0,0,0,1.61-.45,1.49,1.49,0,0,0,.57-1.24,1.44,1.44,0,0,0-.57-1.21,2.74,2.74,0,0,0-1.72-.45h-.6v-.63l2.34-2.9h-4.32v-.77h5.43v.61l-2.39,3A3.06,3.06,0,0,1,182.35,615.37Z"/><path class="cls-4" d="M187.1,619a3.33,3.33,0,0,1-1.2-1.47,6.18,6.18,0,0,1,0-4.53,3.33,3.33,0,0,1,1.2-1.47,3.17,3.17,0,0,1,3.48,0,3.4,3.4,0,0,1,1.2,1.47,6,6,0,0,1,0,4.53,3.4,3.4,0,0,1-1.2,1.47,3.17,3.17,0,0,1-3.48,0Zm3-.68a2.63,2.63,0,0,0,.87-1.18,5.83,5.83,0,0,0,0-3.75,2.63,2.63,0,0,0-.87-1.18,2.27,2.27,0,0,0-2.6,0,2.63,2.63,0,0,0-.87,1.18,5.65,5.65,0,0,0,0,3.75,2.63,2.63,0,0,0,.87,1.18,2.27,2.27,0,0,0,2.6,0Z"/><path class="cls-4" d="M196.29,619a3.4,3.4,0,0,1-1.2-1.47,6.32,6.32,0,0,1,0-4.53,3.4,3.4,0,0,1,1.2-1.47A3,3,0,0,1,198,611a3.05,3.05,0,0,1,1.75.52A3.4,3.4,0,0,1,201,613a6.18,6.18,0,0,1,0,4.53,3.4,3.4,0,0,1-1.2,1.47,3.05,3.05,0,0,1-1.75.52A3,3,0,0,1,196.29,619Zm3-.68a2.63,2.63,0,0,0,.87-1.18,5.65,5.65,0,0,0,0-3.75,2.63,2.63,0,0,0-.87-1.18,2.19,2.19,0,0,0-1.3-.41,2.13,2.13,0,0,0-1.29.41,2.58,2.58,0,0,0-.88,1.18,5.83,5.83,0,0,0,0,3.75,2.58,2.58,0,0,0,.88,1.18,2.13,2.13,0,0,0,1.29.41A2.19,2.19,0,0,0,199.33,618.31Z"/><path class="cls-4" d="M183.23,652.12v.76h-5.92v-.61l3.51-3.4a4.25,4.25,0,0,0,.89-1.12,2.06,2.06,0,0,0,.24-1,1.41,1.41,0,0,0-.51-1.15,2.32,2.32,0,0,0-1.47-.41,2.89,2.89,0,0,0-2.3.93l-.62-.53a3.29,3.29,0,0,1,1.26-.88,4.52,4.52,0,0,1,1.73-.31,3.21,3.21,0,0,1,2.05.6,2,2,0,0,1,.75,1.66,2.72,2.72,0,0,1-.29,1.24,5.13,5.13,0,0,1-1.09,1.37l-2.88,2.8Z"/><path class="cls-4" d="M187.1,652.44a3.33,3.33,0,0,1-1.2-1.47,5.67,5.67,0,0,1-.43-2.27,5.59,5.59,0,0,1,.43-2.26,3.41,3.41,0,0,1,1.2-1.48,3.22,3.22,0,0,1,3.48,0,3.49,3.49,0,0,1,1.2,1.48,5.42,5.42,0,0,1,.44,2.26,5.5,5.5,0,0,1-.44,2.27,3.4,3.4,0,0,1-1.2,1.47,3.22,3.22,0,0,1-3.48,0Zm3-.68a2.63,2.63,0,0,0,.87-1.18,5,5,0,0,0,.31-1.88,5,5,0,0,0-.31-1.87,2.66,2.66,0,0,0-.87-1.19,2.31,2.31,0,0,0-2.6,0,2.66,2.66,0,0,0-.87,1.19,4.94,4.94,0,0,0-.32,1.87,5,5,0,0,0,.32,1.88,2.63,2.63,0,0,0,.87,1.18,2.27,2.27,0,0,0,2.6,0Z"/><path class="cls-4" d="M196.29,652.44a3.4,3.4,0,0,1-1.2-1.47,5.68,5.68,0,0,1-.42-2.27,5.59,5.59,0,0,1,.42-2.26,3.49,3.49,0,0,1,1.2-1.48,3.06,3.06,0,0,1,1.74-.51,3.12,3.12,0,0,1,1.75.51,3.49,3.49,0,0,1,1.2,1.48,5.43,5.43,0,0,1,.43,2.26A5.51,5.51,0,0,1,201,651a3.4,3.4,0,0,1-1.2,1.47A3.12,3.12,0,0,1,198,653,3.06,3.06,0,0,1,196.29,652.44Zm3-.68a2.63,2.63,0,0,0,.87-1.18,5,5,0,0,0,.32-1.88,4.94,4.94,0,0,0-.32-1.87,2.66,2.66,0,0,0-.87-1.19,2.18,2.18,0,0,0-1.3-.4,2.13,2.13,0,0,0-1.29.4,2.61,2.61,0,0,0-.88,1.19,5,5,0,0,0-.31,1.87,5,5,0,0,0,.31,1.88,2.58,2.58,0,0,0,.88,1.18,2.13,2.13,0,0,0,1.29.41A2.19,2.19,0,0,0,199.33,651.76Z"/><path class="cls-4" d="M182.25,678v8.36h-.87v-7.6h-2V678Z"/><path class="cls-4" d="M187.1,685.89a3.3,3.3,0,0,1-1.2-1.48,6.15,6.15,0,0,1,0-4.52,3.36,3.36,0,0,1,1.2-1.48,3.22,3.22,0,0,1,3.48,0,3.43,3.43,0,0,1,1.2,1.48,6,6,0,0,1,0,4.52,3.37,3.37,0,0,1-1.2,1.48,3.22,3.22,0,0,1-3.48,0Zm3-.68A2.69,2.69,0,0,0,191,684a5.86,5.86,0,0,0,0-3.76,2.69,2.69,0,0,0-.87-1.18,2.31,2.31,0,0,0-2.6,0,2.69,2.69,0,0,0-.87,1.18,5.68,5.68,0,0,0,0,3.76,2.69,2.69,0,0,0,.87,1.18,2.31,2.31,0,0,0,2.6,0Z"/><path class="cls-4" d="M196.29,685.89a3.37,3.37,0,0,1-1.2-1.48,6.29,6.29,0,0,1,0-4.52,3.43,3.43,0,0,1,1.2-1.48,3.06,3.06,0,0,1,1.74-.51,3.12,3.12,0,0,1,1.75.51,3.43,3.43,0,0,1,1.2,1.48,6.15,6.15,0,0,1,0,4.52,3.37,3.37,0,0,1-1.2,1.48,3.12,3.12,0,0,1-1.75.51A3.06,3.06,0,0,1,196.29,685.89Zm3-.68a2.69,2.69,0,0,0,.87-1.18,5.68,5.68,0,0,0,0-3.76,2.69,2.69,0,0,0-.87-1.18,2.18,2.18,0,0,0-1.3-.4,2.13,2.13,0,0,0-1.29.4,2.63,2.63,0,0,0-.88,1.18,5.86,5.86,0,0,0,0,3.76,2.63,2.63,0,0,0,.88,1.18,2.13,2.13,0,0,0,1.29.4A2.18,2.18,0,0,0,199.33,685.21Z"/><path class="cls-4" d="M196.29,719.34a3.43,3.43,0,0,1-1.2-1.48,6.29,6.29,0,0,1,0-4.52,3.37,3.37,0,0,1,1.2-1.48,3.06,3.06,0,0,1,1.74-.51,3.12,3.12,0,0,1,1.75.51,3.37,3.37,0,0,1,1.2,1.48,6.15,6.15,0,0,1,0,4.52,3.43,3.43,0,0,1-1.2,1.48,3.12,3.12,0,0,1-1.75.51A3.06,3.06,0,0,1,196.29,719.34Zm3-.68a2.66,2.66,0,0,0,.87-1.19,4.94,4.94,0,0,0,.32-1.87,5,5,0,0,0-.32-1.88,2.69,2.69,0,0,0-.87-1.18,2.19,2.19,0,0,0-1.3-.41,2.13,2.13,0,0,0-1.29.41,2.63,2.63,0,0,0-.88,1.18,5,5,0,0,0-.31,1.88,5,5,0,0,0,.31,1.87,2.61,2.61,0,0,0,.88,1.19,2.13,2.13,0,0,0,1.29.4A2.18,2.18,0,0,0,199.33,718.66Z"/><path class="cls-5" d="M141.31,637.26v-2.73a3.91,3.91,0,0,1,.43-1.87,3.08,3.08,0,0,1,1.19-1.26,3.4,3.4,0,0,1,1.75-.45,3.44,3.44,0,0,1,1.76.45,3.08,3.08,0,0,1,1.19,1.26,3.91,3.91,0,0,1,.43,1.87v2.73Zm6.13-2.69a3.18,3.18,0,0,0-.35-1.54,2.58,2.58,0,0,0-1-1,2.85,2.85,0,0,0-1.44-.36,2.79,2.79,0,0,0-1.43.36,2.51,2.51,0,0,0-1,1,3.18,3.18,0,0,0-.36,1.54v2h5.52Z"/><path class="cls-5" d="M146.26,624.31V628l1.8.8v.73l-6.75-3.05v-.7l6.75-3.06v.75Zm-.58.26-3.63,1.6,3.63,1.61Z"/><path class="cls-5" d="M141.92,619.73v2.35h-.61v-5.41h.61V619h6.14v.71Z"/><path class="cls-5" d="M146.26,610.73v3.73l1.8.8V616l-6.75-3v-.7l6.75-3.06v.75Zm-.58.26-3.63,1.6,3.63,1.61Z"/><path class="cls-5" d="M141.92,599.15a2.34,2.34,0,0,1,3.4,0,3,3,0,0,1,.61,2V603h2.13v.71h-6.75v-2.51A3,3,0,0,1,141.92,599.15Zm2.94.5a1.51,1.51,0,0,0-1.24-.52,1.55,1.55,0,0,0-1.26.52,2.33,2.33,0,0,0-.44,1.52V603h3.38v-1.78A2.28,2.28,0,0,0,144.86,599.65Z"/><path class="cls-5" d="M146.26,592.07v3.73l1.8.8v.74l-6.75-3.06v-.69l6.75-3.06v.74Zm-.58.26-3.63,1.61,3.63,1.6Z"/><path class="cls-5" d="M147.68,587.44a3.24,3.24,0,0,1-1.23,1.26,3.53,3.53,0,0,1-1.77.45,3.49,3.49,0,0,1-1.76-.45,3.24,3.24,0,0,1-1.23-1.26,3.72,3.72,0,0,1-.44-1.8,3.63,3.63,0,0,1,.25-1.37,2.87,2.87,0,0,1,.73-1.07l.46.45a2.62,2.62,0,0,0-.81,2,3,3,0,0,0,.37,1.45,2.8,2.8,0,0,0,1,1,2.89,2.89,0,0,0,1.43.36,2.84,2.84,0,0,0,1.43-.36,2.75,2.75,0,0,0,1-1,3,3,0,0,0,.36-1.45,2.59,2.59,0,0,0-.81-2l.45-.45a2.78,2.78,0,0,1,.74,1.07,3.72,3.72,0,0,1,.26,1.38A3.65,3.65,0,0,1,147.68,587.44Z"/><path class="cls-5" d="M144.89,578.66l1.39,1.36h1.78v.71h-6.75V580h4.08l-4.08-3.92v-.82l3.06,2.9,3.69-3.1v.84Z"/><path class="cls-5" d="M147.44,568.25h.62V573h-6.75v-4.59h.61v3.88h2.41v-3.46h.6v3.46h2.51Z"/><path class="cls-5" d="M141.92,564.33v2.35h-.61v-5.41h.61v2.36h6.14v.7Z"/><path class="cls-5" d="M147.88,558.88a2.65,2.65,0,0,1-.64,1.06l-.55-.28a2.5,2.5,0,0,0,.59-1,3.29,3.29,0,0,0,.23-1.24,2.28,2.28,0,0,0-.33-1.35,1,1,0,0,0-.87-.44.86.86,0,0,0-.64.24,1.52,1.52,0,0,0-.37.6,7.72,7.72,0,0,0-.29,1,10.77,10.77,0,0,1-.37,1.21,2,2,0,0,1-.55.76,1.41,1.41,0,0,1-1,.32,1.68,1.68,0,0,1-.93-.26,1.85,1.85,0,0,1-.67-.82,3.31,3.31,0,0,1-.25-1.38,3.84,3.84,0,0,1,.16-1.12,3,3,0,0,1,.44-1l.56.24a3.69,3.69,0,0,0-.42.9,3.43,3.43,0,0,0-.13.94,2.1,2.1,0,0,0,.34,1.32,1.06,1.06,0,0,0,.88.45.85.85,0,0,0,.65-.25,1.51,1.51,0,0,0,.38-.61,8.82,8.82,0,0,0,.28-1,11.67,11.67,0,0,1,.37-1.19,1.8,1.8,0,0,1,.54-.77,1.42,1.42,0,0,1,1-.31,1.68,1.68,0,0,1,.93.27,1.78,1.78,0,0,1,.66.84,3.31,3.31,0,0,1,.25,1.38A4.25,4.25,0,0,1,147.88,558.88Z"/><path class="cls-5" d="M147.88,548.59a2.61,2.61,0,0,1-.64,1l-.55-.27a2.65,2.65,0,0,0,.59-1,3.29,3.29,0,0,0,.23-1.24,2.28,2.28,0,0,0-.33-1.35,1,1,0,0,0-.87-.45.83.83,0,0,0-.64.25,1.56,1.56,0,0,0-.37.59,8.52,8.52,0,0,0-.29,1,10.51,10.51,0,0,1-.37,1.2,1.92,1.92,0,0,1-.55.77,1.41,1.41,0,0,1-1,.32,1.68,1.68,0,0,1-.93-.27,1.8,1.8,0,0,1-.67-.82,3.29,3.29,0,0,1-.25-1.37,3.91,3.91,0,0,1,.16-1.13,3.08,3.08,0,0,1,.44-.95l.56.24a3.69,3.69,0,0,0-.42.9,3.43,3.43,0,0,0-.13.94,2.14,2.14,0,0,0,.34,1.32,1,1,0,0,0,.88.44.88.88,0,0,0,.65-.24,1.58,1.58,0,0,0,.38-.61,10.27,10.27,0,0,0,.28-1,10.92,10.92,0,0,1,.37-1.19,1.8,1.8,0,0,1,.54-.77,1.42,1.42,0,0,1,1-.31,1.68,1.68,0,0,1,.93.27,1.8,1.8,0,0,1,.66.83,3.39,3.39,0,0,1,.25,1.39A4.29,4.29,0,0,1,147.88,548.59Z"/><path class="cls-5" d="M147.44,537.44h.62v4.73h-6.75v-4.59h.61v3.88h2.41V538h.6v3.46h2.51Z"/><path class="cls-5" d="M141.31,529.23h6.75v.58l-5.48,4.3h5.48v.71h-6.75v-.58l5.48-4.31h-5.48Z"/><path class="cls-5" d="M141.92,524.8v2.35h-.61v-5.41h.61v2.35h6.14v.71Z"/><path class="cls-5" d="M147.25,515.91a10.34,10.34,0,0,1-2.48.29,10.49,10.49,0,0,1-2.49-.29,7,7,0,0,1-2-.82v-.65a7.65,7.65,0,0,0,2.1.82,11,11,0,0,0,4.84,0,7.65,7.65,0,0,0,2.1-.82v.65A7.32,7.32,0,0,1,147.25,515.91Z"/><path class="cls-5" d="M141.92,507.39a2.37,2.37,0,0,1,3.4,0,3.09,3.09,0,0,1,.61,2v1.8h2.13v.71h-6.75V509.4A3,3,0,0,1,141.92,507.39Zm2.94.51a1.51,1.51,0,0,0-1.24-.52,1.55,1.55,0,0,0-1.26.52,2.33,2.33,0,0,0-.44,1.52v1.78h3.38v-1.78A2.28,2.28,0,0,0,144.86,507.9Z"/><path class="cls-5" d="M147.44,499.45h.62v4.73h-6.75V499.6h.61v3.88h2.41V500h.6v3.46h2.51Z"/><path class="cls-5" d="M148.06,492.27l-2.17,1.53a4.58,4.58,0,0,1,0,.53v1.8h2.14v.7h-6.75v-2.5a3,3,0,0,1,.61-2,2.12,2.12,0,0,1,1.7-.72,2.09,2.09,0,0,1,2.12,1.53l2.32-1.64Zm-3.19.56a1.77,1.77,0,0,0-2.51,0,2.33,2.33,0,0,0-.44,1.52v1.78h3.39v-1.78A2.33,2.33,0,0,0,144.87,492.83Z"/><path class="cls-5" d="M141.31,484.25h6.75v.69h-6.14v1.57h-.61Z"/><path class="cls-5" d="M147.7,480.41a2.66,2.66,0,0,1-1.19.95,5.09,5.09,0,0,1-3.66,0,2.77,2.77,0,0,1-1.19-.95,2.53,2.53,0,0,1,0-2.76,2.84,2.84,0,0,1,1.19-.95,5.09,5.09,0,0,1,3.66,0,2.73,2.73,0,0,1,1.19.95,2.48,2.48,0,0,1,0,2.76Zm-.55-2.41a2.12,2.12,0,0,0-1-.69,4.72,4.72,0,0,0-3,0,2.21,2.21,0,0,0-1,.69,1.77,1.77,0,0,0,0,2.06,2.13,2.13,0,0,0,1,.69,4.72,4.72,0,0,0,3,0,2,2,0,0,0,1-.69,1.77,1.77,0,0,0,0-2.06Z"/><path class="cls-5" d="M147.7,473.13a2.73,2.73,0,0,1-1.19.95,5.09,5.09,0,0,1-3.66,0,2.84,2.84,0,0,1-1.19-.95,2.53,2.53,0,0,1,0-2.76,2.77,2.77,0,0,1,1.19-.95,5,5,0,0,1,3.66,0,2.66,2.66,0,0,1,1.19.95,2.48,2.48,0,0,1,0,2.76Zm-.55-2.41a2,2,0,0,0-1-.69,4.72,4.72,0,0,0-3,0,2.13,2.13,0,0,0-1,.69,1.77,1.77,0,0,0,0,2.06,2.21,2.21,0,0,0,1,.69,4.72,4.72,0,0,0,3,0,2.12,2.12,0,0,0,1-.69,1.77,1.77,0,0,0,0-2.06Z"/><path class="cls-5" d="M147.7,465.85a2.64,2.64,0,0,1-1.19.94,5.09,5.09,0,0,1-3.66,0,2.75,2.75,0,0,1-1.19-.94,2.46,2.46,0,0,1-.41-1.38,2.41,2.41,0,0,1,.41-1.38,2.77,2.77,0,0,1,1.19-.95,5,5,0,0,1,3.66,0,2.66,2.66,0,0,1,1.19.95,2.35,2.35,0,0,1,.42,1.38A2.39,2.39,0,0,1,147.7,465.85Zm-.55-2.41a2,2,0,0,0-1-.69,4.72,4.72,0,0,0-3,0,2.06,2.06,0,0,0-1,.69,1.77,1.77,0,0,0,0,2.06,2.21,2.21,0,0,0,1,.69,4.72,4.72,0,0,0,3,0,2.12,2.12,0,0,0,1-.69,1.77,1.77,0,0,0,0-2.06Z"/><path class="cls-5" d="M147.7,458.57a2.64,2.64,0,0,1-1.19.94,5.09,5.09,0,0,1-3.66,0,2.75,2.75,0,0,1-1.19-.94,2.54,2.54,0,0,1,0-2.77,2.84,2.84,0,0,1,1.19-.95,5.09,5.09,0,0,1,3.66,0,2.73,2.73,0,0,1,1.19.95,2.49,2.49,0,0,1,0,2.77Zm-.55-2.41a2,2,0,0,0-1-.69,4.72,4.72,0,0,0-3,0,2.06,2.06,0,0,0-1,.69,1.76,1.76,0,0,0,0,2,2.15,2.15,0,0,0,1,.7,4.9,4.9,0,0,0,3,0,2.06,2.06,0,0,0,1-.7,1.76,1.76,0,0,0,0-2Z"/><path class="cls-5" d="M149.29,452.59a7.73,7.73,0,0,0-2.09-.83,11.07,11.07,0,0,0-4.86,0,7.73,7.73,0,0,0-2.09.83v-.65a7.32,7.32,0,0,1,2-.83,10.49,10.49,0,0,1,2.49-.29,10.34,10.34,0,0,1,2.48.29,7.21,7.21,0,0,1,2,.83Z"/><path class="cls-5" d="M982.06,371.63V380h-.86V373.3l-3.31,5.63h-.43l-3.31-5.6V380h-.86v-8.36H974l3.66,6.2,3.63-6.2Z"/><path class="cls-5" d="M986,371.63h.89V380H986Z"/><path class="cls-5" d="M996.16,377.75h-4.7l-1,2.24h-.93l3.86-8.36h.88l3.86,8.36h-.94Zm-.32-.71-2-4.49-2,4.49Z"/><path class="cls-5" d="M1000.71,371.25a.63.63,0,0,1,.18.46,1,1,0,0,1,0,.3l-.11.38-.52,1.65h-.58l.42-1.72a.57.57,0,0,1-.32-.22.59.59,0,0,1-.13-.39.64.64,0,0,1,.18-.47.65.65,0,0,1,.46-.18A.63.63,0,0,1,1000.71,371.25Z"/><path class="cls-5" d="M1004.75,379.76a3.33,3.33,0,0,1-1.34-.79l.35-.68a3.55,3.55,0,0,0,1.22.74,4.68,4.68,0,0,0,1.57.28,2.92,2.92,0,0,0,1.7-.41,1.28,1.28,0,0,0,.57-1.07,1,1,0,0,0-.31-.8,1.9,1.9,0,0,0-.75-.46,12.17,12.17,0,0,0-1.24-.36,12.86,12.86,0,0,1-1.53-.46,2.49,2.49,0,0,1-1-.67,1.77,1.77,0,0,1-.4-1.23,2,2,0,0,1,.34-1.15,2.23,2.23,0,0,1,1-.83,4.26,4.26,0,0,1,1.74-.32,5.24,5.24,0,0,1,1.42.2,3.9,3.9,0,0,1,1.2.55l-.3.7a4.35,4.35,0,0,0-1.14-.52,4.43,4.43,0,0,0-1.18-.17,2.78,2.78,0,0,0-1.67.42,1.32,1.32,0,0,0-.56,1.09,1.06,1.06,0,0,0,.31.81,2,2,0,0,0,.77.47c.31.1.73.22,1.25.35a11.72,11.72,0,0,1,1.5.45,2.36,2.36,0,0,1,1,.67,1.72,1.72,0,0,1,.4,1.21,2,2,0,0,1-.34,1.15,2.33,2.33,0,0,1-1.06.83,4.5,4.5,0,0,1-1.75.3A5.4,5.4,0,0,1,1004.75,379.76Z"/><path class="cls-5" d="M1017.22,371.63h.89V380h-.89Z"/><path class="cls-5" d="M1027.76,372.39a2.86,2.86,0,0,1,0,4.2,3.84,3.84,0,0,1-2.53.76H1023V380h-.89v-8.36h3.16A3.84,3.84,0,0,1,1027.76,372.39Zm-.64,3.64a1.89,1.89,0,0,0,.66-1.54,1.93,1.93,0,0,0-.66-1.56,3,3,0,0,0-1.92-.54H1023v4.18h2.24A3,3,0,0,0,1027.12,376Z"/><path class="cls-5" d="M1038.87,371.63V380H1038v-3.86h-5.28V380h-.9v-8.36h.9v3.72H1038v-3.72Z"/><path class="cls-5" d="M1044.25,379.5a4,4,0,0,1-1.6-1.52,4.43,4.43,0,0,1,0-4.35,4.11,4.11,0,0,1,1.6-1.52,4.9,4.9,0,0,1,4.53,0,4.17,4.17,0,0,1,1.59,1.53,4.39,4.39,0,0,1,0,4.36,4.15,4.15,0,0,1-1.59,1.52,4.9,4.9,0,0,1-4.53,0Zm4.08-.68a3.29,3.29,0,0,0,1.27-1.24,3.73,3.73,0,0,0,0-3.55,3.29,3.29,0,0,0-1.27-1.24,3.65,3.65,0,0,0-1.81-.45,3.72,3.72,0,0,0-1.82.45,3.29,3.29,0,0,0-1.27,1.24,3.59,3.59,0,0,0,0,3.55,3.29,3.29,0,0,0,1.27,1.24,3.72,3.72,0,0,0,1.82.45A3.65,3.65,0,0,0,1048.33,378.82Z"/><path class="cls-5" d="M1061.21,371.63V380h-.73l-5.43-6.79V380h-.89v-8.36h.73l5.44,6.78v-6.78Z"/><path class="cls-5" d="M1071.14,379.22V380h-6v-8.36H1071v.76h-4.89v3h4.36v.75h-4.36v3.1Z"/><polyline class="cls-1" points="209.87 716.84 308.6 656.01 522.77 586.82 727.88 527.09 949.39 527.09"/><ellipse class="cls-2" cx="949.57" cy="527.09" rx="7.43" ry="7.36"/><path class="cls-5" d="M968.22,529.54a3.22,3.22,0,0,1-1.33-.79l.35-.68a3.27,3.27,0,0,0,1.21.74,4.44,4.44,0,0,0,1.57.28,2.92,2.92,0,0,0,1.7-.41,1.27,1.27,0,0,0,.57-1.07,1,1,0,0,0-.31-.8,2,2,0,0,0-.75-.46A10.3,10.3,0,0,0,970,526a14,14,0,0,1-1.52-.46,2.59,2.59,0,0,1-1-.68,1.77,1.77,0,0,1-.4-1.23,2,2,0,0,1,.34-1.15,2.2,2.2,0,0,1,1-.83,4.18,4.18,0,0,1,1.73-.31,5.18,5.18,0,0,1,1.42.19,4.14,4.14,0,0,1,1.2.55l-.3.7a4.44,4.44,0,0,0-1.13-.52,4.56,4.56,0,0,0-1.19-.17,2.78,2.78,0,0,0-1.67.42,1.32,1.32,0,0,0-.56,1.1,1.05,1.05,0,0,0,.31.8,1.93,1.93,0,0,0,.77.47c.31.11.73.22,1.25.35a11.72,11.72,0,0,1,1.5.45,2.45,2.45,0,0,1,1,.67,1.73,1.73,0,0,1,.4,1.21,2,2,0,0,1-.34,1.15,2.33,2.33,0,0,1-1.06.83,4.5,4.5,0,0,1-1.75.3A5.4,5.4,0,0,1,968.22,529.54Z"/><path class="cls-5" d="M981.62,527.54h-4.71l-1,2.23H975l3.86-8.36h.88l3.86,8.36h-.94Zm-.33-.72-2-4.49-2,4.49Z"/><path class="cls-5" d="M991.94,529.77,990,527.08a4.83,4.83,0,0,1-.67,0h-2.27v2.65h-.89v-8.36h3.16a3.84,3.84,0,0,1,2.53.76,2.59,2.59,0,0,1,.92,2.1,2.73,2.73,0,0,1-.5,1.66,2.8,2.8,0,0,1-1.43,1l2.06,2.87Zm-.71-3.95a2.15,2.15,0,0,0,0-3.1,2.91,2.91,0,0,0-1.92-.55h-2.24v4.2h2.24A3,3,0,0,0,991.23,525.82Z"/><path class="cls-5" d="M1001.4,527.54h-4.7l-1,2.23h-.93l3.86-8.36h.88l3.87,8.36h-1Zm-.33-.72-2-4.49-2,4.49Z"/><path class="cls-5" d="M1013,521.41v8.36h-.88v-3.86h-5.28v3.86h-.9v-8.36h.9v3.72h5.28v-3.72Z"/><path class="cls-5" d="M1017.35,521a.65.65,0,0,1,.18.46,1.15,1.15,0,0,1,0,.31c0,.1-.07.23-.12.37l-.51,1.65h-.58l.42-1.72a.59.59,0,0,1-.33-.22.65.65,0,0,1-.12-.39.6.6,0,0,1,.18-.46.63.63,0,0,1,.46-.18A.62.62,0,0,1,1017.35,521Z"/><path class="cls-5" d="M1021.39,529.54a3.33,3.33,0,0,1-1.34-.79l.35-.68a3.32,3.32,0,0,0,1.22.74,4.44,4.44,0,0,0,1.57.28,2.92,2.92,0,0,0,1.7-.41,1.27,1.27,0,0,0,.57-1.07,1.08,1.08,0,0,0-.31-.8,2.2,2.2,0,0,0-.75-.46,10.55,10.55,0,0,0-1.25-.35,15.58,15.58,0,0,1-1.52-.46,2.55,2.55,0,0,1-1-.68,1.77,1.77,0,0,1-.4-1.23,2,2,0,0,1,.34-1.15,2.23,2.23,0,0,1,1-.83,4.27,4.27,0,0,1,1.74-.31,5.28,5.28,0,0,1,1.42.19,4.14,4.14,0,0,1,1.2.55l-.3.7a4.51,4.51,0,0,0-1.14-.52,4.43,4.43,0,0,0-1.18-.17,2.76,2.76,0,0,0-1.67.42,1.3,1.3,0,0,0-.56,1.1,1.05,1.05,0,0,0,.31.8,1.93,1.93,0,0,0,.77.47c.31.11.72.22,1.25.35a11.72,11.72,0,0,1,1.5.45,2.53,2.53,0,0,1,1,.67,1.78,1.78,0,0,1,.4,1.21,2,2,0,0,1-.35,1.15,2.35,2.35,0,0,1-1,.83,4.54,4.54,0,0,1-1.75.3A5.4,5.4,0,0,1,1021.39,529.54Z"/><path class="cls-5" d="M1033.85,521.41h.9v8.36h-.9Z"/><path class="cls-5" d="M1044.4,522.17a2.59,2.59,0,0,1,.92,2.1,2.57,2.57,0,0,1-.92,2.1,3.84,3.84,0,0,1-2.53.76h-2.27v2.64h-.9v-8.36h3.17A3.84,3.84,0,0,1,1044.4,522.17Zm-.64,3.64a1.87,1.87,0,0,0,.66-1.54,1.89,1.89,0,0,0-.66-1.55,2.91,2.91,0,0,0-1.92-.55h-2.24v4.18h2.24A3,3,0,0,0,1043.76,525.81Z"/><path class="cls-5" d="M1055.51,521.41v8.36h-.88v-3.86h-5.29v3.86h-.89v-8.36h.89v3.72h5.29v-3.72Z"/><path class="cls-5" d="M1060.88,529.29a4,4,0,0,1-1.59-1.53,4.43,4.43,0,0,1,0-4.35,4.08,4.08,0,0,1,1.59-1.52,4.69,4.69,0,0,1,2.28-.55,4.61,4.61,0,0,1,2.26.55,4.08,4.08,0,0,1,1.59,1.52,4.39,4.39,0,0,1,0,4.36,4.08,4.08,0,0,1-1.59,1.52,4.61,4.61,0,0,1-2.26.55A4.69,4.69,0,0,1,1060.88,529.29Zm4.09-.69a3.22,3.22,0,0,0,1.27-1.24,3.53,3.53,0,0,0,.45-1.77,3.57,3.57,0,0,0-.45-1.78,3.36,3.36,0,0,0-1.27-1.24,3.65,3.65,0,0,0-1.81-.45,3.72,3.72,0,0,0-1.82.45,3.39,3.39,0,0,0-1.28,1.24,3.47,3.47,0,0,0-.46,1.78,3.44,3.44,0,0,0,.46,1.77,3.25,3.25,0,0,0,1.28,1.24,3.72,3.72,0,0,0,1.82.45A3.65,3.65,0,0,0,1065,528.6Z"/><path class="cls-5" d="M1077.85,521.41v8.36h-.73l-5.43-6.79v6.79h-.9v-8.36h.74l5.44,6.78v-6.78Z"/><path class="cls-5" d="M1087.78,529v.77h-6v-8.36h5.79v.76h-4.9v3h4.37v.75h-4.37V529Z"/><path class="cls-5" d="M982,398.47v8.36h-.88V403h-5.28v3.86H975v-8.36h.9v3.72h5.28v-3.72Z"/><path class="cls-5" d="M991.68,399.23a2.86,2.86,0,0,1,0,4.2,3.88,3.88,0,0,1-2.53.76h-2.27v2.64H986v-8.36h3.16A3.82,3.82,0,0,1,991.68,399.23Zm-.64,3.64a1.88,1.88,0,0,0,.67-1.54,1.9,1.9,0,0,0-.67-1.56,3,3,0,0,0-1.92-.54h-2.24v4.18h2.24A3,3,0,0,0,991,402.87Z"/><path class="cls-5" d="M1000.22,398.47h.9v7.59h4.73v.77h-5.63Z"/><path class="cls-5" d="M1013.86,404.59h-4.71l-1,2.24h-.93l3.86-8.36h.88l3.86,8.36h-.94Zm-.33-.71-2-4.5-2,4.5Z"/><path class="cls-5" d="M1024.11,399.23a2.86,2.86,0,0,1,0,4.2,3.88,3.88,0,0,1-2.53.76h-2.27v2.64h-.89v-8.36h3.16A3.82,3.82,0,0,1,1024.11,399.23Zm-.64,3.64a1.9,1.9,0,0,0,.66-1.54,1.93,1.93,0,0,0-.66-1.56,3,3,0,0,0-1.92-.54h-2.24v4.18h2.24A3,3,0,0,0,1023.47,402.87Z"/><path class="cls-5" d="M1029.53,399.23h-3v-.76h6.83v.76h-3v7.6h-.89Z"/><path class="cls-5" d="M1037.32,406.34a4,4,0,0,1-1.6-1.52,4.43,4.43,0,0,1,0-4.35,4.11,4.11,0,0,1,1.6-1.52,4.63,4.63,0,0,1,2.27-.56,4.69,4.69,0,0,1,2.26.55,4.17,4.17,0,0,1,1.59,1.53,4.39,4.39,0,0,1,0,4.36,4.15,4.15,0,0,1-1.59,1.52,4.9,4.9,0,0,1-4.53,0Zm4.08-.68a3.29,3.29,0,0,0,1.27-1.24,3.73,3.73,0,0,0,0-3.55,3.29,3.29,0,0,0-1.27-1.24,3.65,3.65,0,0,0-1.81-.45,3.72,3.72,0,0,0-1.82.45,3.32,3.32,0,0,0-1.28,1.24,3.65,3.65,0,0,0,0,3.55,3.32,3.32,0,0,0,1.28,1.24,3.72,3.72,0,0,0,1.82.45A3.65,3.65,0,0,0,1041.4,405.66Z"/><path class="cls-5" d="M1052.92,399.23a2.86,2.86,0,0,1,0,4.2,3.9,3.9,0,0,1-2.53.76h-2.27v2.64h-.89v-8.36h3.16A3.84,3.84,0,0,1,1052.92,399.23Zm-.64,3.64a1.9,1.9,0,0,0,.66-1.54,1.93,1.93,0,0,0-.66-1.56,3,3,0,0,0-1.92-.54h-2.24v4.18h2.24A3,3,0,0,0,1052.28,402.87Z"/><path class="cls-5" d="M971.09,675.7a3.29,3.29,0,0,1-1.33-.79l.35-.68a3.32,3.32,0,0,0,1.22.74,4.44,4.44,0,0,0,1.57.28,2.94,2.94,0,0,0,1.7-.41,1.26,1.26,0,0,0,.56-1.07,1.07,1.07,0,0,0-.3-.8,2.15,2.15,0,0,0-.76-.46,9.78,9.78,0,0,0-1.24-.35,15.58,15.58,0,0,1-1.52-.46,2.55,2.55,0,0,1-1-.68,1.77,1.77,0,0,1-.4-1.23,2.09,2.09,0,0,1,.33-1.15,2.25,2.25,0,0,1,1-.83,4.27,4.27,0,0,1,1.74-.31,5.28,5.28,0,0,1,1.42.19,4.14,4.14,0,0,1,1.2.55l-.31.7a4.29,4.29,0,0,0-1.13-.52,4.49,4.49,0,0,0-1.18-.17,2.76,2.76,0,0,0-1.67.42,1.31,1.31,0,0,0-.56,1.1,1.09,1.09,0,0,0,.3.8,2,2,0,0,0,.78.47c.31.11.72.22,1.24.35a12.47,12.47,0,0,1,1.51.45,2.53,2.53,0,0,1,1,.67,1.78,1.78,0,0,1,.4,1.21,2,2,0,0,1-.35,1.15,2.35,2.35,0,0,1-1.05.83,4.54,4.54,0,0,1-1.75.3A5.5,5.5,0,0,1,971.09,675.7Z"/><path class="cls-5" d="M984.49,673.7h-4.7l-1,2.23h-.93l3.86-8.36h.88l3.87,8.36h-1Zm-.33-.72-2-4.49-2,4.49Z"/><path class="cls-5" d="M997.82,667.57v8.36H997v-6.69l-3.32,5.63h-.42l-3.32-5.59v6.65h-.86v-8.36h.74l3.66,6.2,3.64-6.2Z"/><path class="cls-5" d="M1002.15,667.19a.65.65,0,0,1,.18.46,1.15,1.15,0,0,1,0,.31l-.11.37-.52,1.65h-.58l.42-1.72a.57.57,0,0,1-.32-.22.59.59,0,0,1-.13-.39.63.63,0,0,1,.19-.46.61.61,0,0,1,.45-.18A.62.62,0,0,1,1002.15,667.19Z"/><path class="cls-5" d="M1006.19,675.7a3.22,3.22,0,0,1-1.33-.79l.34-.68a3.4,3.4,0,0,0,1.22.74,4.44,4.44,0,0,0,1.57.28,2.92,2.92,0,0,0,1.7-.41,1.27,1.27,0,0,0,.57-1.07,1,1,0,0,0-.31-.8,2,2,0,0,0-.75-.46,10.3,10.3,0,0,0-1.24-.35,14,14,0,0,1-1.52-.46,2.59,2.59,0,0,1-1-.68,1.77,1.77,0,0,1-.4-1.23,2,2,0,0,1,.34-1.15,2.2,2.2,0,0,1,1-.83,4.18,4.18,0,0,1,1.73-.31,5.18,5.18,0,0,1,1.42.19,4.14,4.14,0,0,1,1.2.55l-.3.7a4.44,4.44,0,0,0-1.13-.52,4.56,4.56,0,0,0-1.19-.17,2.78,2.78,0,0,0-1.67.42,1.34,1.34,0,0,0-.56,1.1,1.05,1.05,0,0,0,.31.8,1.93,1.93,0,0,0,.77.47c.31.11.73.22,1.25.35a11.72,11.72,0,0,1,1.5.45,2.45,2.45,0,0,1,1,.67,1.73,1.73,0,0,1,.4,1.21,2,2,0,0,1-.34,1.15,2.33,2.33,0,0,1-1.06.83,4.5,4.5,0,0,1-1.75.3A5.4,5.4,0,0,1,1006.19,675.7Z"/><path class="cls-5" d="M1018.66,667.57h.89v8.36h-.89Z"/><path class="cls-5" d="M1029.2,668.33a2.6,2.6,0,0,1,.92,2.11,2.56,2.56,0,0,1-.92,2.09,3.84,3.84,0,0,1-2.53.76h-2.27v2.64h-.89v-8.36h3.16A3.84,3.84,0,0,1,1029.2,668.33Zm-.64,3.64a1.86,1.86,0,0,0,.66-1.53,1.9,1.9,0,0,0-.66-1.56,2.91,2.91,0,0,0-1.92-.55h-2.24v4.18h2.24A3,3,0,0,0,1028.56,672Z"/><path class="cls-5" d="M1040.31,667.57v8.36h-.88v-3.86h-5.28v3.86h-.9v-8.36h.9v3.73h5.28v-3.73Z"/><path class="cls-5" d="M1045.69,675.45a4.13,4.13,0,0,1-1.6-1.53,4.2,4.2,0,0,1,1.6-5.87,4.65,4.65,0,0,1,2.27-.55,4.58,4.58,0,0,1,2.26.55,4.08,4.08,0,0,1,1.59,1.52,4.39,4.39,0,0,1,0,4.36,4.08,4.08,0,0,1-1.59,1.52,4.58,4.58,0,0,1-2.26.55A4.65,4.65,0,0,1,1045.69,675.45Zm4.08-.68a3.32,3.32,0,0,0,1.27-1.25,3.71,3.71,0,0,0,0-3.54,3.32,3.32,0,0,0-1.27-1.25,3.65,3.65,0,0,0-1.81-.45,3.72,3.72,0,0,0-1.82.45,3.32,3.32,0,0,0-1.27,1.25,3.57,3.57,0,0,0,0,3.54,3.32,3.32,0,0,0,1.27,1.25,3.83,3.83,0,0,0,1.82.44A3.76,3.76,0,0,0,1049.77,674.77Z"/><path class="cls-5" d="M1062.66,667.57v8.36h-.74l-5.43-6.78v6.78h-.89v-8.36h.73l5.45,6.78v-6.78Z"/><path class="cls-5" d="M1072.58,675.17v.76h-6v-8.36h5.79v.76h-4.89v3h4.36v.75h-4.36v3.11Z"/><path class="cls-5" d="M510.11,799.68h-2.24v-1.06h5.74v1.06h-2.24v5.63h-1.26Z"/><path class="cls-5" d="M515.52,798.62h1.25v6.69h-1.25Z"/><path class="cls-5" d="M525.77,805.31v-4.43l-2.22,3.67H523l-2.22-3.61v4.37h-1.2v-6.69h1l2.69,4.44,2.63-4.44h1v6.69Z"/><path class="cls-5" d="M534.81,804.27v1h-5.07v-6.69h4.93v1H531v1.74h3.26v1H531v1.84Z"/><path class="cls-5" d="M541.39,805.19a3.17,3.17,0,0,1-1.15-.58l.43-1a3.38,3.38,0,0,0,1,.53,3.63,3.63,0,0,0,1.21.21,2.07,2.07,0,0,0,1.12-.24.73.73,0,0,0,.38-.63.63.63,0,0,0-.21-.48,1.58,1.58,0,0,0-.53-.29q-.31-.11-.87-.24a10.62,10.62,0,0,1-1.25-.36,2,2,0,0,1-.82-.57,1.5,1.5,0,0,1-.34-1,1.79,1.79,0,0,1,.3-1,2.12,2.12,0,0,1,.92-.72,3.72,3.72,0,0,1,1.5-.27,5,5,0,0,1,1.22.15,3.34,3.34,0,0,1,1,.44l-.4,1a3.57,3.57,0,0,0-.92-.4,3.94,3.94,0,0,0-.94-.13,1.92,1.92,0,0,0-1.1.25.77.77,0,0,0-.37.66.59.59,0,0,0,.21.47,1.57,1.57,0,0,0,.53.28q.32.1.87.24a10.73,10.73,0,0,1,1.23.36,2.17,2.17,0,0,1,.83.57,1.49,1.49,0,0,1,.34,1,1.79,1.79,0,0,1-.3,1,2.08,2.08,0,0,1-.93.71,3.72,3.72,0,0,1-1.5.27A5.06,5.06,0,0,1,541.39,805.19Z"/><path class="cls-5" d="M552.15,798.91a2.27,2.27,0,0,1,1,.82,2.48,2.48,0,0,1,0,2.54,2.22,2.22,0,0,1-1,.83,3.77,3.77,0,0,1-1.53.28H549.1v1.93h-1.26v-6.69h2.78A3.76,3.76,0,0,1,552.15,798.91Zm-.34,3.08a1.37,1.37,0,0,0,0-2,2,2,0,0,0-1.25-.34H549.1v2.65h1.46A2,2,0,0,0,551.81,802Z"/><path class="cls-5" d="M560.78,804.27v1h-5.06v-6.69h4.93v1H557v1.74h3.26v1H557v1.84Z"/><path class="cls-5" d="M569.15,798.62v6.69h-1l-3.73-4.53v4.53h-1.24v-6.69h1l3.73,4.53v-4.53Z"/><path class="cls-5" d="M573.3,799.68h-2.24v-1.06h5.73v1.06h-2.23v5.63H573.3Z"/><path class="cls-5" d="M583.63,805a3.41,3.41,0,0,1,0-6,4.15,4.15,0,0,1,3.72,0,3.3,3.3,0,0,1,1.78,3,3.42,3.42,0,0,1-.47,1.77,3.38,3.38,0,0,1-1.31,1.23,4.15,4.15,0,0,1-3.72,0Zm3.08-1a2.21,2.21,0,0,0,.85-.84,2.52,2.52,0,0,0,0-2.42,2.21,2.21,0,0,0-.85-.84,2.48,2.48,0,0,0-1.22-.3,2.44,2.44,0,0,0-1.21.3,2.08,2.08,0,0,0-.85.84,2.52,2.52,0,0,0,0,2.42,2.08,2.08,0,0,0,.85.84,2.44,2.44,0,0,0,1.21.3A2.48,2.48,0,0,0,586.71,804Z"/><path class="cls-5" d="M597.43,798.62v6.69h-1l-3.73-4.53v4.53h-1.24v-6.69h1l3.73,4.53v-4.53Z"/><path class="cls-5" d="M609.84,798.62v6.69h-1l-3.73-4.53v4.53h-1.24v-6.69h1l3.73,4.53v-4.53Z"/><path class="cls-5" d="M617.69,804.27v1h-5.07v-6.69h4.93v1h-3.67v1.74h3.26v1h-3.26v1.84Z"/><path class="cls-5" d="M621.42,799.68h-2.23v-1.06h5.73v1.06h-2.24v5.63h-1.26Z"/><path class="cls-5" d="M636.61,798.62l-2.24,6.69H633l-1.66-4.95-1.7,4.95h-1.35l-2.23-6.69h1.3l1.68,5.09,1.75-5.09H632l1.71,5.12,1.73-5.12Z"/><path class="cls-5" d="M639.82,805a3.41,3.41,0,0,1,0-6,3.93,3.93,0,0,1,1.86-.44,4,4,0,0,1,1.87.44,3.4,3.4,0,0,1,0,6,4,4,0,0,1-1.87.44A3.93,3.93,0,0,1,639.82,805Zm3.08-1a2.21,2.21,0,0,0,.85-.84,2.52,2.52,0,0,0,0-2.42,2.21,2.21,0,0,0-.85-.84,2.48,2.48,0,0,0-1.22-.3,2.44,2.44,0,0,0-1.21.3,2.15,2.15,0,0,0-.85.84,2.52,2.52,0,0,0,0,2.42,2.15,2.15,0,0,0,.85.84,2.44,2.44,0,0,0,1.21.3A2.48,2.48,0,0,0,642.9,804Z"/><path class="cls-5" d="M652,805.31l-1.38-2h-1.79v1.95h-1.25v-6.69h2.78a3.83,3.83,0,0,1,1.53.29,2.27,2.27,0,0,1,1,.82,2.3,2.3,0,0,1,.35,1.27,2.22,2.22,0,0,1-.38,1.3,2.15,2.15,0,0,1-1.06.82l1.55,2.19Zm-.45-5.29a2,2,0,0,0-1.25-.34h-1.47v2.66h1.47a1.9,1.9,0,0,0,1.25-.35,1.37,1.37,0,0,0,0-2Z"/><path class="cls-5" d="M658,802.51l-1.07,1.09v1.71h-1.25v-6.69h1.25v3.44l3.34-3.44h1.41l-2.84,3,3,3.69h-1.47Z"/><path class="cls-5" d="M667.57,804.51a9.62,9.62,0,0,1-.3-2.45,9.78,9.78,0,0,1,.3-2.47,7.08,7.08,0,0,1,.88-2h1.15a8.1,8.1,0,0,0-.87,2.13,10.32,10.32,0,0,0,0,4.69,8.1,8.1,0,0,0,.87,2.13h-1.15A7,7,0,0,1,667.57,804.51Z"/><path class="cls-5" d="M678,805.31v-4.43l-2.22,3.67h-.56L673,800.94v4.37h-1.19v-6.69h1l2.68,4.44,2.64-4.44h1v6.69Z"/><path class="cls-5" d="M683.25,805a3.41,3.41,0,0,1,0-6,4.17,4.17,0,0,1,3.73,0,3.35,3.35,0,0,1,1.3,1.23,3.57,3.57,0,0,1,0,3.54A3.35,3.35,0,0,1,687,805a4.17,4.17,0,0,1-3.73,0Zm3.08-1a2.21,2.21,0,0,0,.85-.84,2.52,2.52,0,0,0,0-2.42,2.21,2.21,0,0,0-.85-.84,2.61,2.61,0,0,0-2.43,0,2.21,2.21,0,0,0-.85.84,2.52,2.52,0,0,0,0,2.42,2.21,2.21,0,0,0,.85.84,2.61,2.61,0,0,0,2.43,0Z"/><path class="cls-5" d="M697.05,798.62v6.69h-1l-3.72-4.53v4.53h-1.25v-6.69h1l3.73,4.53v-4.53Z"/><path class="cls-5" d="M701.2,799.68H699v-1.06h5.74v1.06h-2.24v5.63H701.2Z"/><path class="cls-5" d="M712.61,798.62v6.69h-1.25v-2.86h-3.5v2.86h-1.25v-6.69h1.25v2.77h3.5v-2.77Z"/><path class="cls-5" d="M716,805.19a3.31,3.31,0,0,1-1.16-.58l.44-1a3.32,3.32,0,0,0,1,.53,3.73,3.73,0,0,0,1.22.21,2.09,2.09,0,0,0,1.12-.24.72.72,0,0,0,.37-.63.63.63,0,0,0-.21-.48,1.44,1.44,0,0,0-.52-.29q-.32-.11-.87-.24a10.62,10.62,0,0,1-1.25-.36,2,2,0,0,1-.82-.57,1.5,1.5,0,0,1-.34-1,1.79,1.79,0,0,1,.3-1,2.07,2.07,0,0,1,.92-.72,3.72,3.72,0,0,1,1.5-.27,5,5,0,0,1,1.22.15,3.44,3.44,0,0,1,1,.44l-.4,1a3.57,3.57,0,0,0-.92-.4,4,4,0,0,0-.94-.13,2,2,0,0,0-1.11.25.76.76,0,0,0-.36.66.59.59,0,0,0,.21.47,1.48,1.48,0,0,0,.53.28c.21.07.5.15.86.24a10.38,10.38,0,0,1,1.24.36,2.06,2.06,0,0,1,.82.57,1.49,1.49,0,0,1,.35,1,1.72,1.72,0,0,1-.31,1,2.05,2.05,0,0,1-.92.71,3.72,3.72,0,0,1-1.5.27A5,5,0,0,1,716,805.19Z"/><path class="cls-5" d="M721.83,806.53a8.85,8.85,0,0,0,.87-2.13,10,10,0,0,0,0-4.69,8.85,8.85,0,0,0-.87-2.13H723a6.62,6.62,0,0,1,.87,2,9.86,9.86,0,0,1,.3,2.48,9.75,9.75,0,0,1-.3,2.46,6.79,6.79,0,0,1-.87,2Z"/><line class="cls-6" x1="210.08" y1="363.42" x2="210.08" y2="718.74"/><line class="cls-6" x1="210.16" y1="716.99" x2="951.25" y2="716.99"/><path class="cls-5" d="M337.08,284.12h-4.85v-1.74h11.69v1.74h-4.84v12.26h-2Z"/><path class="cls-5" d="M356.53,295.61a6.88,6.88,0,0,1-2.7-2.57,7.08,7.08,0,0,1,2.7-9.89,8.41,8.41,0,0,1,7.69,0,6.91,6.91,0,0,1,2.69,2.56,7.43,7.43,0,0,1,0,7.34,6.84,6.84,0,0,1-2.69,2.56,8.41,8.41,0,0,1-7.69,0Zm6.65-1.55a5.12,5.12,0,0,0,2-1.93,5.61,5.61,0,0,0,0-5.5,5.19,5.19,0,0,0-2-1.93,5.64,5.64,0,0,0-2.79-.7,5.78,5.78,0,0,0-2.82.7,5.17,5.17,0,0,0-2,1.93,5.61,5.61,0,0,0,0,5.5,5.1,5.1,0,0,0,2,1.93,5.67,5.67,0,0,0,2.82.7A5.53,5.53,0,0,0,363.18,294.06Z"/><path class="cls-5" d="M388.89,283.68a4.87,4.87,0,0,1,0,7.16,6.6,6.6,0,0,1-4.33,1.3h-3.49v4.24h-2v-14h5.51A6.66,6.66,0,0,1,388.89,283.68Zm-1.46,5.91a3.19,3.19,0,0,0,0-4.66,4.59,4.59,0,0,0-2.93-.81h-3.43v6.28h3.43A4.59,4.59,0,0,0,387.43,289.59Z"/><path class="cls-5" d="M416.68,294.94a6.28,6.28,0,0,1-1.58-4.6v-8h2v7.88q0,4.5,4,4.5a3.83,3.83,0,0,0,3-1.11,4.83,4.83,0,0,0,1-3.39v-7.88h2v8a6.27,6.27,0,0,1-1.57,4.61,6.88,6.88,0,0,1-8.81,0Z"/><path class="cls-5" d="M440.32,296.05a6.19,6.19,0,0,1-2.33-1.27l.75-1.56a6.13,6.13,0,0,0,2.07,1.17,7.63,7.63,0,0,0,2.59.45,4.68,4.68,0,0,0,2.63-.59,1.8,1.8,0,0,0,.87-1.57,1.53,1.53,0,0,0-.48-1.17,3.16,3.16,0,0,0-1.17-.69c-.46-.16-1.12-.34-2-.54a18.82,18.82,0,0,1-2.57-.76,4.13,4.13,0,0,1-1.68-1.17,3.1,3.1,0,0,1-.7-2.13,3.58,3.58,0,0,1,.6-2,4,4,0,0,1,1.81-1.44,7.37,7.37,0,0,1,3-.54,9.77,9.77,0,0,1,2.46.32,6.73,6.73,0,0,1,2.08.92l-.67,1.6a7.66,7.66,0,0,0-1.89-.85,7.36,7.36,0,0,0-2-.29,4.42,4.42,0,0,0-2.58.62,1.91,1.91,0,0,0-.86,1.6,1.5,1.5,0,0,0,.49,1.17,3.23,3.23,0,0,0,1.2.7,16.87,16.87,0,0,0,1.95.53,21.36,21.36,0,0,1,2.56.76,4.42,4.42,0,0,1,1.67,1.16,3.06,3.06,0,0,1,.7,2.1,3.55,3.55,0,0,1-.61,2,4,4,0,0,1-1.84,1.44,7.54,7.54,0,0,1-3,.53A9.69,9.69,0,0,1,440.32,296.05Z"/><path class="cls-5" d="M470.17,294.64v1.74H459.91v-14h10v1.74h-8v4.3H469v1.7h-7.09v4.52Z"/><path class="cls-5" d="M491,296.38l-3.05-4.3c-.38,0-.67,0-.89,0h-3.49v4.26h-2v-14H487a6.63,6.63,0,0,1,4.32,1.3,4.4,4.4,0,0,1,1.58,3.58,4.64,4.64,0,0,1-.81,2.76,4.51,4.51,0,0,1-2.3,1.66l3.35,4.7Zm-1.07-6.78a3.2,3.2,0,0,0,0-4.67,4.59,4.59,0,0,0-2.93-.81h-3.43v6.3H487A4.53,4.53,0,0,0,489.9,289.6Z"/><path class="cls-5" d="M517.79,282.38h6a8.77,8.77,0,0,1,4,.88,6.53,6.53,0,0,1,2.7,2.47,7.42,7.42,0,0,1,0,7.3,6.46,6.46,0,0,1-2.7,2.47,8.64,8.64,0,0,1-4,.88h-6Zm5.84,12.26a6.59,6.59,0,0,0,3-.66,4.74,4.74,0,0,0,2-1.85,5.68,5.68,0,0,0,0-5.5,4.81,4.81,0,0,0-2-1.85,6.59,6.59,0,0,0-3-.66h-3.82v10.52Z"/><path class="cls-5" d="M551.37,292.88h-7.52l-1.55,3.5h-2.09l6.41-14h2l6.42,14h-2.12Zm-.71-1.6-3-6.86-3.05,6.86Z"/><path class="cls-5" d="M567.32,284.12h-4.85v-1.74h11.7v1.74h-4.85v12.26h-2Z"/><path class="cls-5" d="M592.75,292.88h-7.51l-1.56,3.5H581.6l6.4-14h2l6.43,14h-2.12Zm-.71-1.6-3-6.86-3,6.86Z"/><path class="cls-5" d="M622.62,295.61a6.81,6.81,0,0,1-2.68-2.56,7.43,7.43,0,0,1,0-7.34,6.84,6.84,0,0,1,2.69-2.56,7.89,7.89,0,0,1,3.83-.93,8.17,8.17,0,0,1,3,.55,6.26,6.26,0,0,1,2.35,1.63l-1.32,1.26a5.31,5.31,0,0,0-4-1.66,5.83,5.83,0,0,0-2.84.7,5.06,5.06,0,0,0-2,1.93,5.61,5.61,0,0,0,0,5.5,5,5,0,0,0,2,1.93,5.72,5.72,0,0,0,2.84.7,5.29,5.29,0,0,0,4-1.68l1.32,1.26a6.24,6.24,0,0,1-2.36,1.64,8.41,8.41,0,0,1-6.86-.37Z"/><path class="cls-5" d="M645,295.61a6.82,6.82,0,0,1-2.7-2.57,7.32,7.32,0,0,1,0-7.32,6.89,6.89,0,0,1,2.7-2.57,8.41,8.41,0,0,1,7.69,0,6.91,6.91,0,0,1,2.69,2.56,7.43,7.43,0,0,1,0,7.34,6.84,6.84,0,0,1-2.69,2.56,8.41,8.41,0,0,1-7.69,0Zm6.65-1.55a5.12,5.12,0,0,0,2-1.93,5.61,5.61,0,0,0,0-5.5,5.19,5.19,0,0,0-2-1.93,5.67,5.67,0,0,0-2.8-.7,5.77,5.77,0,0,0-2.81.7,5.17,5.17,0,0,0-2,1.93,5.61,5.61,0,0,0,0,5.5,5.1,5.1,0,0,0,2,1.93,5.66,5.66,0,0,0,2.81.7A5.57,5.57,0,0,0,651.68,294.06Z"/><path class="cls-5" d="M679.71,282.38v14h-1.66l-8.48-10.44v10.44h-2v-14h1.65l8.49,10.44V282.38Z"/><path class="cls-5" d="M693.07,296.05a6.19,6.19,0,0,1-2.33-1.27l.74-1.56a6.23,6.23,0,0,0,2.07,1.17,7.73,7.73,0,0,0,2.6.45,4.68,4.68,0,0,0,2.63-.59,1.81,1.81,0,0,0,.86-1.57,1.52,1.52,0,0,0-.47-1.17,3.24,3.24,0,0,0-1.17-.69c-.47-.16-1.12-.34-2-.54a19,19,0,0,1-2.58-.76,4.16,4.16,0,0,1-1.67-1.17,3.06,3.06,0,0,1-.7-2.13,3.58,3.58,0,0,1,.6-2,4.06,4.06,0,0,1,1.8-1.44,7.4,7.4,0,0,1,3-.54,9.79,9.79,0,0,1,2.47.32,6.73,6.73,0,0,1,2.08.92l-.67,1.6a7.56,7.56,0,0,0-1.9-.85,7.24,7.24,0,0,0-2-.29,4.41,4.41,0,0,0-2.57.62,1.89,1.89,0,0,0-.86,1.6,1.53,1.53,0,0,0,.48,1.17,3.35,3.35,0,0,0,1.21.7,15.8,15.8,0,0,0,2,.53,21.94,21.94,0,0,1,2.56.76,4.42,4.42,0,0,1,1.67,1.16,3.06,3.06,0,0,1,.69,2.1,3.54,3.54,0,0,1-.6,2,4.05,4.05,0,0,1-1.84,1.44,7.54,7.54,0,0,1-3,.53A9.69,9.69,0,0,1,693.07,296.05Z"/><path class="cls-5" d="M714.11,294.94a6.24,6.24,0,0,1-1.58-4.6v-8h2v7.88q0,4.5,4,4.5a3.86,3.86,0,0,0,3-1.11,4.87,4.87,0,0,0,1-3.39v-7.88h2v8a6.27,6.27,0,0,1-1.58,4.61,6.87,6.87,0,0,1-8.8,0Z"/><path class="cls-5" d="M749.82,296.38l0-10.2-5.11,8.5h-.93l-5.11-8.44v10.14h-1.94v-14h1.65l5.9,9.84,5.82-9.84h1.66l0,14Z"/><path class="cls-5" d="M773.91,283.68a4.85,4.85,0,0,1,0,7.16,6.57,6.57,0,0,1-4.32,1.3H766.1v4.24h-2v-14h5.51A6.63,6.63,0,0,1,773.91,283.68Zm-1.45,5.91a3.19,3.19,0,0,0,0-4.66,4.59,4.59,0,0,0-2.93-.81H766.1v6.28h3.43A4.59,4.59,0,0,0,772.46,289.59Z"/><path class="cls-5" d="M788.9,284.12h-4.85v-1.74h11.7v1.74H790.9v12.26h-2Z"/><path class="cls-5" d="M806,282.38h2v14h-2Z"/><path class="cls-5" d="M822.9,295.61a6.82,6.82,0,0,1-2.7-2.57,7.32,7.32,0,0,1,0-7.32,6.89,6.89,0,0,1,2.7-2.57,8.41,8.41,0,0,1,7.69,0,6.91,6.91,0,0,1,2.69,2.56,7.43,7.43,0,0,1,0,7.34,6.84,6.84,0,0,1-2.69,2.56,8.41,8.41,0,0,1-7.69,0Zm6.65-1.55a5.12,5.12,0,0,0,2-1.93,5.61,5.61,0,0,0,0-5.5,5.19,5.19,0,0,0-2-1.93,5.67,5.67,0,0,0-2.8-.7,5.77,5.77,0,0,0-2.81.7,5,5,0,0,0-2,1.93,5.61,5.61,0,0,0,0,5.5,5,5,0,0,0,2,1.93,5.66,5.66,0,0,0,2.81.7A5.57,5.57,0,0,0,829.55,294.06Z"/><path class="cls-5" d="M857.58,282.38v14h-1.66l-8.48-10.44v10.44h-2v-14h1.65l8.49,10.44V282.38Z"/><path class="cls-5" d="M517.85,307.68a4.87,4.87,0,0,1,0,7.16,6.62,6.62,0,0,1-4.33,1.3H510v4.24h-2v-14h5.51A6.67,6.67,0,0,1,517.85,307.68Zm-1.46,5.91a3.19,3.19,0,0,0,0-4.66,4.59,4.59,0,0,0-2.93-.81H510v6.28h3.43A4.59,4.59,0,0,0,516.39,313.59Z"/><path class="cls-5" d="M540.73,318.64v1.74H530.47v-14h10v1.74h-8v4.3h7.09v1.7h-7.09v4.52Z"/><path class="cls-5" d="M561.53,320.38l-3-4.3c-.37,0-.67,0-.88,0h-3.5v4.26h-2v-14h5.52a6.63,6.63,0,0,1,4.32,1.3,4.39,4.39,0,0,1,1.57,3.58,4.71,4.71,0,0,1-.8,2.76,4.53,4.53,0,0,1-2.31,1.66l3.36,4.7Zm-1.07-6.78a3.2,3.2,0,0,0,0-4.67,4.59,4.59,0,0,0-2.93-.81H554.1v6.3h3.43A4.53,4.53,0,0,0,560.46,313.6Z"/><path class="cls-5" d="M601.47,320.38l0-10.2-5.11,8.5h-.93l-5.11-8.44v10.14h-1.94v-14H590l5.89,9.84,5.82-9.84h1.66l0,14Z"/><path class="cls-5" d="M618.25,319.61a7,7,0,0,1-3.67-6.23,7,7,0,0,1,3.67-6.23,8.43,8.43,0,0,1,7.7,0,7,7,0,0,1,2.69,2.56,7.5,7.5,0,0,1,0,7.34,6.9,6.9,0,0,1-2.69,2.56,8.43,8.43,0,0,1-7.7,0Zm6.66-1.55a5.12,5.12,0,0,0,2-1.93,5.68,5.68,0,0,0,0-5.5,5.19,5.19,0,0,0-2-1.93,5.67,5.67,0,0,0-2.8-.7,5.78,5.78,0,0,0-2.82.7,5.17,5.17,0,0,0-2,1.93,5.68,5.68,0,0,0,0,5.5,5.1,5.1,0,0,0,2,1.93,5.67,5.67,0,0,0,2.82.7A5.57,5.57,0,0,0,624.91,318.06Z"/><path class="cls-5" d="M652.93,306.38v14h-1.65l-8.49-10.44v10.44h-2v-14h1.66l8.48,10.44V306.38Z"/><path class="cls-5" d="M668.06,308.12h-4.84v-1.74h11.69v1.74h-4.85v12.26h-2Z"/><path class="cls-5" d="M697.35,306.38v14h-2v-6.24h-8.12v6.24h-2v-14h2v6h8.12v-6Z"/><path class="cls-5" d="M239.86,764.12a3.12,3.12,0,0,1-.94,1.18l-1.13-.94a2.14,2.14,0,0,0,1-1.76c0-.92-.55-1.39-1.64-1.39h-4.59v3.16H231.2v-4.8h5.88a3.22,3.22,0,0,1,2.34.76,3,3,0,0,1,.78,2.23A3.53,3.53,0,0,1,239.86,764.12Z"/><path class="cls-5" d="M238,751.69v4.44l2,.88v1.69l-8.87-4v-1.62l8.87-4v1.73Zm-1.29.55-3.88,1.67,3.88,1.66Z"/><path class="cls-5" d="M231.2,740.07h8.87v1.36l-6,4.89h6V748H231.2V746.6l6-4.89h-6Z"/><path class="cls-5" d="M306.4,762.25h2.7V758h1.39v4.28h3.4v1.65H305v-6.48h1.38Z"/><path class="cls-5" d="M312.51,749.17h1.38v6.66H305v-6.48h1.38v4.83h2.31V749.9h1.35v4.28h2.45Z"/><path class="cls-5" d="M310.08,739.88a2.24,2.24,0,0,1,1.4-.43,2,2,0,0,1,1.78.89,4.43,4.43,0,0,1,.63,2.58v4.41H305v-4.15a4.06,4.06,0,0,1,.61-2.42,2,2,0,0,1,1.69-.85,2.26,2.26,0,0,1,1.17.3,2.07,2.07,0,0,1,.79.84A2.39,2.39,0,0,1,310.08,739.88Zm-3.77,5.81h2.45v-2.34a2.43,2.43,0,0,0-.31-1.32,1,1,0,0,0-.91-.46,1,1,0,0,0-.92.46,2.34,2.34,0,0,0-.31,1.32Zm5-4.58c-.86,0-1.28.64-1.28,1.91v2.67h2.56V743C312.6,741.75,312.17,741.11,311.32,741.11Z"/><path class="cls-5" d="M387.71,760.4l-5.88,0,4.87,2.91v.74L381.9,767h5.81v1.57h-8.87V767.2l5.88-3.53-5.88-3.46v-1.35l8.87,0Z"/><path class="cls-5" d="M385.66,750.69v4.44l2,.88v1.69l-8.87-4v-1.62l8.87-4v1.73Zm-1.3.55-3.88,1.67,3.88,1.66Z"/><path class="cls-5" d="M387.71,741.15l-2.6,1.81a3.13,3.13,0,0,1,0,.34v2h2.59V747h-8.87V743.3a4.81,4.81,0,0,1,.38-2,2.88,2.88,0,0,1,1.09-1.31,3.36,3.36,0,0,1,3.41,0,2.9,2.9,0,0,1,1.07,1.41l2.92-2Zm-7,.59a2.52,2.52,0,0,0-.46,1.64v1.93h3.54v-1.93a2.52,2.52,0,0,0-.47-1.64,1.82,1.82,0,0,0-2.61,0Z"/><path class="cls-5" d="M459.47,759.77v4.44l2.06.87v1.7l-8.88-4v-1.63l8.88-4v1.72Zm-1.29.54L454.3,762l3.88,1.66Z"/><path class="cls-5" d="M453,750.37a3,3,0,0,1,1.09-1.31,3.32,3.32,0,0,1,3.37,0,2.91,2.91,0,0,1,1.1,1.31,5,5,0,0,1,.38,2v2h2.56V756h-8.88v-3.65A5,5,0,0,1,453,750.37Zm4.09.45a1.81,1.81,0,0,0-2.62,0,2.56,2.56,0,0,0-.45,1.64v1.92h3.52v-1.92A2.56,2.56,0,0,0,457.12,750.82Z"/><path class="cls-5" d="M461.53,741.15l-2.6,1.81a3.13,3.13,0,0,1,0,.34v2h2.59V747h-8.88V743.3a5,5,0,0,1,.38-2,3,3,0,0,1,1.09-1.31,3.11,3.11,0,0,1,1.69-.45,3,3,0,0,1,1.72.48,2.92,2.92,0,0,1,1.08,1.41l2.92-2Zm-7,.59a2.58,2.58,0,0,0-.45,1.64v1.93h3.53v-1.93a2.52,2.52,0,0,0-.46-1.64,1.84,1.84,0,0,0-2.62,0Z"/><path class="cls-5" d="M535.34,759l-5.88,0,4.87,2.91v.74l-4.79,2.91h5.8v1.57h-8.87v-1.35l5.88-3.53-5.88-3.46v-1.35l8.87,0Z"/><path class="cls-5" d="M533.29,749.27v4.44l2.05.88v1.69l-8.87-4v-1.62l8.87-4v1.73Zm-1.29.55-3.88,1.67,3.88,1.66Z"/><path class="cls-5" d="M532.21,742.24h3.13v1.65h-3.1l-5.77,3.48v-1.76l4.32-2.6-4.32-2.62v-1.62Z"/><path class="cls-5" d="M609,764.82A3,3,0,0,1,608,766l-1.13-.93a2.15,2.15,0,0,0,1-1.77c0-.92-.55-1.38-1.64-1.38h-4.59v3.16h-1.38v-4.81h5.88a3.26,3.26,0,0,1,2.34.76,3,3,0,0,1,.78,2.24A3.56,3.56,0,0,1,609,764.82Z"/><path class="cls-5" d="M608.26,757a4,4,0,0,1-3,1h-5v-1.64h4.94c1.74,0,2.61-.76,2.61-2.26s-.87-2.24-2.61-2.24h-4.94v-1.63h5a4,4,0,0,1,3,1,4.5,4.5,0,0,1,0,5.73Z"/><path class="cls-5" d="M600.29,740.07h8.87v1.36l-6,4.89h6V748h-8.87V746.6l6-4.89h-6Z"/><path class="cls-5" d="M682.77,762.15a3.17,3.17,0,0,1-.94,1.17l-1.13-.94a2.15,2.15,0,0,0,1-1.76c0-.92-.54-1.38-1.63-1.38h-4.59v3.15h-1.38v-4.8H680a3.22,3.22,0,0,1,2.34.76,3,3,0,0,1,.78,2.23A3.72,3.72,0,0,1,682.77,762.15Z"/><path class="cls-5" d="M682.07,754.33a4,4,0,0,1-3,1h-5v-1.65h4.94c1.74,0,2.61-.75,2.61-2.26s-.87-2.24-2.61-2.24h-4.94v-1.62h5a4,4,0,0,1,3,1,4.45,4.45,0,0,1,0,5.72Z"/><path class="cls-5" d="M674.11,745.28v-1.65h7.48V739H683v6.29Z"/><path class="cls-5" d="M754.74,761v4.44l2.06.88V768l-8.87-4v-1.62l8.87-4v1.73Zm-1.29.55-3.88,1.67,3.88,1.66Z"/><path class="cls-5" d="M755.89,756.52a4,4,0,0,1-3,1h-5V755.9h4.94q2.61,0,2.61-2.25t-2.61-2.25h-4.94v-1.62h5a4,4,0,0,1,3,1,4.45,4.45,0,0,1,0,5.72Z"/><path class="cls-5" d="M752.26,741.42v-1.56h3.54a4.91,4.91,0,0,1,.83,1.59,6,6,0,0,1,.3,1.88,5.13,5.13,0,0,1-.59,2.45,4.61,4.61,0,0,1-6.32,1.71,4.35,4.35,0,0,1-1.63-1.72,5,5,0,0,1-.59-2.47,5.27,5.27,0,0,1,.37-2,4,4,0,0,1,1.07-1.54l1,1a3.33,3.33,0,0,0-1,2.45,3.41,3.41,0,0,0,.4,1.67,2.94,2.94,0,0,0,1.1,1.14,3.37,3.37,0,0,0,3.22,0,3,3,0,0,0,1.11-1.14,3.27,3.27,0,0,0,.41-1.66,3.49,3.49,0,0,0-.46-1.82Z"/><path class="cls-5" d="M830.45,762.59a4,4,0,0,1-.77,1.51l-1.28-.57a4.29,4.29,0,0,0,.7-1.33,4.92,4.92,0,0,0,.27-1.59,2.77,2.77,0,0,0-.31-1.48,1,1,0,0,0-.84-.49.83.83,0,0,0-.63.27,2.09,2.09,0,0,0-.38.69c-.1.28-.2.66-.32,1.15a13.72,13.72,0,0,1-.48,1.64,2.6,2.6,0,0,1-.76,1.07,2,2,0,0,1-1.38.45,2.41,2.41,0,0,1-1.34-.39,2.76,2.76,0,0,1-1-1.21,5,5,0,0,1-.35-2,6.68,6.68,0,0,1,.2-1.6,4.37,4.37,0,0,1,.58-1.35l1.28.52a5.14,5.14,0,0,0-.52,1.21,5,5,0,0,0-.17,1.23,2.55,2.55,0,0,0,.33,1.45,1,1,0,0,0,.87.48.8.8,0,0,0,.62-.27,1.9,1.9,0,0,0,.38-.69c.09-.28.2-.66.32-1.14a13,13,0,0,1,.47-1.63,2.83,2.83,0,0,1,.76-1.08,2,2,0,0,1,1.37-.45,2.31,2.31,0,0,1,1.33.4,2.69,2.69,0,0,1,.95,1.21,4.87,4.87,0,0,1,.35,2A6.59,6.59,0,0,1,830.45,762.59Z"/><path class="cls-5" d="M829.24,748.73h1.38v6.65h-8.88v-6.47h1.39v4.83h2.3v-4.29h1.36v4.29h2.45Z"/><path class="cls-5" d="M822.12,741.23a3,3,0,0,1,1.09-1.31,3.32,3.32,0,0,1,3.37,0,2.91,2.91,0,0,1,1.1,1.31,5,5,0,0,1,.38,2v2h2.56v1.65h-8.88v-3.65A5,5,0,0,1,822.12,741.23Zm4.09.45a1.81,1.81,0,0,0-2.62,0,2.56,2.56,0,0,0-.45,1.64v1.92h3.52v-1.92A2.56,2.56,0,0,0,826.21,741.68Z"/><path class="cls-5" d="M904,763.41a4.33,4.33,0,0,1-1.63,1.71,4.73,4.73,0,0,1-4.68,0,4.35,4.35,0,0,1-1.64-1.71,5.36,5.36,0,0,1,0-4.89,4.5,4.5,0,0,1,1.63-1.72,4.56,4.56,0,0,1,2.35-.62,4.5,4.5,0,0,1,2.34.62,4.35,4.35,0,0,1,1.63,1.72,5.36,5.36,0,0,1,0,4.89Zm-1.25-4a2.91,2.91,0,0,0-1.12-1.11,3.2,3.2,0,0,0-1.6-.41,3.24,3.24,0,0,0-1.61.41,2.89,2.89,0,0,0-1.11,1.11,3.4,3.4,0,0,0,0,3.2,2.89,2.89,0,0,0,1.11,1.11,3.24,3.24,0,0,0,1.61.41,3.2,3.2,0,0,0,1.6-.41,2.91,2.91,0,0,0,1.12-1.11,3.4,3.4,0,0,0,0-3.2Z"/><path class="cls-5" d="M904,752.75a4.24,4.24,0,0,1-1.63,1.7,4.5,4.5,0,0,1-2.34.62,4.4,4.4,0,0,1-4-2.33,5.29,5.29,0,0,1-.2-4.42,4.08,4.08,0,0,1,1.1-1.52l1,1.07a3.11,3.11,0,0,0-1,2.37,3.26,3.26,0,0,0,.4,1.63,2.81,2.81,0,0,0,1.11,1.13,3.37,3.37,0,0,0,3.22,0,2.94,2.94,0,0,0,1.11-1.13,3.36,3.36,0,0,0,.4-1.63,3.06,3.06,0,0,0-1.06-2.37l1-1.07a4.11,4.11,0,0,1,1.1,1.53,5.2,5.2,0,0,1,.38,2A4.9,4.9,0,0,1,904,752.75Z"/><path class="cls-5" d="M897,743.52v2.94h-1.4v-7.53H897v2.94h7.47v1.65Z"/></svg>