<svg id="Layer_1" data-name="Layer 1" xmlns="http://www.w3.org/2000/svg" xmlns:xlink="http://www.w3.org/1999/xlink" viewBox="0 0 960 1080"><defs><style>.cls-1{fill:url(#linear-gradient);}.cls-2{fill:#fff;}</style><linearGradient id="linear-gradient" x1="734.23" y1="-1879.05" x2="734.23" y2="-1447.34" gradientTransform="translate(-1188.07 -179.63) rotate(90)" gradientUnits="userSpaceOnUse"><stop offset="0" stop-color="#fbb03b"/><stop offset="1" stop-color="#f7931e"/></linearGradient></defs><title>perAnnum</title><path class="cls-1" d="M266.28,511.43s7.35-31.7,47.81-31.7c27.5,0,47.46,17.51,47.46,42,0,11.91-4.9,21-12.78,27.15,11.21,6.83,18.39,17.86,18.39,33.1,0,27.67-22.59,47.46-53.59,47.46-44.49,0-54.3-35.55-54.3-35.55L289.75,579s1.92,22.07,23.64,22.07c12.09,0,20.84-6.83,20.84-19.09,0-12.44-9.28-21.19-20.84-21.19a19.9,19.9,0,0,0-6.3,1V540.33h7.18c8.75,0,17.34-7.71,17.34-18.22,0-9.28-8.59-15.94-17.87-15.94-18.21,0-21.54,17.87-21.54,17.87Z"/><path class="cls-1" d="M500.79,492,424.43,626.84H385.54L452.1,511.25H389.92v-28.9H500.79Z"/><path class="cls-1" d="M505.86,509,547,482.35h15.59V626.84H529.68V526.14l-23.82,15.41Z"/><path class="cls-1" d="M691,567.47v28.9H674.17v30.47H643.34V596.37h-71.1v-9.81l69.35-104.21h32.58v85.12Zm-48-41.16-25.74,41.16h26.09V526.31Z"/><path class="cls-2" d="M268.7,419.14h29v8.25h-9.8v33h-9.4v-33h-9.8Z"/><path class="cls-2" d="M321,418.39c11.46,0,20.76,9.3,20.76,21.35s-8.91,21.4-20.76,21.4c-12.2,0-20.8-9.35-20.8-21.4A21,21,0,0,1,321,418.39ZM321,452c7.51,0,10.6-6.15,10.6-12.3s-3.3-12.3-10.6-12.3-10.65,6.15-10.65,12.3S313.25,452,321,452Z"/><path class="cls-2" d="M344.15,419.14h29v8.25h-9.8v33H354v-33h-9.8Z"/><path class="cls-2" d="M414.25,460.39h-10.1l-3-8.25H385.4l-3,8.25h-10.1l16.65-41.25h8.7Zm-20.95-28.5h-.1l-4.6,12h9.3Z"/><path class="cls-2" d="M427.75,452.14H442v8.25h-23.6V419.14h9.4Z"/><path class="cls-2" d="M477.2,419.14c11.3,0,20.8,8.6,20.8,20.6s-9.45,20.65-20.8,20.65H465.25V419.14ZM476.1,452c6.95,0,11.7-5.3,11.75-12.2s-4.75-12.25-11.75-12.25h-1.45V452Z"/><path class="cls-2" d="M528.25,427.39h-14.2v8.2h13.6v8.25h-13.6v8.3h14.2v8.25h-23.6V419.14h23.6Z"/><path class="cls-2" d="M531.75,419.14h10.6l10.4,27.1,10.4-27.1h10.6l-17.3,41.25h-7.4Z"/><path class="cls-2" d="M587.25,460.39h-9.4V419.14h9.4Z"/><path class="cls-2" d="M624.2,449.34l4,8s-4.6,3.8-13.55,3.8c-11.65,0-22.35-9.5-22.35-21.3s10.65-21.45,22.35-21.45c9,0,13.55,3.8,13.55,3.8l-4,8a14.32,14.32,0,0,0-8.1-2.55c-9.45,0-13.6,6.6-13.6,12.1s4.15,12.15,13.6,12.15A14.32,14.32,0,0,0,624.2,449.34Z"/><path class="cls-2" d="M657.9,427.39H643.7v8.2h13.6v8.25H643.7v8.3h14.2v8.25H634.3V419.14h23.6Z"/><path class="cls-2" d="M693.8,422.29l-3.8,7.5s-4.1-2.85-8.35-2.85c-3.2,0-4.9,1.45-4.9,3.7s3.9,3.95,8.6,5.95,9.65,5.85,9.65,11.25c0,9.85-7.5,13.3-15.55,13.3a24.1,24.1,0,0,1-15.5-5.45l4.7-7.9s5.5,4.65,10.1,4.65c2,0,6-.2,6-4.05,0-3-4.4-4.35-9.3-6.8s-7.85-6.3-7.85-10.6c0-7.7,6.8-12.6,13.45-12.6A23.45,23.45,0,0,1,693.8,422.29Z"/><path class="cls-2" d="M292.18,681.34l4,8s-4.6,3.8-13.55,3.8c-11.65,0-22.35-9.5-22.35-21.3s10.65-21.45,22.35-21.45c8.95,0,13.55,3.8,13.55,3.8l-4,8a14.32,14.32,0,0,0-8.1-2.55c-9.45,0-13.6,6.6-13.6,12.1s4.15,12.15,13.6,12.15A14.32,14.32,0,0,0,292.18,681.34Z"/><path class="cls-2" d="M333.73,650.39c11.45,0,20.75,9.3,20.75,21.35s-8.9,21.4-20.75,21.4c-12.2,0-20.8-9.35-20.8-21.4A21,21,0,0,1,333.73,650.39Zm0,33.65c7.5,0,10.6-6.15,10.6-12.3s-3.3-12.3-10.6-12.3-10.65,6.15-10.65,12.3S326,684,333.73,684Z"/><path class="cls-2" d="M383,692.39h-9.4V651.14H383l16.4,25.6h.1v-25.6h9.4v41.25h-9.4l-16.4-25.6H383Z"/><path class="cls-2" d="M439.33,692.39h-9.4V651.14h9.4l16.4,25.6h.1v-25.6h9.4v41.25h-9.4l-16.4-25.6h-.1Z"/><path class="cls-2" d="M509.83,659.39h-14.2v8.2h13.6v8.25h-13.6v8.3h14.2v8.25h-23.6V651.14h23.6Z"/><path class="cls-2" d="M560.28,681.34l4,8s-4.6,3.8-13.55,3.8c-11.65,0-22.35-9.5-22.35-21.3s10.65-21.45,22.35-21.45c8.95,0,13.55,3.8,13.55,3.8l-4,8a14.32,14.32,0,0,0-8.1-2.55c-9.45,0-13.6,6.6-13.6,12.1s4.15,12.15,13.6,12.15A14.32,14.32,0,0,0,560.28,681.34Z"/><path class="cls-2" d="M580.28,651.14h29v8.25h-9.8v33h-9.4v-33h-9.8Z"/><path class="cls-2" d="M651.28,659.39h-14.2v8.2h13.6v8.25h-13.6v8.3h14.2v8.25H627.67V651.14h23.61Z"/><path class="cls-2" d="M683.63,651.14c11.3,0,20.8,8.6,20.8,20.6s-9.45,20.65-20.8,20.65h-12V651.14ZM682.52,684c7,0,11.71-5.3,11.76-12.2s-4.75-12.25-11.76-12.25h-1.45V684Z"/><path class="cls-2" d="M616.92,716.66h1.28v17.5h-1.28Z"/><path class="cls-2" d="M638.75,716.66v17.5h-1.06l-12-15.2v15.2h-1.29v-17.5h1.09l12,15.2v-15.2Z"/><path class="cls-2" d="M661.5,733v1.15H649.36v-.9l7.47-7.35a10.51,10.51,0,0,0,2-2.49,4.81,4.81,0,0,0,.51-2.14,3.2,3.2,0,0,0-1.15-2.62,5,5,0,0,0-3.32-.95,7.65,7.65,0,0,0-2.91.5,5.56,5.56,0,0,0-2.16,1.52l-.91-.8a6.64,6.64,0,0,1,2.56-1.77,9.32,9.32,0,0,1,3.52-.63,6.42,6.42,0,0,1,4.15,1.25,4.14,4.14,0,0,1,1.54,3.38,5.75,5.75,0,0,1-.61,2.57,11.13,11.13,0,0,1-2.27,2.85L651.25,733Z"/><path class="cls-2" d="M667.15,733.19a7,7,0,0,1-2.45-3.08,13.13,13.13,0,0,1,0-9.4,6.94,6.94,0,0,1,2.45-3.09,6.47,6.47,0,0,1,7.19,0,7,7,0,0,1,2.45,3.09,13.13,13.13,0,0,1,0,9.4,7,7,0,0,1-2.45,3.08,6.47,6.47,0,0,1-7.19,0Zm6.54-1a5.86,5.86,0,0,0,2-2.65,12.4,12.4,0,0,0,0-8.27,5.86,5.86,0,0,0-2-2.65,5.22,5.22,0,0,0-5.89,0,5.86,5.86,0,0,0-2,2.65,12.4,12.4,0,0,0,0,8.27,5.86,5.86,0,0,0,2,2.65,5.17,5.17,0,0,0,5.89,0Z"/><path class="cls-2" d="M684.86,716.66v17.5h-1.29V717.81h-4.32v-1.15Z"/><path class="cls-2" d="M699.92,718.84a10.21,10.21,0,0,1,1.83,6.47,11.34,11.34,0,0,1-1,4.91,6.89,6.89,0,0,1-2.74,3,8.15,8.15,0,0,1-4.14,1,7.82,7.82,0,0,1-4-.9l.53-1a6.53,6.53,0,0,0,3.49.8,6.13,6.13,0,0,0,4.81-2,8.24,8.24,0,0,0,1.75-5.68,13.46,13.46,0,0,0-.15-2.1,4.68,4.68,0,0,1-2.06,2.65,6.66,6.66,0,0,1-3.57,1,7.23,7.23,0,0,1-3.09-.64,4.86,4.86,0,0,1-2.09-1.83,5.16,5.16,0,0,1-.73-2.73,5.06,5.06,0,0,1,.76-2.78,4.92,4.92,0,0,1,2.1-1.85,6.87,6.87,0,0,1,3-.65A6.33,6.33,0,0,1,699.92,718.84Zm-2.53,6.52a4.37,4.37,0,0,0,1.75-1.5,3.86,3.86,0,0,0,.61-2.13,3.67,3.67,0,0,0-.59-2,4.17,4.17,0,0,0-1.73-1.52,5.87,5.87,0,0,0-2.72-.58,4.87,4.87,0,0,0-3.36,1.14,4.15,4.15,0,0,0,0,6,5.16,5.16,0,0,0,3.51,1.13A5.77,5.77,0,0,0,697.39,725.36Z"/></svg>