<svg id="Layer_1" data-name="Layer 1" xmlns="http://www.w3.org/2000/svg" xmlns:xlink="http://www.w3.org/1999/xlink" viewBox="0 0 960 1080"><defs><style>.cls-1{fill:url(#linear-gradient);}.cls-2{fill:#fff;}</style><linearGradient id="linear-gradient" x1="202.26" y1="398.12" x2="202.26" y2="764.54" gradientUnits="userSpaceOnUse"><stop offset="0" stop-color="#fbb03b"/><stop offset="1" stop-color="#f7931e"/></linearGradient></defs><title>perAnnum</title><path class="cls-1" d="M206.61,732a12.88,12.88,0,0,1,1.21,6c0,11.41-9.8,26.56-29.19,26.56-19.69,0-28.28-15.86-28.28-30.91,0-18.68,12.32-33.22,28.28-33.22,14.65,0,21.41,4.44,33.23,13.13l23.33,19.59v23.43Zm-40.6.71c0,7.37,5.35,12.82,12.62,12.82a12.73,12.73,0,1,0,0-25.45A12.2,12.2,0,0,0,166,732.73Z"/><path class="cls-1" d="M157.42,628l77.77,44v22.42l-66.66-38.38v35.85H151.87V628Z"/><path class="cls-1" d="M225.19,603.35c12.22,0,22.12,8.68,29,17l-4.24,5.15a29.35,29.35,0,0,0-14.14-7.67,10.93,10.93,0,0,1-10.61,8.69,11.57,11.57,0,1,1,0-23.13Z"/><path class="cls-1" d="M201,533.35h16.67v9.7h17.57v17.78H217.62v41H212l-60.09-40V543.05H201ZM177.22,561,201,575.88v-15H177.22Z"/><path class="cls-1" d="M157.42,462.05l77.77,44v22.42l-66.66-38.38V526H151.87V462.05Z"/><path class="cls-1" d="M182.27,446.8l-7.68,15.86s-24.24-8.08-24.24-30.71c0-28.58,18.79-32.32,29.29-32.32,19.49,0,38.88,29.39,38.88,29.39v-30.9h16.67v64.94h-4.75s-35.45-42.92-50.8-42.92c-3,0-13.23.7-13.23,11.81C166.41,441,182.27,446.8,182.27,446.8Z"/><path class="cls-2" d="M287.29,411h46.4v13.2H318V477H303V424.22H287.29Z"/><path class="cls-2" d="M404.89,409.82c18.32,0,33.2,14.88,33.2,34.16s-14.24,34.25-33.2,34.25c-19.52,0-33.28-15-33.28-34.25S386.73,409.82,404.89,409.82Zm0,53.85c12,0,17-9.85,17-19.69s-5.28-19.68-17-19.68-17,9.84-17,19.68S392.57,463.67,404.89,463.67Z"/><path class="cls-2" d="M476,411h46.4v13.2H506.73V477h-15V424.22H476Z"/><path class="cls-2" d="M622.18,477H606l-4.88-13.2H576L571.13,477H555l26.64-66h13.93Zm-33.53-45.61h-.16l-7.36,19.21H596Z"/><path class="cls-2" d="M677.77,463.83h22.72V477H662.73V411h15Z"/><path class="cls-2" d="M331.53,536,321,573H304.25l-18.8-66h16.72l11.28,45.28h.4l12-45.28h11.36l12,45.28h.4L360.9,507h16.63l-18.8,66H342.09Z"/><path class="cls-2" d="M420.89,520.22H398.17v13.12h21.76v13.2H398.17v13.29h22.72V573H383.13V507h37.76Z"/><path class="cls-2" d="M452,507c11.36,0,20.32,4.24,20.32,16.8,0,6.08-2.64,11.28-8.24,14.16,8.24,1.44,14.08,6,14.08,16.65,0,10.88-7.92,18.4-21.6,18.4h-25V507Zm-4.24,25.84c6.48,0,10-2,10-7.52,0-4.72-3.44-6.72-10-6.72h-1.2v14.24Zm3.52,28.57c7.12,0,11-2.16,11-7.37,0-6.08-3.92-8.24-11-8.24h-4.72v15.61Z"/><path class="cls-2" d="M530,512.06l-6.08,12s-6.56-4.56-13.36-4.56c-5.12,0-7.84,2.32-7.84,5.92s6.24,6.32,13.76,9.52c7.36,3.12,15.44,9.36,15.44,18,0,15.76-12,21.28-24.88,21.28a38.56,38.56,0,0,1-24.8-8.72l7.52-12.64s8.8,7.43,16.16,7.43c3.28,0,9.52-.32,9.52-6.48,0-4.79-7-7-14.88-10.87S488,532.86,488,526c0-12.32,10.88-20.16,21.52-20.16A37.52,37.52,0,0,1,530,512.06Z"/><path class="cls-2" d="M556,573H541V507h15Z"/><path class="cls-2" d="M559.61,507H606v13.2H590.33V573h-15V520.22H559.61Z"/><path class="cls-2" d="M651.21,520.22H628.49v13.12h21.76v13.2H628.49v13.29h22.72V573H613.45V507h37.76Z"/><path class="cls-2" d="M706.65,512.06l-6.08,12s-6.56-4.56-13.36-4.56c-5.12,0-7.84,2.32-7.84,5.92s6.24,6.32,13.76,9.52c7.36,3.12,15.44,9.36,15.44,18,0,15.76-12,21.28-24.88,21.28a38.56,38.56,0,0,1-24.8-8.72l7.52-12.64s8.8,7.43,16.16,7.43c3.28,0,9.52-.32,9.52-6.48,0-4.79-7-7-14.88-10.87s-12.56-10.09-12.56-17c0-12.32,10.88-20.16,21.52-20.16A37.52,37.52,0,0,1,706.65,512.06Z"/><path class="cls-2" d="M284.41,603h17L318,646.38,334.65,603h17l-27.68,66H312.09Z"/><path class="cls-2" d="M387.21,669h-15V603h15Z"/><path class="cls-2" d="M458,608.06l-6.09,12s-6.56-4.56-13.36-4.56c-5.12,0-7.84,2.32-7.84,5.92s6.24,6.32,13.76,9.52c7.36,3.12,15.45,9.36,15.45,18,0,15.76-12,21.27-24.89,21.27a38.56,38.56,0,0,1-24.8-8.72l7.52-12.63s8.8,7.43,16.16,7.43c3.28,0,9.52-.32,9.52-6.48,0-4.8-7-7-14.88-10.88S416,628.86,416,622c0-12.32,10.88-20.16,21.52-20.16A37.58,37.58,0,0,1,458,608.06Z"/><path class="cls-2" d="M500,669H485V603h15Z"/><path class="cls-2" d="M519.61,603H566v13.2H550.33V669h-15V616.22H519.61Z"/><path class="cls-2" d="M627.21,616.22H604.49v13.12h21.76v13.2H604.49v13.28h22.72V669H589.45V603h37.76Z"/><path class="cls-2" d="M673,603c18.08,0,33.28,13.76,33.28,33S691.13,669,673,669H653.85V603Zm-1.76,52.56c11.12,0,18.72-8.48,18.8-19.52s-7.6-19.6-18.8-19.6h-2.32v39.12Z"/><path class="cls-2" d="M314.73,714.39H301.47l-2.86,6.36H296L306.88,697h2.48l10.88,23.8h-2.65Zm-.92-2-5.71-12.78-5.71,12.78Z"/><path class="cls-2" d="M334.33,720.29a9.12,9.12,0,0,1-3.11-1.58l1.09-1.91a9.11,9.11,0,0,0,2.82,1.45,11.31,11.31,0,0,0,3.54.56,6.74,6.74,0,0,0,3.62-.77,2.41,2.41,0,0,0,1.17-2.15,1.91,1.91,0,0,0-.65-1.55,4.14,4.14,0,0,0-1.63-.85,23.2,23.2,0,0,0-2.62-.56,30.67,30.67,0,0,1-3.5-.83,5.27,5.27,0,0,1-2.26-1.45,4,4,0,0,1-.93-2.82,4.4,4.4,0,0,1,1.87-3.67,8.39,8.39,0,0,1,5.2-1.43,13.35,13.35,0,0,1,3.47.46,9.55,9.55,0,0,1,2.85,1.2l-1.05,1.94a9,9,0,0,0-5.27-1.53,6.1,6.1,0,0,0-3.49.82,2.5,2.5,0,0,0-1.17,2.14,2.12,2.12,0,0,0,.66,1.63,4.13,4.13,0,0,0,1.65.9,26.57,26.57,0,0,0,2.72.6,29,29,0,0,1,3.44.82A5,5,0,0,1,345,713.1a3.84,3.84,0,0,1,.92,2.72,4.34,4.34,0,0,1-2,3.72,9.27,9.27,0,0,1-5.42,1.38A13.77,13.77,0,0,1,334.33,720.29Z"/><path class="cls-2" d="M382.29,719.75A8.72,8.72,0,0,1,379,716.5a9.91,9.91,0,0,1,0-9.38,8.55,8.55,0,0,1,3.27-3.24,10,10,0,0,1,9.31,0,8.3,8.3,0,0,1,3.25,3.24,10,10,0,0,1,0,9.38,8.46,8.46,0,0,1-3.25,3.25,9.85,9.85,0,0,1-9.31,0Zm8.07-1.84a6.11,6.11,0,0,0,2.37-2.46,8.22,8.22,0,0,0,0-7.28,6.07,6.07,0,0,0-2.37-2.47,7.21,7.21,0,0,0-6.83,0,6.16,6.16,0,0,0-2.38,2.47,8,8,0,0,0,0,7.28,6.2,6.2,0,0,0,2.38,2.46,7.14,7.14,0,0,0,6.83,0Z"/><path class="cls-2" d="M414.71,698.24a3.58,3.58,0,0,0-.8,2.52v2.11h5.51v2H414v15.85h-2.42V704.9h-3.19v-2h3.19v-2.22a5.26,5.26,0,0,1,1.41-3.87,5.39,5.39,0,0,1,4-1.43,6.81,6.81,0,0,1,2,.29,4.41,4.41,0,0,1,1.6.83l-.82,1.81a4,4,0,0,0-2.65-.89A3.07,3.07,0,0,0,414.71,698.24Z"/><path class="cls-2" d="M457,697v23.8h-2.45V699.13h-5.61V697Z"/><path class="cls-2" d="M475.09,720.29a9.12,9.12,0,0,1-3.11-1.58l1.09-1.91a9.11,9.11,0,0,0,2.82,1.45,11.31,11.31,0,0,0,3.54.56,6.74,6.74,0,0,0,3.62-.77,2.41,2.41,0,0,0,1.17-2.15,1.94,1.94,0,0,0-.65-1.55,4.14,4.14,0,0,0-1.63-.85,23.2,23.2,0,0,0-2.62-.56,30.67,30.67,0,0,1-3.5-.83,5.22,5.22,0,0,1-2.26-1.45,4,4,0,0,1-.93-2.82,4.4,4.4,0,0,1,1.87-3.67,8.39,8.39,0,0,1,5.2-1.43,13.4,13.4,0,0,1,3.47.46,9.66,9.66,0,0,1,2.85,1.2l-1,1.94a9,9,0,0,0-5.27-1.53,6.1,6.1,0,0,0-3.49.82,2.5,2.5,0,0,0-1.17,2.14,2.12,2.12,0,0,0,.66,1.63,4.06,4.06,0,0,0,1.65.9,26.57,26.57,0,0,0,2.72.6,29.5,29.5,0,0,1,3.44.82,5,5,0,0,1,2.21,1.39,3.84,3.84,0,0,1,.91,2.72,4.33,4.33,0,0,1-1.95,3.72,9.27,9.27,0,0,1-5.42,1.38A13.77,13.77,0,0,1,475.09,720.29Z"/><path class="cls-2" d="M510.71,719.66a4.69,4.69,0,0,1-1.69.94,6.87,6.87,0,0,1-2.09.32,4.74,4.74,0,0,1-5.23-5.2V704.9h-3.2v-2h3.2V699h2.41v3.91h5.44v2h-5.44v10.68a3.37,3.37,0,0,0,.8,2.43,3,3,0,0,0,2.3.83,4.43,4.43,0,0,0,1.44-.23,3.76,3.76,0,0,0,1.21-.68Z"/><path class="cls-2" d="M303.8,760.17a11.55,11.55,0,0,1-4.49-4.33,12.7,12.7,0,0,1,0-12.38,11.55,11.55,0,0,1,4.49-4.33,13.71,13.71,0,0,1,12.78,0,11.58,11.58,0,0,1,4.48,4.33,12.63,12.63,0,0,1,0,12.41,11.54,11.54,0,0,1-4.48,4.34,13,13,0,0,1-6.37,1.56A13.12,13.12,0,0,1,303.8,760.17Zm11.51-1.94a9.18,9.18,0,0,0,3.57-3.53,10.53,10.53,0,0,0,0-10.1,9.2,9.2,0,0,0-3.57-3.54,10.92,10.92,0,0,0-10.22,0,9.28,9.28,0,0,0-3.6,3.54,10.39,10.39,0,0,0,0,10.1,9.25,9.25,0,0,0,3.6,3.53,10.37,10.37,0,0,0,5.12,1.28A10.27,10.27,0,0,0,315.31,758.23Z"/><path class="cls-2" d="M340.69,760.56a8.33,8.33,0,0,1-3.28-3.25,9.88,9.88,0,0,1,0-9.4,8.48,8.48,0,0,1,3.28-3.23,9.61,9.61,0,0,1,4.74-1.15,9.18,9.18,0,0,1,4.13.9,6.9,6.9,0,0,1,2.88,2.63l-1.8,1.23a5.58,5.58,0,0,0-2.25-2,6.69,6.69,0,0,0-3-.66,7.07,7.07,0,0,0-3.48.86,6.12,6.12,0,0,0-2.42,2.47,8.15,8.15,0,0,0,0,7.29,6.2,6.2,0,0,0,2.42,2.45,7,7,0,0,0,3.48.87,6.82,6.82,0,0,0,3-.65,5.53,5.53,0,0,0,2.25-2l1.8,1.22a6.88,6.88,0,0,1-2.89,2.64,9.26,9.26,0,0,1-4.12.9A9.62,9.62,0,0,1,340.69,760.56Z"/><path class="cls-2" d="M377,760.46a4.41,4.41,0,0,1-1.68.93,6.63,6.63,0,0,1-2.09.33,4.72,4.72,0,0,1-5.23-5.2V745.71h-3.2v-2.05H368v-3.91h2.41v3.91h5.44v2.05h-5.44v10.67a3.33,3.33,0,0,0,.8,2.43,3,3,0,0,0,2.29.83,4.73,4.73,0,0,0,1.45-.23,3.71,3.71,0,0,0,1.2-.68Z"/><path class="cls-2" d="M393.58,760.54a8.48,8.48,0,0,1-3.27-3.24,9.86,9.86,0,0,1,0-9.39,8.46,8.46,0,0,1,3.27-3.23,10,10,0,0,1,9.31,0,8.41,8.41,0,0,1,3.25,3.23,10,10,0,0,1,0,9.39,8.43,8.43,0,0,1-3.25,3.24,9.77,9.77,0,0,1-9.31,0Zm8.07-1.83a6,6,0,0,0,2.36-2.47,8.2,8.2,0,0,0,0-7.27,6,6,0,0,0-2.36-2.47,7.21,7.21,0,0,0-6.83,0,6.16,6.16,0,0,0-2.38,2.47,8,8,0,0,0,0,7.27,6.16,6.16,0,0,0,2.38,2.47,7.14,7.14,0,0,0,6.83,0Z"/><path class="cls-2" d="M436.21,744.67a8.16,8.16,0,0,1,3.2,3.21,10.28,10.28,0,0,1,0,9.45,8.28,8.28,0,0,1-3.2,3.23,9.08,9.08,0,0,1-4.55,1.16,8.47,8.47,0,0,1-4-1,7.47,7.47,0,0,1-2.88-2.76v3.54h-2.31V736.32h2.42v10.74a7.39,7.39,0,0,1,2.87-2.63,8.46,8.46,0,0,1,3.93-.9A9.18,9.18,0,0,1,436.21,744.67Zm-1.32,14a6.12,6.12,0,0,0,2.39-2.47,8,8,0,0,0,0-7.27,6.12,6.12,0,0,0-2.39-2.47,7.19,7.19,0,0,0-6.82,0,6.16,6.16,0,0,0-2.38,2.47,8,8,0,0,0,0,7.27,6.16,6.16,0,0,0,2.38,2.47,7.12,7.12,0,0,0,6.82,0Z"/><path class="cls-2" d="M471.27,753.35h-15a6.39,6.39,0,0,0,2.14,4.51,7.12,7.12,0,0,0,4.89,1.72,7.66,7.66,0,0,0,3.06-.6,6.63,6.63,0,0,0,2.42-1.75l1.36,1.56a7.67,7.67,0,0,1-3,2.18,10,10,0,0,1-3.92.75,9.82,9.82,0,0,1-4.88-1.18,8.41,8.41,0,0,1-3.32-3.24,9.29,9.29,0,0,1-1.19-4.69,9.62,9.62,0,0,1,1.14-4.7,8.31,8.31,0,0,1,3.13-3.23,8.73,8.73,0,0,1,4.47-1.15,8.63,8.63,0,0,1,4.45,1.15,8.28,8.28,0,0,1,3.1,3.22,9.65,9.65,0,0,1,1.12,4.71Zm-13-6.1a6.48,6.48,0,0,0-2,4.3H469a6.49,6.49,0,0,0-2-4.3,6.57,6.57,0,0,0-8.71,0Z"/><path class="cls-2" d="M491.27,744.45a8.54,8.54,0,0,1,4.17-.92v2.35l-.58,0a5.74,5.74,0,0,0-4.42,1.73,7,7,0,0,0-1.6,4.87v9.11h-2.41V743.66h2.31v3.51A5.82,5.82,0,0,1,491.27,744.45Z"/><path class="cls-2" d="M544,759.37v2.18H527.33v-1.74l9.89-9.68a13.19,13.19,0,0,0,2.54-3.18,6.11,6.11,0,0,0,.66-2.71A4,4,0,0,0,539,741a6.41,6.41,0,0,0-4.13-1.17,8.15,8.15,0,0,0-6.49,2.65L526.62,741a9,9,0,0,1,3.55-2.52,12.75,12.75,0,0,1,4.88-.89,9,9,0,0,1,5.76,1.72,5.74,5.74,0,0,1,2.13,4.71,8.16,8.16,0,0,1-.82,3.54,15.06,15.06,0,0,1-3.09,3.91l-8.1,8Z"/><path class="cls-2" d="M561.72,760.29a9.48,9.48,0,0,1-3.36-4.2,17.74,17.74,0,0,1,0-12.88,9.48,9.48,0,0,1,3.36-4.2,9,9,0,0,1,9.83,0,9.59,9.59,0,0,1,3.38,4.2,17.61,17.61,0,0,1,0,12.88,9.59,9.59,0,0,1-3.38,4.2,9,9,0,0,1-9.83,0Zm8.57-1.94a7.49,7.49,0,0,0,2.46-3.36,16.46,16.46,0,0,0,0-10.68,7.44,7.44,0,0,0-2.46-3.36,6.34,6.34,0,0,0-7.31,0,7.45,7.45,0,0,0-2.47,3.36,16.64,16.64,0,0,0,0,10.68,7.51,7.51,0,0,0,2.47,3.36,6.34,6.34,0,0,0,7.31,0Z"/><path class="cls-2" d="M596.38,737.75v23.8h-2.44V739.92h-5.61v-2.17Z"/><path class="cls-2" d="M626.92,740.66q2.51,3.11,2.51,8.79a15.06,15.06,0,0,1-1.36,6.73,9.52,9.52,0,0,1-3.81,4.16,11.22,11.22,0,0,1-5.71,1.41,10.7,10.7,0,0,1-5.64-1.29l1-2a8.33,8.33,0,0,0,4.63,1.12,7.89,7.89,0,0,0,6.19-2.5q2.24-2.49,2.24-7.26c0-.59,0-1.23-.1-1.94a6.37,6.37,0,0,1-2.82,3,9,9,0,0,1-4.46,1.07,9.38,9.38,0,0,1-4.16-.88,6.72,6.72,0,0,1-2.84-2.5,6.87,6.87,0,0,1-1-3.76A7,7,0,0,1,612.6,741a6.91,6.91,0,0,1,2.91-2.56,9.38,9.38,0,0,1,4.16-.91A8.78,8.78,0,0,1,626.92,740.66Zm-3.79,8.58a5.38,5.38,0,0,0,2.15-1.87,4.74,4.74,0,0,0,.79-2.65,4.61,4.61,0,0,0-.74-2.52,5.22,5.22,0,0,0-2.15-1.87,7.64,7.64,0,0,0-3.4-.71,6.13,6.13,0,0,0-4.2,1.41,5.15,5.15,0,0,0,0,7.5,6.44,6.44,0,0,0,4.37,1.39A7.15,7.15,0,0,0,623.13,749.24Z"/></svg>