<svg id="Layer_1" data-name="Layer 1" xmlns="http://www.w3.org/2000/svg" viewBox="0 0 960 1080"><defs><style>.cls-1,.cls-3,.cls-4,.cls-5,.cls-6{fill:none;stroke-miterlimit:10;}.cls-1{stroke:#fff;}.cls-1,.cls-4{stroke-width:2px;}.cls-2{fill:#fbb315;}.cls-3,.cls-4,.cls-5,.cls-6{stroke:#fbb315;}.cls-3{stroke-width:5px;}.cls-5{stroke-width:0.5px;}.cls-7{fill:#fff;}</style></defs><title>perAnnum</title><line class="cls-1" x1="335.97" y1="353.72" x2="664.93" y2="353.72"/><line class="cls-1" x1="335.97" y1="769.65" x2="382.11" y2="769.65"/><line class="cls-1" x1="335.97" y1="559.54" x2="438.68" y2="559.54"/><ellipse class="cls-2" cx="379.19" cy="769.65" rx="8.31" ry="8.23"/><ellipse class="cls-2" cx="438.68" cy="559.75" rx="8.31" ry="8.23"/><ellipse class="cls-2" cx="664.93" cy="353.72" rx="8.31" ry="8.23"/><ellipse class="cls-2" cx="335.97" cy="769.94" rx="8.31" ry="8.23"/><ellipse class="cls-2" cx="335.97" cy="559.54" rx="8.31" ry="8.23"/><ellipse class="cls-2" cx="335.97" cy="353.72" rx="8.31" ry="8.23"/><path class="cls-3" d="M138,261h63.48a9.21,9.21,0,0,1,9.21,9.21V411.51a9.21,9.21,0,0,1-9.21,9.21H137.87a9.21,9.21,0,0,1-9.21-9.21V270.27A9.31,9.31,0,0,1,138,261Z"/><rect class="cls-4" x="129" y="277.55" width="80.91" height="126"/><ellipse class="cls-5" cx="169.46" cy="412.32" rx="4.43" ry="4.39"/><line class="cls-6" x1="261.79" y1="608.75" x2="77.13" y2="608.75"/><path class="cls-3" d="M77.13,608.75H61.19a.85.85,0,0,0-.84.84v10.77a.85.85,0,0,0,.84.85H277.72a.85.85,0,0,0,.85-.85V609.59a.85.85,0,0,0-.85-.84H261.79"/><rect class="cls-4" x="81.6" y="496.45" width="175.7" height="100.26"/><rect class="cls-3" x="97.74" y="676.89" width="137.06" height="159.76" rx="11.16"/><rect class="cls-4" x="102.76" y="693.48" width="126.35" height="126"/><ellipse class="cls-5" cx="164.78" cy="828.23" rx="4.63" ry="4.58"/><path class="cls-3" d="M260.94,608.75H78"/><path class="cls-3" d="M78,608.75a.85.85,0,0,1-.84-.85V486.7a.85.85,0,0,1,.84-.85h183a.85.85,0,0,1,.85.85V607.9a.85.85,0,0,1-.85.85"/><path class="cls-7" d="M715,327.61s3.84-16.4,25-16.4c14.36,0,24.79,9.06,24.79,21.74a17,17,0,0,1-6.68,14,19.09,19.09,0,0,1,9.61,17.12c0,14.31-11.8,24.55-28,24.55-23.24,0-28.36-18.39-28.36-18.39l15.91-7.7s1,11.41,12.35,11.41c6.32,0,10.89-3.53,10.89-9.87a10.81,10.81,0,0,0-14.18-10.42V342.55h3.75a9.37,9.37,0,0,0,9.06-9.42c0-4.8-4.49-8.24-9.33-8.24-9.52,0-11.26,9.24-11.26,9.24Z"/><path class="cls-7" d="M785.9,365.92c1.37,4.62,5.4,8.52,13.27,8.52A10.47,10.47,0,0,0,810,363.57c0-9.88-9.79-13.14-19.58-13.14a32.27,32.27,0,0,0-12.89,2.36l6.31-40.22h38.51v14.95H798.53l-1.65,10.41c.64,0,1.37-.09,2.1-.09,14.27.09,28.18,5.53,28.18,26.27,0,14.31-11.8,24.55-28,24.55s-24.06-8.61-26.9-16.22Z"/><path class="cls-7" d="M860.09,338.21a11.72,11.72,0,0,1,5.4-1.09c10.33,0,24,8.78,24,26.17,0,17.67-14.36,25.37-28,25.37-16.92,0-30.09-11.05-30.09-25.37,0-13.13,4-19.2,11.89-29.79l17.75-20.93h21.22Zm.64,36.41c6.68,0,11.62-4.8,11.62-11.33a11.53,11.53,0,1,0-23.06,0A11,11,0,0,0,860.73,374.62Z"/><path class="cls-7" d="M924.49,361.66a11.72,11.72,0,0,1-5.4,1.09c-10.33,0-24.05-8.79-24.05-26.18,0-17.66,14.36-25.36,28-25.36,16.92,0,30.09,11.05,30.09,25.36,0,13.14-4,19.21-11.89,29.8L923.48,387.3H902.26Zm-.64-36.41c-6.68,0-11.62,4.8-11.62,11.32a11.53,11.53,0,1,0,23.06,0A11,11,0,0,0,923.85,325.25Z"/><path class="cls-7" d="M517.52,506.42,539,492.65h8.14v74.73H530V515.3l-12.44,8Z"/><path class="cls-7" d="M572.41,519.92,558.05,513s7.32-21.73,27.81-21.73c25.88,0,29.27,16.84,29.27,26.26,0,17.48-26.62,34.87-26.62,34.87h28v15H557.68v-4.26s38.88-31.79,38.88-45.56c0-2.71-.64-11.86-10.7-11.86C577.62,505.7,572.41,519.92,572.41,519.92Z"/><path class="cls-7" d="M654.83,491.3c16.19,0,30.64,12.86,30.64,38.76,0,27.72-14.45,38.68-30.64,38.68s-30.74-11-30.74-38.68C624.09,504.16,638.64,491.3,654.83,491.3Zm0,62.49c8.23,0,13.26-7.6,13.26-23.73,0-15.12-5-23.82-13.26-23.82s-13.36,8.79-13.36,23.82C641.47,546.19,646.51,553.79,654.83,553.79Z"/><path class="cls-7" d="M448.67,730.73l-14.36-6.88s7.32-21.74,27.81-21.74c25.89,0,29.27,16.85,29.27,26.27,0,17.48-26.62,34.87-26.62,34.87h28v14.94H434v-4.25s38.87-31.8,38.87-45.56c0-2.72-.64-11.87-10.7-11.87C453.89,716.51,448.67,730.73,448.67,730.73Z"/><path class="cls-7" d="M513.07,756.82c1.38,4.62,5.4,8.51,13.27,8.51a10.47,10.47,0,0,0,10.79-10.87c0-9.87-9.78-13.13-19.57-13.13a32.59,32.59,0,0,0-12.9,2.35L511,703.47h38.51v14.94H525.7l-1.65,10.42c.64,0,1.37-.09,2.11-.09,14.27.09,28.17,5.52,28.17,26.27,0,14.31-11.8,24.54-28,24.54s-24.06-8.6-26.89-16.21Z"/><path class="cls-7" d="M729.39,424.87l0-15L722,422.55h-.63l-7.4-12.6v14.92h-1.26v-17.5h1.08l7.91,13.53,7.9-13.53h1.06l0,17.5Z"/><path class="cls-7" d="M739.62,423.83a8.55,8.55,0,0,1-3.3-3.18,9.2,9.2,0,0,1,0-9,8.58,8.58,0,0,1,3.3-3.19,10.12,10.12,0,0,1,9.39,0,8.46,8.46,0,0,1,3.3,3.17,9.23,9.23,0,0,1,0,9.1,8.55,8.55,0,0,1-3.3,3.18,9.67,9.67,0,0,1-4.69,1.15A9.47,9.47,0,0,1,739.62,423.83Zm8.71-1a7.43,7.43,0,0,0,2.83-2.76,8.05,8.05,0,0,0,0-7.88,7.43,7.43,0,0,0-2.83-2.76,8.58,8.58,0,0,0-8,0,7.39,7.39,0,0,0-2.84,2.76,8,8,0,0,0,0,7.88,7.39,7.39,0,0,0,2.84,2.76,8.58,8.58,0,0,0,8,0Z"/><path class="cls-7" d="M771.37,417.32a4.28,4.28,0,0,1,1,2.93,4,4,0,0,1-1.64,3.42,8.24,8.24,0,0,1-4.88,1.2H758v-17.5h7.38a7.55,7.55,0,0,1,4.48,1.16,3.85,3.85,0,0,1,1.6,3.32,4,4,0,0,1-.79,2.52,4.42,4.42,0,0,1-2.16,1.48A4.91,4.91,0,0,1,771.37,417.32Zm-12.11-8.85v7h6a6.11,6.11,0,0,0,3.57-.89,3.33,3.33,0,0,0,0-5.2,6.11,6.11,0,0,0-3.57-.89Zm10.49,14.41a3.47,3.47,0,0,0,0-5.46,7.13,7.13,0,0,0-3.9-.87h-6.59v7.22h6.59A7,7,0,0,0,769.75,422.88Z"/><path class="cls-7" d="M777,407.37h1.29v17.5H777Z"/><path class="cls-7" d="M784.41,407.37h1.29v16.35h10.17v1.15H784.41Z"/><path class="cls-7" d="M811.38,423.72v1.15h-12.2v-17.5H811v1.15H800.47v6.9h9.42v1.13h-9.42v7.17Z"/><path class="cls-7" d="M834.12,408.93a5.87,5.87,0,0,1,0,8.65,7.91,7.91,0,0,1-5.22,1.57h-5v5.72h-1.29v-17.5h6.34A8,8,0,0,1,834.12,408.93Zm-.91,7.84a4.87,4.87,0,0,0,0-7,6.55,6.55,0,0,0-4.31-1.24h-5V418h5A6.61,6.61,0,0,0,833.21,416.77Z"/><path class="cls-7" d="M854.75,407.37v17.5h-1.29v-8.32H841.65v8.32h-1.29v-17.5h1.29v8.05h11.81v-8.05Z"/><path class="cls-7" d="M863.71,423.83a8.59,8.59,0,0,1-3.29-3.18,9.13,9.13,0,0,1,0-9,8.62,8.62,0,0,1,3.29-3.19,9.49,9.49,0,0,1,4.7-1.16,9.59,9.59,0,0,1,4.7,1.15,8.5,8.5,0,0,1,3.29,3.17,9.23,9.23,0,0,1,0,9.1,8.59,8.59,0,0,1-3.29,3.18,9.71,9.71,0,0,1-4.7,1.15A9.5,9.5,0,0,1,863.71,423.83Zm8.71-1a7.43,7.43,0,0,0,2.83-2.76,8,8,0,0,0,0-7.88,7.43,7.43,0,0,0-2.83-2.76,8,8,0,0,0-4-1,8.17,8.17,0,0,0-4,1,7.46,7.46,0,0,0-2.84,2.76,8.05,8.05,0,0,0,0,7.88,7.46,7.46,0,0,0,2.84,2.76,8.17,8.17,0,0,0,4,1A8,8,0,0,0,872.42,422.82Z"/><path class="cls-7" d="M896.46,407.37v17.5H895.4l-12-15.2v15.2h-1.29v-17.5h1.09l12,15.2v-15.2Z"/><path class="cls-7" d="M914.82,423.72v1.15h-12.2v-17.5h11.82v1.15H903.91v6.9h9.42v1.13h-9.42v7.17Z"/><path class="cls-7" d="M920.46,424.33a7.15,7.15,0,0,1-2.74-1.71l.58-.95a6.86,6.86,0,0,0,2.51,1.59,9.09,9.09,0,0,0,3.32.61,6.42,6.42,0,0,0,3.82-.95,3,3,0,0,0,1.28-2.47,2.56,2.56,0,0,0-.68-1.88,4.45,4.45,0,0,0-1.69-1.07,23.52,23.52,0,0,0-2.73-.78,27.6,27.6,0,0,1-3.11-.92,5,5,0,0,1-2-1.39,3.67,3.67,0,0,1-.82-2.51,4.29,4.29,0,0,1,.68-2.34,4.68,4.68,0,0,1,2.08-1.69,8.74,8.74,0,0,1,3.5-.62,10,10,0,0,1,2.88.42,8.81,8.81,0,0,1,2.45,1.15l-.48,1a8.1,8.1,0,0,0-2.34-1.1,8.84,8.84,0,0,0-2.51-.38,6,6,0,0,0-3.71,1,3,3,0,0,0-1.26,2.52,2.57,2.57,0,0,0,.68,1.88,4.57,4.57,0,0,0,1.69,1.07,24.92,24.92,0,0,0,2.75.8,26.71,26.71,0,0,1,3.11.93,5.13,5.13,0,0,1,2,1.36,3.53,3.53,0,0,1,.82,2.46,4.16,4.16,0,0,1-.69,2.33,4.72,4.72,0,0,1-2.14,1.67,8.78,8.78,0,0,1-3.53.63A10.2,10.2,0,0,1,920.46,424.33Z"/><path class="cls-7" d="M531,586.37h1.29v16.35H542.5v1.15H531Z"/><path class="cls-7" d="M559.29,599H549l-2.25,4.92h-1.38l8.13-17.5h1.28l8.13,17.5h-1.39Zm-.48-1.08-4.64-10.1-4.62,10.1Z"/><path class="cls-7" d="M580.25,587.93a5.89,5.89,0,0,1,0,8.65,7.94,7.94,0,0,1-5.23,1.57h-5v5.72h-1.29v-17.5H575A8,8,0,0,1,580.25,587.93Zm-.91,7.84a4.87,4.87,0,0,0,0-7,6.56,6.56,0,0,0-4.32-1.24h-5V597h5A6.62,6.62,0,0,0,579.34,595.77Z"/><path class="cls-7" d="M591.79,587.52h-6.37v-1.15h14v1.15h-6.37v16.35h-1.28Z"/><path class="cls-7" d="M607.69,602.83a8.52,8.52,0,0,1-3.29-3.18,9.13,9.13,0,0,1,0-9,8.55,8.55,0,0,1,3.29-3.19,9.49,9.49,0,0,1,4.7-1.16,9.59,9.59,0,0,1,4.7,1.15,8.5,8.5,0,0,1,3.29,3.17,9.23,9.23,0,0,1,0,9.1,8.59,8.59,0,0,1-3.29,3.18,9.71,9.71,0,0,1-4.7,1.15A9.5,9.5,0,0,1,607.69,602.83Zm8.71-1a7.43,7.43,0,0,0,2.83-2.76,8,8,0,0,0,0-7.88,7.43,7.43,0,0,0-2.83-2.76,8,8,0,0,0-4-1,8.14,8.14,0,0,0-4,1,7.46,7.46,0,0,0-2.84,2.76,8.05,8.05,0,0,0,0,7.88,7.46,7.46,0,0,0,2.84,2.76,8.14,8.14,0,0,0,4,1A8,8,0,0,0,616.4,601.82Z"/><path class="cls-7" d="M640.14,587.93a5.89,5.89,0,0,1,0,8.65,7.94,7.94,0,0,1-5.23,1.57h-5v5.72h-1.29v-17.5h6.34A8,8,0,0,1,640.14,587.93Zm-.91,7.84a4.87,4.87,0,0,0,0-7,6.56,6.56,0,0,0-4.32-1.24h-5V597h5A6.62,6.62,0,0,0,639.23,595.77Z"/><path class="cls-7" d="M650.1,603.33a7.15,7.15,0,0,1-2.74-1.71l.58-1a6.86,6.86,0,0,0,2.51,1.59,9.06,9.06,0,0,0,3.32.61,6.37,6.37,0,0,0,3.81-1,2.93,2.93,0,0,0,1.29-2.47,2.6,2.6,0,0,0-.68-1.88,4.45,4.45,0,0,0-1.69-1.07,24.12,24.12,0,0,0-2.73-.78,27.86,27.86,0,0,1-3.12-.92,5.06,5.06,0,0,1-2-1.39,3.67,3.67,0,0,1-.82-2.51,4.29,4.29,0,0,1,.68-2.34,4.62,4.62,0,0,1,2.08-1.69,8.74,8.74,0,0,1,3.5-.62,10,10,0,0,1,2.88.42,8.81,8.81,0,0,1,2.45,1.15l-.48,1a8.1,8.1,0,0,0-2.34-1.1,8.89,8.89,0,0,0-2.51-.38,6,6,0,0,0-3.71,1,3,3,0,0,0-1.26,2.52,2.57,2.57,0,0,0,.68,1.88,4.57,4.57,0,0,0,1.69,1.07,24.92,24.92,0,0,0,2.75.8,26.71,26.71,0,0,1,3.11.93,5.13,5.13,0,0,1,2,1.36,3.58,3.58,0,0,1,.82,2.46,4.09,4.09,0,0,1-.7,2.33,4.63,4.63,0,0,1-2.13,1.67,8.81,8.81,0,0,1-3.53.63A10.2,10.2,0,0,1,650.1,603.33Z"/><path class="cls-7" d="M440.31,798.52H434v-1.15h14v1.15H441.6v16.35h-1.29Z"/><path class="cls-7" d="M462.3,810H452.05l-2.24,4.92h-1.39l8.13-17.5h1.29l8.13,17.5h-1.39Zm-.47-1.08-4.65-10.1-4.62,10.1Z"/><path class="cls-7" d="M483.68,807.32a4.28,4.28,0,0,1,1,2.93,4,4,0,0,1-1.64,3.42,8.21,8.21,0,0,1-4.87,1.2h-7.88v-17.5h7.38a7.57,7.57,0,0,1,4.48,1.16,3.85,3.85,0,0,1,1.6,3.32,4,4,0,0,1-.79,2.52,4.47,4.47,0,0,1-2.16,1.48A4.91,4.91,0,0,1,483.68,807.32Zm-12.11-8.85v7h6a6.15,6.15,0,0,0,3.57-.89,3.33,3.33,0,0,0,0-5.2,6.15,6.15,0,0,0-3.57-.89Zm10.49,14.41a3.47,3.47,0,0,0,0-5.46,7.13,7.13,0,0,0-3.9-.87h-6.59v7.22h6.59A7,7,0,0,0,482.06,812.88Z"/><path class="cls-7" d="M490.38,797.37h1.29v16.35h10.17v1.15H490.38Z"/><path class="cls-7" d="M518.46,813.72v1.15h-12.2v-17.5h11.82v1.15H507.55v6.9H517v1.13h-9.42v7.17Z"/><path class="cls-7" d="M527.65,798.52h-6.36v-1.15h14v1.15h-6.36v16.35h-1.29Z"/><path class="cls-7" d="M540.21,814.33a7.15,7.15,0,0,1-2.74-1.71l.58-1a6.86,6.86,0,0,0,2.51,1.59,9.06,9.06,0,0,0,3.32.61,6.44,6.44,0,0,0,3.82-1,3,3,0,0,0,1.28-2.47,2.56,2.56,0,0,0-.68-1.88,4.45,4.45,0,0,0-1.69-1.07,23.52,23.52,0,0,0-2.73-.78,28.52,28.52,0,0,1-3.12-.92,5.06,5.06,0,0,1-2-1.39,3.67,3.67,0,0,1-.82-2.51,4.29,4.29,0,0,1,.68-2.34,4.62,4.62,0,0,1,2.08-1.69,8.74,8.74,0,0,1,3.5-.62,10,10,0,0,1,2.88.42,8.81,8.81,0,0,1,2.45,1.15l-.48,1a8.1,8.1,0,0,0-2.34-1.1,8.84,8.84,0,0,0-2.51-.38,6,6,0,0,0-3.71,1,3,3,0,0,0-1.26,2.52,2.57,2.57,0,0,0,.68,1.88,4.57,4.57,0,0,0,1.69,1.07,24.92,24.92,0,0,0,2.75.8,26.71,26.71,0,0,1,3.11.93,5.13,5.13,0,0,1,2,1.36,3.53,3.53,0,0,1,.82,2.46,4.16,4.16,0,0,1-.69,2.33,4.72,4.72,0,0,1-2.14,1.67,8.81,8.81,0,0,1-3.53.63A10.2,10.2,0,0,1,540.21,814.33Z"/></svg>