<svg id="Layer_1" data-name="Layer 1" xmlns="http://www.w3.org/2000/svg" viewBox="0 0 960 1080"><defs><style>.cls-1,.cls-2,.cls-3,.cls-5,.cls-6{fill:none;}.cls-1{stroke:#000;}.cls-1,.cls-2,.cls-3,.cls-5,.cls-6,.cls-7{stroke-miterlimit:10;}.cls-1,.cls-2{stroke-width:2px;}.cls-2,.cls-3,.cls-5,.cls-6,.cls-7{stroke:#fff;}.cls-3{stroke-width:5px;}.cls-4{fill:#fff;}.cls-5,.cls-7{stroke-width:4px;}.cls-6{stroke-width:3px;}.cls-7{fill:#565656;}</style></defs><title>perAnnum</title><line class="cls-1" x1="456.41" y1="339.91" x2="456.41" y2="290.25"/><line class="cls-1" x1="466.84" y1="339.91" x2="466.84" y2="290.25"/><line class="cls-1" x1="445.98" y1="339.91" x2="445.98" y2="290.25"/><line class="cls-2" x1="445.98" y1="339.91" x2="445.98" y2="290.25"/><line class="cls-1" x1="456.41" y1="339.91" x2="456.41" y2="290.25"/><line class="cls-2" x1="435.54" y1="339.91" x2="435.54" y2="290.25"/><line class="cls-2" x1="466.84" y1="339.91" x2="466.84" y2="290.25"/><line class="cls-2" x1="477.27" y1="339.91" x2="477.27" y2="290.25"/><line class="cls-2" x1="456.41" y1="339.91" x2="456.41" y2="290.25"/><path class="cls-3" d="M477.74,371.35a59,59,0,1,0-41.85.21"/><path class="cls-4" d="M456.54,403.34a201.73,201.73,0,1,1-78.8,15.9,201.22,201.22,0,0,1,78.8-15.9m0-17c-121.2,0-219.46,98.25-219.46,219.46s98.26,219.45,219.46,219.45S676,727,676,605.8,577.74,386.34,456.54,386.34Z"/><line class="cls-5" x1="456.54" y1="426.91" x2="456.54" y2="460.11"/><line class="cls-5" x1="456.54" y1="747.8" x2="456.54" y2="780.99"/><line class="cls-5" x1="633.58" y1="605.8" x2="600.38" y2="605.8"/><line class="cls-5" x1="312.69" y1="605.8" x2="279.5" y2="605.8"/><line class="cls-5" x1="582.31" y1="480.3" x2="558.84" y2="503.77"/><line class="cls-5" x1="355.41" y1="707.19" x2="331.94" y2="730.67"/><line class="cls-5" x1="582.59" y1="731.92" x2="559.12" y2="708.45"/><line class="cls-5" x1="355.69" y1="505.02" x2="332.22" y2="481.55"/><rect class="cls-6" x="282.04" y="426.75" width="36.88" height="34.91" transform="translate(-226.09 342.58) rotate(-45)"/><rect class="cls-5" x="438.1" y="338.25" width="36.88" height="59.16"/><rect class="cls-6" x="598.68" y="429.1" width="35.92" height="36.88" transform="translate(-135.85 567.11) rotate(-45)"/><line class="cls-5" x1="503.56" y1="433.37" x2="494.34" y2="466.56"/><line class="cls-5" x1="546.9" y1="452.73" x2="528.46" y2="478.55"/><line class="cls-5" x1="613.29" y1="519.12" x2="585.63" y2="533.87"/><line class="cls-5" x1="633.58" y1="561.54" x2="598.54" y2="567.07"/><line class="cls-5" x1="629.89" y1="653.74" x2="593.01" y2="642.68"/><line class="cls-5" x1="611.45" y1="696.16" x2="581.94" y2="677.72"/><line class="cls-5" x1="546.9" y1="764.39" x2="528.46" y2="729.35"/><line class="cls-5" x1="504.49" y1="780.99" x2="495.27" y2="744.11"/><line class="cls-5" x1="410.44" y1="780.99" x2="419.66" y2="744.11"/><line class="cls-5" x1="368.02" y1="762.55" x2="384.62" y2="729.35"/><line class="cls-5" x1="301.63" y1="696.16" x2="332.98" y2="677.72"/><line class="cls-5" x1="283.19" y1="655.59" x2="320.07" y2="644.52"/><line class="cls-5" x1="285.03" y1="559.69" x2="320.07" y2="568.91"/><line class="cls-5" x1="301.63" y1="515.43" x2="332.98" y2="535.72"/><line class="cls-5" x1="368.02" y1="450.89" x2="384.62" y2="482.24"/><line class="cls-5" x1="412.28" y1="432.44" x2="421.5" y2="467.48"/><rect class="cls-3" x="423.34" y="292.29" width="66.39" height="46.1" rx="6.11"/><line class="cls-1" x1="287.8" y1="431.52" x2="247.23" y2="390.95"/><line class="cls-1" x1="295.18" y1="424.15" x2="254.6" y2="383.57"/><line class="cls-1" x1="280.42" y1="438.9" x2="239.85" y2="398.33"/><line class="cls-2" x1="280.42" y1="438.9" x2="239.85" y2="398.33"/><line class="cls-1" x1="287.8" y1="431.52" x2="247.23" y2="390.95"/><line class="cls-2" x1="273.05" y1="446.28" x2="232.47" y2="405.7"/><line class="cls-2" x1="295.18" y1="424.15" x2="254.6" y2="383.57"/><line class="cls-2" x1="302.55" y1="416.77" x2="261.98" y2="376.2"/><line class="cls-2" x1="287.8" y1="431.52" x2="247.23" y2="390.95"/><line class="cls-1" x1="627.12" y1="433.37" x2="667.69" y2="392.8"/><line class="cls-1" x1="634.5" y1="440.74" x2="675.07" y2="400.17"/><line class="cls-1" x1="619.75" y1="425.99" x2="660.32" y2="385.42"/><line class="cls-2" x1="619.75" y1="425.99" x2="660.32" y2="385.42"/><line class="cls-1" x1="627.12" y1="433.37" x2="667.69" y2="392.8"/><line class="cls-2" x1="612.37" y1="418.61" x2="652.94" y2="378.04"/><line class="cls-2" x1="634.5" y1="440.74" x2="675.07" y2="400.17"/><line class="cls-2" x1="641.88" y1="448.12" x2="682.45" y2="407.55"/><line class="cls-2" x1="627.12" y1="433.37" x2="667.69" y2="392.8"/><polygon class="cls-4" points="393.53 698.51 379.03 687.11 575.04 452.69 393.53 698.51"/><circle class="cls-7" cx="455.62" cy="604.87" r="15.68"/><rect class="cls-3" x="617.42" y="384.5" width="59.98" height="57.17" rx="6.11" transform="translate(481.71 -336.8) rotate(45)"/><rect class="cls-3" x="236.22" y="382.65" width="62.59" height="57.17" rx="6.11" transform="translate(-212.44 309.61) rotate(-45)"/></svg>