<svg id="Layer_1" data-name="Layer 1" xmlns="http://www.w3.org/2000/svg" xmlns:xlink="http://www.w3.org/1999/xlink" viewBox="0 0 960 1080"><defs><style>.cls-1{fill:url(#linear-gradient);}.cls-2{fill:#fff;}</style><linearGradient id="linear-gradient" x1="3134.4" y1="3372.24" x2="3134.4" y2="3598.28" gradientTransform="translate(-2925.39 -2981.39)" gradientUnits="userSpaceOnUse"><stop offset="0" stop-color="#fbb03b"/><stop offset="1" stop-color="#f7931e"/></linearGradient></defs><title>perAnnum</title><path class="cls-1" d="M194.88,596.5l-9.62,19.88s-30.39-10.13-30.39-38.5c0-35.83,23.55-40.52,36.72-40.52,24.44,0,48.75,36.85,48.75,36.85V535.46h20.9v81.43h-6s-44.45-53.82-63.7-53.82c-3.8,0-16.59.89-16.59,14.81C175,589.28,194.88,596.5,194.88,596.5Z"/><path class="cls-1" d="M248.7,489.37a14.5,14.5,0,1,1-14.56,14.56A14.46,14.46,0,0,1,248.7,489.37Z"/><path class="cls-1" d="M194.88,451.89l-9.62,19.88s-30.39-10.13-30.39-38.5c0-35.84,23.55-40.52,36.72-40.52,24.44,0,48.75,36.85,48.75,36.85V390.85h20.9v81.42h-6s-44.45-53.81-63.7-53.81c-3.8,0-16.59.88-16.59,14.81C175,444.67,194.88,451.89,194.88,451.89Z"/><path class="cls-2" d="M289.47,392.26h41.59V404H317v46.86H303.53V404H289.47Z"/><path class="cls-2" d="M373.37,404H353v11.65h19.5v11.71H353v11.79h20.37v11.71H339.52V392.26h33.85Z"/><path class="cls-2" d="M405.85,392.26c11,0,19.28,5.89,19.28,17.39,0,8.81-4.87,14.7-12.11,17l20.36,24.21H416.24l-18.06-23.14v23.14H384.7V392.26Zm-6.1,26c5.09,0,11.19-.36,11.19-7.67s-6.1-7.67-11.19-7.67h-1.57v15.34Z"/><path class="cls-2" d="M460.77,392.26c11,0,19.29,5.89,19.29,17.39,0,8.81-4.87,14.7-12.12,17l20.37,24.21H471.17L453.1,427.69v23.14H439.62V392.26Zm-6.09,26c5.09,0,11.18-.36,11.18-7.67s-6.09-7.67-11.18-7.67H453.1v15.34Z"/><path class="cls-2" d="M548.47,450.83H534l-4.37-11.71H507.09l-4.37,11.71H488.24l23.87-58.57h12.48Zm-30.05-40.47h-.14l-6.6,17H525Z"/><path class="cls-2" d="M572.71,392.26c10.18,0,18.21,3.76,18.21,14.91,0,5.39-2.37,10-7.39,12.57,7.39,1.27,12.62,5.32,12.62,14.76,0,9.66-7.1,16.33-19.36,16.33H554.35V392.26Zm-3.81,22.93c5.81,0,9-1.77,9-6.67,0-4.19-3.09-6-9-6h-1.07v12.64Zm3.16,25.35c6.38,0,9.89-1.92,9.89-6.53,0-5.4-3.51-7.32-9.89-7.32h-4.23v13.85Z"/><path class="cls-2" d="M613.29,392.26,625.62,411,638,392.26h16.2l-21.8,32.3v26.27H618.88V424.56l-21.79-32.3Z"/><path class="cls-2" d="M656.17,392.26h41.59V404H683.7v46.86H670.22V404H656.17Z"/><path class="cls-2" d="M740.06,404H719.7v11.65h19.5v11.71H719.7v11.79h20.36v11.71H706.22V392.26h33.84Z"/><path class="cls-2" d="M791.55,396.73l-5.45,10.65s-5.88-4.05-12-4.05c-4.59,0-7,2.06-7,5.26s5.59,5.61,12.33,8.45,13.84,8.3,13.84,16c0,14-10.76,18.89-22.3,18.89a34.75,34.75,0,0,1-22.23-7.74l6.74-11.22s7.89,6.6,14.48,6.6c2.94,0,8.54-.28,8.54-5.75,0-4.26-6.31-6.17-13.34-9.65s-11.26-8.95-11.26-15.05c0-10.94,9.75-17.9,19.29-17.9A33.84,33.84,0,0,1,791.55,396.73Z"/><path class="cls-2" d="M320.38,476.39c16.41,0,29.75,13.21,29.75,30.32s-12.76,30.39-29.75,30.39c-17.5,0-29.83-13.28-29.83-30.39A30,30,0,0,1,320.38,476.39Zm0,47.79c10.75,0,15.2-8.74,15.2-17.47s-4.74-17.46-15.2-17.46S305.1,498,305.1,506.71,309.33,524.18,320.38,524.18Z"/><path class="cls-2" d="M393.87,489.17H373.15v11.65H392.3v11.71H373.15V536H359.67V477.46h34.2Z"/><path class="cls-2" d="M444.21,477.46c16.2,0,29.83,12.21,29.83,29.25S460.49,536,444.21,536H427.07V477.46Zm-1.58,46.65c10,0,16.78-7.53,16.85-17.33s-6.81-17.39-16.85-17.39h-2.08v34.72Z"/><path class="cls-2" d="M537.5,536H523l-4.37-11.71H496.13L491.75,536H477.27l23.87-58.57h12.48Zm-30.05-40.47h-.14l-6.6,17h13.34Z"/><path class="cls-2" d="M536.21,477.46H577.8v11.71H563.74V536H550.26V489.17h-14Z"/><path class="cls-2" d="M636.74,536H622.25l-4.37-11.71H595.37L591,536H576.51l23.87-58.57h12.48Zm-30-40.47h-.15l-6.59,17h13.33Z"/><path class="cls-2" d="M336.29,605.54,342,616.9s-6.6,5.4-19.43,5.4c-16.71,0-32.05-13.49-32.05-30.25s15.27-30.46,32.05-30.46c12.83,0,19.43,5.4,19.43,5.4l-5.74,11.36a20.65,20.65,0,0,0-11.61-3.62c-13.55,0-19.51,9.37-19.51,17.18s6,17.25,19.51,17.25A20.65,20.65,0,0,0,336.29,605.54Z"/><path class="cls-2" d="M378,561.59c16.42,0,29.76,13.21,29.76,30.32S395,622.3,378,622.3c-17.49,0-29.82-13.28-29.82-30.39A30,30,0,0,1,378,561.59Zm0,47.79c10.76,0,15.2-8.74,15.2-17.47s-4.73-17.46-15.2-17.46-15.27,8.73-15.27,17.46S366.91,609.38,378,609.38Z"/><path class="cls-2" d="M430.73,621.23H417.25V562.66h13.48L454.25,599h.14V562.66h13.48v58.57H454.39l-23.52-36.35h-.14Z"/><path class="cls-2" d="M518.78,567.13l-5.45,10.65s-5.87-4-12-4c-4.59,0-7,2-7,5.25s5.6,5.61,12.34,8.45c6.59,2.77,13.83,8.31,13.83,16,0,14-10.75,18.89-22.29,18.89A34.75,34.75,0,0,1,476,614.56l6.74-11.22s7.89,6.6,14.48,6.6c2.94,0,8.53-.28,8.53-5.75,0-4.26-6.31-6.17-13.33-9.65s-11.26-8.95-11.26-15c0-10.94,9.75-17.9,19.29-17.9A33.83,33.83,0,0,1,518.78,567.13Z"/><path class="cls-2" d="M575.86,600.43c0,14.48-8,21.87-23.09,21.87s-23.08-7.39-23.08-21.87V562.66h13.48v33.87c0,9.79,3,12.63,9.6,12.63s9.61-2.84,9.61-12.63V562.66h13.48Z"/><path class="cls-2" d="M633.44,586.51h-.36L621,620.88h-8l-12.11-34.37h-.36l-2.8,34.72H584.18l5.31-58.57h14.34L617,596.46l13.12-33.8h14.34l5.31,58.57H636.24Z"/><path class="cls-2" d="M692.6,574.37H672.23V586h19.51v11.71H672.23v11.79H692.6v11.71H658.75V562.66H692.6Z"/><path class="cls-2" d="M721.06,562.66c16.21,0,29.83,12.21,29.83,29.25s-13.55,29.32-29.83,29.32H703.93V562.66Zm-1.57,46.65c10,0,16.78-7.53,16.85-17.33s-6.81-17.39-16.85-17.39h-2.08v34.72Z"/><path class="cls-2" d="M307,663.17H294.13l-2.77,6.17h-2.54l10.56-23.1h2.41l10.56,23.1h-2.58Zm-.89-2-5.54-12.4L295,661.19Z"/><path class="cls-2" d="M334.56,668.29a4.56,4.56,0,0,1-1.64.91,6.79,6.79,0,0,1-2,.31,5.1,5.1,0,0,1-3.76-1.32,5,5,0,0,1-1.32-3.73V654h-3.1v-2h3.1v-3.8h2.35V652h5.28v2h-5.28v10.36a3.27,3.27,0,0,0,.77,2.36,3,3,0,0,0,2.23.81,4.16,4.16,0,0,0,1.4-.24,3.36,3.36,0,0,0,1.17-.66Z"/><path class="cls-2" d="M372.11,646.24v23.1h-2.37v-21h-5.45v-2.12Z"/><path class="cls-2" d="M400.9,657.51a6,6,0,0,1,2.3,5,6.94,6.94,0,0,1-.94,3.59,6.36,6.36,0,0,1-2.83,2.49,10.48,10.48,0,0,1-4.62.91,13.66,13.66,0,0,1-4.7-.81,9.67,9.67,0,0,1-3.58-2.16l1.16-1.88a8.49,8.49,0,0,0,3,1.93,10.89,10.89,0,0,0,4.06.74,6.87,6.87,0,0,0,4.44-1.28,4.24,4.24,0,0,0,1.57-3.44,4.08,4.08,0,0,0-1.77-3.59c-1.17-.82-3.16-1.22-5.95-1.22h-4.92l1.19-11.59H402v2.12H391.42l-.8,7.35h3C396.94,655.71,399.37,656.31,400.9,657.51Z"/><path class="cls-2" d="M422.5,646.24v23.1h-2.37v-21h-5.45v-2.12Z"/><path class="cls-2" d="M443.8,668a11.11,11.11,0,0,1-4.32-4.2,12.35,12.35,0,0,1,0-12.05,11.12,11.12,0,0,1,4.34-4.21,12.7,12.7,0,0,1,6.2-1.51,13,13,0,0,1,4.76.85,9.93,9.93,0,0,1,3.69,2.51L456.92,651a9.22,9.22,0,0,0-6.83-2.74,10,10,0,0,0-5,1.26,9.14,9.14,0,0,0-3.52,3.43,10,10,0,0,0,0,9.77,9.21,9.21,0,0,0,3.52,3.43,10,10,0,0,0,5,1.25,9.07,9.07,0,0,0,6.83-2.77l1.55,1.55a10.08,10.08,0,0,1-3.71,2.53,12.84,12.84,0,0,1-4.77.87A12.53,12.53,0,0,1,443.8,668Z"/><path class="cls-2" d="M488.14,652v17.35h-2.25v-3.16a6.37,6.37,0,0,1-2.54,2.45,7.54,7.54,0,0,1-3.69.88,6.72,6.72,0,0,1-7.33-7.46V652h2.34v9.83A5.82,5.82,0,0,0,476,666a5.1,5.1,0,0,0,3.86,1.42,5.68,5.68,0,0,0,4.32-1.67,6.45,6.45,0,0,0,1.58-4.64V652Z"/><path class="cls-2" d="M518,653a8,8,0,0,1,3.1,3.12,9.94,9.94,0,0,1,0,9.17,8.07,8.07,0,0,1-3.1,3.14,8.88,8.88,0,0,1-4.42,1.12,8.13,8.13,0,0,1-3.91-.93,7,7,0,0,1-2.79-2.67v3.43h-2.24V644.86H507v10.43a7.06,7.06,0,0,1,2.79-2.56,8.23,8.23,0,0,1,3.81-.88A8.87,8.87,0,0,1,518,653Zm-1.29,13.63A6,6,0,0,0,519,664.2a7.86,7.86,0,0,0,0-7.07,6,6,0,0,0-2.33-2.39,6.58,6.58,0,0,0-3.3-.84,6.52,6.52,0,0,0-3.31.84,6,6,0,0,0-2.31,2.39,7.86,7.86,0,0,0,0,7.07,6,6,0,0,0,2.31,2.39,6.52,6.52,0,0,0,3.31.84A6.58,6.58,0,0,0,516.68,666.59Z"/><path class="cls-2" d="M548.07,653.55a6.58,6.58,0,0,1,1.81,5v10.75h-2.24v-2.7a5.44,5.44,0,0,1-2.33,2.11,8.09,8.09,0,0,1-3.65.76,7.13,7.13,0,0,1-4.62-1.39,4.47,4.47,0,0,1-1.71-3.66,4.42,4.42,0,0,1,1.6-3.56q1.61-1.36,5.1-1.36h5.51v-1a4.44,4.44,0,0,0-1.26-3.42,5.16,5.16,0,0,0-3.66-1.17,9.38,9.38,0,0,0-3.17.54,8,8,0,0,0-2.6,1.51l-1.06-1.75a9.42,9.42,0,0,1,3.17-1.74,12.52,12.52,0,0,1,3.89-.61A7.37,7.37,0,0,1,548.07,653.55Zm-2.64,13.2a5.42,5.42,0,0,0,2.11-2.62v-2.84h-5.45c-3,0-4.45,1-4.45,3.1a2.85,2.85,0,0,0,1.15,2.4,5.29,5.29,0,0,0,3.24.87A6.15,6.15,0,0,0,545.43,666.75Z"/><path class="cls-2" d="M585.31,668.9a8.6,8.6,0,0,1-3-1.54l1.05-1.84a8.92,8.92,0,0,0,2.74,1.4,11,11,0,0,0,3.43.54,6.61,6.61,0,0,0,3.52-.74,2.35,2.35,0,0,0,1.14-2.1,1.9,1.9,0,0,0-.63-1.5,4.3,4.3,0,0,0-1.58-.82,22.77,22.77,0,0,0-2.55-.55A29.36,29.36,0,0,1,586,661a5.09,5.09,0,0,1-2.2-1.41,3.92,3.92,0,0,1-.91-2.74,4.29,4.29,0,0,1,1.82-3.56,8.17,8.17,0,0,1,5-1.39,12.94,12.94,0,0,1,3.36.45,9.45,9.45,0,0,1,2.78,1.17l-1,1.88a8.74,8.74,0,0,0-5.11-1.48,5.94,5.94,0,0,0-3.39.79,2.44,2.44,0,0,0-1.13,2.08,2,2,0,0,0,.64,1.58,4,4,0,0,0,1.6.88,26.13,26.13,0,0,0,2.64.57,29.49,29.49,0,0,1,3.33.8,4.81,4.81,0,0,1,2.15,1.35,3.75,3.75,0,0,1,.89,2.64,4.18,4.18,0,0,1-1.9,3.61,9,9,0,0,1-5.26,1.34A13.18,13.18,0,0,1,585.31,668.9Z"/><path class="cls-2" d="M610.7,647.7a1.62,1.62,0,0,1-.49-1.19,1.59,1.59,0,0,1,.49-1.16,1.66,1.66,0,0,1,1.22-.49,1.69,1.69,0,0,1,1.22.48,1.53,1.53,0,0,1,.5,1.13,1.73,1.73,0,0,1-2.94,1.23Zm0,4.29h2.35v17.35h-2.35Z"/><path class="cls-2" d="M638.65,668.29a4.52,4.52,0,0,1-1.63.91,6.89,6.89,0,0,1-2,.31,4.6,4.6,0,0,1-5.08-5V654H626.8v-2h3.11v-3.8h2.34V652h5.28v2h-5.28v10.36a3.32,3.32,0,0,0,.77,2.36,3,3,0,0,0,2.23.81,4.12,4.12,0,0,0,1.4-.24,3.32,3.32,0,0,0,1.18-.66Z"/><path class="cls-2" d="M667.29,661.39H652.77a6.23,6.23,0,0,0,2.08,4.37,6.93,6.93,0,0,0,4.76,1.67,7.46,7.46,0,0,0,3-.58,6.41,6.41,0,0,0,2.34-1.7l1.32,1.52a7.4,7.4,0,0,1-2.89,2.11,10.37,10.37,0,0,1-8.55-.41,8.24,8.24,0,0,1-3.21-3.15,9,9,0,0,1-1.16-4.55,9.27,9.27,0,0,1,1.11-4.56,7.94,7.94,0,0,1,3-3.13,8.49,8.49,0,0,1,4.34-1.13,8.4,8.4,0,0,1,4.33,1.13,8,8,0,0,1,3,3.11,9.51,9.51,0,0,1,1.09,4.58Zm-12.58-5.92a6.28,6.28,0,0,0-1.94,4.17h12.31a6.22,6.22,0,0,0-1.93-4.17,6.37,6.37,0,0,0-8.44,0Z"/><path class="cls-2" d="M292,695.7a1.63,1.63,0,0,1-.5-1.19,1.6,1.6,0,0,1,.5-1.16,1.64,1.64,0,0,1,1.22-.49,1.69,1.69,0,0,1,1.22.48,1.52,1.52,0,0,1,.49,1.13,1.67,1.67,0,0,1-1.71,1.72A1.64,1.64,0,0,1,292,695.7Zm0,4.29h2.34v17.35H292Z"/><path class="cls-2" d="M324.84,701.75a7.41,7.41,0,0,1,1.93,5.53v10.06h-2.34v-9.83a5.79,5.79,0,0,0-1.36-4.13,5.1,5.1,0,0,0-3.86-1.41,5.94,5.94,0,0,0-4.44,1.66,6.3,6.3,0,0,0-1.63,4.61v9.1H310.8V700H313v3.2a6.45,6.45,0,0,1,2.66-2.46,8.51,8.51,0,0,1,3.94-.88A7.12,7.12,0,0,1,324.84,701.75Z"/><path class="cls-2" d="M375.81,715.23v2.11H359.6v-1.68l9.61-9.4a12.49,12.49,0,0,0,2.46-3.09,6,6,0,0,0,.64-2.62,3.89,3.89,0,0,0-1.4-3.19,6.24,6.24,0,0,0-4-1.14,7.92,7.92,0,0,0-6.31,2.58l-1.68-1.45a8.89,8.89,0,0,1,3.45-2.45,12.42,12.42,0,0,1,4.73-.85,8.67,8.67,0,0,1,5.6,1.66,5.58,5.58,0,0,1,2.06,4.57,7.76,7.76,0,0,1-.79,3.43,14.35,14.35,0,0,1-3,3.8l-7.86,7.72Z"/><path class="cls-2" d="M393,716.12a9.28,9.28,0,0,1-3.26-4.07,17.17,17.17,0,0,1,0-12.51,9.37,9.37,0,0,1,3.26-4.08,8.77,8.77,0,0,1,9.54,0,9.41,9.41,0,0,1,3.28,4.08,17,17,0,0,1,0,12.51,9.32,9.32,0,0,1-3.28,4.07,8.72,8.72,0,0,1-9.54,0Zm8.32-1.88a7.22,7.22,0,0,0,2.39-3.27,16,16,0,0,0,0-10.36,7.19,7.19,0,0,0-2.39-3.26,6.14,6.14,0,0,0-7.1,0,7.19,7.19,0,0,0-2.39,3.26,16,16,0,0,0,0,10.36,7.22,7.22,0,0,0,2.39,3.27,6.19,6.19,0,0,0,7.1,0Z"/><path class="cls-2" d="M426.63,694.24v23.1h-2.38v-21H418.8v-2.12Z"/><path class="cls-2" d="M456.26,697.07q2.44,3,2.44,8.53a14.64,14.64,0,0,1-1.32,6.53,9.24,9.24,0,0,1-3.69,4,11,11,0,0,1-5.55,1.37,10.49,10.49,0,0,1-5.48-1.25l1-1.92a8,8,0,0,0,4.49,1.09,7.7,7.7,0,0,0,6-2.42q2.17-2.43,2.17-7a18.42,18.42,0,0,0-.1-1.88,6.18,6.18,0,0,1-2.73,2.92,8.86,8.86,0,0,1-4.33,1,9,9,0,0,1-4-.86,6.58,6.58,0,0,1-2.76-2.42,6.7,6.7,0,0,1-1-3.65,6.77,6.77,0,0,1,1-3.73,6.7,6.7,0,0,1,2.82-2.49,9.14,9.14,0,0,1,4-.87A8.5,8.5,0,0,1,456.26,697.07Zm-3.68,8.33a5.26,5.26,0,0,0,2.1-1.82,4.6,4.6,0,0,0,.75-2.57,4.4,4.4,0,0,0-.71-2.44,5.07,5.07,0,0,0-2.09-1.82,7.31,7.31,0,0,0-3.3-.69,6,6,0,0,0-4.08,1.37,5,5,0,0,0,0,7.28,6.29,6.29,0,0,0,4.24,1.35A6.89,6.89,0,0,0,452.58,705.4Z"/></svg>