<svg id="Layer_1" data-name="Layer 1" xmlns="http://www.w3.org/2000/svg" xmlns:xlink="http://www.w3.org/1999/xlink" viewBox="0 0 750 1080"><defs><style>.cls-1{fill:url(#linear-gradient);}.cls-2{fill:#fff;}</style><linearGradient id="linear-gradient" x1="-851.04" y1="-793.81" x2="-851.04" y2="-347.22" gradientTransform="translate(-215.18 1252.26) rotate(90)" gradientUnits="userSpaceOnUse"><stop offset="0" stop-color="#fbb03b"/><stop offset="1" stop-color="#f7931e"/></linearGradient></defs><title>perAnnum</title><path class="cls-1" d="M138.5,361.42s6.78-29.22,44.08-29.22c25.35,0,43.75,16.14,43.75,38.75,0,11-4.52,19.37-11.79,25,10.34,6.3,17,16.47,17,30.52,0,25.51-20.83,43.75-49.41,43.75-41,0-50.05-32.78-50.05-32.78l28.1-13.72s1.77,20.34,21.79,20.34c11.14,0,19.21-6.29,19.21-17.59,0-11.47-8.55-19.54-19.21-19.54a18.3,18.3,0,0,0-5.81,1V388.06h6.62c8.07,0,16-7.1,16-16.79,0-8.56-7.91-14.69-16.47-14.69-16.79,0-19.85,16.46-19.85,16.46Z"/><path class="cls-1" d="M274.77,383.22,249.42,371s12.92-38.75,49.08-38.75c45.7,0,51.67,30,51.67,46.82,0,31.16-47,62.16-47,62.16h49.4v26.64H248.78v-7.59s68.61-56.67,68.61-81.21c0-4.85-1.13-21.15-18.89-21.15C284,357.87,274.77,383.22,274.77,383.22Z"/><path class="cls-1" d="M446.56,396C460,402.11,470,413.73,470,432c0,22.44-24.7,38.26-49.73,38.26-25.83,0-49.89-15.82-49.89-38.26,0-18.25,9.85-29.87,23.25-36-10.17-5.81-17.6-15.5-17.6-30.19,0-19.7,22.12-33.58,44.08-33.58,22.77,0,43.59,13.88,43.59,33.58C463.67,380.47,456.57,390.16,446.56,396Zm-26.48,48.11c9.69,0,16.95-7.1,16.95-16.95a16.54,16.54,0,0,0-16.95-16.95c-9.52,0-16.79,6.94-16.79,16.95C403.29,437,410.07,444.08,420.08,444.08Zm.16-89a14.69,14.69,0,0,0-15,15c0,8.88,6.78,14.85,15,14.85,8.56,0,14.7-6,14.7-14.85C434.94,361.58,429,355.12,420.24,355.12Z"/><path class="cls-1" d="M505.82,429.71c2.42,8.24,9.52,15.18,23.41,15.18,11,0,19-8.07,19-19.37,0-17.6-17.28-23.41-34.55-23.41-11.14,0-18.73,2.42-22.77,4.19l11.14-71.68h68v26.64h-42l-2.91,18.57c1.13,0,2.42-.17,3.72-.17,25.18.17,49.72,9.85,49.72,46.83,0,25.51-20.83,43.75-49.4,43.75s-42.46-15.34-47.47-28.9Z"/><path class="cls-2" d="M130,504.57h46.4v13.2H160.7v52.81h-15V517.77H130Z"/><path class="cls-2" d="M257.58,503.37c18.32,0,33.2,14.88,33.2,34.17s-14.24,34.24-33.2,34.24c-19.52,0-33.28-15-33.28-34.24S239.42,503.37,257.58,503.37Zm0,53.84c12,0,17-9.83,17-19.67s-5.28-19.69-17-19.69-17,9.84-17,19.69S245.26,557.21,257.58,557.21Z"/><path class="cls-2" d="M338.7,504.57h46.4v13.2H369.42v52.81h-15V517.77H338.7Z"/><path class="cls-2" d="M494.86,570.58H478.7l-4.88-13.2H448.7l-4.88,13.2H427.66l26.64-66h13.92ZM461.34,525h-.16l-7.36,19.2H468.7Z"/><path class="cls-2" d="M560.46,557.38h22.72v13.2H545.42v-66h15Z"/><path class="cls-2" d="M184.86,643.13c0,16.33-9,24.65-25.76,24.65s-25.76-8.32-25.76-24.65V600.57h15v38.16c0,11,3.36,14.25,10.72,14.25s10.72-3.2,10.72-14.25V600.57h15Z"/><path class="cls-2" d="M284.86,605.61l-6.08,12s-6.56-4.56-13.36-4.56c-5.12,0-7.84,2.32-7.84,5.92s6.24,6.32,13.76,9.52c7.36,3.12,15.44,9.36,15.44,18,0,15.75-12,21.28-24.88,21.28a38.56,38.56,0,0,1-24.8-8.72l7.52-12.64s8.8,7.44,16.16,7.44c3.28,0,9.52-.32,9.52-6.48,0-4.8-7-7-14.88-10.88s-12.56-10.09-12.56-17c0-12.32,10.88-20.16,21.52-20.16A37.52,37.52,0,0,1,284.86,605.61Z"/><path class="cls-2" d="M379.58,613.77H356.86v13.12h21.76v13.2H356.86v13.29h22.72v13.2H341.82v-66h37.76Z"/><path class="cls-2" d="M459.82,600.57c12.24,0,21.52,6.64,21.52,19.6,0,9.92-5.44,16.56-13.52,19.12l22.72,27.29H471.42L451.26,640.5v26.08h-15v-66ZM453,629.85c5.68,0,12.48-.39,12.48-8.64s-6.8-8.64-12.48-8.64h-1.76v17.28Z"/><path class="cls-2" d="M586.3,605.61l-6.08,12s-6.56-4.56-13.36-4.56c-5.12,0-7.84,2.32-7.84,5.92s6.24,6.32,13.76,9.52c7.36,3.12,15.44,9.36,15.44,18,0,15.75-12,21.28-24.88,21.28a38.56,38.56,0,0,1-24.8-8.72l7.52-12.64s8.8,7.44,16.16,7.44c3.28,0,9.52-.32,9.52-6.48,0-4.8-7-7-14.88-10.88s-12.56-10.09-12.56-17c0-12.32,10.88-20.16,21.52-20.16A37.52,37.52,0,0,1,586.3,605.61Z"/><path class="cls-2" d="M137,713.24a11.24,11.24,0,0,1-4.36-4.21,12.34,12.34,0,0,1,0-12,11.24,11.24,0,0,1,4.36-4.21,13.43,13.43,0,0,1,12.41,0,11.4,11.4,0,0,1,4.34,4.21,12.28,12.28,0,0,1,0,12,11.3,11.3,0,0,1-4.34,4.2,12.53,12.53,0,0,1-6.19,1.52A12.71,12.71,0,0,1,137,713.24Zm11.17-1.88a9.07,9.07,0,0,0,3.47-3.43,10.23,10.23,0,0,0,0-9.8,9,9,0,0,0-3.47-3.44,10,10,0,0,0-5-1.23,10.12,10.12,0,0,0-5,1.23,9,9,0,0,0-3.49,3.44,10.09,10.09,0,0,0,0,9.8,9.06,9.06,0,0,0,3.49,3.43,10.12,10.12,0,0,0,5,1.23A10,10,0,0,0,148.15,711.36Z"/><path class="cls-2" d="M183.25,699a7.45,7.45,0,0,1,1.93,5.53v10.07h-2.35v-9.84a5.75,5.75,0,0,0-1.35-4.12,5.07,5.07,0,0,0-3.86-1.42,5.94,5.94,0,0,0-4.44,1.66,6.3,6.3,0,0,0-1.63,4.61v9.11H169.2V697.22h2.25v3.2a6.45,6.45,0,0,1,2.66-2.46,8.51,8.51,0,0,1,3.94-.88A7.12,7.12,0,0,1,183.25,699Z"/><path class="cls-2" d="M222.86,691.47v23.11h-2.37v-21H215v-2.12Z"/><path class="cls-2" d="M250.66,702.75a6,6,0,0,1,2.3,5,6.94,6.94,0,0,1-.94,3.59,6.46,6.46,0,0,1-2.82,2.5,10.69,10.69,0,0,1-4.62.9,13.72,13.72,0,0,1-4.71-.81,9.41,9.41,0,0,1-3.58-2.16l1.16-1.88a8.49,8.49,0,0,0,3,1.93,10.89,10.89,0,0,0,4.06.74,6.79,6.79,0,0,0,4.44-1.28,4.2,4.2,0,0,0,1.57-3.43,4.08,4.08,0,0,0-1.77-3.6c-1.17-.81-3.16-1.22-5.95-1.22h-4.92l1.19-11.59h12.64v2.12H241.18l-.8,7.36h3C246.7,701,249.13,701.55,250.66,702.75Z"/><path class="cls-2" d="M271.27,691.47v23.11H268.9v-21h-5.45v-2.12Z"/><path class="cls-2" d="M291.58,713.25a11.18,11.18,0,0,1-4.32-4.2,12.35,12.35,0,0,1,0-12,11.19,11.19,0,0,1,4.34-4.21,12.73,12.73,0,0,1,6.2-1.51,13,13,0,0,1,4.76.85,9.93,9.93,0,0,1,3.69,2.51l-1.55,1.55a9.21,9.21,0,0,0-6.83-2.73,10,10,0,0,0-5,1.25,9.21,9.21,0,0,0-3.52,3.43,10,10,0,0,0,0,9.77,9.21,9.21,0,0,0,3.52,3.43,10,10,0,0,0,5,1.25,9.07,9.07,0,0,0,6.83-2.77l1.55,1.55a10,10,0,0,1-3.71,2.53,12.81,12.81,0,0,1-4.77.87A12.53,12.53,0,0,1,291.58,713.25Z"/><path class="cls-2" d="M334.93,697.22v17.36h-2.24v-3.17a6.56,6.56,0,0,1-2.55,2.46,7.65,7.65,0,0,1-3.69.87,6.73,6.73,0,0,1-7.33-7.46V697.22h2.35v9.83a5.82,5.82,0,0,0,1.35,4.16,5.07,5.07,0,0,0,3.86,1.42A5.68,5.68,0,0,0,331,711a6.43,6.43,0,0,0,1.59-4.63v-9.11Z"/><path class="cls-2" d="M363.77,698.19a8,8,0,0,1,3.1,3.12,9.87,9.87,0,0,1,0,9.17,8,8,0,0,1-3.1,3.14,8.78,8.78,0,0,1-4.42,1.12,8.24,8.24,0,0,1-3.91-.92,7.11,7.11,0,0,1-2.79-2.68v3.44h-2.24V690.09h2.34v10.43a7.14,7.14,0,0,1,2.79-2.56,8.23,8.23,0,0,1,3.81-.88A8.87,8.87,0,0,1,363.77,698.19Zm-1.29,13.63a6,6,0,0,0,2.33-2.39,7.84,7.84,0,0,0,0-7.06,5.92,5.92,0,0,0-2.33-2.4,6.92,6.92,0,0,0-6.61,0,5.94,5.94,0,0,0-2.31,2.4,7.84,7.84,0,0,0,0,7.06,6,6,0,0,0,2.31,2.39,6.92,6.92,0,0,0,6.61,0Z"/><path class="cls-2" d="M392.88,698.79a6.56,6.56,0,0,1,1.81,5v10.76h-2.24v-2.71a5.38,5.38,0,0,1-2.33,2.11,8.07,8.07,0,0,1-3.64.76,7.09,7.09,0,0,1-4.62-1.39,4.76,4.76,0,0,1-.12-7.22c1.07-.9,2.77-1.36,5.1-1.36h5.51v-1a4.47,4.47,0,0,0-1.25-3.42,5.2,5.2,0,0,0-3.67-1.17,9.19,9.19,0,0,0-3.17.55,7.82,7.82,0,0,0-2.6,1.5l-1.06-1.75a9.24,9.24,0,0,1,3.17-1.73,12.24,12.24,0,0,1,3.89-.62A7.33,7.33,0,0,1,392.88,698.79ZM390.24,712a5.42,5.42,0,0,0,2.11-2.62v-2.84H386.9q-4.45,0-4.45,3.11A2.84,2.84,0,0,0,383.6,712a5.29,5.29,0,0,0,3.24.87A6.15,6.15,0,0,0,390.24,712Z"/><path class="cls-2" d="M427.49,692.93a1.62,1.62,0,0,1-.49-1.19,1.59,1.59,0,0,1,.49-1.16,1.66,1.66,0,0,1,1.22-.49,1.7,1.7,0,0,1,1.23.48,1.53,1.53,0,0,1,.49,1.14,1.73,1.73,0,0,1-2.94,1.22Zm0,4.29h2.34v17.36h-2.34Z"/><path class="cls-2" d="M459.36,699a7.45,7.45,0,0,1,1.93,5.53v10.07h-2.35v-9.84a5.75,5.75,0,0,0-1.35-4.12,5.07,5.07,0,0,0-3.86-1.42,5.94,5.94,0,0,0-4.44,1.66,6.3,6.3,0,0,0-1.63,4.61v9.11h-2.35V697.22h2.25v3.2a6.49,6.49,0,0,1,2.65-2.46,8.58,8.58,0,0,1,4-.88A7.12,7.12,0,0,1,459.36,699Z"/><path class="cls-2" d="M508.34,712.46v2.12h-16.2v-1.69l9.6-9.4a12.49,12.49,0,0,0,2.46-3.09,5.85,5.85,0,0,0,.64-2.62,3.86,3.86,0,0,0-1.4-3.19,6.2,6.2,0,0,0-4-1.13,7.91,7.91,0,0,0-6.3,2.57l-1.68-1.45a8.89,8.89,0,0,1,3.45-2.45,12.39,12.39,0,0,1,4.73-.85,8.64,8.64,0,0,1,5.59,1.66,5.55,5.55,0,0,1,2.07,4.57,7.85,7.85,0,0,1-.8,3.44,14.28,14.28,0,0,1-3,3.79l-7.85,7.72Z"/><path class="cls-2" d="M524.53,713.35a9.23,9.23,0,0,1-3.27-4.07,17.31,17.31,0,0,1,0-12.51,9.23,9.23,0,0,1,3.27-4.07,8.72,8.72,0,0,1,9.54,0,9.39,9.39,0,0,1,3.28,4.07,17,17,0,0,1,0,12.51,9.39,9.39,0,0,1-3.28,4.07,8.72,8.72,0,0,1-9.54,0Zm8.32-1.88a7.19,7.19,0,0,0,2.39-3.26,16.06,16.06,0,0,0,0-10.37,7.24,7.24,0,0,0-2.39-3.26,6.19,6.19,0,0,0-7.1,0,7.24,7.24,0,0,0-2.39,3.26,16.06,16.06,0,0,0,0,10.37,7.19,7.19,0,0,0,2.39,3.26,6.19,6.19,0,0,0,7.1,0Z"/><path class="cls-2" d="M557.18,691.47v23.11h-2.37v-21h-5.45v-2.12Z"/><path class="cls-2" d="M585.83,694.3c1.62,2,2.44,4.85,2.44,8.53a14.64,14.64,0,0,1-1.32,6.53,9.21,9.21,0,0,1-3.7,4,10.82,10.82,0,0,1-5.54,1.37,10.37,10.37,0,0,1-5.48-1.25l1-1.91a8.09,8.09,0,0,0,4.48,1.08,7.64,7.64,0,0,0,6-2.42q2.18-2.43,2.18-7a18.42,18.42,0,0,0-.1-1.88,6.2,6.2,0,0,1-2.74,2.92,8.69,8.69,0,0,1-4.32,1,9,9,0,0,1-4-.86A6.58,6.58,0,0,1,571.9,702a6.7,6.7,0,0,1-1-3.65,6.66,6.66,0,0,1,3.84-6.22,9.19,9.19,0,0,1,4-.87A8.51,8.51,0,0,1,585.83,694.3Zm-3.68,8.33a5.16,5.16,0,0,0,2.09-1.82,4.64,4.64,0,0,0,0-5A5.14,5.14,0,0,0,582.2,694a7.37,7.37,0,0,0-3.3-.69,6,6,0,0,0-4.08,1.37,5,5,0,0,0,0,7.28,6.29,6.29,0,0,0,4.24,1.35A6.92,6.92,0,0,0,582.15,702.63Z"/></svg>